<svg xmlns="http://www.w3.org/2000/svg" viewBox="0 0 2240.1 1685.48"><defs><style>.cls-1{isolation:isolate;}.cls-10,.cls-12,.cls-13,.cls-2,.cls-6{fill:#fff;}.cls-10,.cls-11,.cls-12,.cls-13,.cls-2,.cls-3{stroke:#2d2d2b;stroke-miterlimit:10;}.cls-11,.cls-2,.cls-3{stroke-width:6.81px;}.cls-3,.cls-9{fill:#64a2d8;}.cls-4,.cls-8{fill:#9ca0b5;}.cls-4,.cls-7{mix-blend-mode:multiply;}.cls-5{fill:#2d2d2b;}.cls-10{stroke-width:6.72px;}.cls-11{fill:none;}.cls-12{stroke-width:7.22px;}.cls-13{stroke-width:7.21px;}</style></defs><title>astronauta</title><g class="cls-1"><g id="Capa_1" data-name="Capa 1"><path class="cls-2" d="M1564.24,1266.91c-.1-109.94,88.93-199.14,198.87-199.25,85.26-.08,147.69,39.54,173.84,92.71h0l388.82,690.57-203.08.19L1728.2,1462.64h0C1635.08,1446.05,1564.33,1364.8,1564.24,1266.91Z" transform="translate(-91.49 -173.51)"/><path class="cls-3" d="M2035.36,1461.15s-110,12.59-142.47,158.86l34,32.51s35.12-144.2,131.54-152.23Z" transform="translate(-91.49 -173.51)"/><path class="cls-3" d="M1983.1,1407.32s-110,12.59-142.48,158.87l34,32.51s35.12-144.2,131.55-152.24Z" transform="translate(-91.49 -173.51)"/><path class="cls-4" d="M1722.23,1461.48l-.35-376.15c.18,0,.35,0,.52,0,55.82,0,101.76,17,134.24,43.62-143.26,170,12.13,506.32,200.35,541.88,51.85,0,89.38-25.42,126.59-72.4l142.19,252.54-203.08.19L1728.2,1462.64h0C1726.22,1462.28,1724.23,1461.88,1722.23,1461.48Z" transform="translate(-91.49 -173.51)"/><path class="cls-5" d="M1777.5,1112.13s-48,271.12.38,398l-96.3-87.17,53.15-332.85S1783.41,1073.73,1777.5,1112.13Z" transform="translate(-91.49 -173.51)"/><path class="cls-5" d="M1877.68,1193.8c-26.14-53.17-88.58-92.79-173.84-92.7a198.05,198.05,0,0,0-118.5,39.26,198.44,198.44,0,0,1,145-62.95c85.27-.08,147.7,39.54,173.85,92.7L2299.67,1851l-44.24,0Z" transform="translate(-91.49 -173.51)"/><path class="cls-2" d="M1994.53,1456.43l93.27-40.29s-18.58-157.49-113.71-192.81l-104,35.51Z" transform="translate(-91.49 -173.51)"/><path class="cls-5" d="M1916.73,1332.88l-36-56.18,104-35.5c30.42-8.59,63.36,20.32,56.53,49.76Z" transform="translate(-91.49 -173.51)"/><path class="cls-2" d="M1907.27,1317.84l-37.16-59,104-35.51c30.42-8.57,63.36,20.33,63.39,52.59Z" transform="translate(-91.49 -173.51)"/><path class="cls-5" d="M1933.7,1317.82s4.09,4.52,9.47,11.79,12.16,17.16,18.43,27.39,12,20.77,16,28.89,6.15,13.82,6.15,13.82-4.11-4.52-9.49-11.78-12.15-17.17-18.42-27.39-12-20.78-15.94-28.91S1933.7,1317.82,1933.7,1317.82Z" transform="translate(-91.49 -173.51)"/><path class="cls-5" d="M1870.11,1258.84s-.16,2.93,0,8c.18,2.54.28,5.62.8,9.12.33,3.52,1.19,7.42,1.85,11.68,1,4.21,1.83,8.82,3.35,13.54.72,2.37,1.35,4.82,2.19,7.27l2.69,7.46c1.69,5.11,4.37,10,6.45,15.29,2.69,5,5.08,10.2,8.08,15.1s5.68,10,9.13,14.52,6.23,9.38,9.75,13.5l9.77,12.2,9.44,10.39c2.88,3.28,5.58,6.23,8.16,8.67s4.72,4.7,6.52,6.51c3.61,3.62,5.62,5.78,5.62,5.78s-2.39-1.68-6.48-4.78l-7.37-5.63-4.53-3.5c-1.47-1.36-3-2.78-4.66-4.27l-10.45-9.74-10.69-11.86c-3.72-4.12-7-8.87-10.49-13.53s-6.37-9.89-9.61-14.86c-3-5.1-5.46-10.56-8.15-15.75-2.14-5.45-4.54-10.7-6.12-16-.83-2.66-1.63-5.28-2.42-7.85s-1.18-5.18-1.75-7.66c-1.27-5-1.64-9.79-2.29-14.18a115,115,0,0,1-.51-12.11c-.05-3.6.24-6.73.4-9.3A58.55,58.55,0,0,1,1870.11,1258.84Z" transform="translate(-91.49 -173.51)"/><path class="cls-5" d="M1870.11,1258.84a22.45,22.45,0,0,0-.84,2.15c-.57,1.38-1.11,3.54-1.89,6.2a78.31,78.31,0,0,0-1.91,9.84,45.67,45.67,0,0,0-.6,6.11c-.08,2.16-.52,4.39-.4,6.76s0,4.83,0,7.37c.16,2.54.49,5.16.73,7.84a53.5,53.5,0,0,0,1.28,8.21c.63,2.77,1,5.63,1.68,8.48,1.76,5.63,3,11.6,5.45,17.31l3.35,8.72c1.23,2.87,2.76,5.65,4.12,8.48s2.69,5.7,4.16,8.48,3.23,5.38,4.83,8l4.71,8,5.22,7.4c3.56,4.76,6.41,9.81,10,13.94,3.44,4.27,6.68,8.31,9.67,12s6,7,8.54,9.91,4.87,5.46,6.72,7.55c3.73,4.23,5.79,6.71,5.79,6.71s-2.47-2-6.71-5.75l-7.62-6.74a99.93,99.93,0,0,1-9.56-9.11l-10.66-11.46c-4-3.93-7.29-8.8-11-13.58l-5.62-7.38c-1.66-2.66-3.34-5.36-5-8.07s-3.38-5.47-5.08-8.24-2.94-5.81-4.41-8.73-2.92-5.84-4.16-8.85-2.26-6.11-3.38-9.13c-2.53-6-3.46-12.32-5.1-18.22-.61-3-1-6-1.34-9a56.84,56.84,0,0,1-.71-8.63c-.06-2.82-.2-5.55-.17-8.19s.36-5.19.52-7.64a76.27,76.27,0,0,1,2.34-13.13,81.81,81.81,0,0,1,3.13-9.77A47.25,47.25,0,0,1,1870.11,1258.84Z" transform="translate(-91.49 -173.51)"/><path class="cls-5" d="M1907.28,1273.7a160.16,160.16,0,0,0,20,5.26c6.07,1.12,13.13,2.39,20.78,3.07,3.8.53,7.77.57,11.77.9s8.11.19,12.19.31l12.2-.29c4-.38,8-.53,11.82-.83,3.81-.51,7.51-.87,11-1.24s6.8-1.07,9.88-1.47,5.91-.8,8.37-1.35l6.45-1.21,5.69-.93-5.31,2.23a119.31,119.31,0,0,1-14.34,5.07c-3,.84-6.29,2-9.84,2.66s-7.29,1.51-11.19,2.19c-3.93.49-8,1-12.14,1.43l-12.61.55c-4.23-.2-8.48-.19-12.62-.57s-8.24-.8-12.15-1.52a110.53,110.53,0,0,1-11.2-2.33c-3.54-.84-6.8-1.92-9.81-2.92a101,101,0,0,1-14-6A56.71,56.71,0,0,1,1907.28,1273.7Z" transform="translate(-91.49 -173.51)"/><path class="cls-5" d="M1901.5,1287.9s1.8.72,5,1.75,7.75,2.24,13.26,3.39c2.78.48,5.75,1.1,8.94,1.5s6.55.81,10,1.07c3.46.43,7.09.24,10.75.48,3.66,0,7.39-.09,11.1-.23,3.72-.32,7.45-.43,11.09-.9s7.26-.84,10.72-1.44,6.8-1.25,10-1.81c3.16-.72,6.15-1.39,8.9-2,5.59-1.11,10.09-2.63,13.36-3.38l5.14-1.25-4.65,2.5a100.58,100.58,0,0,1-12.69,5.83c-2.71,1-5.62,2.22-8.79,3.21s-6.58,1.87-10.12,2.75-7.26,1.46-11,2.07-7.69.78-11.56,1.18c-3.9.07-7.81.12-11.64,0a111.82,111.82,0,0,1-11.23-1.1,81.07,81.07,0,0,1-10.33-2,90.13,90.13,0,0,1-9-2.71,81.1,81.1,0,0,1-12.76-5.88A45.45,45.45,0,0,1,1901.5,1287.9Z" transform="translate(-91.49 -173.51)"/><path class="cls-5" d="M1951.38,1311.85a89.31,89.31,0,0,1,7.16,8,185.66,185.66,0,0,1,24.19,39.61,86,86,0,0,1,3.83,10,87.18,87.18,0,0,1-7.17-8,186.29,186.29,0,0,1-24.18-39.63A88.66,88.66,0,0,1,1951.38,1311.85Z" transform="translate(-91.49 -173.51)"/><path class="cls-5" d="M2072.77,1524.59s-49,144.05-144.37,129.35l194.29,197.19S2204.79,1610.82,2072.77,1524.59Z" transform="translate(-91.49 -173.51)"/><path class="cls-5" d="M1820.8,1299.55s1.31,3.35,3.18,9.34,4.45,14.6,6.64,25.16a329.26,329.26,0,0,1,5.83,36.41c.59,6.74,1.14,13.72,1.17,20.85s-.1,14.38-.72,21.62a176.54,176.54,0,0,1-3.21,21.48,121.65,121.65,0,0,1-6.23,20.2,89.92,89.92,0,0,1-9.24,17.54c-1.72,2.64-3.76,5-5.53,7.35-2,2.23-4,4.25-5.88,6.25-2,1.84-4.09,3.5-6,5.08s-4.08,2.68-5.91,3.91c-3.66,2.5-7.38,3.76-10.14,5.24-2.93,1.17-5.34,1.82-6.92,2.38l-2.44.8,8.78-4.37c2.56-1.76,6-3.35,9.29-6.15a92.76,92.76,0,0,0,10.62-9.59c1.65-2,3.47-4,5.18-6.28,1.53-2.36,3.3-4.67,4.76-7.27a107.1,107.1,0,0,0,7.84-17c2.39-6.08,3.87-12.71,5.4-19.41a173.74,173.74,0,0,0,2.86-20.71c.67-7,.94-14,.93-21s-.16-13.8-.56-20.42c-.83-13.26-2-25.64-3.62-36.21s-2.93-19.39-4.17-25.51S1820.8,1299.55,1820.8,1299.55Z" transform="translate(-91.49 -173.51)"/><path class="cls-5" d="M1836.2,1316.23s1.57,3.25,3.83,9.15a248.9,248.9,0,0,1,8.14,24.92,258.18,258.18,0,0,1,7.07,36.52,185.54,185.54,0,0,1,1.13,21.09,157,157,0,0,1-1.57,21.86,114.05,114.05,0,0,1-5.5,21.39c-1.08,3.5-2.88,6.72-4.31,10-1.9,3.07-3.44,6.31-5.59,9.09a58.07,58.07,0,0,1-6.51,8c-1.18,1.2-2.28,2.45-3.49,3.57l-3.75,3.1a54.9,54.9,0,0,1-7.57,5.37,53.42,53.42,0,0,1-7.57,4.15l-3.63,1.79-3.64,1.29c-2.39.77-4.6,1.64-6.76,2.18-4.36.91-8.07,2-11.21,2.36l-9.88,1.1,9.59-2.39c3.06-.72,6.6-2.15,10.72-3.48,2-.75,4.08-1.83,6.29-2.8l3.39-1.51,3.35-1.93a49.43,49.43,0,0,0,6.92-4.39,53,53,0,0,0,6.76-5.5l3.3-3.11c1-1.1,2-2.34,3-3.52a66,66,0,0,0,5.71-7.64c1.91-2.61,3.21-5.69,4.89-8.56,1.2-3.13,2.81-6.12,3.8-9.4a109.41,109.41,0,0,0,5-20.2c2.18-13.86,2.06-28.1,1.21-41.37-.6-6.62-1.15-13.06-2-19.13s-1.82-11.8-2.82-17.07c-2.09-10.52-4-19.3-5.67-25.37S1836.2,1316.23,1836.2,1316.23Z" transform="translate(-91.49 -173.51)"/><path class="cls-2" d="M1786.66,1198c0,14.11,24,25.52,53.63,25.5s53.59-11.49,53.58-25.61-24-25.52-53.63-25.48S1786.64,1183.86,1786.66,1198Z" transform="translate(-91.49 -173.51)"/><path class="cls-5" d="M1806.23,1192.82c0,8,15.25,14.45,34,14.43s34-6.5,34-14.5-15.26-14.45-34-14.42S1806.22,1184.83,1806.23,1192.82Z" transform="translate(-91.49 -173.51)"/><path class="cls-2" d="M1839.43,1198.34a13.6,13.6,0,0,0,13.51-12.2c17.2-163.79-39.64-208.76-75-221-59.14-20.44-128.69,21.86-161.76,74.55-4,6.37-5.32,6.38,7.58,10.65,6.29,2.72,10.82,2.94,14.81-3.41,31.47-46.73,89.65-70.17,130.48-56.06,47.26,16.32,68,86.45,56.86,192.42a13.6,13.6,0,0,0,12.12,15A11.85,11.85,0,0,0,1839.43,1198.34Z" transform="translate(-91.49 -173.51)"/><path class="cls-2" d="M1143.68,1267.32c-.1-109.94-89.31-199-199.25-198.88-85.26.09-147.62,39.83-173.66,93h0L458.14,1693.89,620.78,1808,980.1,1463.35h0C1073.18,1446.6,1143.77,1365.2,1143.68,1267.32Z" transform="translate(-91.49 -173.51)"/><path class="cls-3" d="M672.93,1462.45s110,12.38,142.78,158.59l-34,32.57s-35.39-144.13-131.84-152Z" transform="translate(-91.49 -173.51)"/><path class="cls-3" d="M725.1,1408.53s110,12.38,142.78,158.59l-34,32.57s-35.38-144.13-131.83-152Z" transform="translate(-91.49 -173.51)"/><path class="cls-4" d="M986.05,1462.19,985.69,1086h-.52c-55.81,0-101.73,17.16-134.15,43.86,143.59,169.74-11.16,506.34-199.32,542.26-51.85,0-99.45-28.09-136.75-75l-56.81,96.75L620.78,1808,980.1,1463.35h0C982.07,1463,984.06,1462.59,986.05,1462.19Z" transform="translate(-91.49 -173.51)"/><path class="cls-5" d="M930.12,1112.94s48.48,271,.38,398l96.14-87.35-53.79-332.76S924.14,1074.56,930.12,1112.94Z" transform="translate(-91.49 -173.51)"/><path class="cls-5" d="M830.1,1194.8c26-53.21,88.4-93,173.67-93a198.21,198.21,0,0,1,118.57,39,198.44,198.44,0,0,0-145.11-62.66c-85.26.08-147.62,39.82-173.66,93l-312.63,532.4,28.61,20.08Z" transform="translate(-91.49 -173.51)"/><path class="cls-2" d="M713.75,1457.65l-93.35-40.1s18.28-157.53,113.35-193l104,35.3Z" transform="translate(-91.49 -173.51)"/><path class="cls-5" d="M791.31,1334l35.91-56.26-104.05-35.3c-30.43-8.51-63.32,20.44-56.43,49.87Z" transform="translate(-91.49 -173.51)"/><path class="cls-2" d="M800.75,1318.9l37-59.08-104-35.3c-30.44-8.51-63.32,20.44-63.29,52.7Z" transform="translate(-91.49 -173.51)"/><path class="cls-5" d="M774.32,1318.93s-2.14,5.71-6.12,13.82-9.68,18.68-15.89,28.94-13,20.19-18.37,27.43-9.46,11.8-9.46,11.8,2.14-5.72,6.12-13.83,9.69-18.67,15.9-28.94,13-20.18,18.38-27.42S774.32,1318.93,774.32,1318.93Z" transform="translate(-91.49 -173.51)"/><path class="cls-5" d="M837.8,1259.82a59.3,59.3,0,0,1,1.3,8c.16,2.58.46,5.7.42,9.31a114.5,114.5,0,0,1-.49,12.1c-.64,4.39-1,9.24-2.26,14.19-.57,2.48-1.06,5.07-1.74,7.66s-1.58,5.19-2.4,7.85c-1.57,5.36-4,10.62-6.09,16.07-2.69,5.2-5.1,10.65-8.12,15.76-3.23,5-6,10.27-9.58,14.88s-6.75,9.43-10.46,13.55-7.28,8.1-10.67,11.89l-10.43,9.75-4.66,4.29-4.52,3.5c-2.84,2.17-5.32,4.08-7.35,5.65-4.09,3.1-6.48,4.79-6.48,4.79s2-2.16,5.61-5.8l6.51-6.52c2.57-2.44,5.27-5.4,8.14-8.68l9.43-10.41,9.74-12.22c3.51-4.13,6.32-9,9.73-13.52s6-9.69,9.09-14.54,5.38-10.14,8.05-15.12c2.08-5.24,4.74-10.17,6.42-15.29.91-2.53,1.81-5,2.69-7.46s1.45-4.91,2.17-7.28c1.51-4.72,2.29-9.34,3.33-13.54.64-4.27,1.5-8.18,1.82-11.69.51-3.5.61-6.58.79-9.13C838,1262.76,837.8,1259.82,837.8,1259.82Z" transform="translate(-91.49 -173.51)"/><path class="cls-5" d="M837.8,1259.82a48.61,48.61,0,0,1,4,7.93,85.22,85.22,0,0,1,3.14,9.76,76.18,76.18,0,0,1,2.36,13.13q.26,3.67.54,7.64c0,2.64-.11,5.37-.16,8.19a56.75,56.75,0,0,1-.68,8.63c-.38,2.94-.73,6-1.33,9-1.63,5.9-2.55,12.28-5.07,18.23l-3.35,9.14c-1.25,3-2.77,5.89-4.15,8.86s-2.85,5.88-4.39,8.74l-5.07,8.24c-1.69,2.72-3.38,5.42-5,8.08l-5.6,7.39c-3.75,4.79-7.07,9.67-11,13.6l-10.64,11.48a99.11,99.11,0,0,1-9.55,9.13l-7.6,6.75c-4.23,3.72-6.7,5.77-6.7,5.77s2.06-2.49,5.77-6.71l6.71-7.57c2.55-3,5.61-6.12,8.52-9.93s6.22-7.78,9.64-12.06c3.6-4.13,6.44-9.2,10-14l5.2-7.4,4.69-8,4.82-8.06c1.46-2.78,2.75-5.66,4.14-8.48s2.88-5.61,4.11-8.5l3.32-8.72c2.46-5.71,3.67-11.68,5.42-17.31.71-2.85,1-5.73,1.67-8.5a52.88,52.88,0,0,0,1.25-8.2c.25-2.68.57-5.3.73-7.84,0-2.55,0-5,0-7.37s-.33-4.6-.4-6.77a48.93,48.93,0,0,0-.62-6.1,82.3,82.3,0,0,0-1.92-9.84c-.8-2.66-1.34-4.81-1.91-6.2S837.8,1259.82,837.8,1259.82Z" transform="translate(-91.49 -173.51)"/><path class="cls-5" d="M800.66,1274.77s-1.72,1.21-5,3a101.32,101.32,0,0,1-14,6c-3,1-6.27,2.1-9.81,2.93a107.59,107.59,0,0,1-11.19,2.35c-3.91.73-8,1.18-12.14,1.55s-8.39.38-12.62.59l-12.62-.52c-4.15-.38-8.21-.93-12.14-1.41-3.9-.68-7.64-1.45-11.19-2.18s-6.81-1.8-9.85-2.63a117.23,117.23,0,0,1-14.35-5c-3.38-1.4-5.31-2.22-5.31-2.22l5.69.92,6.45,1.2c2.47.55,5.31.85,8.38,1.34s6.36,1,9.88,1.44,7.22.74,11,1.24c3.84.28,7.81.42,11.82.8l12.2.26c4.08-.12,8.18,0,12.18-.33s8-.38,11.78-.92c7.65-.69,14.7-2,20.77-3.11A162.94,162.94,0,0,0,800.66,1274.77Z" transform="translate(-91.49 -173.51)"/><path class="cls-5" d="M806.45,1289a44.28,44.28,0,0,1-4.4,3,80.17,80.17,0,0,1-12.75,5.91,87.85,87.85,0,0,1-9,2.72,83,83,0,0,1-10.34,2.06,111.56,111.56,0,0,1-11.22,1.12c-3.84.12-7.74.08-11.64,0-3.88-.39-7.78-.6-11.57-1.15s-7.49-1.26-11-2-6.92-1.85-10.12-2.74-6.09-2.18-8.8-3.2a100.63,100.63,0,0,1-12.7-5.8l-4.66-2.48,5.15,1.23c3.27.75,7.77,2.26,13.36,3.36l8.91,2c3.19.55,6.55,1.1,10,1.79s7.09.83,10.72,1.42,7.38.56,11.09.88c3.72.13,7.45.25,11.11.21,3.65-.24,7.28-.06,10.75-.5,3.49-.27,6.85-.61,10-1.09s6.17-1,9-1.52c5.51-1.16,10.07-2.42,13.25-3.42S806.45,1289,806.45,1289Z" transform="translate(-91.49 -173.51)"/><path class="cls-5" d="M756.63,1313a86.87,86.87,0,0,1-3.82,10,186.13,186.13,0,0,1-24.11,39.68,86,86,0,0,1-7.15,8,87.43,87.43,0,0,1,3.81-10A186.9,186.9,0,0,1,749.49,1321,86.92,86.92,0,0,1,756.63,1313Z" transform="translate(-91.49 -173.51)"/><path class="cls-5" d="M635.64,1526s49.29,144,144.63,129.08l-168.1,157.4S503.79,1612.45,635.64,1526Z" transform="translate(-91.49 -173.51)"/><path class="cls-5" d="M887.19,1300.45s-.68,3.51-1.89,9.66-2.57,15-4.12,25.51-2.74,23-3.55,36.22c-.38,6.62-.53,13.48-.52,20.42s.28,14,1,21A175.85,175.85,0,0,0,881,1434c1.54,6.7,3,13.33,5.43,19.4a108.24,108.24,0,0,0,7.87,17c1.47,2.6,3.25,4.9,4.78,7.26,1.71,2.23,3.53,4.25,5.19,6.28a93.34,93.34,0,0,0,10.64,9.56c3.28,2.8,6.73,4.38,9.3,6.13L933,1504l-2.44-.79c-1.58-.56-4-1.2-6.92-2.36-2.77-1.48-6.49-2.73-10.16-5.23-1.83-1.23-4-2.33-5.91-3.89s-4-3.23-6-5.08c-1.88-2-3.94-4-5.89-6.23-1.78-2.37-3.82-4.7-5.55-7.34a90.72,90.72,0,0,1-9.27-17.53,121.21,121.21,0,0,1-6.27-20.18,180.75,180.75,0,0,1-3.25-21.47c-.62-7.25-.83-14.5-.76-21.63s.56-14.11,1.13-20.84a331.1,331.1,0,0,1,5.76-36.43c2.17-10.57,4.83-19.16,6.6-25.17S887.19,1300.45,887.19,1300.45Z" transform="translate(-91.49 -173.51)"/><path class="cls-5" d="M871.82,1317.15s-1,3.47-2.57,9.56-3.55,14.85-5.61,25.38c-1,5.27-2,11-2.8,17.08s-1.39,12.51-2,19.15c-.83,13.26-.92,27.5,1.29,41.36a109.24,109.24,0,0,0,5,20.18c1,3.28,2.63,6.27,3.83,9.39,1.68,2.87,3,6,4.9,8.56a66.85,66.85,0,0,0,5.72,7.63c1,1.18,2,2.41,3,3.51l3.31,3.11a52.32,52.32,0,0,0,6.78,5.48,49.26,49.26,0,0,0,6.91,4.38l3.37,1.93,3.39,1.5c2.21,1,4.26,2,6.29,2.79,4.12,1.32,7.67,2.74,10.72,3.45,6.11,1.52,9.6,2.37,9.6,2.37l-9.87-1.07c-3.15-.39-6.87-1.44-11.23-2.34-2.16-.54-4.37-1.41-6.76-2.17l-3.64-1.29-3.64-1.77a52.71,52.71,0,0,1-7.57-4.13,56.92,56.92,0,0,1-7.58-5.36l-3.76-3.11c-1.21-1.1-2.31-2.36-3.5-3.56a57.35,57.35,0,0,1-6.52-8c-2.16-2.78-3.7-6-5.61-9.08-1.44-3.28-3.25-6.5-4.34-10a115.48,115.48,0,0,1-5.53-21.39,158.65,158.65,0,0,1-1.61-21.86,186,186,0,0,1,1.09-21.09,258.66,258.66,0,0,1,7-36.52,248.45,248.45,0,0,1,8.08-24.94C870.25,1320.4,871.82,1317.15,871.82,1317.15Z" transform="translate(-91.49 -173.51)"/><polygon class="cls-6" points="862.32 894.31 1670.41 893.53 1605.92 1681.43 928.31 1682.08 862.32 894.31"/><path class="cls-5" d="M1758.21,1070.45l-63.93,781.09-671.35.64-65.42-781,800.7-.77m7.38-6.81h-7.39l-800.7.77h-7.39l.62,7.37,65.41,781,.53,6.25h6.26l671.36-.65h6.26l.52-6.24L1765,1071l.6-7.37Z" transform="translate(-91.49 -173.51)"/><g class="cls-7"><path class="cls-8" d="M1403.63,1070.79c85.53,77.07,139.58,189.7,139.7,315.31.22,232.54-184.28,421.23-412.1,421.45a404.6,404.6,0,0,1-113.39-16.13l5.09,60.76,671.35-.64,63.93-781.09Z" transform="translate(-91.49 -173.51)"/></g><polygon class="cls-5" points="1282.03 1678.34 1252.21 1678.36 1248.58 897.34 1284.15 897.3 1282.03 1678.34"/><polygon class="cls-5" points="1417.77 1678.21 1116.46 1678.5 1084.41 1489.94 1449.45 1489.59 1417.77 1678.21"/><rect class="cls-2" x="1163.98" y="1505.9" width="206.09" height="147.49"/><rect class="cls-2" x="1182.8" y="1505.89" width="168.45" height="147.5"/><path class="cls-5" d="M1352.49,1699s1.4-.24,3.87-.54,6-.74,10.22-1.06c8.46-.71,19.73-1.19,31-1.22s22.54.45,31,1.15c4.23.31,7.75.81,10.22,1s3.88.53,3.88.53-1.41.25-3.88.55-6,.76-10.22,1.07c-8.45.72-19.73,1.19-31,1.22s-22.55-.46-31-1.17c-4.23-.3-7.76-.8-10.23-1S1352.49,1699,1352.49,1699Z" transform="translate(-91.49 -173.51)"/><path class="cls-5" d="M1352.5,1709.82s1.41-.25,3.88-.54,6-.75,10.21-1.07c8.45-.71,19.73-1.19,31-1.21s22.55.45,31,1.15c4.23.3,7.75.81,10.22,1s3.88.53,3.88.53-1.41.25-3.88.55-6,.75-10.21,1.06c-8.46.72-19.73,1.2-31,1.22s-22.55-.46-31-1.16c-4.22-.31-7.75-.81-10.21-1S1352.5,1709.82,1352.5,1709.82Z" transform="translate(-91.49 -173.51)"/><path class="cls-5" d="M1352.51,1720.66s5.64-.45,14.1-.8c4.22-.11,9.16-.38,14.44-.44l16.56-.2,16.56.17c5.28,0,10.22.3,14.45.41,8.45.33,14.09.77,14.09.77s-5.64.45-14.09.8c-4.23.11-9.17.39-14.45.44l-16.56.2-16.56-.17c-5.28,0-10.21-.3-14.44-.42C1358.15,1721.09,1352.51,1720.66,1352.51,1720.66Z" transform="translate(-91.49 -173.51)"/><path class="cls-5" d="M1352.52,1731.49s1.41-.25,3.87-.54,6-.75,10.22-1.07c8.46-.71,19.73-1.19,31-1.22s22.55.45,31,1.15c4.23.31,7.75.82,10.22,1s3.87.54,3.87.54-1.4.25-3.87.55-6,.75-10.22,1.07c-8.45.71-19.72,1.18-31,1.21s-22.55-.46-31-1.16c-4.22-.31-7.75-.8-10.22-1S1352.52,1731.49,1352.52,1731.49Z" transform="translate(-91.49 -173.51)"/><path class="cls-5" d="M1352.53,1742.32s5.63-.45,14.1-.79c4.22-.12,9.16-.38,14.44-.44l16.56-.2,16.55.16c5.29,0,10.22.31,14.45.42,8.46.33,14.1.77,14.1.77s-5.64.45-14.1.8c-4.22.12-9.16.38-14.44.44l-16.56.19-16.56-.17c-5.28,0-10.22-.3-14.44-.41C1358.16,1742.77,1352.53,1742.32,1352.53,1742.32Z" transform="translate(-91.49 -173.51)"/><path class="cls-5" d="M1352.54,1753.16s1.41-.25,3.87-.54,6-.74,10.22-1.07c8.45-.71,19.73-1.18,31-1.22s22.54.46,31,1.15c4.23.32,7.75.82,10.22,1.06s3.88.53,3.88.53-1.41.25-3.88.55-6,.76-10.22,1.07c-8.44.71-19.73,1.18-31,1.21s-22.55-.46-31-1.16c-4.23-.31-7.76-.81-10.23-1S1352.54,1753.16,1352.54,1753.16Z" transform="translate(-91.49 -173.51)"/><path class="cls-5" d="M1352.55,1764s1.41-.25,3.88-.55,6-.74,10.21-1.06c8.46-.71,19.73-1.19,31-1.22s22.56.45,31,1.15c4.23.31,7.75.81,10.22,1s3.88.54,3.88.54-1.41.25-3.88.54-6,.76-10.21,1.07c-8.46.72-19.73,1.19-31,1.21s-22.54-.46-31-1.16c-4.23-.3-7.75-.8-10.21-1S1352.55,1764,1352.55,1764Z" transform="translate(-91.49 -173.51)"/><path class="cls-5" d="M1352.56,1774.83s5.64-.45,14.1-.79c4.22-.12,9.15-.38,14.43-.45s10.93-.12,16.57-.19l16.56.17c5.28,0,10.22.3,14.45.4,8.45.33,14.08.78,14.08.78s-5.63.45-14.08.79c-4.23.12-9.17.39-14.45.44l-16.56.2-16.56-.17c-5.28,0-10.22-.3-14.44-.41C1358.2,1775.27,1352.56,1774.83,1352.56,1774.83Z" transform="translate(-91.49 -173.51)"/><path class="cls-5" d="M1352.57,1785.66s1.36-.24,3.75-.54,5.78-.74,9.87-1.06c8.17-.71,19.06-1.19,30-1.22s21.79.45,30,1.16c4.07.3,7.48.81,9.86,1s3.75.54,3.75.54-1.36.24-3.75.54-5.78.76-9.86,1.08c-8.18.71-19.07,1.18-30,1.21s-21.79-.47-30-1.17c-4.08-.31-7.49-.8-9.87-1S1352.57,1785.66,1352.57,1785.66Z" transform="translate(-91.49 -173.51)"/><path class="cls-5" d="M1372.58,1796.48a96.54,96.54,0,0,1,10.22-1.6,213.43,213.43,0,0,1,22.5-1.22,209.22,209.22,0,0,1,22.49,1.17,95.18,95.18,0,0,1,10.23,1.59,96.49,96.49,0,0,1-10.23,1.6,208.19,208.19,0,0,1-22.49,1.21,212,212,0,0,1-22.5-1.17A97.09,97.09,0,0,1,1372.58,1796.48Z" transform="translate(-91.49 -173.51)"/><path class="cls-5" d="M1392.59,1807.3s2.84-.45,7.11-.79c2.13-.12,4.62-.37,7.29-.43l8.36-.19,8.36.17c2.66,0,5.15.3,7.29.42,4.27.33,7.11.77,7.11.77s-2.84.45-7.11.8c-2.13.11-4.62.38-7.29.43l-8.36.19-8.36-.18c-2.66,0-5.15-.3-7.29-.42C1395.43,1807.74,1392.59,1807.3,1392.59,1807.3Z" transform="translate(-91.49 -173.51)"/><path class="cls-9" d="M1088.71,1762.58a29.37,29.37,0,0,1-26.06-15.85c-8.65-16-2.11-38.16,14.28-48.48,86.2-54.38,183.7-83.13,281.94-83.13,97.9,0,195.11,28.56,281.12,82.59,16.41,10.29,23,32.49,14.37,48.47a29.38,29.38,0,0,1-26.08,15.88h0a31.78,31.78,0,0,1-16.9-5c-77.27-48.54-164.59-74.2-252.5-74.2-88.21,0-175.78,25.83-253.23,74.69A31.89,31.89,0,0,1,1088.71,1762.58Z" transform="translate(-91.49 -173.51)"/><path class="cls-5" d="M1358.87,1618.53c96.09,0,192.21,27.35,279.31,82.07,15.14,9.49,20.88,29.7,13.18,44a26,26,0,0,1-23.08,14.1,28.43,28.43,0,0,1-15.09-4.46c-79.31-49.82-166.8-74.72-254.31-74.72-87.78,0-175.58,25.07-255,75.21a28.45,28.45,0,0,1-15.13,4.49,26,26,0,0,1-23.07-14.06c-7.71-14.24-2-34.46,13.1-44,87.3-55.06,183.7-82.59,280.13-82.59m0-6.82c-98.88,0-197,28.93-283.76,83.66-17.85,11.25-24.93,35.51-15.45,53a32.72,32.72,0,0,0,29,17.62,35.2,35.2,0,0,0,18.75-5.53c76.91-48.51,163.84-74.16,251.42-74.16,87.28,0,173.95,25.48,250.69,73.68a35.29,35.29,0,0,0,18.71,5.5,32.73,32.73,0,0,0,29.08-17.69c9.44-17.48,2.32-41.74-15.57-53-86.54-54.37-184.38-83.12-282.92-83.12Z" transform="translate(-91.49 -173.51)"/><path class="cls-5" d="M1638.2,1727.5l-22.27-12.2-11.72-6.46-14.25-6.66-16.17-7.56c-5.67-2.71-12-4.85-18.34-7.47l-20-7.86-22-6.93-11.44-3.61c-3.9-1.1-7.92-1.94-11.94-3l-24.61-6c-17-2.76-34.39-6.66-52.44-7.92-17.93-2.4-36.31-2.35-54.63-3-18.32.71-36.7.68-54.62,3.12-18.06,1.3-35.43,5.23-52.42,8l-24.6,6.1c-4,1-8,1.86-11.94,3l-11.43,3.63-21.94,7-20,7.9c-6.37,2.64-12.66,4.78-18.33,7.51l-16.17,7.6q-7.64,3.6-14.25,6.69L1101,1715.8,1078.77,1728l21.59-13.4,11.45-7,14-7.3,15.94-8.32c5.6-3,11.88-5.23,18.22-8.06l20-8.47,22-7.59,11.45-4c3.9-1.21,7.94-2.18,12-3.3l24.81-6.48c17.14-3,34.72-7.09,53-8.56,18.14-2.61,36.75-2.78,55.32-3.61,18.56.81,37.18.93,55.31,3.51,18.26,1.43,35.85,5.51,53,8.46l24.81,6.44c4,1.11,8.07,2.06,12,3.27l11.47,3.94,22,7.55,20,8.42c6.35,2.83,12.64,5.06,18.24,8l16,8.29,14,7.27,11.44,6.94Z" transform="translate(-91.49 -173.51)"/><g class="cls-7"><path class="cls-8" d="M1651.36,1744.56c-7.69,14.28-24.61,18.13-38.17,9.64A486.32,486.32,0,0,0,1450,1688.62a26,26,0,0,0,22.16-14.08c7.68-14.27,1.95-34.47-13.19-44-1.62-1-3.27-2-4.9-3,63.61,12.11,125.89,36.39,184.13,73C1653.32,1710.09,1659.06,1730.3,1651.36,1744.56Z" transform="translate(-91.49 -173.51)"/></g><path class="cls-5" d="M1637.88,1050.35l-20,71.84s55.56,137.06-42.49,540.88l51.17,29.7S1772.55,1176.48,1637.88,1050.35Z" transform="translate(-91.49 -173.51)"/><path class="cls-2" d="M1650.32,1703l-48.82-28.88c63.28-206.43,103.63-417.43,40-623.72l60.5-39.43C1801.38,1286.43,1719,1543.48,1650.32,1703Z" transform="translate(-91.49 -173.51)"/><path class="cls-5" d="M1682.91,1081.9a12.22,12.22,0,0,1-8.47-3.52A12,12,0,0,1,1671,1070a12.18,12.18,0,0,1,3.46-8.48,12.43,12.43,0,0,1,16.89,0,12.2,12.2,0,0,1,3.52,8.47,12,12,0,0,1-11.92,12Z" transform="translate(-91.49 -173.51)"/><path class="cls-5" d="M1654.24,1609.44a12,12,0,0,1-7.47-15.15h0a12,12,0,0,1,15.21-7.41h0a11.9,11.9,0,0,1,7.41,15.15h0a11.93,11.93,0,0,1-11.27,8.06h0A12.2,12.2,0,0,1,1654.24,1609.44Zm18.44-56.76a12,12,0,0,1-8.25-14.73h0a11.89,11.89,0,0,1,14.73-8.19h0a11.89,11.89,0,0,1,8.25,14.74h0a11.9,11.9,0,0,1-11.44,8.65h0A10.2,10.2,0,0,1,1672.68,1552.68ZM1688,1495a11.94,11.94,0,0,1-9.08-14.24h0a11.89,11.89,0,0,1,14.19-9h0a11.87,11.87,0,0,1,9.09,14.2h0a11.92,11.92,0,0,1-11.64,9.37h0A12.58,12.58,0,0,1,1688,1495Zm11.76-58.48a11.92,11.92,0,0,1-10-13.59h0a12,12,0,0,1,13.65-10h0a12,12,0,0,1,10,13.66h0a12,12,0,0,1-11.81,10h0A9.59,9.59,0,0,1,1699.72,1436.54Zm8-59.07a11.92,11.92,0,0,1-10.81-13h0a11.91,11.91,0,0,1,12.93-10.86h0a11.91,11.91,0,0,1,10.82,12.93h0a11.93,11.93,0,0,1-11.87,10.87h-1.07Zm4.06-59.56a11.89,11.89,0,0,1-11.71-12.16h0a12,12,0,0,1,12.16-11.71h0a12,12,0,0,1,11.71,12.16h0a12,12,0,0,1-11.92,11.71h-.24ZM1699.12,1247a11.91,11.91,0,0,1,11.33-12.54h0a11.94,11.94,0,0,1,12.54,11.32h0a12,12,0,0,1-11.33,12.54h-.59A11.93,11.93,0,0,1,1699.12,1247Zm-5.07-58.59a11.93,11.93,0,0,1,10.37-13.31h0a12,12,0,0,1,13.32,10.42h0a12,12,0,0,1-10.43,13.32h0c-.47,0-1,.06-1.43.06h0A11.88,11.88,0,0,1,1694.05,1188.39Zm-9.3-58.05a12,12,0,0,1,9.41-14h0a12,12,0,0,1,14,9.4h0a12,12,0,0,1-9.41,14h0a10.82,10.82,0,0,1-2.32.24h0A12,12,0,0,1,1684.75,1130.34Z" transform="translate(-91.49 -173.51)"/><path class="cls-5" d="M1637.53,1666.08a12,12,0,0,1-8.49-20.4,12.41,12.41,0,0,1,16.88,0,12,12,0,0,1-8.39,20.42Z" transform="translate(-91.49 -173.51)"/><path class="cls-5" d="M1698.1,1045.71s1.77,4,4.4,11.27,6.38,17.6,10,30.29c1.89,6.34,3.8,13.23,5.72,20.56s3.8,15.09,5.67,23.13c1.64,8.09,3.55,16.43,5,25s3,17.24,4.1,26,2.27,17.5,3,26.16q.57,6.48,1.14,12.85.32,6.38.6,12.59t.54,12.16c0,4,0,7.88-.08,11.67-.05,7.58,0,14.74-.5,21.35-.31,6.61-.74,12.65-1.13,18-.65,5.33-1.22,10-1.68,13.8-1,7.62-1.61,12-1.61,12s.1-4.39.28-12.08c.14-3.84.3-8.5.48-13.83-.1-5.35-.22-11.38-.17-17.94s-.29-13.66-.63-21.17q-.27-5.64-.54-11.54-.47-5.91-.94-12t-.93-12.45q-.67-6.29-1.37-12.71c-.77-8.57-2-17.23-3.16-25.89-1-8.68-2.54-17.29-3.84-25.8l-4.38-24.89c-1.72-8-3-15.87-4.62-23.21s-3-14.32-4.6-20.7c-3-12.8-5.54-23.47-7.58-30.88S1698.1,1045.71,1698.1,1045.71Z" transform="translate(-91.49 -173.51)"/><path class="cls-5" d="M1665.88,1090.16s1.71,4.39,4,12.31c2.49,7.88,5.17,19.33,8.33,33.14,1.21,7,2.53,14.5,3.92,22.48q1,6,2.1,12.3.69,6.33,1.42,12.94c.93,8.79,1.88,17.88,2.85,27.12.64,9.25.82,18.69,1.26,28.1.23,9.43.75,18.85.72,28.13-.33,9.27-.66,18.4-1,27.23s-.79,17.35-1.16,25.44-1.68,15.66-2.38,22.68c-1.58,14-3.31,25.68-4.32,33.84s-1.82,12.78-1.82,12.78.19-4.7.51-12.93.84-20,1.8-34c.36-7,1.19-14.6,1.25-22.66s.09-16.54.13-25.32.27-17.84.4-27.06c0-9.21-.66-18.56-1-27.9s-.46-18.71-1-27.9c-.76-9.18-1.51-18.21-2.24-27q-.51-6.57-1-12.89c-.51-4.18-1-8.29-1.49-12.28-1-8-1.91-15.54-2.78-22.51-1.24-6.91-2.25-13.27-3.14-18.92s-1.87-10.52-2.7-14.54-1.36-7.22-1.94-9.35S1665.88,1090.16,1665.88,1090.16Z" transform="translate(-91.49 -173.51)"/><path class="cls-5" d="M1730,1398s-.89,8.11-2.79,20.16c-1,6-2.08,13.06-3.48,20.55s-2.93,15.49-4.61,23.47l-5.26,23.31c-1.49,7.48-4,14.23-5.63,20.12-3.57,11.7-6.19,19.37-6.19,19.37s1.59-8,4.35-19.89c.7-3,1.46-6.16,2.27-9.55s1.57-7,2.33-10.71c1.54-7.45,3.17-15.41,4.81-23.37,1.82-7.91,3.57-15.84,5-23.31s3.19-14.38,4.49-20.34C1728.05,1405.87,1730,1398,1730,1398Z" transform="translate(-91.49 -173.51)"/><path class="cls-5" d="M1665.42,1467.33s-.89,8.11-2.8,20.16c-1,6-2.07,13.06-3.46,20.56s-2.94,15.49-4.62,23.45-3.58,15.88-5.26,23.32c-1.49,7.48-4,14.23-5.63,20.11-3.56,11.71-6.19,19.38-6.19,19.38s1.59-8,4.34-19.88l2.28-9.56c.87-3.36,1.57-7,2.32-10.71l4.82-23.36c1.82-7.92,3.57-15.85,5-23.32s3.18-14.38,4.48-20.34C1663.46,1475.25,1665.42,1467.33,1665.42,1467.33Z" transform="translate(-91.49 -173.51)"/><path class="cls-5" d="M1077.8,1050.89l20.12,71.8s-55.31,137.17,43.52,540.79l-51.11,29.8S943.37,1177.27,1077.8,1050.89Z" transform="translate(-91.49 -173.51)"/><path class="cls-2" d="M1066.61,1703.51l48.76-29c-63.68-206.31-104.43-417.23-41.15-623.65l-60.58-39.31C914.75,1287.28,997.62,1544.18,1066.61,1703.51Z" transform="translate(-91.49 -173.51)"/><path class="cls-5" d="M1032.83,1082.52a12.19,12.19,0,0,0,8.46-3.53,12,12,0,0,0,3.46-8.42,12.18,12.18,0,0,0-3.48-8.47,12.42,12.42,0,0,0-16.88,0,12.23,12.23,0,0,0-3.51,8.48,12.09,12.09,0,0,0,3.53,8.42A12,12,0,0,0,1032.83,1082.52Z" transform="translate(-91.49 -173.51)"/><path class="cls-5" d="M1058.62,1610.67h0a12,12,0,0,1-11.28-8.05h0a11.9,11.9,0,0,1,7.39-15.16h0a11.94,11.94,0,0,1,15.22,7.38h0a12,12,0,0,1-7.45,15.17A12.49,12.49,0,0,1,1058.62,1610.67Zm-17.94-56.91h0a11.91,11.91,0,0,1-11.47-8.64h0a11.88,11.88,0,0,1,8.22-14.74h0a11.88,11.88,0,0,1,14.75,8.16h0a12,12,0,0,1-8.22,14.75A10.46,10.46,0,0,1,1040.68,1553.76ZM1026,1496h0a11.91,11.91,0,0,1-11.64-9.36h0a11.86,11.86,0,0,1,9-14.21h0a11.9,11.9,0,0,1,14.21,9h0a11.94,11.94,0,0,1-9.06,14.26A11.79,11.79,0,0,1,1026,1496Zm-11.16-58.64h0a12,12,0,0,1-11.82-10h0a12,12,0,0,1,10-13.67h0a11.94,11.94,0,0,1,13.67,9.95h0a11.92,11.92,0,0,1-9.94,13.62A9.74,9.74,0,0,1,1014.84,1437.32Zm-7.33-59.18h0a12,12,0,0,1-11.89-10.86h0a11.91,11.91,0,0,1,10.79-13h0a11.93,11.93,0,0,1,13,10.84h0a11.93,11.93,0,0,1-10.79,13Zm-3.34-59.55h0a12,12,0,0,1-11.94-11.68h0a12,12,0,0,1,11.68-12.19h0a11.93,11.93,0,0,1,12.18,11.69h0a11.89,11.89,0,0,1-11.68,12.18ZM1005,1259h-.6a12,12,0,0,1-11.35-12.52h0a12,12,0,0,1,12.52-11.35h0A11.94,11.94,0,0,1,1005,1259Zm5.07-59.44h0c-.47,0-1,0-1.43,0h0a12,12,0,0,1-10.45-13.3h0a12,12,0,0,1,13.29-10.46h0a12,12,0,0,1-1.41,23.81Zm9.31-58.9h0a10.15,10.15,0,0,1-2.32-.23h0a12,12,0,0,1-9.44-14h0a12,12,0,0,1,14-9.43h0a12,12,0,0,1-2.25,23.68Z" transform="translate(-91.49 -173.51)"/><path class="cls-5" d="M1079.33,1666.62a12.16,12.16,0,0,0,8.46-3.53,12,12,0,0,0,0-16.89,12.4,12.4,0,0,0-16.88,0,12,12,0,0,0,8.44,20.4Z" transform="translate(-91.49 -173.51)"/><path class="cls-5" d="M1017.57,1046.37s-1.14,4.24-3.13,11.67-4.52,18.1-7.52,30.89c-1.54,6.39-3,13.34-4.56,20.71s-2.87,15.2-4.58,23.22c-1.4,8.07-2.85,16.42-4.33,24.9-1.28,8.51-2.82,17.13-3.79,25.82-1.2,8.65-2.36,17.31-3.11,25.88q-.67,6.42-1.34,12.72-.47,6.32-.91,12.44t-.91,12c-.18,3.94-.35,7.8-.52,11.54-.33,7.51-.74,14.62-.59,21.19s0,12.57-.14,17.93c.19,5.34.36,10,.5,13.82.2,7.7.31,12.09.31,12.09s-.59-4.35-1.63-12c-.47-3.83-1.05-8.47-1.71-13.8-.4-5.35-.84-11.39-1.16-18-.5-6.61-.48-13.77-.54-21.35,0-3.79-.07-7.68-.11-11.67q.26-6,.52-12.17t.57-12.58c.37-4.24.75-8.54,1.12-12.86.69-8.66,1.76-17.42,2.91-26.17s2.69-17.43,4.06-26,3.32-16.89,4.94-25c1.85-8.06,3.6-15.85,5.63-23.15s3.79-14.23,5.68-20.56c3.61-12.71,7.4-23.06,9.95-30.32S1017.57,1046.37,1017.57,1046.37Z" transform="translate(-91.49 -173.51)"/><path class="cls-5" d="M1049.88,1090.76s-.27,1.14-.77,3.29-1,5.34-1.91,9.35-1.89,8.87-2.68,14.55-1.87,12-3.1,18.92c-.85,7-1.77,14.53-2.74,22.52q-.71,6-1.46,12.28-.48,6.33-1,12.9c-.71,8.73-1.44,17.77-2.18,27-.54,9.18-.62,18.55-1,27.9s-.88,18.69-.9,27.9c.15,9.22.3,18.28.45,27.06s.12,17.27.18,25.32.92,15.64,1.29,22.65c1,14,1.39,25.78,1.87,34s.53,12.94.53,12.94l-1.84-12.79c-1-8.15-2.78-19.79-4.38-33.83-.72-7-2-14.6-2.43-22.67s-.79-16.62-1.21-25.44-.69-18-1-27.23c-.05-9.27.46-18.7.68-28.13.42-9.41.58-18.85,1.21-28.11.94-9.23,1.87-18.32,2.78-27.12.47-4.39,1-8.71,1.4-12.94.71-4.19,1.41-8.3,2.08-12.3,1.38-8,2.68-15.53,3.88-22.5,3.13-13.8,5.79-25.25,8.26-33.14C1048.16,1095.14,1049.88,1090.76,1049.88,1090.76Z" transform="translate(-91.49 -173.51)"/><path class="cls-5" d="M986.34,1398.68s2,7.9,4.7,19.8c1.31,6,3,12.86,4.53,20.32s3.25,15.4,5.09,23.31c1.65,8,3.3,15.9,4.86,23.36.75,3.73,1.47,7.34,2.34,10.71s1.58,6.59,2.29,9.54c2.78,11.85,4.39,19.88,4.39,19.88s-2.64-7.67-6.24-19.37c-1.62-5.87-4.16-12.62-5.66-20.09-1.69-7.45-3.5-15.38-5.31-23.32s-3.31-15.93-4.65-23.44-2.48-14.54-3.52-20.56C987.23,1406.77,986.34,1398.68,986.34,1398.68Z" transform="translate(-91.49 -173.51)"/><path class="cls-5" d="M1051.05,1467.92s2,7.91,4.71,19.8c1.31,6,3,12.87,4.53,20.33s3.25,15.4,5.09,23.31c1.65,8,3.31,15.9,4.86,23.35.76,3.74,1.47,7.34,2.35,10.71s1.57,6.59,2.29,9.55c2.78,11.85,4.38,19.87,4.38,19.87s-2.64-7.66-6.23-19.36c-1.62-5.88-4.16-12.63-5.67-20.1-1.69-7.44-3.5-15.38-5.31-23.31s-3.31-15.93-4.65-23.45-2.47-14.53-3.51-20.55C1052,1476,1051.05,1467.92,1051.05,1467.92Z" transform="translate(-91.49 -173.51)"/><polygon class="cls-10" points="1517.92 1489.52 1015.94 1490 1009.58 1469.59 1524.25 1469.09 1517.92 1489.52"/><polygon class="cls-2" points="1524.25 1469.09 1009.58 1469.59 985.45 1097.97 1547.67 1097.44 1524.25 1469.09"/><polygon class="cls-11" points="1468.17 1469.14 1065.66 1469.53 1046.71 1097.92 1486.4 1097.5 1468.17 1469.14"/><line class="cls-11" x1="1193.2" y1="1330.11" x2="1058.31" y2="1330.24"/><path class="cls-5" d="M1476.09,1545.16c-1.08-23.21-19.56-44.14-43.79-44.74v-18.76a74,74,0,1,0-148.08.13l0,18.77c-24.22.65-42.66,21.61-43.7,44.82,1.15,83.66-87.43,97.67-87.43,97.67l410.61-.39S1475.09,1628.81,1476.09,1545.16Z" transform="translate(-91.49 -173.51)"/><path class="cls-3" d="M1358.21,1437.75a46,46,0,0,0-45.91,46l.15,159.14,91.91-.09-.16-159.14A45.94,45.94,0,0,0,1358.21,1437.75Z" transform="translate(-91.49 -173.51)"/><path class="cls-3" d="M1431.89,1519.37a27.64,27.64,0,0,0-27.63,27.68l.1,95.75,55.29,0-.1-95.77A27.64,27.64,0,0,0,1431.89,1519.37Z" transform="translate(-91.49 -173.51)"/><path class="cls-3" d="M1284.69,1519.51a27.65,27.65,0,0,0-27.62,27.68l.09,95.76,55.29-.06-.09-95.76A27.64,27.64,0,0,0,1284.69,1519.51Z" transform="translate(-91.49 -173.51)"/><path class="cls-5" d="M1383.1,1477.43s.31,2.59.67,7.11.91,11,1.3,18.74c.88,15.5,1.47,36.17,1.52,56.85s-.55,41.35-1.41,56.85c-.37,7.76-1,14.22-1.27,18.74s-.65,7.11-.65,7.11-.3-2.59-.67-7.11-.92-11-1.31-18.73c-.88-15.51-1.46-36.18-1.5-56.86s.55-41.35,1.4-56.85c.37-7.75,1-14.21,1.27-18.73S1383.1,1477.43,1383.1,1477.43Z" transform="translate(-91.49 -173.51)"/><path class="cls-5" d="M1368.07,1498.72s1.15,7.68,2,19.19,1.45,26.88,1.49,42.23-.55,30.72-1.41,42.23-1.93,19.2-1.93,19.2-1.15-7.68-2-19.19-1.44-26.88-1.48-42.24.56-30.71,1.41-42.22S1368.07,1498.72,1368.07,1498.72Z" transform="translate(-91.49 -173.51)"/><polyline class="cls-11" points="1257.76 1097.72 1257.87 1206.94 1480.69 1206.73"/><rect class="cls-5" x="1086.7" y="1149.51" width="51.9" height="48.77"/><rect class="cls-2" x="1182.16" y="1325.98" width="36.58" height="36.59" transform="translate(-92.92 -172.23) rotate(-0.06)"/><rect class="cls-5" x="1243.99" y="1322.96" width="51.89" height="48.77" transform="translate(-93.01 -172.08) rotate(-0.06)"/><rect class="cls-3" x="1156.47" y="1152.41" width="36.58" height="36.58"/><rect class="cls-3" x="1305.71" y="1121.17" width="145.98" height="10.21"/><rect class="cls-3" x="1305.73" y="1144.15" width="145.99" height="10.21"/><rect class="cls-3" x="1305.75" y="1167.12" width="145.98" height="10.21"/><path class="cls-5" d="M1478,1398.21s5.64-1.14,14.1-2,19.72-1.45,31-1.48,22.54.55,31,1.41,14.09,1.94,14.09,1.94-5.64,1.15-14.09,2-19.73,1.45-31,1.47-22.55-.56-31-1.42S1478,1398.21,1478,1398.21Z" transform="translate(-91.49 -173.51)"/><path class="cls-5" d="M1478.06,1414.37s5.64-1.14,14.09-2,19.73-1.45,31-1.48,22.56.56,31,1.42,14.1,1.94,14.1,1.94-5.64,1.15-14.1,2-19.72,1.44-31,1.47-22.55-.57-31-1.42S1478.06,1414.37,1478.06,1414.37Z" transform="translate(-91.49 -173.51)"/><path class="cls-5" d="M1478.07,1430.54s5.64-.54,14.1-1c4.22-.14,9.15-.46,14.44-.53l16.56-.24c5.63.07,11.28.15,16.56.2s10.22.38,14.45.51c8.46.41,14.09,1,14.09,1s-5.63.55-14.09,1c-4.23.14-9.16.46-14.45.53l-16.55.24-16.57-.22c-5.29,0-10.22-.36-14.44-.5C1483.71,1431.08,1478.07,1430.54,1478.07,1430.54Z" transform="translate(-91.49 -173.51)"/><path class="cls-5" d="M1478.09,1446.71s5.63-1.14,14.09-2,19.73-1.45,31-1.48,22.54.56,31,1.41,14.1,1.94,14.1,1.94-5.64,1.15-14.09,2-19.74,1.45-31,1.48-22.55-.57-31-1.43S1478.09,1446.71,1478.09,1446.71Z" transform="translate(-91.49 -173.51)"/><path class="cls-5" d="M1478.1,1462.88s5.65-.55,14.1-1c4.23-.14,9.16-.46,14.44-.53l16.56-.25,16.57.21c5.28.05,10.21.37,14.44.51,8.45.4,14.1.94,14.1.94s-5.65.55-14.1,1c-4.23.14-9.16.46-14.44.52s-10.93.16-16.56.25l-16.57-.22c-5.28,0-10.21-.36-14.44-.5C1483.75,1463.41,1478.1,1462.88,1478.1,1462.88Z" transform="translate(-91.49 -173.51)"/><path class="cls-5" d="M1478.12,1479.05s5.64-1.15,14.09-2,19.74-1.46,31-1.49,22.55.56,31,1.42,14.1,1.94,14.1,1.94-5.64,1.15-14.09,2-19.74,1.44-31,1.48-22.55-.58-31-1.43S1478.12,1479.05,1478.12,1479.05Z" transform="translate(-91.49 -173.51)"/><path class="cls-5" d="M1478.14,1495.21s5.63-1.14,14.09-2,19.73-1.45,31-1.48,22.55.56,31,1.41,14.1,1.94,14.1,1.94-5.64,1.16-14.09,2-19.74,1.45-31,1.48-22.55-.57-31-1.43S1478.14,1495.21,1478.14,1495.21Z" transform="translate(-91.49 -173.51)"/><path class="cls-5" d="M1478.15,1511.38s5.64-.55,14.1-1c4.22-.14,9.15-.46,14.44-.53l16.56-.24,16.56.2c5.28.06,10.22.37,14.44.51,8.46.4,14.1.94,14.1.94s-5.64.56-14.09,1c-4.23.14-9.16.46-14.45.53l-16.56.24-16.56-.21c-5.28-.06-10.21-.38-14.44-.51C1483.79,1511.92,1478.15,1511.38,1478.15,1511.38Z" transform="translate(-91.49 -173.51)"/><path class="cls-5" d="M1478.17,1527.55s5.44-1.14,13.62-2,19-1.45,29.94-1.48a299.74,299.74,0,0,1,30,1.42c8.16.79,13.61,1.93,13.61,1.93a136.85,136.85,0,0,1-13.61,2c-8.17.88-19.06,1.45-30,1.48s-21.8-.57-30-1.43S1478.17,1527.55,1478.17,1527.55Z" transform="translate(-91.49 -173.51)"/><path class="cls-5" d="M1498.18,1543.7a80.73,80.73,0,0,1,10.22-2,173.88,173.88,0,0,1,22.49-1.47,171.13,171.13,0,0,1,22.5,1.42,80.6,80.6,0,0,1,10.22,1.94,80.25,80.25,0,0,1-10.22,2,171.73,171.73,0,0,1-22.49,1.48,175.88,175.88,0,0,1-22.49-1.44A82.33,82.33,0,0,1,1498.18,1543.7Z" transform="translate(-91.49 -173.51)"/><path class="cls-5" d="M1518.19,1559.84s2.85-.55,7.11-1,10-.77,15.65-.76,11.39.33,15.66.73,7.11,1,7.11,1-2.84.55-7.11,1-10,.78-15.65.76-11.39-.33-15.66-.73S1518.19,1559.84,1518.19,1559.84Z" transform="translate(-91.49 -173.51)"/><path class="cls-5" d="M1239.9,1398.44s-5.63,1.14-14.09,2-19.73,1.45-31,1.49-22.55-.56-31-1.42-14.09-1.94-14.09-1.94,5.63-1.15,14.09-2,19.73-1.44,31-1.48,22.55.58,31,1.43S1239.9,1398.44,1239.9,1398.44Z" transform="translate(-91.49 -173.51)"/><path class="cls-5" d="M1239.92,1414.6s-5.64,1.15-14.09,2-19.73,1.46-31,1.49-22.55-.56-31-1.42-14.1-1.94-14.1-1.94,5.64-1.15,14.09-2,19.73-1.44,31-1.47,22.55.57,31,1.42S1239.92,1414.6,1239.92,1414.6Z" transform="translate(-91.49 -173.51)"/><path class="cls-5" d="M1239.93,1430.77s-5.63.55-14.09,1c-4.23.15-9.16.46-14.45.53l-16.55.24-16.56-.2c-5.29-.06-10.22-.38-14.45-.51-8.45-.41-14.09-.94-14.09-.94s5.64-.56,14.09-1c4.22-.14,9.16-.46,14.44-.53l16.56-.24,16.56.22c5.29.05,10.22.37,14.45.5C1234.3,1430.23,1239.93,1430.77,1239.93,1430.77Z" transform="translate(-91.49 -173.51)"/><path class="cls-5" d="M1240,1446.94s-5.63,1.14-14.09,2-19.73,1.44-31,1.48-22.56-.56-31-1.42-14.1-1.94-14.1-1.94,5.64-1.14,14.09-2,19.73-1.44,31-1.47,22.55.57,31,1.42S1240,1446.94,1240,1446.94Z" transform="translate(-91.49 -173.51)"/><path class="cls-5" d="M1240,1463.1s-5.65.55-14.09,1c-4.23.15-9.17.47-14.45.53s-10.92.17-16.56.25l-16.56-.21c-5.28-.05-10.22-.37-14.45-.5-8.45-.41-14.09-1-14.09-1s5.64-.55,14.09-1c4.23-.15,9.16-.47,14.45-.54l16.56-.23,16.56.21c5.28.06,10.21.37,14.45.5C1234.32,1462.57,1240,1463.1,1240,1463.1Z" transform="translate(-91.49 -173.51)"/><path class="cls-5" d="M1240,1479.27s-5.64,1.14-14.09,2-19.73,1.45-31,1.48-22.55-.55-31-1.41-14.09-1.94-14.09-1.94,5.63-1.15,14.09-2,19.72-1.44,31-1.48,22.55.57,31,1.43S1240,1479.27,1240,1479.27Z" transform="translate(-91.49 -173.51)"/><path class="cls-5" d="M1240,1527.77s-5.44,1.15-13.61,2-19.06,1.45-30,1.49-21.79-.56-30-1.42-13.62-1.94-13.62-1.94,5.44-1.15,13.62-2,19.06-1.44,30-1.47,21.78.57,30,1.42S1240,1527.77,1240,1527.77Z" transform="translate(-91.49 -173.51)"/><path class="cls-5" d="M1220,1544a79.35,79.35,0,0,1-10.22,2,175.14,175.14,0,0,1-45,.06,79.78,79.78,0,0,1-10.23-2,83,83,0,0,1,10.22-2,174.62,174.62,0,0,1,45,0A82.38,82.38,0,0,1,1220,1544Z" transform="translate(-91.49 -173.51)"/><path class="cls-5" d="M1200.07,1560.14s-2.85.56-7.12,1-10,.78-15.65.76-11.38-.32-15.65-.73-7.11-.94-7.11-.94,2.84-.56,7.11-1,10-.78,15.65-.77,11.38.34,15.65.74S1200.07,1560.14,1200.07,1560.14Z" transform="translate(-91.49 -173.51)"/><path class="cls-2" d="M1645.7,1203.86a36.68,36.68,0,1,1-36.71-36.65A36.66,36.66,0,0,1,1645.7,1203.86Z" transform="translate(-91.49 -173.51)"/><path class="cls-5" d="M1628,1203.88a18.94,18.94,0,1,1-19-18.93A18.94,18.94,0,0,1,1628,1203.88Z" transform="translate(-91.49 -173.51)"/><path class="cls-2" d="M1143.62,1204.33a36.68,36.68,0,1,1-36.71-36.64A36.68,36.68,0,0,1,1143.62,1204.33Z" transform="translate(-91.49 -173.51)"/><path class="cls-5" d="M1125.89,1204.35a18.95,18.95,0,1,1-19-18.92A18.94,18.94,0,0,1,1125.89,1204.35Z" transform="translate(-91.49 -173.51)"/><path class="cls-9" d="M1361.82,1197.76c-97.89,0-195.08-28.56-281.09-82.6-16.42-10.29-23-32.48-14.38-48.46a29.38,29.38,0,0,1,26.08-15.89,31.87,31.87,0,0,1,16.9,5c77.28,48.54,164.58,74.2,252.5,74.2,88.21,0,175.78-25.82,253.23-74.68a31.9,31.9,0,0,1,17-5,29.37,29.37,0,0,1,26,15.85c8.65,16,2.12,38.16-14.27,48.48-86.2,54.38-183.7,83.13-281.94,83.14Z" transform="translate(-91.49 -173.51)"/><path class="cls-5" d="M1632,1053.7a26,26,0,0,1,23.06,14.06c7.72,14.24,2,34.46-13.1,44-87.28,55.06-183.71,82.6-280.12,82.6-96.11,0-192.21-27.35-279.31-82.06-15.15-9.5-20.88-29.72-13.19-44a26,26,0,0,1,23.08-14.11,28.35,28.35,0,0,1,15.09,4.47c79.31,49.82,166.82,74.72,254.31,74.72,87.79,0,175.56-25.07,255.05-75.21a28.42,28.42,0,0,1,15.13-4.49m0-6.81h0a35.22,35.22,0,0,0-18.76,5.54c-76.91,48.52-163.85,74.16-251.42,74.16-87.27,0-173.95-25.48-250.69-73.68a35.27,35.27,0,0,0-18.71-5.5,32.73,32.73,0,0,0-29.07,17.68c-9.44,17.49-2.32,41.75,15.55,53,86.56,54.38,184.4,83.11,282.94,83.11,98.88,0,197-28.93,283.76-83.65,17.84-11.25,24.92-35.52,15.45-53a32.73,32.73,0,0,0-29-17.63Z" transform="translate(-91.49 -173.51)"/><path class="cls-5" d="M1642,1084.85s-7.86,4.86-21.59,13.38q-5.19,3.13-11.43,7l-14,7.3-16,8.32c-5.6,3-11.88,5.24-18.23,8.08l-20,8.46-21.94,7.59-11.46,4c-3.91,1.21-7.94,2.17-12,3.29l-24.81,6.49c-17.14,3-34.71,7.1-53,8.56-18.13,2.61-36.74,2.77-55.31,3.61-18.58-.79-37.19-.92-55.33-3.49-18.25-1.44-35.83-5.52-53-8.47l-24.82-6.43c-4-1.11-8.07-2.06-12-3.27l-11.46-4c-7.54-2.58-14.87-5.11-22-7.53l-20-8.44c-6.35-2.83-12.64-5.06-18.24-8l-16-8.29-14-7.26-11.47-7-21.61-13.34,22.27,12.18q5.29,2.94,11.7,6.46l14.25,6.66,16.2,7.57c5.67,2.72,12,4.84,18.34,7.47l20,7.86,22,6.92q5.64,1.79,11.44,3.61c3.89,1.1,7.91,1.94,11.93,2.94,8,2,16.27,4,24.62,6.07,17,2.75,34.38,6.65,52.43,7.91,17.93,2.4,36.31,2.35,54.63,3,18.32-.7,36.7-.68,54.63-3.12,18-1.29,35.43-5.23,52.41-8l24.61-6.09c4-1,8-1.86,11.93-3l11.44-3.64,21.93-7,20-7.9c6.37-2.64,12.66-4.78,18.32-7.5l16.16-7.59q7.62-3.59,14.24-6.69l11.7-6.48Z" transform="translate(-91.49 -173.51)"/><polygon class="cls-6" points="1551.06 50.55 1581.35 50.52 1581.55 248.09 1551.25 248.12 1551.06 50.55"/><path class="cls-5" d="M1669.44,227.43l.18,190.78-23.48,0L1646,227.46l23.49,0m6.8-6.81h-6.8l-23.49,0h-6.81v6.8l.18,190.77V425h6.8l23.49,0h6.81V418.2l-.18-190.77v-6.81Z" transform="translate(-91.49 -173.51)"/><polygon class="cls-2" points="1611.3 435.43 1521.85 435.52 1521.67 244.75 1611.12 244.66 1611.3 435.43"/><path class="cls-6" d="M1657.68,238.18a30.63,30.63,0,1,1,21.69-9,30.67,30.67,0,0,1-21.69,9Z" transform="translate(-91.49 -173.51)"/><path class="cls-5" d="M1657.68,180.32a27.23,27.23,0,0,1,0,54.46h0a27.23,27.23,0,0,1,0-54.46h0m0-6.81h0a34,34,0,1,0,34.06,34,34.08,34.08,0,0,0-34.06-34Z" transform="translate(-91.49 -173.51)"/><path class="cls-12" d="M1657.71,231.66c-15,0-27.36-9.5-30.07-22.08a24.23,24.23,0,0,0-.59,5.13c0,15,13.75,27.22,30.67,27.2s30.62-12.22,30.6-27.26a24.23,24.23,0,0,0-.59-5.13C1685,222.11,1672.65,231.64,1657.71,231.66Z" transform="translate(-91.49 -173.51)"/><line class="cls-6" x1="1560.17" y1="77.16" x2="1560.32" y2="231.74"/><path class="cls-5" d="M1651.66,250.67s.3,2.42.67,6.64.91,10.27,1.3,17.51c.87,14.49,1.46,33.82,1.51,53.14s-.55,38.64-1.4,53.14c-.37,7.24-1,13.28-1.27,17.51s-.66,6.64-.66,6.64-.3-2.41-.67-6.64-.92-10.27-1.31-17.51c-.88-14.49-1.46-33.81-1.5-53.14s.56-38.64,1.41-53.14c.38-7.24,1-13.28,1.27-17.5S1651.66,250.67,1651.66,250.67Z" transform="translate(-91.49 -173.51)"/><line class="cls-6" x1="1554.66" y1="254.84" x2="1554.73" y2="322.51"/><path class="cls-5" d="M1646.15,428.35s.55,4.22,1,10.57.78,14.8.77,23.26-.31,16.92-.72,23.27-1,10.57-1,10.57-.55-4.23-1-10.57-.77-14.81-.76-23.26.33-16.92.73-23.27S1646.15,428.35,1646.15,428.35Z" transform="translate(-91.49 -173.51)"/><line class="cls-6" x1="1564.92" y1="267.29" x2="1564.98" y2="334.96"/><path class="cls-5" d="M1656.41,440.8s.55,4.23,1,10.58.77,14.8.77,23.26-.32,16.92-.72,23.26-1,10.58-1,10.58-.55-4.23-1-10.58-.77-14.8-.76-23.26.33-16.92.72-23.26S1656.41,440.8,1656.41,440.8Z" transform="translate(-91.49 -173.51)"/><path class="cls-3" d="M1686.83,955.86A30,30,0,0,1,1657,986l-49.19,0a30,30,0,0,1-29.94-30h0a30,30,0,0,1,29.88-30.1l49.19-.05a30,30,0,0,1,29.94,30.05Z" transform="translate(-91.49 -173.51)"/><rect class="cls-9" x="1561.76" y="597.97" width="71.54" height="81.69"/><path class="cls-5" d="M1721.35,774.86l.07,74.88-64.73.06-.07-74.89,64.73,0m6.8-6.82h-6.81l-64.72.06h-6.82v6.81l.07,74.88v6.81h6.81l64.73-.07h6.8v-6.81l-.06-74.88V768Z" transform="translate(-91.49 -173.51)"/><path class="cls-3" d="M1037.37,956.47a30,30,0,0,0,29.94,30l49.19,0a30,30,0,0,0,29.88-30.09h0a30,30,0,0,0-29.94-30l-49.19,0a30,30,0,0,0-29.88,30.09Z" transform="translate(-91.49 -173.51)"/><rect class="cls-9" x="907.65" y="598.6" width="71.54" height="81.69"/><path class="cls-5" d="M1067.23,775.48l.07,74.88-64.73.07-.07-74.89,64.73-.06m6.81-6.81h-6.81l-64.73.06h-6.81v6.81l.07,74.88v6.81h6.81l64.73-.06h6.81v-6.8l-.07-74.88v-6.81Z" transform="translate(-91.49 -173.51)"/><path class="cls-6" d="M1038.57,641.67c18-146.29,83.69-295.1,323-295.33,143.8,0,237.52,51.7,287.08,158.06,19.78,42.46,30.54,90.15,36.39,136.86-26.16-83.65-102-138.75-322-138.75h-1.3C1140.57,502.72,1064.61,556.28,1038.57,641.67Z" transform="translate(-91.49 -173.51)"/><path class="cls-5" d="M1362.07,349.74h0c141.77,0,234.48,51.07,283.43,156.08,15.66,33.59,25.62,70.54,32,107.7a157.15,157.15,0,0,0-20.39-31.63c-47-56.48-140.48-82.79-294.1-82.78h-1.31c-155.37.14-249.51,27-296.24,84.57a155.41,155.41,0,0,0-19.5,31c6.13-36.6,15.77-72.81,30.9-106.1,48.51-106.72,141.64-158.66,284.7-158.8h.55m0-6.81h-.56c-331.66.32-333.23,282.57-333.08,455.17-.15-170.81,1.57-291.87,333.25-292.19H1363c327.23,0,332.26,118.67,332.49,286.67-.24-172.87-5.41-449.62-333.39-449.65Zm333.39,449.65q0,3.7,0,7.37c0-2.48,0-4.92,0-7.37Zm-667,5.52v0Zm0,0v0Zm0,.33v0Zm0,.11Zm0,0v0Zm0,.18v0Zm0,.06v0Zm0,.49v0Zm0,.05v0Zm0,.55v0Zm0,0v0Zm667,0v0Zm0,0v0Zm0,.18v0Zm-667,.31v0Zm0,.13v0Z" transform="translate(-91.49 -173.51)"/><path class="cls-6" d="M1361.72,1075.21c-93,0-177.39-25.42-237.63-71.57C1059.36,954.08,1025.11,884,1025,801c-.14-142.36-.31-319.54,188.52-377.79l4.4-1.36.1,103.35,276.83-.27-.1-106.23,4.31,1.18c199.47,54.42,199.64,235.21,199.79,380.48.08,83.09-34.1,153.29-98.83,203-60.26,46.28-144.73,71.8-237.83,71.89Z" transform="translate(-91.49 -173.51)"/><path class="cls-5" d="M1498.19,423.13c196.93,53.73,197.14,232.65,197.28,377.2.16,172.31-149.06,271.3-333.26,271.48h-.49c-184,0-333.12-98.69-333.29-270.84-.13-142-.26-317,186.12-374.54l.1,102.14,283.64-.27-.1-105.17m-6.81-8.91v8.92l.09,98.36-270,.26-.09-95.34v-9.21l-8.8,2.72c-191.23,59-191.06,237.56-190.93,381,.09,84.12,34.8,155.14,100.4,205.39,60.84,46.59,146,72.26,239.7,72.26h.5c93.85-.09,179-25.88,239.9-72.6,65.6-50.38,100.24-121.5,100.16-205.7-.14-146.42-.32-328.65-202.3-383.75l-8.6-2.35Z" transform="translate(-91.49 -173.51)"/><path class="cls-6" d="M1361.77,1007.5c-159.36,0-275.11-94.33-275.23-224.3-.07-68.13-.15-145.35,34.24-206.33,39.93-70.82,118.72-105.3,240.86-105.42h.61c121.87,0,200.54,34.37,240.53,105.09,34.42,60.89,34.49,138.05,34.56,206.12.06,65.86-27.89,122.55-80.83,164-50.11,39.19-119.13,60.82-194.36,60.89Z" transform="translate(-91.49 -173.51)"/><path class="cls-5" d="M1362.25,474.92c271.33,0,271.48,173,271.62,307.76s-121.54,221.2-271.72,221.34h-.38c-150,0-271.63-86-271.76-220.82s-.3-308,271.63-308.28h.61m0-6.95v0h-.61c-123.51.12-203.28,35.19-243.89,107.2-34.83,61.77-34.75,139.48-34.69,208,.07,65.94,29.31,125,82.35,166.41,50.71,39.56,120.44,61.35,196.36,61.35h.38c76-.08,145.79-22,196.5-61.62,53-41.49,82.23-100.68,82.16-166.68-.06-68.5-.14-146.13-35-207.83C1565.13,502.93,1485.48,468,1362.26,468Z" transform="translate(-91.49 -173.51)"/><path class="cls-3" d="M1620.68,801c.12,123.12-115.64,205.48-258.53,205.61s-258.8-82-258.92-205.12S1103,520.27,1361.68,520,1620.56,677.83,1620.68,801Z" transform="translate(-91.49 -173.51)"/><path class="cls-5" d="M1602.9,797c.11,114.67-107.7,194.16-240.76,194.28s-241-79.15-241.14-193.82-.25-261.86,240.7-262.1S1602.79,682.3,1602.9,797Z" transform="translate(-91.49 -173.51)"/><path class="cls-6" d="M1361.85,1133.45c-81.32,0-162.06-23.72-233.5-68.61-13.87-8.69-19.42-27.45-12.13-41a25,25,0,0,1,22.15-13.49,27,27,0,0,1,14.33,4.23c64,40.21,136.33,61.46,209.15,61.47,73.08,0,145.61-21.4,209.77-61.87A27,27,0,0,1,1586,1010a24.94,24.94,0,0,1,22.12,13.44c7.32,13.51,1.8,32.28-12,41-71.6,45.18-152.58,69-234.19,69.06Z" transform="translate(-91.49 -173.51)"/><path class="cls-5" d="M1586,1013.36a21.57,21.57,0,0,1,19.13,11.66c6.4,11.82,1.68,28.59-10.87,36.5-72.41,45.68-152.4,68.52-232.38,68.52-79.73,0-159.45-22.68-231.71-68.08-12.57-7.88-17.32-24.64-10.94-36.48a21.56,21.56,0,0,1,19.15-11.69,23.58,23.58,0,0,1,12.52,3.7c65.79,41.32,138.38,62,211,62,72.84,0,145.65-20.79,211.58-62.39a23.65,23.65,0,0,1,12.56-3.72m0-6.81h0a30.4,30.4,0,0,0-16.18,4.77c-63.63,40.14-135.53,61.35-208,61.35-72.17,0-143.87-21.08-207.34-61a30.49,30.49,0,0,0-16.14-4.74,28.28,28.28,0,0,0-25.14,15.28c-8.11,15-2,35.86,13.31,45.47,72,45.22,153.36,69.12,235.33,69.12,82.25,0,163.86-24.06,236-69.57,15.3-9.64,21.36-30.48,13.23-45.5a28.34,28.34,0,0,0-25.12-15.23Z" transform="translate(-91.49 -173.51)"/><path class="cls-5" d="M1594.23,1039.2l-17.85,11.19-9.46,5.82c-3.59,1.88-7.46,3.93-11.6,6.11s-8.57,4.5-13.22,7-9.85,4.37-15.11,6.75l-16.56,7.07-18.21,6.34c-3.13,1.09-6.29,2.2-9.51,3.31s-6.58,1.83-9.93,2.77l-20.59,5.41c-14.24,2.49-28.83,5.92-44,7.15-15.06,2.19-30.52,2.33-46,3-15.43-.67-30.89-.79-46-2.94-15.16-1.2-29.76-4.61-44-7.07l-20.6-5.37c-3.35-.93-6.7-1.73-9.94-2.74l-9.52-3.3-18.21-6.31-16.57-7c-5.27-2.37-10.49-4.23-15.12-6.72l-13.22-6.92-11.61-6.09-9.48-5.81-17.88-11.17,18.53,10,9.72,5.3,11.85,5.48,13.46,6.21c4.7,2.24,9.92,4,15.21,6.16l16.62,6.47,18.21,5.69,9.49,3c3.23.91,6.57,1.6,9.9,2.42l20.41,5c14.07,2.27,28.48,5.49,43.44,6.52,14.86,2,30.09,1.92,45.27,2.46,15.18-.56,30.39-.53,45.25-2.53,15-1.07,29.37-4.31,43.44-6.62l20.4-5c3.33-.82,6.66-1.52,9.89-2.43l9.48-3,18.2-5.72,16.61-6.51c5.29-2.17,10.5-3.94,15.21-6.18l13.42-6.23,11.83-5.5,9.73-5.34Z" transform="translate(-91.49 -173.51)"/><path class="cls-5" d="M1126.62,1020.49l4.2,2.86c2.63,1.87,6.53,4.31,11.17,7.3,4.52,3.15,10.27,6.1,16.06,9.8,3,1.73,6.13,3.36,9.29,5.12s6.3,3.64,9.68,5.06l9.84,4.78a77.29,77.29,0,0,0,9.68,4.26c3.21,1.21,6.27,2.49,9.19,3.69a62,62,0,0,0,8.32,3.08c10.53,3.13,17.57,5.49,17.57,5.49s-7.23-1.28-18.12-3.65a63.37,63.37,0,0,1-8.59-2.58c-3-1-6.21-2.08-9.47-3.29a79.46,79.46,0,0,1-9.9-4.11l-10-4.64c-3.39-1.51-6.49-3.59-9.69-5.32s-6.31-3.56-9.27-5.37c-5.78-3.85-11.24-7.35-15.62-10.76-4.5-3.25-8-6.24-10.5-8.34S1126.62,1020.49,1126.62,1020.49Z" transform="translate(-91.49 -173.51)"/><path class="cls-5" d="M1126.65,1047.43s.78.79,2.22,2,3.61,2.89,6.07,5l4.29,3a56.77,56.77,0,0,0,4.91,3.1l5.29,3.24,5.73,2.89c1.92.95,3.75,2.11,5.72,2.89l5.74,2.42c1.86.78,3.64,1.62,5.33,2.39s3.41,1.2,4.94,1.74c6.13,2.17,10.21,3.9,10.21,3.9s-4.31-.66-10.77-2.07c-1.6-.38-3.36-.73-5.19-1.22s-3.69-1.22-5.62-1.94l-6-2.22c-2-.76-3.94-1.91-5.93-2.86l-5.83-3.08-5.3-3.59c-3.52-2.2-6.23-5.06-8.78-7.14a60.16,60.16,0,0,1-5.32-6A20.52,20.52,0,0,1,1126.65,1047.43Z" transform="translate(-91.49 -173.51)"/><path class="cls-5" d="M1594.21,1023.45s-1.3,1.31-3.78,3.38-6,5.1-10.48,8.37-9.82,6.93-15.6,10.78c-3,1.82-6.1,3.55-9.26,5.38s-6.29,3.84-9.68,5.36l-10,4.65a80.91,80.91,0,0,1-9.88,4.13c-3.27,1.23-6.46,2.29-9.47,3.31a62.07,62.07,0,0,1-8.59,2.59c-10.89,2.4-18.11,3.7-18.11,3.7s7-2.39,17.56-5.53a62.65,62.65,0,0,0,8.31-3.1c2.92-1.21,6-2.49,9.19-3.7a79.58,79.58,0,0,0,9.67-4.29l9.83-4.8c3.37-1.42,6.47-3.42,9.67-5.08s6.31-3.4,9.27-5.14c5.79-3.71,11.54-6.66,16-9.83,4.64-3,8.55-5.43,11.16-7.32Z" transform="translate(-91.49 -173.51)"/><path class="cls-5" d="M1594.24,1050.39a21,21,0,0,1-1.72,2.48,58.5,58.5,0,0,1-5.31,6c-2.55,2.09-5.25,5-8.77,7.16l-5.29,3.6-5.82,3.09c-2,1-3.9,2.1-5.93,2.87l-6,2.23c-1.94.74-3.83,1.36-5.62,2s-3.59.84-5.19,1.22c-6.45,1.43-10.75,2.09-10.75,2.09s4.07-1.73,10.19-3.91c1.54-.55,3.21-1.07,4.94-1.75s3.47-1.62,5.33-2.4,3.78-1.61,5.73-2.44,3.8-1.94,5.72-2.9l5.72-2.9,5.29-3.25a54.32,54.32,0,0,0,4.9-3.12l4.28-3c2.46-2.09,4.75-3.62,6.07-5S1594.24,1050.39,1594.24,1050.39Z" transform="translate(-91.49 -173.51)"/><g class="cls-7"><path class="cls-8" d="M1518,429.3a124.38,124.38,0,0,1,10.86,51.63,135,135,0,0,1-2.34,24.83c-4.83-2.44-9.94-4.7-15.21-6.87,29.94,72.43,30.06,159.27,30.13,236.35.17,172.31-149.06,271.3-333.25,271.48a476.85,476.85,0,0,1-83.75-7.14c60.55,47.13,144.69,72.32,237.75,72.23,184.2-.18,333.42-99.17,333.26-271.48C1695.34,660.84,1695,489.41,1518,429.3Z" transform="translate(-91.49 -173.51)"/></g><g class="cls-7"><path class="cls-8" d="M1605.12,1025c-6.41-11.83-20.46-15-31.69-7.94a403.31,403.31,0,0,1-135.29,54.67,21.54,21.54,0,0,1,18.4,11.65c6.4,11.81,1.69,28.58-10.86,36.49-1.34.85-2.72,1.64-4.06,2.47a442.78,442.78,0,0,0,152.63-60.84C1606.8,1053.61,1611.52,1036.84,1605.12,1025Z" transform="translate(-91.49 -173.51)"/></g><path class="cls-5" d="M1236.67,490.36c-.21-3-.34-6.05-.35-9.15,0-25.63,7-103.51,18.44-120.24a381.48,381.48,0,0,0-48.88,12.18c-7.25,15.08-11.48,88.21-11.46,108.1a134,134,0,0,0,2.38,24.82A244.62,244.62,0,0,1,1236.67,490.36Z" transform="translate(-91.49 -173.51)"/><path class="cls-5" d="M1486.64,490.12c.2-3,.34-6.05.33-9.15,0-25.63-7.21-103.49-18.67-120.2a381.05,381.05,0,0,1,48.91,12.08c7.27,15.07,11.65,88.19,11.67,108.08a135,135,0,0,1-2.34,24.83A244.79,244.79,0,0,0,1486.64,490.12Z" transform="translate(-91.49 -173.51)"/><path class="cls-5" d="M1050.82,796.84s-.23-8.82-.63-24.25c-.15-7.72-.28-17.09-.29-27.85s0-22.91.68-36.15,1.52-27.6,3.24-42.73a369.13,369.13,0,0,1,8.06-47.27,281,281,0,0,1,16-48.88,233.46,233.46,0,0,1,26.54-46.19,201.45,201.45,0,0,1,37.64-37.75c6.83-5.59,14.29-10.15,21.53-14.84,3.71-2.2,7.53-4.14,11.25-6.2l5.58-3,5.74-2.58,11.34-5.11,11.44-4.17c7.49-2.92,15.13-4.8,22.46-6.93a366.21,366.21,0,0,1,42-8.63c6.55-1.15,12.87-1.86,18.9-2.38s11.72-1.26,17.1-1.49c10.77-.41,20.14-1.11,27.86-1.09l24.27.13-24.22,1.19c-7.7.32-17,1.42-27.69,2.29-5.34.47-11,1.45-16.92,2.22s-12.22,1.57-18.68,2.91a364.39,364.39,0,0,0-41.32,9.62c-7.16,2.3-14.62,4.34-21.89,7.41l-11.15,4.28-11,5.09-5.59,2.57-5.42,3c-3.61,2-7.31,4-10.91,6.12-7,4.64-14.21,9.13-20.79,14.61a196,196,0,0,0-36.13,36.86,226.62,226.62,0,0,0-26.15,44.63,273.7,273.7,0,0,0-16.1,47.73,448.2,448.2,0,0,0-8.88,46.49c-2.11,14.93-3.43,29.16-4.34,42.32s-1.51,25.26-2,36-.73,20.09-.92,27.8C1051.07,788,1050.82,796.84,1050.82,796.84Z" transform="translate(-91.49 -173.51)"/><path class="cls-5" d="M1038.43,763.6s.57,6.8,1.43,17c.42,5.09,1.09,11,1.76,17.35s1.49,13.08,2.56,19.77c.89,6.73,2.08,13.4,3.36,19.63.68,3.1,1.35,6.09,2,8.94s1.46,5.47,2.11,7.92c1.6,4.82,2.7,8.95,3.95,11.65l1.7,4.38s-.83-1.5-2.3-4.11a90.8,90.8,0,0,1-5.16-11.31,160.12,160.12,0,0,1-5.16-16.82c-1.43-6.28-2.8-13-3.84-19.78s-1.65-13.6-2.14-20-.59-12.39-.72-17.51C1037.87,770.43,1038.43,763.6,1038.43,763.6Z" transform="translate(-91.49 -173.51)"/><path class="cls-5" d="M1431.26,424.92s-10.66-1.26-26.67-2.48c-8-.64-17.36-1.2-27.37-1.62s-20.7-.65-31.38-.6c-5.34.12-10.68.1-15.93.3s-10.43.4-15.4.88-9.83.68-14.38,1.29-8.87,1-12.82,1.64l-10.79,1.83c-3.22.5-6,1.31-8.24,1.79l-7.2,1.59,7-2.24c2.25-.64,5-1.64,8.14-2.37l10.73-2.49c4-.82,8.28-1.42,12.84-2.21s9.42-1.22,14.44-1.77,10.22-.72,15.51-1.11,10.67-.35,16-.53c10.75.11,21.51.38,31.56,1.06s19.4,1.74,27.4,2.66C1420.77,422.59,1431.26,424.92,1431.26,424.92Z" transform="translate(-91.49 -173.51)"/><path class="cls-6" d="M1403.2,570.8c14.24,14.2-89.77,23.27-159.4,93s-78.48,173.78-92.72,159.58-28.44-141.28,41.18-211S1389,556.59,1403.2,570.8Z" transform="translate(-91.49 -173.51)"/><path class="cls-6" d="M1432.49,656a43.05,43.05,0,1,1-43.09-43A43,43,0,0,1,1432.49,656Z" transform="translate(-91.49 -173.51)"/><path class="cls-2" d="M1611.34,479.27l113,66.87.1,102.07s-29.77,6-36.77,0C1686.76,597.05,1647.83,508.86,1611.34,479.27Z" transform="translate(-91.49 -173.51)"/><path class="cls-4" d="M1611.34,479.27l113,66.87.1,102.07s-29.77,6-36.77,0C1686.76,597.05,1647.83,508.86,1611.34,479.27Z" transform="translate(-91.49 -173.51)"/><line class="cls-6" x1="1564.99" y1="344.14" x2="1641.76" y2="393.41"/><path class="cls-5" d="M1656.48,517.66s5.41,2.12,13,6.05,17.56,9.58,27.17,15.72,18.88,12.8,25.61,18.14,10.94,9.35,10.94,9.35-5.41-2.12-13-6-17.56-9.58-27.17-15.72-18.87-12.82-25.6-18.16S1656.48,517.66,1656.48,517.66Z" transform="translate(-91.49 -173.51)"/><line class="cls-6" x1="1569.69" y1="361.54" x2="1641.06" y2="406.7"/><path class="cls-5" d="M1661.18,535.05a133.16,133.16,0,0,1,12.19,5.41c7.15,3.51,16.38,8.67,25.31,14.29s17.53,11.79,23.77,16.75,10.1,8.71,10.1,8.71a131.06,131.06,0,0,1-12.19-5.4,289.28,289.28,0,0,1-25.32-14.3c-8.91-5.67-17.52-11.8-23.76-16.76A129.8,129.8,0,0,1,1661.18,535.05Z" transform="translate(-91.49 -173.51)"/><line class="cls-6" x1="1575.62" y1="379.26" x2="1636.33" y2="418.21"/><path class="cls-5" d="M1667.11,552.77s4.09,2,10,5.29,13.69,7.87,21.27,12.76,15,10,20.46,14,9,6.9,9,6.9-4.09-2-10-5.28-13.69-7.88-21.27-12.77-15-10-20.46-14S1667.11,552.77,1667.11,552.77Z" transform="translate(-91.49 -173.51)"/><path class="cls-2" d="M1761.27,713.47a36.78,36.78,0,0,1-36.74,36.81h0a36.77,36.77,0,0,1-36.8-36.74L1687.61,583a36.77,36.77,0,0,1,36.73-36.81h0a36.77,36.77,0,0,1,36.8,36.74Z" transform="translate(-91.49 -173.51)"/><path class="cls-5" d="M1747.89,608.9a23.49,23.49,0,1,1-23.51-23.46A23.48,23.48,0,0,1,1747.89,608.9Z" transform="translate(-91.49 -173.51)"/><path class="cls-6" d="M1724.49,589.65a19.75,19.75,0,0,0-2.88.24,19.16,19.16,0,0,1,.05,38.07,19.26,19.26,0,1,0,2.83-38.31Z" transform="translate(-91.49 -173.51)"/><path class="cls-5" d="M1748,691.48A23.5,23.5,0,1,1,1724.45,668,23.52,23.52,0,0,1,1748,691.48Z" transform="translate(-91.49 -173.51)"/><path class="cls-6" d="M1724.58,672.23a18.37,18.37,0,0,0-2.89.25,19.16,19.16,0,0,1,0,38.06,19.26,19.26,0,1,0,2.84-38.31Z" transform="translate(-91.49 -173.51)"/><polygon class="cls-2" points="1014.64 757.38 961.38 757.42 931.51 681.43 999.58 681.37 1014.64 757.38"/><polygon class="cls-2" points="988.23 757.4 934.98 757.45 908.31 681.45 973.18 681.39 988.23 757.4"/><path class="cls-5" d="M1035.8,919.75c-2.39-4.1-4.48-8.3-6.46-12.54s-3.84-8.52-5.6-12.84c-3.57-8.62-6.59-17.43-9.49-26.28l-1.44-4.4,4.48.1c7.88.19,15.75.48,23.62,1s15.76,1.14,23.63,2.2c-7.87,1.08-15.75,1.73-23.62,2.26s-15.75.81-23.62,1l3-4.29c3.27,8.73,6.41,17.49,9,26.45,1.32,4.47,2.57,9,3.65,13.52S1035.11,915.05,1035.8,919.75Z" transform="translate(-91.49 -173.51)"/><path class="cls-5" d="M1083.24,864.82a67.23,67.23,0,0,1,3.77,8.57,139.77,139.77,0,0,1,5.54,19.45,138.08,138.08,0,0,1,2.7,20,66.59,66.59,0,0,1,0,9.37,66.08,66.08,0,0,1-3.78-8.58,138.64,138.64,0,0,1-5.54-19.44,141.15,141.15,0,0,1-2.69-20A66.52,66.52,0,0,1,1083.24,864.82Z" transform="translate(-91.49 -173.51)"/><polygon class="cls-2" points="1526.53 756.88 1579.79 756.83 1609.52 680.78 1541.44 680.85 1526.53 756.88"/><polygon class="cls-2" points="1552.94 756.86 1606.19 756.8 1632.71 680.76 1567.85 680.82 1552.94 756.86"/><path class="cls-5" d="M1688.33,919.12c.69-4.69,1.67-9.28,2.77-13.83s2.31-9.06,3.63-13.53c2.58-9,5.71-17.73,9-26.46l3,4.29c-7.88-.2-15.75-.48-23.62-1s-15.75-1.14-23.63-2.21c7.87-1.09,15.75-1.73,23.62-2.26s15.75-.81,23.62-1l4.48-.12-1.43,4.4c-2.88,8.86-5.89,17.68-9.44,26.3-1.75,4.32-3.58,8.62-5.57,12.85S1690.72,915,1688.33,919.12Z" transform="translate(-91.49 -173.51)"/><path class="cls-5" d="M1640.79,864.29a67.3,67.3,0,0,1,0,9.37,140.75,140.75,0,0,1-2.65,20,138.82,138.82,0,0,1-5.49,19.45,66.21,66.21,0,0,1-3.77,8.58,65.43,65.43,0,0,1,0-9.37,137.75,137.75,0,0,1,2.65-20,140.11,140.11,0,0,1,5.5-19.45A66.27,66.27,0,0,1,1640.79,864.29Z" transform="translate(-91.49 -173.51)"/><g class="cls-7"><path class="cls-8" d="M1655.07,1067.76c-7.71-14.27-24.66-18.08-38.19-9.57-51.61,32.56-106.74,54.48-163.09,65.89a26,26,0,0,1,22.18,14.05c7.72,14.24,2,34.46-13.1,44-1.62,1-3.26,2-4.89,3,63.58-12.24,125.82-36.64,184-73.34C1657.1,1102.22,1662.79,1082,1655.07,1067.76Z" transform="translate(-91.49 -173.51)"/></g><path class="cls-2" d="M921.13,1198.79c0,14.12-24,25.58-53.58,25.6s-53.62-11.37-53.64-25.49,24-25.57,53.59-25.6S921.12,1184.68,921.13,1198.79Z" transform="translate(-91.49 -173.51)"/><path class="cls-5" d="M901.55,1193.69c0,8-15.22,14.48-34,14.5s-34-6.44-34-14.44,15.23-14.48,34-14.49S901.55,1185.7,901.55,1193.69Z" transform="translate(-91.49 -173.51)"/><path class="cls-2" d="M868.36,1199.27a13.62,13.62,0,0,1-13.54-12.17c-17.5-163.76,39.25-208.84,74.63-221.13,59.11-20.55,128.74,21.62,161.91,74.25,4,6.36,5.33,6.36-7.56,10.66-6.28,2.73-10.82,3-14.82-3.39-31.57-46.66-89.78-70-130.59-55.8-47.23,16.4-67.82,86.58-56.49,192.52a13.63,13.63,0,0,1-12.09,15C869.32,1199.24,868.84,1199.27,868.36,1199.27Z" transform="translate(-91.49 -173.51)"/><path class="cls-2" d="M376.27,995.2l-74-117.45L253.16,709.19c-5.24-21.52-39.74-14.28-38.72,1.85L257.3,888.72l-7.13,1.74L202.75,701.77c-5.85-24-40.55-16.85-39.11,1.06l41.59,198.59-3.12,0-44-174.63c-5.25-21.53-38.64-14.56-35.35,13.3l34.64,173-.49.12c0-.47,0-.76,0-.76l-35-134.64c-3-13.87-30.86-6.72-26.52,17.06,0,0,22.53,112.07,46.28,199.84l.12,0c4.29,26.74,10.14,53.24,17.62,65.61,13.24,22.9,50.09,41.62,50.09,41.62l49,9.42,83.42-41.71S393.22,1062.65,376.27,995.2Z" transform="translate(-91.49 -173.51)"/><path class="cls-5" d="M220.8,899.66a12.31,12.31,0,0,1-2.57,2.63,17.47,17.47,0,0,1-6.32,3,17.28,17.28,0,0,1-7,.22,12.49,12.49,0,0,1-3.49-1.16,12.3,12.3,0,0,1,2.56-2.64,17.27,17.27,0,0,1,6.33-3,17.46,17.46,0,0,1,7-.22A12.49,12.49,0,0,1,220.8,899.66Z" transform="translate(-91.49 -173.51)"/><path class="cls-5" d="M168.64,912.38a12.05,12.05,0,0,1-2.57,2.63,17,17,0,0,1-13.33,3.27,12.63,12.63,0,0,1-3.5-1.16,12.21,12.21,0,0,1,2.57-2.64,17.27,17.27,0,0,1,6.33-3,17.46,17.46,0,0,1,7-.22A12.3,12.3,0,0,1,168.64,912.38Z" transform="translate(-91.49 -173.51)"/><polygon class="cls-4" points="180.65 713.63 159.95 718.67 173.97 742.01 177.19 758.77 185.78 736.5 180.65 713.63"/><polygon class="cls-4" points="129.31 726.14 108.62 731.19 119.66 751.3 128.67 764.9 130.42 748.68 129.31 726.14"/><path class="cls-5" d="M252.32,892a12.61,12.61,0,0,1,2.57-2.63,17.63,17.63,0,0,1,6.32-3,17.33,17.33,0,0,1,7-.22,12.64,12.64,0,0,1,3.49,1.16,12.21,12.21,0,0,1-2.57,2.64,16.94,16.94,0,0,1-13.34,3.24A12.3,12.3,0,0,1,252.32,892Z" transform="translate(-91.49 -173.51)"/><path class="cls-5" d="M250.23,831.22a12.61,12.61,0,0,1,2.57-2.63,17.55,17.55,0,0,1,6.32-3,17.28,17.28,0,0,1,7-.22,12.26,12.26,0,0,1,3.5,1.16,12.21,12.21,0,0,1-2.57,2.64,16.94,16.94,0,0,1-13.34,3.24A12.3,12.3,0,0,1,250.23,831.22Z" transform="translate(-91.49 -173.51)"/><path class="cls-5" d="M262.7,837.39a12.31,12.31,0,0,1,2.57-2.63,17.47,17.47,0,0,1,6.32-3,17.15,17.15,0,0,1,7-.22,12.12,12.12,0,0,1,3.49,1.16,12.4,12.4,0,0,1-2.56,2.63,17.27,17.27,0,0,1-6.33,3,17.47,17.47,0,0,1-7,.22A12.29,12.29,0,0,1,262.7,837.39Z" transform="translate(-91.49 -173.51)"/><path class="cls-5" d="M241.3,767a18.9,18.9,0,0,1,3.68-3,31.64,31.64,0,0,1,18.34-4.79,18.36,18.36,0,0,1,4.66.81,18.48,18.48,0,0,1-3.68,3,31.45,31.45,0,0,1-8.8,3.8,32.3,32.3,0,0,1-9.54,1A18.53,18.53,0,0,1,241.3,767Z" transform="translate(-91.49 -173.51)"/><path class="cls-5" d="M180.35,848.27a12.14,12.14,0,0,1-2.57,2.62,16.93,16.93,0,0,1-13.34,3.27A12.12,12.12,0,0,1,161,853a12.21,12.21,0,0,1,2.57-2.64,16.94,16.94,0,0,1,13.34-3.24A12.3,12.3,0,0,1,180.35,848.27Z" transform="translate(-91.49 -173.51)"/><path class="cls-5" d="M172.12,859.48a12.31,12.31,0,0,1-2.57,2.63,17,17,0,0,1-13.34,3.27,12.31,12.31,0,0,1-3.49-1.17,12.21,12.21,0,0,1,2.57-2.64,16.93,16.93,0,0,1,13.33-3.24A12.67,12.67,0,0,1,172.12,859.48Z" transform="translate(-91.49 -173.51)"/><path class="cls-5" d="M158.72,787.17a12.31,12.31,0,0,1-2.57,2.63,17.64,17.64,0,0,1-6.32,3,17.45,17.45,0,0,1-7,.21,12.12,12.12,0,0,1-3.5-1.16,12.52,12.52,0,0,1,2.57-2.64A16.88,16.88,0,0,1,155.23,786,12.3,12.3,0,0,1,158.72,787.17Z" transform="translate(-91.49 -173.51)"/><path class="cls-5" d="M136.73,876.15a12.31,12.31,0,0,1-2.57,2.63,17.55,17.55,0,0,1-6.32,3,17.28,17.28,0,0,1-7,.22,12.12,12.12,0,0,1-3.49-1.16,12.3,12.3,0,0,1,2.56-2.64A17,17,0,0,1,133.24,875,12.3,12.3,0,0,1,136.73,876.15Z" transform="translate(-91.49 -173.51)"/><path class="cls-5" d="M127.46,832.77a12.4,12.4,0,0,1-2.56,2.63,17.6,17.6,0,0,1-6.33,3,17.23,17.23,0,0,1-7,.22,12.12,12.12,0,0,1-3.5-1.16,12.21,12.21,0,0,1,2.57-2.64A16.93,16.93,0,0,1,124,831.62,12.3,12.3,0,0,1,127.46,832.77Z" transform="translate(-91.49 -173.51)"/><path class="cls-5" d="M199.12,823.07a12.14,12.14,0,0,1,2.57-2.62A17,17,0,0,1,215,817.18a12.63,12.63,0,0,1,3.5,1.16A12.52,12.52,0,0,1,216,821a17,17,0,0,1-13.34,3.24A11.94,11.94,0,0,1,199.12,823.07Z" transform="translate(-91.49 -173.51)"/><path class="cls-5" d="M213.78,891.57a12.4,12.4,0,0,1,2.57-2.62,17.15,17.15,0,0,1,6.32-3,17.34,17.34,0,0,1,7-.23,12.12,12.12,0,0,1,3.49,1.16,12.21,12.21,0,0,1-2.57,2.64,17.14,17.14,0,0,1-6.32,3,17.51,17.51,0,0,1-7,.22A12.49,12.49,0,0,1,213.78,891.57Z" transform="translate(-91.49 -173.51)"/><path class="cls-5" d="M186.48,760.15a12.31,12.31,0,0,1,2.57-2.63,17,17,0,0,1,13.33-3.27,12.12,12.12,0,0,1,3.49,1.16,12.3,12.3,0,0,1-2.56,2.64,17.27,17.27,0,0,1-6.33,3,17.46,17.46,0,0,1-7,.22A12.3,12.3,0,0,1,186.48,760.15Z" transform="translate(-91.49 -173.51)"/><path class="cls-4" d="M99.45,820.66l57.44,92.55L141.69,918l10.19,44.21L168,997.78l97.4-16-97.87,64C226.76,1040.55,259,1088,259,1088l-35.26,20.77s-50.57-27.55-63.82-50.46c-8.76-14.49-21.09-67.69-24.11-93Z" transform="translate(-91.49 -173.51)"/><path class="cls-2" d="M375.76,1053.3l83.76-193.4c5-21.58-29-30.7-35.4-15.86l-65.81,76.53s-46.38-15.7-67.1,25.13" transform="translate(-91.49 -173.51)"/><path class="cls-5" d="M428.83,898.69a176,176,0,0,1-30,9l-1.19.26-1.29-.79a42.84,42.84,0,0,1-7.34-5.54,28.49,28.49,0,0,1-5.86-7.65,28.28,28.28,0,0,1,9.21,2.85,43.25,43.25,0,0,1,7.73,4.95l-2.48-.53A175.89,175.89,0,0,1,428.83,898.69Z" transform="translate(-91.49 -173.51)"/><path class="cls-5" d="M268.27,1069.09s8.34-73.92,80.66-85c63.13-13.48,93.19-115.41,102.87-142.82,0,0-46.73,134.26-102.89,130.06S257,1055.54,268.27,1069.09Z" transform="translate(-91.49 -173.51)"/><path class="cls-13" d="M233.93,1151.62c0,15.88,143.93,746.14,378.24,660.82,215.17-129.55-230.63-736.36-230.63-736.36Z" transform="translate(-91.49 -173.51)"/><path class="cls-4" d="M612.1,1735.64c-191.93,69.89-323.19-407.38-364.41-591.06l-13.76,7c0,15.88,143.93,746.14,378.24,660.82,52.16-31.4,65.41-90.89,55.65-162.94C661.45,1686.4,644.15,1716.35,612.1,1735.64Z" transform="translate(-91.49 -173.51)"/><path class="cls-3" d="M317.43,1463.62c26,74.42,67.92,142.55,47.8,149.58s-57.48-47.62-83.45-122S251,1350.74,271.16,1343.71,291.45,1389.2,317.43,1463.62Z" transform="translate(-91.49 -173.51)"/><path class="cls-4" d="M317.43,1463.62c-26-74.42-26.16-126.92-46.27-119.91-3.05,1.07-5.45,3.61-7.36,7.2,7,20.59,13.26,57.65,29.06,102.91,25.35,72.62,65.75,139.11,49,148.8,8.92,8.81,17,12.8,23.38,10.58C385.35,1606.17,343.41,1538,317.43,1463.62Z" transform="translate(-91.49 -173.51)"/><path class="cls-5" d="M258.61,1281.79s159,20.16,186.21-113.46c27.59,31.32,63.59,101.83,63.59,101.83S303.68,1369.8,258.61,1281.79Z" transform="translate(-91.49 -173.51)"/><path class="cls-6" d="M284.73,1180c-42.28,0-75.28-19.22-82.76-37.81-6.9-17.15,8.08-29,19.95-36.44,16.1-10.07,40.23-19.76,68.16-31l5.94-2.39q8.6-3.46,16.63-6.75c31.51-12.87,56.39-23,73.33-23,11.36,0,19,4.72,22.76,14,11.45,28.46-14.88,90.07-73.34,113.59A135.1,135.1,0,0,1,284.73,1180Z" transform="translate(-91.49 -173.51)"/><path class="cls-5" d="M386,1046c9.55,0,16.21,3.47,19.6,11.9,10.17,25.28-12.89,85.6-71.46,109.16a132.2,132.2,0,0,1-49.39,9.55c-39.51,0-72.33-17.62-79.6-35.68-10.17-25.27,33.6-41.82,92.16-65.39,39-15.7,69.62-29.54,88.69-29.54m0-6.8h0c-17.6,0-42.77,10.27-74.62,23.27-5.34,2.19-10.89,4.45-16.61,6.75l-5.94,2.39c-28.08,11.29-52.34,21-68.69,31.27-7.44,4.65-30.08,18.81-21.3,40.6,9,22.39,46.75,39.94,85.91,39.94a138.56,138.56,0,0,0,51.94-10c60.26-24.25,87.18-88.32,75.23-118-4.32-10.73-13-16.16-25.92-16.16Z" transform="translate(-91.49 -173.51)"/><path class="cls-4" d="M405.58,1057.86a16.67,16.67,0,0,0-2.77-4.58c.29,30.65-22.7,76.52-73.49,97-53.33,21.47-106.8,4.24-124.93-19.27a14.92,14.92,0,0,0,.74,9.93c10.17,25.28,70.43,49.7,129,26.13S415.75,1083.14,405.58,1057.86Z" transform="translate(-91.49 -173.51)"/><path class="cls-5" d="M304.19,1072.67s50.15-21.88,62.62,29.28c-5.32-47.13-12.47-51.16-12.47-51.16S325,1053.12,304.19,1072.67Z" transform="translate(-91.49 -173.51)"/><path class="cls-5" d="M245.73,1212.23s1.87.45,5.13,1a124.71,124.71,0,0,0,13.51,1.15c2.8-.06,5.81.1,9-.15,3.18-.09,6.5-.46,9.94-.85,3.46-.24,6.94-1.2,10.53-1.65,3.53-.83,7.15-1.56,10.69-2.59s7.15-1.92,10.54-3.27,6.86-2.32,10-3.76,6.3-2.72,9.27-4l8.14-4c5.16-2.32,9.13-4.87,12.14-6.32l4.69-2.37-3.92,3.48c-2.59,2.09-6.05,5.49-10.91,8.58-2.38,1.61-5,3.39-7.77,5.14-2.89,1.59-6,3.28-9.18,4.93s-6.72,3-10.25,4.47-7.3,2.42-11,3.65c-3.75,1-7.59,1.71-11.32,2.49-3.81.46-7.53,1.07-11.19,1.14a73.43,73.43,0,0,1-10.5,0,79.52,79.52,0,0,1-9.33-1,71.06,71.06,0,0,1-13.48-3.72A40.82,40.82,0,0,1,245.73,1212.23Z" transform="translate(-91.49 -173.51)"/><path class="cls-5" d="M254.16,1249.09s3.16.14,8.66.08,13.34-.46,22.65-1.38a206.5,206.5,0,0,0,31.33-5.69c5.64-1.38,11.33-3.26,17.06-5.26a147.8,147.8,0,0,0,16.88-7.24,143.81,143.81,0,0,0,15.93-9.08,159,159,0,0,0,14.16-10.71,164.18,164.18,0,0,0,12-11.53c1.75-2,3.54-3.89,5.13-5.82l4.46-5.73c2.65-3.82,5.2-7.28,7.22-10.5s3.84-6,5.06-8.5c2.58-4.85,4.15-7.61,4.15-7.61s-1,3-2.95,8.18c-.93,2.62-2.48,5.6-4,9.16a114.82,114.82,0,0,1-6.28,11.43l-4.14,6.23c-1.5,2.12-3.18,4.2-4.85,6.4a112.82,112.82,0,0,1-11.78,12.75,128.91,128.91,0,0,1-14.49,11.7,145.94,145.94,0,0,1-16.58,9.72,149.52,149.52,0,0,1-35.6,12.24,150.72,150.72,0,0,1-17.05,2.68c-5.47.5-10.63.91-15.4,1a163.09,163.09,0,0,1-23-1.1A86.63,86.63,0,0,1,254.16,1249.09Z" transform="translate(-91.49 -173.51)"/><path class="cls-5" d="M254.14,1232.48s6.17.37,15.36.09c2.3,0,4.78-.13,7.41-.3s5.37-.48,8.23-.61a168.25,168.25,0,0,0,17.73-2.46c3-.49,6-1,8.9-1.76s5.78-1.4,8.52-2.23,5.39-1.58,7.86-2.43a69.24,69.24,0,0,0,6.94-2.53l5.82-2.33,4.38-2.08,3.85-1.77-3.53,2.34a74,74,0,0,1-9.74,5.59,71.05,71.05,0,0,1-6.84,3.1,63.3,63.3,0,0,1-7.87,2.94c-2.77.91-5.66,1.79-8.64,2.48s-6,1.47-9.06,2a173.35,173.35,0,0,1-18.12,2,144.9,144.9,0,0,1-15.88-.12A95.48,95.48,0,0,1,254.14,1232.48Z" transform="translate(-91.49 -173.51)"/><path class="cls-5" d="M586,1752.71l3.67-2.69,4.42-3.23,5.49-4.89a91.32,91.32,0,0,0,12.93-14.9,100.58,100.58,0,0,0,11.6-22.63c1.81-4.3,2.89-9.07,4.27-13.9.93-5,2.09-10,2.57-15.38a197.67,197.67,0,0,0,.9-33.69c-1.13-23.43-5.88-48.25-12.52-72.49a647.3,647.3,0,0,0-23-70.34c-4.28-11-8.49-21.68-12.6-31.73s-8.23-19.45-12.08-28.12c-7.79-17.3-14.29-31.73-19.06-41.73l-7.42-15.77s3.21,5.47,8.6,15.16,13,23.62,21.34,40.71c4.19,8.55,8.63,17.86,13.17,27.77s9.22,20.45,13.55,31.55c8.8,22.14,17.41,46.12,24,70.75,6.43,24.65,11,49.95,11.83,74a170.31,170.31,0,0,1-1.89,34.61c-.71,5.49-2.09,10.71-3.25,15.78-1.6,5-2.91,9.82-4.93,14.23a101.44,101.44,0,0,1-6.07,12.45,115.74,115.74,0,0,1-7.06,10.28,92.85,92.85,0,0,1-14.11,14.41l-5.89,4.54-4.66,2.87Z" transform="translate(-91.49 -173.51)"/><path class="cls-5" d="M566.56,1727.64l3.23-2.25,3.87-2.71,4.83-4.17a79.33,79.33,0,0,0,11.39-12.81,86.83,86.83,0,0,0,10.3-19.61,103.55,103.55,0,0,0,6.16-25.46,165.06,165.06,0,0,0,.95-29.31c-.93-20.38-5-41.94-10.7-63a561.64,561.64,0,0,0-20.05-60.92c-7.42-19.1-14.89-36.74-21.73-51.67s-12.65-27.32-16.86-35.92-6.67-13.51-6.67-13.51l7.18,13.25c4.47,8.47,11,20.54,18.09,35.37s15.18,32.26,22.74,51.4a565.22,565.22,0,0,1,20.59,61.13c5.6,21.25,9.56,43,10.35,63.73a151,151,0,0,1-1.44,29.76,105.48,105.48,0,0,1-6.84,25.83,79.76,79.76,0,0,1-11.09,19.63,80.67,80.67,0,0,1-12,12.53l-5,4c-1.56,1-2.89,1.87-4,2.55Z" transform="translate(-91.49 -173.51)"/></g></g></svg>