<svg xmlns="http://www.w3.org/2000/svg" xmlns:xlink="http://www.w3.org/1999/xlink" viewBox="0 0 1418.07 1094"><defs><style>.cls-1{fill:url(#Gradiente_sem_nome_79);}.cls-2{opacity:0.26;}.cls-3,.cls-5{fill:#fff;}.cls-4{opacity:0.5;}.cls-5{opacity:0.05;}.cls-6{fill:#fcfcfc;}</style><linearGradient id="Gradiente_sem_nome_79" y1="549.5" x2="1418.07" y2="549.5" gradientUnits="userSpaceOnUse"><stop offset="0" stop-color="#262626"/><stop offset="1" stop-color="#171717"/></linearGradient></defs><title>bg-sec-3</title><g id="Camada_1" data-name="Camada 1"><rect class="cls-1" y="5" width="1418.07" height="1089"/><g class="cls-2"><path class="cls-3" d="M1234.59,2h-6.53a5.57,5.57,0,1,0,6.53,0Z" transform="translate(28 3)"/><path class="cls-3" d="M1330.85,56.23a2.2,2.2,0,1,0,2.2-2.2A2.2,2.2,0,0,0,1330.85,56.23Z" transform="translate(28 3)"/><path class="cls-3" d="M1168.26,24.54a2.2,2.2,0,1,0,2.2-2.2A2.19,2.19,0,0,0,1168.26,24.54Z" transform="translate(28 3)"/><path class="cls-3" d="M1210.78,37.35a2.2,2.2,0,1,0,2.2-2.2A2.2,2.2,0,0,0,1210.78,37.35Z" transform="translate(28 3)"/><path class="cls-3" d="M1131.27,12a2.2,2.2,0,1,0,2.21-2.2A2.2,2.2,0,0,0,1131.27,12Z" transform="translate(28 3)"/><path class="cls-3" d="M1289.43,24.54a1,1,0,1,0,1-1A1,1,0,0,0,1289.43,24.54Z" transform="translate(28 3)"/><path class="cls-3" d="M1245.37,61.1a1,1,0,1,0,1-1A1,1,0,0,0,1245.37,61.1Z" transform="translate(28 3)"/><path class="cls-3" d="M1268.59,45.39a1,1,0,1,0,1-1A1,1,0,0,0,1268.59,45.39Z" transform="translate(28 3)"/><path class="cls-3" d="M1185.21,5.37a1,1,0,1,0,1-1A1,1,0,0,0,1185.21,5.37Z" transform="translate(28 3)"/><path class="cls-3" d="M1166.17,46.93a1,1,0,1,0,1-1A1,1,0,0,0,1166.17,46.93Z" transform="translate(28 3)"/><path class="cls-3" d="M1355.43,48.59a1,1,0,1,0,1.92,0,1,1,0,0,0-1.92,0Z" transform="translate(28 3)"/><path class="cls-3" d="M959.29,71.24a5.56,5.56,0,1,0,5.57-5.56A5.55,5.55,0,0,0,959.29,71.24Z" transform="translate(28 3)"/><path class="cls-3" d="M1062.93,56.23a2.2,2.2,0,1,0,2.2-2.2A2.2,2.2,0,0,0,1062.93,56.23Z" transform="translate(28 3)"/><path class="cls-3" d="M900.34,24.54a2.2,2.2,0,1,0,2.2-2.2A2.19,2.19,0,0,0,900.34,24.54Z" transform="translate(28 3)"/><path class="cls-3" d="M942.86,37.35a2.2,2.2,0,1,0,2.21-2.2A2.2,2.2,0,0,0,942.86,37.35Z" transform="translate(28 3)"/><path class="cls-3" d="M863.36,12a2.2,2.2,0,1,0,2.19-2.2A2.19,2.19,0,0,0,863.36,12Z" transform="translate(28 3)"/><path class="cls-3" d="M1021.52,24.54a1,1,0,1,0,1-1A1,1,0,0,0,1021.52,24.54Z" transform="translate(28 3)"/><path class="cls-3" d="M977.45,61.1a1,1,0,1,0,1-1A1,1,0,0,0,977.45,61.1Z" transform="translate(28 3)"/><path class="cls-3" d="M1000.67,45.39a1,1,0,1,0,1-1A1,1,0,0,0,1000.67,45.39Z" transform="translate(28 3)"/><path class="cls-3" d="M917.29,5.37a1,1,0,1,0,1-1A1,1,0,0,0,917.29,5.37Z" transform="translate(28 3)"/><path class="cls-3" d="M898.24,46.93a1,1,0,1,0,1-1A1,1,0,0,0,898.24,46.93Z" transform="translate(28 3)"/><path class="cls-3" d="M1087.51,48.59a1,1,0,1,0,1.93,0,1,1,0,0,0-1.93,0Z" transform="translate(28 3)"/><path class="cls-3" d="M795,56.23a2.2,2.2,0,1,0,2.2-2.2A2.2,2.2,0,0,0,795,56.23Z" transform="translate(28 3)"/><path class="cls-3" d="M632.42,24.54a2.2,2.2,0,1,0,2.2-2.2A2.2,2.2,0,0,0,632.42,24.54Z" transform="translate(28 3)"/><path class="cls-3" d="M674.94,37.35a2.2,2.2,0,1,0,2.2-2.2A2.2,2.2,0,0,0,674.94,37.35Z" transform="translate(28 3)"/><path class="cls-3" d="M595.43,12a2.2,2.2,0,1,0,2.21-2.2A2.2,2.2,0,0,0,595.43,12Z" transform="translate(28 3)"/><path class="cls-3" d="M753.59,24.54a1,1,0,1,0,1-1A1,1,0,0,0,753.59,24.54Z" transform="translate(28 3)"/><path class="cls-3" d="M709.53,61.1a1,1,0,1,0,1-1A1,1,0,0,0,709.53,61.1Z" transform="translate(28 3)"/><path class="cls-3" d="M732.75,45.39a1,1,0,1,0,1-1A1,1,0,0,0,732.75,45.39Z" transform="translate(28 3)"/><path class="cls-3" d="M649.37,5.37a1,1,0,1,0,1-1A1,1,0,0,0,649.37,5.37Z" transform="translate(28 3)"/><path class="cls-3" d="M630.33,46.93a1,1,0,1,0,1-1A1,1,0,0,0,630.33,46.93Z" transform="translate(28 3)"/><path class="cls-3" d="M819.59,48.59a1,1,0,1,0,1.93,0,1,1,0,0,0-1.93,0Z" transform="translate(28 3)"/><path class="cls-3" d="M594.1,35.66a5.56,5.56,0,1,0,5.56-5.56A5.56,5.56,0,0,0,594.1,35.66Z" transform="translate(28 3)"/><path class="cls-3" d="M430.83,2H424.3a5.57,5.57,0,1,0,6.53,0Z" transform="translate(28 3)"/><path class="cls-3" d="M527.09,56.23a2.2,2.2,0,1,0,2.2-2.2A2.2,2.2,0,0,0,527.09,56.23Z" transform="translate(28 3)"/><path class="cls-3" d="M364.5,24.54a2.2,2.2,0,1,0,2.2-2.2A2.2,2.2,0,0,0,364.5,24.54Z" transform="translate(28 3)"/><path class="cls-3" d="M407,37.35a2.2,2.2,0,1,0,2.21-2.2A2.2,2.2,0,0,0,407,37.35Z" transform="translate(28 3)"/><path class="cls-3" d="M327.52,12a2.2,2.2,0,1,0,2.19-2.2A2.19,2.19,0,0,0,327.52,12Z" transform="translate(28 3)"/><path class="cls-3" d="M485.68,24.54a1,1,0,1,0,1-1A1,1,0,0,0,485.68,24.54Z" transform="translate(28 3)"/><path class="cls-3" d="M441.61,61.1a1,1,0,1,0,1-1A1,1,0,0,0,441.61,61.1Z" transform="translate(28 3)"/><path class="cls-3" d="M464.83,45.39a1,1,0,1,0,1-1A1,1,0,0,0,464.83,45.39Z" transform="translate(28 3)"/><path class="cls-3" d="M381.45,5.37a1,1,0,1,0,1-1A1,1,0,0,0,381.45,5.37Z" transform="translate(28 3)"/><circle class="cls-3" cx="391.37" cy="49.93" r="0.96"/><path class="cls-3" d="M551.67,48.59a1,1,0,1,0,1.92,0,1,1,0,0,0-1.92,0Z" transform="translate(28 3)"/><path class="cls-3" d="M238.36,56.23a5.56,5.56,0,1,0,5.56-5.56A5.56,5.56,0,0,0,238.36,56.23Z" transform="translate(28 3)"/><path class="cls-3" d="M162.91,2h-6.53a5.57,5.57,0,1,0,6.53,0Z" transform="translate(28 3)"/><path class="cls-3" d="M259.17,56.23a2.2,2.2,0,1,0,2.2-2.2A2.2,2.2,0,0,0,259.17,56.23Z" transform="translate(28 3)"/><path class="cls-3" d="M96.58,24.54a2.2,2.2,0,1,0,2.2-2.2A2.2,2.2,0,0,0,96.58,24.54Z" transform="translate(28 3)"/><path class="cls-3" d="M139.11,37.35a2.2,2.2,0,1,0,2.19-2.2A2.19,2.19,0,0,0,139.11,37.35Z" transform="translate(28 3)"/><path class="cls-3" d="M59.6,12a2.2,2.2,0,1,0,2.2-2.2A2.19,2.19,0,0,0,59.6,12Z" transform="translate(28 3)"/><path class="cls-3" d="M217.76,24.54a1,1,0,1,0,1-1A1,1,0,0,0,217.76,24.54Z" transform="translate(28 3)"/><circle class="cls-3" cx="202.66" cy="64.1" r="0.96"/><path class="cls-3" d="M196.91,45.39a1,1,0,1,0,1-1A1,1,0,0,0,196.91,45.39Z" transform="translate(28 3)"/><path class="cls-3" d="M113.54,5.37a1,1,0,1,0,1-1A1,1,0,0,0,113.54,5.37Z" transform="translate(28 3)"/><path class="cls-3" d="M94.48,46.93a1,1,0,1,0,1-1A1,1,0,0,0,94.48,46.93Z" transform="translate(28 3)"/><path class="cls-3" d="M283.75,48.59a1,1,0,1,0,1.92,0,1,1,0,0,0-1.92,0Z" transform="translate(28 3)"/><path class="cls-3" d="M-8.75,56.23a2.2,2.2,0,0,0,2.2,2.2,2.21,2.21,0,0,0,2.2-2.2A2.2,2.2,0,0,0-6.55,54,2.19,2.19,0,0,0-8.75,56.23Z" transform="translate(28 3)"/><path class="cls-3" d="M15.83,48.59a1,1,0,1,0,1.93,0,1,1,0,0,0-1.93,0Z" transform="translate(28 3)"/><path class="cls-3" d="M55.13,126.55A5.56,5.56,0,1,1,49.57,121,5.56,5.56,0,0,1,55.13,126.55Z" transform="translate(28 3)"/><circle class="cls-3" cx="130.74" cy="205.19" r="5.56" transform="translate(-71.08 288.07) rotate(-76.66)"/><path class="cls-3" d="M31.5,183.1a2.2,2.2,0,1,1-2.2-2.2A2.2,2.2,0,0,1,31.5,183.1Z" transform="translate(28 3)"/><path class="cls-3" d="M104.59,175.43a2.2,2.2,0,1,1-2.19-2.2A2.19,2.19,0,0,1,104.59,175.43Z" transform="translate(28 3)"/><path class="cls-3" d="M31.22,254.94a2.2,2.2,0,1,1-2.2-2.2A2.19,2.19,0,0,1,31.22,254.94Z" transform="translate(28 3)"/><path class="cls-3" d="M-4.63,155.42a2.19,2.19,0,0,1-2.2,2.2,2.19,2.19,0,0,1-2.2-2.2,2.19,2.19,0,0,1,2.2-2.2A2.19,2.19,0,0,1-4.63,155.42Z" transform="translate(28 3)"/><circle class="cls-3" cx="219.61" cy="226.26" r="2.2"/><path class="cls-3" d="M151.29,236.07a2.2,2.2,0,1,1-2.21-2.2A2.2,2.2,0,0,1,151.29,236.07Z" transform="translate(28 3)"/><path class="cls-3" d="M230.8,210.75a2.2,2.2,0,1,1-2.2-2.2A2.21,2.21,0,0,1,230.8,210.75Z" transform="translate(28 3)"/><circle class="cls-3" cx="165.41" cy="102.02" r="2.2"/><path class="cls-3" d="M131.17,143.63a1,1,0,1,1-1-1A1,1,0,0,1,131.17,143.63Z" transform="translate(28 3)"/><path class="cls-3" d="M183.4,145.59a1,1,0,1,1-1-1A1,1,0,0,1,183.4,145.59Z" transform="translate(28 3)"/><path class="cls-3" d="M162.55,121.67a1,1,0,1,1-1-1A1,1,0,0,1,162.55,121.67Z" transform="translate(28 3)"/><path class="cls-3" d="M62.5,158.1a1,1,0,1,1-1-1A1,1,0,0,1,62.5,158.1Z" transform="translate(28 3)"/><path class="cls-3" d="M72.64,223.26a1,1,0,1,1-1-1A1,1,0,0,1,72.64,223.26Z" transform="translate(28 3)"/><path class="cls-3" d="M116.7,259.82a1,1,0,1,1-1-1A1,1,0,0,1,116.7,259.82Z" transform="translate(28 3)"/><path class="cls-3" d="M93.48,244.1a1,1,0,1,1-1-1A1,1,0,0,1,93.48,244.1Z" transform="translate(28 3)"/><path class="cls-3" d="M176.86,204.08a1,1,0,1,1-1-1A1,1,0,0,1,176.86,204.08Z" transform="translate(28 3)"/><path class="cls-3" d="M195.91,245.64a1,1,0,1,1-1-1A1,1,0,0,1,195.91,245.64Z" transform="translate(28 3)"/><circle class="cls-3" cx="251.16" cy="174.56" r="0.96"/><path class="cls-3" d="M225,107.36a1,1,0,1,1-1-1A1,1,0,0,1,225,107.36Z" transform="translate(28 3)"/><path class="cls-3" d="M99.06,123.2a1,1,0,1,1-1-1A1,1,0,0,1,99.06,123.2Z" transform="translate(28 3)"/><path class="cls-3" d="M15.68,103.19a1,1,0,1,1-1-1A1,1,0,0,1,15.68,103.19Z" transform="translate(28 3)"/><path class="cls-3" d="M-6.83,191.57a1,1,0,0,1-1,1,1,1,0,0,1-1-1,1,1,0,0,1,1-1A1,1,0,0,1-6.83,191.57Z" transform="translate(28 3)"/><path class="cls-3" d="M6.64,247.31a1,1,0,1,1-1-1A1,1,0,0,1,6.64,247.31Z" transform="translate(28 3)"/><path class="cls-3" d="M170.89,175.86a1,1,0,1,1-1-1A1,1,0,0,1,170.89,175.86Z" transform="translate(28 3)"/><path class="cls-3" d="M10.68,134a1,1,0,1,1-1-1A1,1,0,0,1,10.68,134Z" transform="translate(28 3)"/><path class="cls-3" d="M478.13,131.56a5.56,5.56,0,1,1-5.56-5.56A5.55,5.55,0,0,1,478.13,131.56Z" transform="translate(28 3)"/><path class="cls-3" d="M402.78,270a5.56,5.56,0,1,1-5.56-5.56A5.56,5.56,0,0,1,402.78,270Z" transform="translate(28 3)"/><path class="cls-3" d="M299.42,183.1a2.2,2.2,0,1,1-2.2-2.2A2.21,2.21,0,0,1,299.42,183.1Z" transform="translate(28 3)"/><path class="cls-3" d="M372.51,175.43a2.2,2.2,0,1,1-2.2-2.2A2.19,2.19,0,0,1,372.51,175.43Z" transform="translate(28 3)"/><path class="cls-3" d="M299.14,254.94a2.2,2.2,0,1,1-2.2-2.2A2.19,2.19,0,0,1,299.14,254.94Z" transform="translate(28 3)"/><path class="cls-3" d="M263.29,155.42a2.2,2.2,0,1,1-2.2-2.2A2.19,2.19,0,0,1,263.29,155.42Z" transform="translate(28 3)"/><path class="cls-3" d="M461.73,223.26a2.2,2.2,0,1,1-2.2-2.2A2.21,2.21,0,0,1,461.73,223.26Z" transform="translate(28 3)"/><path class="cls-3" d="M419.21,236.07a2.2,2.2,0,1,1-2.2-2.2A2.2,2.2,0,0,1,419.21,236.07Z" transform="translate(28 3)"/><path class="cls-3" d="M498.71,210.75a2.2,2.2,0,1,1-2.19-2.2A2.2,2.2,0,0,1,498.71,210.75Z" transform="translate(28 3)"/><circle class="cls-3" cx="433.33" cy="102.02" r="2.2"/><path class="cls-3" d="M399.09,143.63a1,1,0,1,1-1-1A1,1,0,0,1,399.09,143.63Z" transform="translate(28 3)"/><path class="cls-3" d="M451.32,145.59a1,1,0,1,1-1-1A1,1,0,0,1,451.32,145.59Z" transform="translate(28 3)"/><path class="cls-3" d="M430.48,121.67a1,1,0,1,1-1-1A1,1,0,0,1,430.48,121.67Z" transform="translate(28 3)"/><path class="cls-3" d="M330.42,158.1a1,1,0,1,1-1-1A1,1,0,0,1,330.42,158.1Z" transform="translate(28 3)"/><path class="cls-3" d="M340.55,223.26a1,1,0,1,1-1-1A1,1,0,0,1,340.55,223.26Z" transform="translate(28 3)"/><path class="cls-3" d="M384.62,259.82a1,1,0,1,1-1-1A1,1,0,0,1,384.62,259.82Z" transform="translate(28 3)"/><path class="cls-3" d="M361.4,244.1a1,1,0,1,1-1-1A1,1,0,0,1,361.4,244.1Z" transform="translate(28 3)"/><path class="cls-3" d="M444.78,204.08a1,1,0,1,1-1-1A1,1,0,0,1,444.78,204.08Z" transform="translate(28 3)"/><path class="cls-3" d="M463.83,245.64a1,1,0,1,1-1-1A1,1,0,0,1,463.83,245.64Z" transform="translate(28 3)"/><path class="cls-3" d="M492.05,171.56a1,1,0,1,1-1-1A1,1,0,0,1,492.05,171.56Z" transform="translate(28 3)"/><path class="cls-3" d="M492.88,107.36a1,1,0,1,1-1-1A1,1,0,0,1,492.88,107.36Z" transform="translate(28 3)"/><path class="cls-3" d="M367,123.2a1,1,0,1,1-1-1A1,1,0,0,1,367,123.2Z" transform="translate(28 3)"/><path class="cls-3" d="M283.6,103.19a1,1,0,1,1-1-1A1,1,0,0,1,283.6,103.19Z" transform="translate(28 3)"/><path class="cls-3" d="M261.09,191.57a1,1,0,1,1-1-1A1,1,0,0,1,261.09,191.57Z" transform="translate(28 3)"/><path class="cls-3" d="M274.56,247.31a1,1,0,1,1-1-1A1,1,0,0,1,274.56,247.31Z" transform="translate(28 3)"/><path class="cls-3" d="M438.81,175.86a1,1,0,1,1-1-1A1,1,0,0,1,438.81,175.86Z" transform="translate(28 3)"/><path class="cls-3" d="M278.6,134a1,1,0,1,1-1-1A1,1,0,0,1,278.6,134Z" transform="translate(28 3)"/><path class="cls-3" d="M669.58,126.54A5.56,5.56,0,1,1,664,121,5.55,5.55,0,0,1,669.58,126.54Z" transform="translate(28 3)"/><path class="cls-3" d="M567.34,183.1a2.2,2.2,0,1,1-2.2-2.2A2.2,2.2,0,0,1,567.34,183.1Z" transform="translate(28 3)"/><path class="cls-3" d="M640.44,175.43a2.21,2.21,0,1,1-2.21-2.2A2.2,2.2,0,0,1,640.44,175.43Z" transform="translate(28 3)"/><path class="cls-3" d="M567.06,254.94a2.2,2.2,0,1,1-2.2-2.2A2.19,2.19,0,0,1,567.06,254.94Z" transform="translate(28 3)"/><path class="cls-3" d="M531.21,155.42a2.2,2.2,0,1,1-2.2-2.2A2.19,2.19,0,0,1,531.21,155.42Z" transform="translate(28 3)"/><path class="cls-3" d="M729.65,223.26a2.2,2.2,0,1,1-2.2-2.2A2.21,2.21,0,0,1,729.65,223.26Z" transform="translate(28 3)"/><path class="cls-3" d="M687.13,236.07a2.2,2.2,0,1,1-2.2-2.2A2.2,2.2,0,0,1,687.13,236.07Z" transform="translate(28 3)"/><path class="cls-3" d="M766.64,210.75a2.2,2.2,0,1,1-2.21-2.2A2.21,2.21,0,0,1,766.64,210.75Z" transform="translate(28 3)"/><path class="cls-3" d="M675.45,99a2.2,2.2,0,1,1-2.2-2.19A2.19,2.19,0,0,1,675.45,99Z" transform="translate(28 3)"/><path class="cls-3" d="M667,143.63a1,1,0,1,1-1-1A1,1,0,0,1,667,143.63Z" transform="translate(28 3)"/><path class="cls-3" d="M719.24,145.59a1,1,0,1,1-1-1A1,1,0,0,1,719.24,145.59Z" transform="translate(28 3)"/><path class="cls-3" d="M698.4,121.67a1,1,0,1,1-1-1A1,1,0,0,1,698.4,121.67Z" transform="translate(28 3)"/><path class="cls-3" d="M598.34,158.1a1,1,0,1,1-1-1A1,1,0,0,1,598.34,158.1Z" transform="translate(28 3)"/><circle class="cls-3" cx="635.51" cy="226.26" r="0.96"/><path class="cls-3" d="M652.54,259.82a1,1,0,1,1-1-1A1,1,0,0,1,652.54,259.82Z" transform="translate(28 3)"/><path class="cls-3" d="M629.32,244.1a1,1,0,0,1-1,1,1,1,0,0,1,0-1.92A1,1,0,0,1,629.32,244.1Z" transform="translate(28 3)"/><path class="cls-3" d="M712.7,204.08a1,1,0,1,1-1-1A1,1,0,0,1,712.7,204.08Z" transform="translate(28 3)"/><path class="cls-3" d="M731.75,245.64a1,1,0,1,1-1-1A1,1,0,0,1,731.75,245.64Z" transform="translate(28 3)"/><path class="cls-3" d="M760,171.56a1,1,0,1,1-1-1A1,1,0,0,1,760,171.56Z" transform="translate(28 3)"/><path class="cls-3" d="M760.8,107.36a1,1,0,1,1-1-1A1,1,0,0,1,760.8,107.36Z" transform="translate(28 3)"/><path class="cls-3" d="M634.9,123.2a1,1,0,1,1-1-1A1,1,0,0,1,634.9,123.2Z" transform="translate(28 3)"/><path class="cls-3" d="M551.52,103.19a1,1,0,1,1-1-1A1,1,0,0,1,551.52,103.19Z" transform="translate(28 3)"/><path class="cls-3" d="M529,191.57a1,1,0,1,1-1-1A1,1,0,0,1,529,191.57Z" transform="translate(28 3)"/><path class="cls-3" d="M542.48,247.31a1,1,0,1,1-1-1A1,1,0,0,1,542.48,247.31Z" transform="translate(28 3)"/><path class="cls-3" d="M706.73,175.86a1,1,0,1,1-1-1A1,1,0,0,1,706.73,175.86Z" transform="translate(28 3)"/><path class="cls-3" d="M546.52,134a1,1,0,1,1-1-1A1,1,0,0,1,546.52,134Z" transform="translate(28 3)"/><path class="cls-3" d="M768,234.38a5.56,5.56,0,1,1-5.56-5.56A5.55,5.55,0,0,1,768,234.38Z" transform="translate(28 3)"/><path class="cls-3" d="M940.06,205.19a5.56,5.56,0,1,1-5.56-5.55A5.56,5.56,0,0,1,940.06,205.19Z" transform="translate(28 3)"/><path class="cls-3" d="M835.26,183.1a2.2,2.2,0,1,1-2.2-2.2A2.2,2.2,0,0,1,835.26,183.1Z" transform="translate(28 3)"/><path class="cls-3" d="M908.35,175.43a2.2,2.2,0,1,1-2.2-2.2A2.19,2.19,0,0,1,908.35,175.43Z" transform="translate(28 3)"/><path class="cls-3" d="M835,254.94a2.2,2.2,0,1,1-2.2-2.2A2.19,2.19,0,0,1,835,254.94Z" transform="translate(28 3)"/><path class="cls-3" d="M799.13,155.42a2.2,2.2,0,1,1-2.2-2.2A2.19,2.19,0,0,1,799.13,155.42Z" transform="translate(28 3)"/><path class="cls-3" d="M997.57,223.26a2.2,2.2,0,1,1-2.2-2.2A2.21,2.21,0,0,1,997.57,223.26Z" transform="translate(28 3)"/><path class="cls-3" d="M955.05,236.07a2.2,2.2,0,1,1-2.21-2.2A2.2,2.2,0,0,1,955.05,236.07Z" transform="translate(28 3)"/><path class="cls-3" d="M1034.55,210.75a2.2,2.2,0,1,1-2.19-2.2A2.2,2.2,0,0,1,1034.55,210.75Z" transform="translate(28 3)"/><path class="cls-3" d="M943.37,99a2.2,2.2,0,1,1-2.2-2.19A2.19,2.19,0,0,1,943.37,99Z" transform="translate(28 3)"/><path class="cls-3" d="M934.93,143.63a1,1,0,1,1-1-1A1,1,0,0,1,934.93,143.63Z" transform="translate(28 3)"/><path class="cls-3" d="M987.16,145.59a1,1,0,1,1-1-1A1,1,0,0,1,987.16,145.59Z" transform="translate(28 3)"/><path class="cls-3" d="M966.31,121.67a1,1,0,1,1-1-1A1,1,0,0,1,966.31,121.67Z" transform="translate(28 3)"/><path class="cls-3" d="M866.26,158.1a1,1,0,1,1-1-1A1,1,0,0,1,866.26,158.1Z" transform="translate(28 3)"/><path class="cls-3" d="M876.39,223.26a1,1,0,1,1-1-1A1,1,0,0,1,876.39,223.26Z" transform="translate(28 3)"/><path class="cls-3" d="M920.46,259.82a1,1,0,0,1-1,1,1,1,0,0,1,0-1.92A1,1,0,0,1,920.46,259.82Z" transform="translate(28 3)"/><path class="cls-3" d="M897.24,244.1a1,1,0,1,1-1-1A1,1,0,0,1,897.24,244.1Z" transform="translate(28 3)"/><path class="cls-3" d="M980.62,204.08a1,1,0,1,1-1-1A1,1,0,0,1,980.62,204.08Z" transform="translate(28 3)"/><path class="cls-3" d="M999.66,245.64a1,1,0,1,1-1-1A1,1,0,0,1,999.66,245.64Z" transform="translate(28 3)"/><path class="cls-3" d="M1027.88,171.56a1,1,0,1,1-1-1A1,1,0,0,1,1027.88,171.56Z" transform="translate(28 3)"/><path class="cls-3" d="M1028.72,107.36a1,1,0,1,1-1-1A1,1,0,0,1,1028.72,107.36Z" transform="translate(28 3)"/><path class="cls-3" d="M902.82,123.2a1,1,0,1,1-1-1A1,1,0,0,1,902.82,123.2Z" transform="translate(28 3)"/><circle class="cls-3" cx="846.48" cy="106.19" r="0.96"/><path class="cls-3" d="M796.93,191.57a1,1,0,1,1-1-1A1,1,0,0,1,796.93,191.57Z" transform="translate(28 3)"/><path class="cls-3" d="M810.4,247.31a1,1,0,1,1-1-1A1,1,0,0,1,810.4,247.31Z" transform="translate(28 3)"/><path class="cls-3" d="M974.65,175.86a1,1,0,1,1-1-1A1,1,0,0,1,974.65,175.86Z" transform="translate(28 3)"/><path class="cls-3" d="M814.44,134a1,1,0,1,1-1-1A1,1,0,0,1,814.44,134Z" transform="translate(28 3)"/><path class="cls-3" d="M1123.71,254.94a5.56,5.56,0,1,1-5.56-5.56A5.55,5.55,0,0,1,1123.71,254.94Z" transform="translate(28 3)"/><path class="cls-3" d="M1208,205.19a5.56,5.56,0,1,1-5.56-5.55A5.56,5.56,0,0,1,1208,205.19Z" transform="translate(28 3)"/><path class="cls-3" d="M1103.18,183.1a2.2,2.2,0,1,1-2.2-2.2A2.21,2.21,0,0,1,1103.18,183.1Z" transform="translate(28 3)"/><path class="cls-3" d="M1176.28,175.43a2.2,2.2,0,1,1-2.21-2.2A2.2,2.2,0,0,1,1176.28,175.43Z" transform="translate(28 3)"/><path class="cls-3" d="M1102.9,254.94a2.2,2.2,0,1,1-2.2-2.2A2.19,2.19,0,0,1,1102.9,254.94Z" transform="translate(28 3)"/><path class="cls-3" d="M1067.05,155.42a2.2,2.2,0,1,1-2.2-2.2A2.2,2.2,0,0,1,1067.05,155.42Z" transform="translate(28 3)"/><path class="cls-3" d="M1265.49,223.26a2.2,2.2,0,1,1-2.2-2.2A2.21,2.21,0,0,1,1265.49,223.26Z" transform="translate(28 3)"/><path class="cls-3" d="M1223,236.07a2.2,2.2,0,1,1-2.2-2.2A2.2,2.2,0,0,1,1223,236.07Z" transform="translate(28 3)"/><path class="cls-3" d="M1302.47,210.75a2.2,2.2,0,1,1-2.2-2.2A2.2,2.2,0,0,1,1302.47,210.75Z" transform="translate(28 3)"/><path class="cls-3" d="M1211.29,99a2.2,2.2,0,1,1-2.2-2.19A2.19,2.19,0,0,1,1211.29,99Z" transform="translate(28 3)"/><path class="cls-3" d="M1202.85,143.63a1,1,0,1,1-1-1A1,1,0,0,1,1202.85,143.63Z" transform="translate(28 3)"/><path class="cls-3" d="M1255.08,145.59a1,1,0,1,1-1-1A1,1,0,0,1,1255.08,145.59Z" transform="translate(28 3)"/><path class="cls-3" d="M1234.24,121.67a1,1,0,1,1-1-1A1,1,0,0,1,1234.24,121.67Z" transform="translate(28 3)"/><path class="cls-3" d="M1134.18,158.1a1,1,0,1,1-1-1A1,1,0,0,1,1134.18,158.1Z" transform="translate(28 3)"/><path class="cls-3" d="M1144.31,223.26a1,1,0,1,1-1-1A1,1,0,0,1,1144.31,223.26Z" transform="translate(28 3)"/><path class="cls-3" d="M1188.38,259.82a1,1,0,1,1-1-1A1,1,0,0,1,1188.38,259.82Z" transform="translate(28 3)"/><path class="cls-3" d="M1165.16,244.1a1,1,0,1,1-1-1A1,1,0,0,1,1165.16,244.1Z" transform="translate(28 3)"/><path class="cls-3" d="M1248.54,204.08a1,1,0,1,1-1-1A1,1,0,0,1,1248.54,204.08Z" transform="translate(28 3)"/><path class="cls-3" d="M1267.59,245.64a1,1,0,1,1-1-1A1,1,0,0,1,1267.59,245.64Z" transform="translate(28 3)"/><path class="cls-3" d="M1295.8,171.56a1,1,0,1,1-1-1A1,1,0,0,1,1295.8,171.56Z" transform="translate(28 3)"/><path class="cls-3" d="M1296.64,107.36a1,1,0,1,1-1-1A1,1,0,0,1,1296.64,107.36Z" transform="translate(28 3)"/><path class="cls-3" d="M1170.74,123.2a1,1,0,1,1-1-1A1,1,0,0,1,1170.74,123.2Z" transform="translate(28 3)"/><path class="cls-3" d="M1087.36,103.19a1,1,0,1,1-1-1A1,1,0,0,1,1087.36,103.19Z" transform="translate(28 3)"/><path class="cls-3" d="M1064.85,191.57a1,1,0,1,1-1-1A1,1,0,0,1,1064.85,191.57Z" transform="translate(28 3)"/><path class="cls-3" d="M1078.32,247.31a1,1,0,1,1-1-1A1,1,0,0,1,1078.32,247.31Z" transform="translate(28 3)"/><path class="cls-3" d="M1242.57,175.86a1,1,0,1,1-1-1A1,1,0,0,1,1242.57,175.86Z" transform="translate(28 3)"/><path class="cls-3" d="M1082.36,134a1,1,0,1,1-1-1A1,1,0,0,1,1082.36,134Z" transform="translate(28 3)"/><path class="cls-3" d="M1371.1,183.1a2.2,2.2,0,1,1-2.2-2.2A2.21,2.21,0,0,1,1371.1,183.1Z" transform="translate(28 3)"/><path class="cls-3" d="M1370.82,254.94a2.2,2.2,0,1,1-2.2-2.2A2.19,2.19,0,0,1,1370.82,254.94Z" transform="translate(28 3)"/><path class="cls-3" d="M1335,155.42a2.2,2.2,0,1,1-2.2-2.2A2.2,2.2,0,0,1,1335,155.42Z" transform="translate(28 3)"/><path class="cls-3" d="M1355.28,103.19a1,1,0,1,1-1-1A1,1,0,0,1,1355.28,103.19Z" transform="translate(28 3)"/><path class="cls-3" d="M1332.77,191.57a1,1,0,1,1-1-1A1,1,0,0,1,1332.77,191.57Z" transform="translate(28 3)"/><path class="cls-3" d="M1346.24,247.31a1,1,0,1,1-1-1A1,1,0,0,1,1346.24,247.31Z" transform="translate(28 3)"/><path class="cls-3" d="M1350.28,134a1,1,0,0,1-1,1,1,1,0,0,1,0-1.92A1,1,0,0,1,1350.28,134Z" transform="translate(28 3)"/><path class="cls-3" d="M1306.94,319.44a5.56,5.56,0,1,0,5.56-5.57A5.56,5.56,0,0,0,1306.94,319.44Z" transform="translate(28 3)"/><path class="cls-3" d="M1225.77,398.07a5.56,5.56,0,1,0,5.56-5.56A5.56,5.56,0,0,0,1225.77,398.07Z" transform="translate(28 3)"/><path class="cls-3" d="M1330.57,376a2.2,2.2,0,1,0,2.2-2.2A2.2,2.2,0,0,0,1330.57,376Z" transform="translate(28 3)"/><path class="cls-3" d="M1257.47,368.31a2.2,2.2,0,1,0,2.2-2.2A2.2,2.2,0,0,0,1257.47,368.31Z" transform="translate(28 3)"/><path class="cls-3" d="M1330.85,447.82a2.2,2.2,0,1,0,2.2-2.2A2.19,2.19,0,0,0,1330.85,447.82Z" transform="translate(28 3)"/><path class="cls-3" d="M1366.7,348.3a2.2,2.2,0,1,0,2.2-2.2A2.19,2.19,0,0,0,1366.7,348.3Z" transform="translate(28 3)"/><path class="cls-3" d="M1168.26,416.14a2.2,2.2,0,1,0,2.2-2.2A2.2,2.2,0,0,0,1168.26,416.14Z" transform="translate(28 3)"/><path class="cls-3" d="M1210.78,429a2.2,2.2,0,1,0,2.2-2.2A2.21,2.21,0,0,0,1210.78,429Z" transform="translate(28 3)"/><path class="cls-3" d="M1131.27,403.63a2.2,2.2,0,1,0,2.21-2.2A2.2,2.2,0,0,0,1131.27,403.63Z" transform="translate(28 3)"/><path class="cls-3" d="M1222.46,291.91a2.2,2.2,0,1,0,2.2-2.21A2.2,2.2,0,0,0,1222.46,291.91Z" transform="translate(28 3)"/><path class="cls-3" d="M1230.9,336.51a1,1,0,1,0,1-1A1,1,0,0,0,1230.9,336.51Z" transform="translate(28 3)"/><path class="cls-3" d="M1178.67,338.47a1,1,0,1,0,1-1A1,1,0,0,0,1178.67,338.47Z" transform="translate(28 3)"/><path class="cls-3" d="M1199.52,314.55a1,1,0,1,0,1-1A1,1,0,0,0,1199.52,314.55Z" transform="translate(28 3)"/><path class="cls-3" d="M1299.57,351a1,1,0,1,0,1-1A1,1,0,0,0,1299.57,351Z" transform="translate(28 3)"/><path class="cls-3" d="M1289.43,416.14a1,1,0,1,0,1-1A1,1,0,0,0,1289.43,416.14Z" transform="translate(28 3)"/><path class="cls-3" d="M1245.37,452.7a1,1,0,1,0,1-1A1,1,0,0,0,1245.37,452.7Z" transform="translate(28 3)"/><path class="cls-3" d="M1268.59,437a1,1,0,1,0,1-1A1,1,0,0,0,1268.59,437Z" transform="translate(28 3)"/><path class="cls-3" d="M1185.21,397a1,1,0,1,0,1-1A1,1,0,0,0,1185.21,397Z" transform="translate(28 3)"/><path class="cls-3" d="M1166.17,438.52a1,1,0,1,0,1-1A1,1,0,0,0,1166.17,438.52Z" transform="translate(28 3)"/><path class="cls-3" d="M1138,364.45a1,1,0,1,0,1-1A1,1,0,0,0,1138,364.45Z" transform="translate(28 3)"/><path class="cls-3" d="M1137.11,300.25a1,1,0,1,0,1-1A1,1,0,0,0,1137.11,300.25Z" transform="translate(28 3)"/><path class="cls-3" d="M1263,316.09a1,1,0,1,0,1-1A1,1,0,0,0,1263,316.09Z" transform="translate(28 3)"/><path class="cls-3" d="M1346.39,296.08a1,1,0,1,0,1-1A1,1,0,0,0,1346.39,296.08Z" transform="translate(28 3)"/><path class="cls-3" d="M1368.9,384.46a1,1,0,1,0,1-1A1,1,0,0,0,1368.9,384.46Z" transform="translate(28 3)"/><path class="cls-3" d="M1355.43,440.19a1,1,0,1,0,1-1A1,1,0,0,0,1355.43,440.19Z" transform="translate(28 3)"/><path class="cls-3" d="M1191.18,368.74a1,1,0,1,0,1-1A1,1,0,0,0,1191.18,368.74Z" transform="translate(28 3)"/><path class="cls-3" d="M1351.39,326.93a1,1,0,1,0,1-1A1,1,0,0,0,1351.39,326.93Z" transform="translate(28 3)"/><path class="cls-3" d="M883.94,324.44a5.56,5.56,0,1,0,5.56-5.56A5.56,5.56,0,0,0,883.94,324.44Z" transform="translate(28 3)"/><path class="cls-3" d="M959.29,462.83a5.56,5.56,0,1,0,5.57-5.56A5.56,5.56,0,0,0,959.29,462.83Z" transform="translate(28 3)"/><path class="cls-3" d="M1062.65,376a2.2,2.2,0,1,0,2.2-2.2A2.2,2.2,0,0,0,1062.65,376Z" transform="translate(28 3)"/><path class="cls-3" d="M989.55,368.31a2.2,2.2,0,1,0,2.21-2.2A2.2,2.2,0,0,0,989.55,368.31Z" transform="translate(28 3)"/><path class="cls-3" d="M1062.93,447.82a2.2,2.2,0,1,0,2.2-2.2A2.19,2.19,0,0,0,1062.93,447.82Z" transform="translate(28 3)"/><path class="cls-3" d="M1098.78,348.3a2.2,2.2,0,1,0,2.2-2.2A2.19,2.19,0,0,0,1098.78,348.3Z" transform="translate(28 3)"/><path class="cls-3" d="M900.34,416.14a2.2,2.2,0,1,0,2.2-2.2A2.2,2.2,0,0,0,900.34,416.14Z" transform="translate(28 3)"/><path class="cls-3" d="M942.86,429a2.2,2.2,0,1,0,2.21-2.2A2.21,2.21,0,0,0,942.86,429Z" transform="translate(28 3)"/><path class="cls-3" d="M863.36,403.63a2.2,2.2,0,1,0,2.19-2.2A2.19,2.19,0,0,0,863.36,403.63Z" transform="translate(28 3)"/><path class="cls-3" d="M954.54,291.91a2.2,2.2,0,1,0,2.2-2.21A2.2,2.2,0,0,0,954.54,291.91Z" transform="translate(28 3)"/><path class="cls-3" d="M963,336.51a1,1,0,1,0,1-1A1,1,0,0,0,963,336.51Z" transform="translate(28 3)"/><path class="cls-3" d="M910.75,338.47a1,1,0,1,0,1-1A1,1,0,0,0,910.75,338.47Z" transform="translate(28 3)"/><path class="cls-3" d="M931.59,314.55a1,1,0,1,0,1-1A1,1,0,0,0,931.59,314.55Z" transform="translate(28 3)"/><path class="cls-3" d="M1031.65,351a1,1,0,1,0,1-1A1,1,0,0,0,1031.65,351Z" transform="translate(28 3)"/><path class="cls-3" d="M1021.52,416.14a1,1,0,1,0,1-1A1,1,0,0,0,1021.52,416.14Z" transform="translate(28 3)"/><path class="cls-3" d="M977.45,452.7a1,1,0,1,0,1-1A1,1,0,0,0,977.45,452.7Z" transform="translate(28 3)"/><path class="cls-3" d="M1000.67,437a1,1,0,1,0,1-1A1,1,0,0,0,1000.67,437Z" transform="translate(28 3)"/><path class="cls-3" d="M917.29,397a1,1,0,1,0,1-1A1,1,0,0,0,917.29,397Z" transform="translate(28 3)"/><path class="cls-3" d="M898.24,438.52a1,1,0,1,0,1.93,0,1,1,0,0,0-1.93,0Z" transform="translate(28 3)"/><path class="cls-3" d="M870,364.45a1,1,0,1,0,1-1A1,1,0,0,0,870,364.45Z" transform="translate(28 3)"/><path class="cls-3" d="M869.19,300.25a1,1,0,1,0,1-1A1,1,0,0,0,869.19,300.25Z" transform="translate(28 3)"/><path class="cls-3" d="M995.09,316.09a1,1,0,1,0,1-1A1,1,0,0,0,995.09,316.09Z" transform="translate(28 3)"/><path class="cls-3" d="M1078.47,296.08a1,1,0,1,0,1-1A1,1,0,0,0,1078.47,296.08Z" transform="translate(28 3)"/><path class="cls-3" d="M1101,384.46a1,1,0,1,0,1-1A1,1,0,0,0,1101,384.46Z" transform="translate(28 3)"/><path class="cls-3" d="M1087.51,440.19a1,1,0,1,0,1-1A1,1,0,0,0,1087.51,440.19Z" transform="translate(28 3)"/><path class="cls-3" d="M923.26,368.74a1,1,0,1,0,1-1A1,1,0,0,0,923.26,368.74Z" transform="translate(28 3)"/><path class="cls-3" d="M1083.47,326.93a1,1,0,1,0,1-1A1,1,0,0,0,1083.47,326.93Z" transform="translate(28 3)"/><path class="cls-3" d="M692.48,319.42a5.56,5.56,0,1,0,5.56-5.56A5.56,5.56,0,0,0,692.48,319.42Z" transform="translate(28 3)"/><path class="cls-3" d="M794.73,376a2.2,2.2,0,1,0,2.2-2.2A2.2,2.2,0,0,0,794.73,376Z" transform="translate(28 3)"/><path class="cls-3" d="M721.64,368.31a2.2,2.2,0,1,0,2.2-2.2A2.19,2.19,0,0,0,721.64,368.31Z" transform="translate(28 3)"/><path class="cls-3" d="M795,447.82a2.2,2.2,0,1,0,2.2-2.2A2.19,2.19,0,0,0,795,447.82Z" transform="translate(28 3)"/><path class="cls-3" d="M830.86,348.3a2.2,2.2,0,1,0,2.2-2.2A2.19,2.19,0,0,0,830.86,348.3Z" transform="translate(28 3)"/><path class="cls-3" d="M632.42,416.14a2.2,2.2,0,1,0,2.2-2.2A2.21,2.21,0,0,0,632.42,416.14Z" transform="translate(28 3)"/><path class="cls-3" d="M674.94,429a2.2,2.2,0,1,0,2.2-2.2A2.21,2.21,0,0,0,674.94,429Z" transform="translate(28 3)"/><path class="cls-3" d="M595.43,403.63a2.2,2.2,0,1,0,2.21-2.2A2.2,2.2,0,0,0,595.43,403.63Z" transform="translate(28 3)"/><path class="cls-3" d="M686.62,291.91a2.2,2.2,0,1,0,2.2-2.21A2.2,2.2,0,0,0,686.62,291.91Z" transform="translate(28 3)"/><path class="cls-3" d="M695.06,336.51a1,1,0,1,0,1-1A1,1,0,0,0,695.06,336.51Z" transform="translate(28 3)"/><path class="cls-3" d="M642.83,338.47a1,1,0,1,0,1-1A1,1,0,0,0,642.83,338.47Z" transform="translate(28 3)"/><path class="cls-3" d="M663.68,314.55a1,1,0,1,0,1-1A1,1,0,0,0,663.68,314.55Z" transform="translate(28 3)"/><path class="cls-3" d="M763.73,351a1,1,0,1,0,1-1A1,1,0,0,0,763.73,351Z" transform="translate(28 3)"/><path class="cls-3" d="M753.59,416.14a1,1,0,1,0,1-1A1,1,0,0,0,753.59,416.14Z" transform="translate(28 3)"/><path class="cls-3" d="M709.53,452.7a1,1,0,1,0,1-1A1,1,0,0,0,709.53,452.7Z" transform="translate(28 3)"/><path class="cls-3" d="M732.75,437a1,1,0,1,0,1-1A1,1,0,0,0,732.75,437Z" transform="translate(28 3)"/><path class="cls-3" d="M649.37,397a1,1,0,1,0,1-1A1,1,0,0,0,649.37,397Z" transform="translate(28 3)"/><path class="cls-3" d="M630.33,438.52a1,1,0,1,0,1-1A1,1,0,0,0,630.33,438.52Z" transform="translate(28 3)"/><path class="cls-3" d="M602.11,364.45a1,1,0,1,0,1-1A1,1,0,0,0,602.11,364.45Z" transform="translate(28 3)"/><path class="cls-3" d="M601.27,300.25a1,1,0,1,0,1-1A1,1,0,0,0,601.27,300.25Z" transform="translate(28 3)"/><path class="cls-3" d="M727.17,316.09a1,1,0,0,0,1.93,0,1,1,0,1,0-1.93,0Z" transform="translate(28 3)"/><path class="cls-3" d="M810.55,296.08a1,1,0,1,0,1-1A1,1,0,0,0,810.55,296.08Z" transform="translate(28 3)"/><path class="cls-3" d="M833.06,384.46a1,1,0,1,0,1-1A1,1,0,0,0,833.06,384.46Z" transform="translate(28 3)"/><path class="cls-3" d="M819.59,440.19a1,1,0,1,0,1-1A1,1,0,0,0,819.59,440.19Z" transform="translate(28 3)"/><path class="cls-3" d="M655.34,368.74a1,1,0,1,0,1-1A1,1,0,0,0,655.34,368.74Z" transform="translate(28 3)"/><path class="cls-3" d="M815.55,326.93a1,1,0,1,0,1-1A1,1,0,0,0,815.55,326.93Z" transform="translate(28 3)"/><path class="cls-3" d="M594.1,427.26a5.56,5.56,0,1,0,5.56-5.56A5.55,5.55,0,0,0,594.1,427.26Z" transform="translate(28 3)"/><path class="cls-3" d="M422,398.07a5.56,5.56,0,1,0,5.56-5.56A5.56,5.56,0,0,0,422,398.07Z" transform="translate(28 3)"/><path class="cls-3" d="M526.81,376a2.2,2.2,0,1,0,2.2-2.2A2.21,2.21,0,0,0,526.81,376Z" transform="translate(28 3)"/><path class="cls-3" d="M453.72,368.31a2.2,2.2,0,1,0,2.2-2.2A2.19,2.19,0,0,0,453.72,368.31Z" transform="translate(28 3)"/><path class="cls-3" d="M527.09,447.82a2.2,2.2,0,1,0,2.2-2.2A2.19,2.19,0,0,0,527.09,447.82Z" transform="translate(28 3)"/><path class="cls-3" d="M562.94,348.3a2.2,2.2,0,1,0,2.2-2.2A2.19,2.19,0,0,0,562.94,348.3Z" transform="translate(28 3)"/><path class="cls-3" d="M364.5,416.14a2.2,2.2,0,1,0,2.2-2.2A2.21,2.21,0,0,0,364.5,416.14Z" transform="translate(28 3)"/><path class="cls-3" d="M407,429a2.2,2.2,0,1,0,2.21-2.2A2.21,2.21,0,0,0,407,429Z" transform="translate(28 3)"/><path class="cls-3" d="M327.52,403.63a2.2,2.2,0,1,0,2.19-2.2A2.19,2.19,0,0,0,327.52,403.63Z" transform="translate(28 3)"/><path class="cls-3" d="M418.7,291.91a2.2,2.2,0,1,0,2.2-2.21A2.2,2.2,0,0,0,418.7,291.91Z" transform="translate(28 3)"/><path class="cls-3" d="M427.14,336.51a1,1,0,1,0,1-1A1,1,0,0,0,427.14,336.51Z" transform="translate(28 3)"/><path class="cls-3" d="M374.91,338.47a1,1,0,1,0,1-1A1,1,0,0,0,374.91,338.47Z" transform="translate(28 3)"/><path class="cls-3" d="M395.76,314.55a1,1,0,1,0,1-1A1,1,0,0,0,395.76,314.55Z" transform="translate(28 3)"/><path class="cls-3" d="M495.81,351a1,1,0,1,0,1-1A1,1,0,0,0,495.81,351Z" transform="translate(28 3)"/><path class="cls-3" d="M485.68,416.14a1,1,0,1,0,1-1A1,1,0,0,0,485.68,416.14Z" transform="translate(28 3)"/><path class="cls-3" d="M441.61,452.7a1,1,0,1,0,1-1A1,1,0,0,0,441.61,452.7Z" transform="translate(28 3)"/><path class="cls-3" d="M464.83,437a1,1,0,1,0,1-1A1,1,0,0,0,464.83,437Z" transform="translate(28 3)"/><path class="cls-3" d="M381.45,397a1,1,0,1,0,1-1A1,1,0,0,0,381.45,397Z" transform="translate(28 3)"/><path class="cls-3" d="M362.41,438.52a1,1,0,1,0,1-1A1,1,0,0,0,362.41,438.52Z" transform="translate(28 3)"/><path class="cls-3" d="M334.19,364.45a1,1,0,1,0,1-1A1,1,0,0,0,334.19,364.45Z" transform="translate(28 3)"/><path class="cls-3" d="M333.35,300.25a1,1,0,0,0,1.93,0,1,1,0,1,0-1.93,0Z" transform="translate(28 3)"/><path class="cls-3" d="M459.25,316.09a1,1,0,1,0,1-1A1,1,0,0,0,459.25,316.09Z" transform="translate(28 3)"/><path class="cls-3" d="M542.63,296.08a1,1,0,1,0,1-1A1,1,0,0,0,542.63,296.08Z" transform="translate(28 3)"/><path class="cls-3" d="M565.14,384.46a1,1,0,1,0,1-1A1,1,0,0,0,565.14,384.46Z" transform="translate(28 3)"/><path class="cls-3" d="M551.67,440.19a1,1,0,1,0,1-1A1,1,0,0,0,551.67,440.19Z" transform="translate(28 3)"/><path class="cls-3" d="M387.42,368.74a1,1,0,1,0,1-1A1,1,0,0,0,387.42,368.74Z" transform="translate(28 3)"/><path class="cls-3" d="M547.63,326.93a1,1,0,0,0,1.93,0,1,1,0,1,0-1.93,0Z" transform="translate(28 3)"/><path class="cls-3" d="M238.36,447.82a5.56,5.56,0,1,0,5.56-5.56A5.56,5.56,0,0,0,238.36,447.82Z" transform="translate(28 3)"/><path class="cls-3" d="M154.09,398.07a5.56,5.56,0,1,0,5.56-5.56A5.56,5.56,0,0,0,154.09,398.07Z" transform="translate(28 3)"/><circle class="cls-3" cx="289.09" cy="378.98" r="2.2"/><path class="cls-3" d="M185.8,368.31a2.2,2.2,0,1,0,2.2-2.2A2.19,2.19,0,0,0,185.8,368.31Z" transform="translate(28 3)"/><path class="cls-3" d="M259.17,447.82a2.2,2.2,0,1,0,2.2-2.2A2.19,2.19,0,0,0,259.17,447.82Z" transform="translate(28 3)"/><path class="cls-3" d="M295,348.3a2.2,2.2,0,1,0,2.2-2.2A2.19,2.19,0,0,0,295,348.3Z" transform="translate(28 3)"/><path class="cls-3" d="M96.58,416.14a2.2,2.2,0,1,0,2.2-2.2A2.21,2.21,0,0,0,96.58,416.14Z" transform="translate(28 3)"/><path class="cls-3" d="M139.11,429a2.2,2.2,0,1,0,2.19-2.2A2.2,2.2,0,0,0,139.11,429Z" transform="translate(28 3)"/><path class="cls-3" d="M59.6,403.63a2.2,2.2,0,1,0,2.2-2.2A2.19,2.19,0,0,0,59.6,403.63Z" transform="translate(28 3)"/><path class="cls-3" d="M150.78,291.91a2.2,2.2,0,1,0,2.2-2.21A2.2,2.2,0,0,0,150.78,291.91Z" transform="translate(28 3)"/><path class="cls-3" d="M159.22,336.51a1,1,0,1,0,1-1A1,1,0,0,0,159.22,336.51Z" transform="translate(28 3)"/><path class="cls-3" d="M107,338.47a1,1,0,1,0,1-1A1,1,0,0,0,107,338.47Z" transform="translate(28 3)"/><path class="cls-3" d="M127.84,314.55a1,1,0,1,0,1-1A1,1,0,0,0,127.84,314.55Z" transform="translate(28 3)"/><path class="cls-3" d="M227.89,351a1,1,0,1,0,1-1A1,1,0,0,0,227.89,351Z" transform="translate(28 3)"/><path class="cls-3" d="M217.76,416.14a1,1,0,1,0,1-1A1,1,0,0,0,217.76,416.14Z" transform="translate(28 3)"/><path class="cls-3" d="M173.69,452.7a1,1,0,1,0,1-1A1,1,0,0,0,173.69,452.7Z" transform="translate(28 3)"/><path class="cls-3" d="M196.91,437a1,1,0,1,0,1.93,0,1,1,0,0,0-1.93,0Z" transform="translate(28 3)"/><path class="cls-3" d="M113.54,397a1,1,0,1,0,1-1A1,1,0,0,0,113.54,397Z" transform="translate(28 3)"/><path class="cls-3" d="M94.48,438.52a1,1,0,1,0,1.93,0,1,1,0,0,0-1.93,0Z" transform="translate(28 3)"/><path class="cls-3" d="M66.26,364.45a1,1,0,1,0,1-1A1,1,0,0,0,66.26,364.45Z" transform="translate(28 3)"/><path class="cls-3" d="M65.43,300.25a1,1,0,1,0,1-1A1,1,0,0,0,65.43,300.25Z" transform="translate(28 3)"/><path class="cls-3" d="M191.33,316.09a1,1,0,1,0,1-1A1,1,0,0,0,191.33,316.09Z" transform="translate(28 3)"/><path class="cls-3" d="M274.71,296.08a1,1,0,1,0,1-1A1,1,0,0,0,274.71,296.08Z" transform="translate(28 3)"/><path class="cls-3" d="M297.22,384.46a1,1,0,1,0,1-1A1,1,0,0,0,297.22,384.46Z" transform="translate(28 3)"/><path class="cls-3" d="M283.75,440.19a1,1,0,1,0,1-1A1,1,0,0,0,283.75,440.19Z" transform="translate(28 3)"/><path class="cls-3" d="M119.5,368.74a1,1,0,1,0,1-1A1,1,0,0,0,119.5,368.74Z" transform="translate(28 3)"/><path class="cls-3" d="M279.71,326.93a1,1,0,1,0,1-1A1,1,0,0,0,279.71,326.93Z" transform="translate(28 3)"/><circle class="cls-3" cx="21.17" cy="378.98" r="2.2"/><path class="cls-3" d="M-8.75,447.82a2.19,2.19,0,0,0,2.2,2.2,2.2,2.2,0,0,0,2.2-2.2,2.21,2.21,0,0,0-2.2-2.2A2.2,2.2,0,0,0-8.75,447.82Z" transform="translate(28 3)"/><circle class="cls-3" cx="57.3" cy="351.3" r="2.2"/><path class="cls-3" d="M6.79,296.08a1,1,0,1,0,1-1A1,1,0,0,0,6.79,296.08Z" transform="translate(28 3)"/><path class="cls-3" d="M29.3,384.46a1,1,0,0,0,1.93,0,1,1,0,1,0-1.93,0Z" transform="translate(28 3)"/><path class="cls-3" d="M15.83,440.19a1,1,0,1,0,1-1A1,1,0,0,0,15.83,440.19Z" transform="translate(28 3)"/><path class="cls-3" d="M11.79,326.93a1,1,0,1,0,1-1A1,1,0,0,0,11.79,326.93Z" transform="translate(28 3)"/><path class="cls-3" d="M55.13,518.15a5.56,5.56,0,1,1-5.56-5.56A5.56,5.56,0,0,1,55.13,518.15Z" transform="translate(28 3)"/><path class="cls-3" d="M136.3,596.79a5.56,5.56,0,1,1-5.56-5.56A5.56,5.56,0,0,1,136.3,596.79Z" transform="translate(28 3)"/><path class="cls-3" d="M31.5,574.69a2.2,2.2,0,1,1-2.2-2.2A2.19,2.19,0,0,1,31.5,574.69Z" transform="translate(28 3)"/><path class="cls-3" d="M104.59,567a2.2,2.2,0,1,1-2.19-2.2A2.19,2.19,0,0,1,104.59,567Z" transform="translate(28 3)"/><path class="cls-3" d="M31.22,646.54a2.2,2.2,0,1,1-2.2-2.2A2.2,2.2,0,0,1,31.22,646.54Z" transform="translate(28 3)"/><path class="cls-3" d="M-4.63,547a2.19,2.19,0,0,1-2.2,2.19A2.19,2.19,0,0,1-9,547a2.19,2.19,0,0,1,2.2-2.2A2.19,2.19,0,0,1-4.63,547Z" transform="translate(28 3)"/><path class="cls-3" d="M193.81,614.85a2.2,2.2,0,1,1-2.2-2.2A2.2,2.2,0,0,1,193.81,614.85Z" transform="translate(28 3)"/><path class="cls-3" d="M151.29,627.66a2.2,2.2,0,1,1-2.21-2.2A2.2,2.2,0,0,1,151.29,627.66Z" transform="translate(28 3)"/><path class="cls-3" d="M230.8,602.35a2.2,2.2,0,1,1-2.2-2.2A2.21,2.21,0,0,1,230.8,602.35Z" transform="translate(28 3)"/><path class="cls-3" d="M139.61,490.62a2.2,2.2,0,1,1-2.2-2.2A2.19,2.19,0,0,1,139.61,490.62Z" transform="translate(28 3)"/><path class="cls-3" d="M131.17,535.23a1,1,0,1,1-1-1A1,1,0,0,1,131.17,535.23Z" transform="translate(28 3)"/><path class="cls-3" d="M183.4,537.19a1,1,0,1,1-1-1A1,1,0,0,1,183.4,537.19Z" transform="translate(28 3)"/><path class="cls-3" d="M162.55,513.26a1,1,0,1,1-1-1A1,1,0,0,1,162.55,513.26Z" transform="translate(28 3)"/><path class="cls-3" d="M62.5,549.69a1,1,0,1,1-1-1A1,1,0,0,1,62.5,549.69Z" transform="translate(28 3)"/><path class="cls-3" d="M72.64,614.85a1,1,0,1,1-1-1A1,1,0,0,1,72.64,614.85Z" transform="translate(28 3)"/><path class="cls-3" d="M116.7,651.41a1,1,0,1,1-1-1A1,1,0,0,1,116.7,651.41Z" transform="translate(28 3)"/><path class="cls-3" d="M93.48,635.7a1,1,0,1,1-1-1A1,1,0,0,1,93.48,635.7Z" transform="translate(28 3)"/><path class="cls-3" d="M176.86,595.68a1,1,0,1,1-1-1A1,1,0,0,1,176.86,595.68Z" transform="translate(28 3)"/><path class="cls-3" d="M195.91,637.24a1,1,0,1,1-1-1A1,1,0,0,1,195.91,637.24Z" transform="translate(28 3)"/><path class="cls-3" d="M224.12,563.16a1,1,0,1,1-1-1A1,1,0,0,1,224.12,563.16Z" transform="translate(28 3)"/><path class="cls-3" d="M225,499a1,1,0,1,1-1-1A1,1,0,0,1,225,499Z" transform="translate(28 3)"/><path class="cls-3" d="M99.06,514.8a1,1,0,1,1-1-1A1,1,0,0,1,99.06,514.8Z" transform="translate(28 3)"/><path class="cls-3" d="M15.68,494.79a1,1,0,1,1-1-1A1,1,0,0,1,15.68,494.79Z" transform="translate(28 3)"/><path class="cls-3" d="M-6.83,583.17a1,1,0,0,1-1,1,1,1,0,0,1-1-1,1,1,0,0,1,1-1A1,1,0,0,1-6.83,583.17Z" transform="translate(28 3)"/><path class="cls-3" d="M6.64,638.91a1,1,0,1,1-1-1A1,1,0,0,1,6.64,638.91Z" transform="translate(28 3)"/><path class="cls-3" d="M170.89,567.46a1,1,0,1,1-1-1A1,1,0,0,1,170.89,567.46Z" transform="translate(28 3)"/><path class="cls-3" d="M10.68,525.64a1,1,0,1,1-1-1A1,1,0,0,1,10.68,525.64Z" transform="translate(28 3)"/><path class="cls-3" d="M478.13,523.15a5.56,5.56,0,1,1-5.56-5.56A5.56,5.56,0,0,1,478.13,523.15Z" transform="translate(28 3)"/><path class="cls-3" d="M402.78,661.55a5.56,5.56,0,1,1-5.56-5.57A5.55,5.55,0,0,1,402.78,661.55Z" transform="translate(28 3)"/><path class="cls-3" d="M299.42,574.69a2.2,2.2,0,1,1-2.2-2.2A2.2,2.2,0,0,1,299.42,574.69Z" transform="translate(28 3)"/><path class="cls-3" d="M372.51,567a2.2,2.2,0,1,1-2.2-2.2A2.19,2.19,0,0,1,372.51,567Z" transform="translate(28 3)"/><path class="cls-3" d="M299.14,646.54a2.2,2.2,0,1,1-2.2-2.2A2.2,2.2,0,0,1,299.14,646.54Z" transform="translate(28 3)"/><path class="cls-3" d="M263.29,547a2.2,2.2,0,1,1-2.2-2.2A2.19,2.19,0,0,1,263.29,547Z" transform="translate(28 3)"/><path class="cls-3" d="M461.73,614.85a2.2,2.2,0,1,1-2.2-2.2A2.2,2.2,0,0,1,461.73,614.85Z" transform="translate(28 3)"/><path class="cls-3" d="M419.21,627.66a2.2,2.2,0,1,1-2.2-2.2A2.2,2.2,0,0,1,419.21,627.66Z" transform="translate(28 3)"/><path class="cls-3" d="M498.71,602.35a2.2,2.2,0,1,1-2.19-2.2A2.2,2.2,0,0,1,498.71,602.35Z" transform="translate(28 3)"/><path class="cls-3" d="M407.53,490.62a2.2,2.2,0,1,1-2.2-2.2A2.19,2.19,0,0,1,407.53,490.62Z" transform="translate(28 3)"/><path class="cls-3" d="M399.09,535.23a1,1,0,1,1-1-1A1,1,0,0,1,399.09,535.23Z" transform="translate(28 3)"/><path class="cls-3" d="M451.32,537.19a1,1,0,1,1-1-1A1,1,0,0,1,451.32,537.19Z" transform="translate(28 3)"/><path class="cls-3" d="M430.48,513.26a1,1,0,1,1-1-1A1,1,0,0,1,430.48,513.26Z" transform="translate(28 3)"/><path class="cls-3" d="M330.42,549.69a1,1,0,1,1-1-1A1,1,0,0,1,330.42,549.69Z" transform="translate(28 3)"/><path class="cls-3" d="M340.55,614.85a1,1,0,1,1-1-1A1,1,0,0,1,340.55,614.85Z" transform="translate(28 3)"/><path class="cls-3" d="M384.62,651.41a1,1,0,1,1-1-1A1,1,0,0,1,384.62,651.41Z" transform="translate(28 3)"/><path class="cls-3" d="M361.4,635.7a1,1,0,0,1-1.93,0,1,1,0,1,1,1.93,0Z" transform="translate(28 3)"/><path class="cls-3" d="M444.78,595.68a1,1,0,1,1-1-1A1,1,0,0,1,444.78,595.68Z" transform="translate(28 3)"/><path class="cls-3" d="M463.83,637.24a1,1,0,1,1-1-1A1,1,0,0,1,463.83,637.24Z" transform="translate(28 3)"/><path class="cls-3" d="M492.05,563.16a1,1,0,1,1-1-1A1,1,0,0,1,492.05,563.16Z" transform="translate(28 3)"/><path class="cls-3" d="M492.88,499a1,1,0,1,1-1-1A1,1,0,0,1,492.88,499Z" transform="translate(28 3)"/><path class="cls-3" d="M367,514.8a1,1,0,1,1-1-1A1,1,0,0,1,367,514.8Z" transform="translate(28 3)"/><path class="cls-3" d="M283.6,494.79a1,1,0,1,1-1-1A1,1,0,0,1,283.6,494.79Z" transform="translate(28 3)"/><path class="cls-3" d="M261.09,583.17a1,1,0,1,1-1-1A1,1,0,0,1,261.09,583.17Z" transform="translate(28 3)"/><path class="cls-3" d="M274.56,638.91a1,1,0,1,1-1-1A1,1,0,0,1,274.56,638.91Z" transform="translate(28 3)"/><path class="cls-3" d="M438.81,567.46a1,1,0,1,1-1-1A1,1,0,0,1,438.81,567.46Z" transform="translate(28 3)"/><path class="cls-3" d="M278.6,525.64a1,1,0,1,1-1-1A1,1,0,0,1,278.6,525.64Z" transform="translate(28 3)"/><path class="cls-3" d="M669.58,518.14a5.56,5.56,0,1,1-5.55-5.56A5.55,5.55,0,0,1,669.58,518.14Z" transform="translate(28 3)"/><path class="cls-3" d="M567.34,574.69a2.2,2.2,0,1,1-2.2-2.2A2.19,2.19,0,0,1,567.34,574.69Z" transform="translate(28 3)"/><path class="cls-3" d="M640.44,567a2.21,2.21,0,1,1-2.21-2.2A2.2,2.2,0,0,1,640.44,567Z" transform="translate(28 3)"/><path class="cls-3" d="M567.06,646.54a2.2,2.2,0,1,1-2.2-2.2A2.2,2.2,0,0,1,567.06,646.54Z" transform="translate(28 3)"/><path class="cls-3" d="M531.21,547a2.2,2.2,0,1,1-2.2-2.2A2.19,2.19,0,0,1,531.21,547Z" transform="translate(28 3)"/><path class="cls-3" d="M729.65,614.85a2.2,2.2,0,1,1-2.2-2.2A2.2,2.2,0,0,1,729.65,614.85Z" transform="translate(28 3)"/><path class="cls-3" d="M687.13,627.66a2.2,2.2,0,1,1-2.2-2.2A2.2,2.2,0,0,1,687.13,627.66Z" transform="translate(28 3)"/><path class="cls-3" d="M766.64,602.35a2.2,2.2,0,1,1-2.21-2.2A2.21,2.21,0,0,1,766.64,602.35Z" transform="translate(28 3)"/><path class="cls-3" d="M675.45,490.62a2.2,2.2,0,1,1-2.2-2.2A2.19,2.19,0,0,1,675.45,490.62Z" transform="translate(28 3)"/><path class="cls-3" d="M667,535.23a1,1,0,1,1-1-1A1,1,0,0,1,667,535.23Z" transform="translate(28 3)"/><path class="cls-3" d="M719.24,537.19a1,1,0,0,1-1.93,0,1,1,0,1,1,1.93,0Z" transform="translate(28 3)"/><path class="cls-3" d="M698.4,513.26a1,1,0,1,1-1-1A1,1,0,0,1,698.4,513.26Z" transform="translate(28 3)"/><path class="cls-3" d="M598.34,549.69a1,1,0,1,1-1-1A1,1,0,0,1,598.34,549.69Z" transform="translate(28 3)"/><path class="cls-3" d="M608.47,614.85a1,1,0,1,1-1-1A1,1,0,0,1,608.47,614.85Z" transform="translate(28 3)"/><path class="cls-3" d="M652.54,651.41a1,1,0,1,1-1-1A1,1,0,0,1,652.54,651.41Z" transform="translate(28 3)"/><path class="cls-3" d="M629.32,635.7a1,1,0,0,1-1,1,1,1,0,0,1,0-1.93A1,1,0,0,1,629.32,635.7Z" transform="translate(28 3)"/><path class="cls-3" d="M712.7,595.68a1,1,0,1,1-1-1A1,1,0,0,1,712.7,595.68Z" transform="translate(28 3)"/><path class="cls-3" d="M731.75,637.24a1,1,0,1,1-1-1A1,1,0,0,1,731.75,637.24Z" transform="translate(28 3)"/><path class="cls-3" d="M760,563.16a1,1,0,1,1-1-1A1,1,0,0,1,760,563.16Z" transform="translate(28 3)"/><path class="cls-3" d="M760.8,499a1,1,0,1,1-1-1A1,1,0,0,1,760.8,499Z" transform="translate(28 3)"/><path class="cls-3" d="M634.9,514.8a1,1,0,1,1-1-1A1,1,0,0,1,634.9,514.8Z" transform="translate(28 3)"/><path class="cls-3" d="M551.52,494.79a1,1,0,1,1-1-1A1,1,0,0,1,551.52,494.79Z" transform="translate(28 3)"/><path class="cls-3" d="M529,583.17a1,1,0,1,1-1-1A1,1,0,0,1,529,583.17Z" transform="translate(28 3)"/><path class="cls-3" d="M542.48,638.91a1,1,0,0,1-1.93,0,1,1,0,1,1,1.93,0Z" transform="translate(28 3)"/><path class="cls-3" d="M706.73,567.46a1,1,0,1,1-1-1A1,1,0,0,1,706.73,567.46Z" transform="translate(28 3)"/><path class="cls-3" d="M546.52,525.64a1,1,0,1,1-1-1A1,1,0,0,1,546.52,525.64Z" transform="translate(28 3)"/><path class="cls-3" d="M768,626a5.56,5.56,0,1,1-5.56-5.56A5.56,5.56,0,0,1,768,626Z" transform="translate(28 3)"/><path class="cls-3" d="M940.06,596.79a5.56,5.56,0,1,1-5.56-5.56A5.56,5.56,0,0,1,940.06,596.79Z" transform="translate(28 3)"/><path class="cls-3" d="M835.26,574.69a2.2,2.2,0,1,1-2.2-2.2A2.19,2.19,0,0,1,835.26,574.69Z" transform="translate(28 3)"/><path class="cls-3" d="M908.35,567a2.2,2.2,0,1,1-2.2-2.2A2.19,2.19,0,0,1,908.35,567Z" transform="translate(28 3)"/><path class="cls-3" d="M835,646.54a2.2,2.2,0,1,1-2.2-2.2A2.2,2.2,0,0,1,835,646.54Z" transform="translate(28 3)"/><path class="cls-3" d="M799.13,547a2.2,2.2,0,1,1-2.2-2.2A2.19,2.19,0,0,1,799.13,547Z" transform="translate(28 3)"/><path class="cls-3" d="M997.57,614.85a2.2,2.2,0,1,1-2.2-2.2A2.2,2.2,0,0,1,997.57,614.85Z" transform="translate(28 3)"/><path class="cls-3" d="M955.05,627.66a2.2,2.2,0,1,1-2.21-2.2A2.2,2.2,0,0,1,955.05,627.66Z" transform="translate(28 3)"/><path class="cls-3" d="M1034.55,602.35a2.2,2.2,0,1,1-2.19-2.2A2.2,2.2,0,0,1,1034.55,602.35Z" transform="translate(28 3)"/><path class="cls-3" d="M943.37,490.62a2.2,2.2,0,1,1-2.2-2.2A2.19,2.19,0,0,1,943.37,490.62Z" transform="translate(28 3)"/><path class="cls-3" d="M934.93,535.23a1,1,0,1,1-1-1A1,1,0,0,1,934.93,535.23Z" transform="translate(28 3)"/><path class="cls-3" d="M987.16,537.19a1,1,0,1,1-1-1A1,1,0,0,1,987.16,537.19Z" transform="translate(28 3)"/><path class="cls-3" d="M966.31,513.26a1,1,0,1,1-1-1A1,1,0,0,1,966.31,513.26Z" transform="translate(28 3)"/><path class="cls-3" d="M866.26,549.69a1,1,0,1,1-1-1A1,1,0,0,1,866.26,549.69Z" transform="translate(28 3)"/><path class="cls-3" d="M876.39,614.85a1,1,0,1,1-1-1A1,1,0,0,1,876.39,614.85Z" transform="translate(28 3)"/><path class="cls-3" d="M920.46,651.41a1,1,0,0,1-1,1,1,1,0,0,1,0-1.92A1,1,0,0,1,920.46,651.41Z" transform="translate(28 3)"/><path class="cls-3" d="M897.24,635.7a1,1,0,0,1-1.93,0,1,1,0,1,1,1.93,0Z" transform="translate(28 3)"/><path class="cls-3" d="M980.62,595.68a1,1,0,1,1-1-1A1,1,0,0,1,980.62,595.68Z" transform="translate(28 3)"/><path class="cls-3" d="M999.66,637.24a1,1,0,1,1-1-1A1,1,0,0,1,999.66,637.24Z" transform="translate(28 3)"/><path class="cls-3" d="M1027.88,563.16a1,1,0,1,1-1-1A1,1,0,0,1,1027.88,563.16Z" transform="translate(28 3)"/><path class="cls-3" d="M1028.72,499a1,1,0,1,1-1-1A1,1,0,0,1,1028.72,499Z" transform="translate(28 3)"/><path class="cls-3" d="M902.82,514.8a1,1,0,1,1-1-1A1,1,0,0,1,902.82,514.8Z" transform="translate(28 3)"/><path class="cls-3" d="M819.44,494.79a1,1,0,1,1-1-1A1,1,0,0,1,819.44,494.79Z" transform="translate(28 3)"/><path class="cls-3" d="M796.93,583.17a1,1,0,1,1-1-1A1,1,0,0,1,796.93,583.17Z" transform="translate(28 3)"/><path class="cls-3" d="M810.4,638.91a1,1,0,1,1-1-1A1,1,0,0,1,810.4,638.91Z" transform="translate(28 3)"/><path class="cls-3" d="M974.65,567.46a1,1,0,1,1-1-1A1,1,0,0,1,974.65,567.46Z" transform="translate(28 3)"/><path class="cls-3" d="M814.44,525.64a1,1,0,1,1-1-1A1,1,0,0,1,814.44,525.64Z" transform="translate(28 3)"/><path class="cls-3" d="M1123.71,646.54a5.56,5.56,0,1,1-5.56-5.56A5.55,5.55,0,0,1,1123.71,646.54Z" transform="translate(28 3)"/><path class="cls-3" d="M1208,596.79a5.56,5.56,0,1,1-5.56-5.56A5.56,5.56,0,0,1,1208,596.79Z" transform="translate(28 3)"/><path class="cls-3" d="M1103.18,574.69a2.2,2.2,0,1,1-2.2-2.2A2.2,2.2,0,0,1,1103.18,574.69Z" transform="translate(28 3)"/><path class="cls-3" d="M1176.28,567a2.2,2.2,0,1,1-2.21-2.2A2.2,2.2,0,0,1,1176.28,567Z" transform="translate(28 3)"/><path class="cls-3" d="M1102.9,646.54a2.2,2.2,0,1,1-2.2-2.2A2.2,2.2,0,0,1,1102.9,646.54Z" transform="translate(28 3)"/><path class="cls-3" d="M1067.05,547a2.2,2.2,0,1,1-2.2-2.2A2.2,2.2,0,0,1,1067.05,547Z" transform="translate(28 3)"/><path class="cls-3" d="M1265.49,614.85a2.2,2.2,0,1,1-2.2-2.2A2.2,2.2,0,0,1,1265.49,614.85Z" transform="translate(28 3)"/><path class="cls-3" d="M1223,627.66a2.2,2.2,0,1,1-2.2-2.2A2.2,2.2,0,0,1,1223,627.66Z" transform="translate(28 3)"/><path class="cls-3" d="M1302.47,602.35a2.2,2.2,0,1,1-2.2-2.2A2.2,2.2,0,0,1,1302.47,602.35Z" transform="translate(28 3)"/><path class="cls-3" d="M1211.29,490.62a2.2,2.2,0,1,1-2.2-2.2A2.19,2.19,0,0,1,1211.29,490.62Z" transform="translate(28 3)"/><path class="cls-3" d="M1202.85,535.23a1,1,0,1,1-1-1A1,1,0,0,1,1202.85,535.23Z" transform="translate(28 3)"/><path class="cls-3" d="M1255.08,537.19a1,1,0,1,1-1-1A1,1,0,0,1,1255.08,537.19Z" transform="translate(28 3)"/><path class="cls-3" d="M1234.24,513.26a1,1,0,1,1-1-1A1,1,0,0,1,1234.24,513.26Z" transform="translate(28 3)"/><path class="cls-3" d="M1134.18,549.69a1,1,0,1,1-1-1A1,1,0,0,1,1134.18,549.69Z" transform="translate(28 3)"/><path class="cls-3" d="M1144.31,614.85a1,1,0,1,1-1-1A1,1,0,0,1,1144.31,614.85Z" transform="translate(28 3)"/><path class="cls-3" d="M1188.38,651.41a1,1,0,1,1-1-1A1,1,0,0,1,1188.38,651.41Z" transform="translate(28 3)"/><path class="cls-3" d="M1165.16,635.7a1,1,0,0,1-1.93,0,1,1,0,1,1,1.93,0Z" transform="translate(28 3)"/><path class="cls-3" d="M1248.54,595.68a1,1,0,1,1-1-1A1,1,0,0,1,1248.54,595.68Z" transform="translate(28 3)"/><path class="cls-3" d="M1267.59,637.24a1,1,0,1,1-1-1A1,1,0,0,1,1267.59,637.24Z" transform="translate(28 3)"/><path class="cls-3" d="M1295.8,563.16a1,1,0,1,1-1-1A1,1,0,0,1,1295.8,563.16Z" transform="translate(28 3)"/><path class="cls-3" d="M1296.64,499a1,1,0,1,1-1-1A1,1,0,0,1,1296.64,499Z" transform="translate(28 3)"/><path class="cls-3" d="M1170.74,514.8a1,1,0,1,1-1-1A1,1,0,0,1,1170.74,514.8Z" transform="translate(28 3)"/><path class="cls-3" d="M1087.36,494.79a1,1,0,1,1-1-1A1,1,0,0,1,1087.36,494.79Z" transform="translate(28 3)"/><path class="cls-3" d="M1064.85,583.17a1,1,0,1,1-1-1A1,1,0,0,1,1064.85,583.17Z" transform="translate(28 3)"/><path class="cls-3" d="M1078.32,638.91a1,1,0,1,1-1-1A1,1,0,0,1,1078.32,638.91Z" transform="translate(28 3)"/><path class="cls-3" d="M1242.57,567.46a1,1,0,1,1-1-1A1,1,0,0,1,1242.57,567.46Z" transform="translate(28 3)"/><path class="cls-3" d="M1082.36,525.64a1,1,0,1,1-1-1A1,1,0,0,1,1082.36,525.64Z" transform="translate(28 3)"/><path class="cls-3" d="M1371.1,574.69a2.2,2.2,0,1,1-2.2-2.2A2.2,2.2,0,0,1,1371.1,574.69Z" transform="translate(28 3)"/><path class="cls-3" d="M1370.82,646.54a2.2,2.2,0,1,1-2.2-2.2A2.2,2.2,0,0,1,1370.82,646.54Z" transform="translate(28 3)"/><path class="cls-3" d="M1335,547a2.2,2.2,0,1,1-2.2-2.2A2.2,2.2,0,0,1,1335,547Z" transform="translate(28 3)"/><path class="cls-3" d="M1355.28,494.79a1,1,0,1,1-1-1A1,1,0,0,1,1355.28,494.79Z" transform="translate(28 3)"/><path class="cls-3" d="M1332.77,583.17a1,1,0,1,1-1-1A1,1,0,0,1,1332.77,583.17Z" transform="translate(28 3)"/><path class="cls-3" d="M1346.24,638.91a1,1,0,1,1-1-1A1,1,0,0,1,1346.24,638.91Z" transform="translate(28 3)"/><path class="cls-3" d="M1350.28,525.64a1,1,0,0,1-1,1,1,1,0,0,1,0-1.92A1,1,0,0,1,1350.28,525.64Z" transform="translate(28 3)"/><path class="cls-3" d="M55.13,909.74a5.56,5.56,0,1,1-5.56-5.56A5.56,5.56,0,0,1,55.13,909.74Z" transform="translate(28 3)"/><path class="cls-3" d="M136.3,988.39a5.56,5.56,0,1,1-5.56-5.57A5.56,5.56,0,0,1,136.3,988.39Z" transform="translate(28 3)"/><path class="cls-3" d="M31.5,966.29a2.2,2.2,0,1,1-2.2-2.2A2.2,2.2,0,0,1,31.5,966.29Z" transform="translate(28 3)"/><path class="cls-3" d="M104.59,958.62a2.2,2.2,0,1,1-2.19-2.2A2.19,2.19,0,0,1,104.59,958.62Z" transform="translate(28 3)"/><path class="cls-3" d="M31.22,1038.13a2.2,2.2,0,1,1-2.2-2.2A2.19,2.19,0,0,1,31.22,1038.13Z" transform="translate(28 3)"/><path class="cls-3" d="M-4.63,938.61a2.19,2.19,0,0,1-2.2,2.2,2.19,2.19,0,0,1-2.2-2.2,2.19,2.19,0,0,1,2.2-2.2A2.19,2.19,0,0,1-4.63,938.61Z" transform="translate(28 3)"/><circle class="cls-3" cx="219.61" cy="1009.45" r="2.2"/><path class="cls-3" d="M151.29,1019.26a2.2,2.2,0,1,1-2.21-2.2A2.2,2.2,0,0,1,151.29,1019.26Z" transform="translate(28 3)"/><path class="cls-3" d="M230.8,993.94a2.2,2.2,0,1,1-2.2-2.2A2.2,2.2,0,0,1,230.8,993.94Z" transform="translate(28 3)"/><path class="cls-3" d="M139.61,882.21a2.2,2.2,0,1,1-2.2-2.19A2.19,2.19,0,0,1,139.61,882.21Z" transform="translate(28 3)"/><path class="cls-3" d="M131.17,926.82a1,1,0,1,1-1-1A1,1,0,0,1,131.17,926.82Z" transform="translate(28 3)"/><path class="cls-3" d="M183.4,928.78a1,1,0,1,1-1-1A1,1,0,0,1,183.4,928.78Z" transform="translate(28 3)"/><path class="cls-3" d="M162.55,904.86a1,1,0,1,1-1-1A1,1,0,0,1,162.55,904.86Z" transform="translate(28 3)"/><path class="cls-3" d="M62.5,941.29a1,1,0,1,1-1-1A1,1,0,0,1,62.5,941.29Z" transform="translate(28 3)"/><path class="cls-3" d="M72.64,1006.45a1,1,0,1,1-1-1A1,1,0,0,1,72.64,1006.45Z" transform="translate(28 3)"/><path class="cls-3" d="M116.7,1043a1,1,0,1,1-1-1A1,1,0,0,1,116.7,1043Z" transform="translate(28 3)"/><path class="cls-3" d="M93.48,1027.29a1,1,0,1,1-1-1A1,1,0,0,1,93.48,1027.29Z" transform="translate(28 3)"/><path class="cls-3" d="M176.86,987.27a1,1,0,1,1-1-1A1,1,0,0,1,176.86,987.27Z" transform="translate(28 3)"/><path class="cls-3" d="M195.91,1028.83a1,1,0,1,1-1-1A1,1,0,0,1,195.91,1028.83Z" transform="translate(28 3)"/><path class="cls-3" d="M224.12,954.75a1,1,0,1,1-1-1A1,1,0,0,1,224.12,954.75Z" transform="translate(28 3)"/><path class="cls-3" d="M225,890.55a1,1,0,1,1-1-1A1,1,0,0,1,225,890.55Z" transform="translate(28 3)"/><path class="cls-3" d="M99.06,906.4a1,1,0,0,1-1.92,0,1,1,0,1,1,1.92,0Z" transform="translate(28 3)"/><path class="cls-3" d="M15.68,886.38a1,1,0,1,1-1-1A1,1,0,0,1,15.68,886.38Z" transform="translate(28 3)"/><path class="cls-3" d="M-6.83,974.76a1,1,0,0,1-1,1,1,1,0,0,1-1-1,1,1,0,0,1,1-1A1,1,0,0,1-6.83,974.76Z" transform="translate(28 3)"/><path class="cls-3" d="M6.64,1030.5a1,1,0,1,1-1-1A1,1,0,0,1,6.64,1030.5Z" transform="translate(28 3)"/><path class="cls-3" d="M170.89,959.05a1,1,0,1,1-1-1A1,1,0,0,1,170.89,959.05Z" transform="translate(28 3)"/><path class="cls-3" d="M10.68,917.23a1,1,0,1,1-1-1A1,1,0,0,1,10.68,917.23Z" transform="translate(28 3)"/><path class="cls-3" d="M478.13,914.75a5.56,5.56,0,1,1-5.56-5.56A5.55,5.55,0,0,1,478.13,914.75Z" transform="translate(28 3)"/><path class="cls-3" d="M402.78,1053.14a5.56,5.56,0,1,1-5.56-5.56A5.56,5.56,0,0,1,402.78,1053.14Z" transform="translate(28 3)"/><path class="cls-3" d="M299.42,966.29a2.2,2.2,0,1,1-2.2-2.2A2.21,2.21,0,0,1,299.42,966.29Z" transform="translate(28 3)"/><path class="cls-3" d="M372.51,958.62a2.2,2.2,0,1,1-2.2-2.2A2.19,2.19,0,0,1,372.51,958.62Z" transform="translate(28 3)"/><path class="cls-3" d="M299.14,1038.13a2.2,2.2,0,1,1-2.2-2.2A2.19,2.19,0,0,1,299.14,1038.13Z" transform="translate(28 3)"/><path class="cls-3" d="M263.29,938.61a2.2,2.2,0,1,1-2.2-2.2A2.19,2.19,0,0,1,263.29,938.61Z" transform="translate(28 3)"/><path class="cls-3" d="M461.73,1006.45a2.2,2.2,0,1,1-2.2-2.2A2.21,2.21,0,0,1,461.73,1006.45Z" transform="translate(28 3)"/><path class="cls-3" d="M419.21,1019.26a2.2,2.2,0,1,1-2.2-2.2A2.2,2.2,0,0,1,419.21,1019.26Z" transform="translate(28 3)"/><path class="cls-3" d="M498.71,993.94a2.2,2.2,0,1,1-2.19-2.2A2.19,2.19,0,0,1,498.71,993.94Z" transform="translate(28 3)"/><path class="cls-3" d="M407.53,882.21a2.2,2.2,0,1,1-2.2-2.19A2.19,2.19,0,0,1,407.53,882.21Z" transform="translate(28 3)"/><path class="cls-3" d="M399.09,926.82a1,1,0,1,1-1-1A1,1,0,0,1,399.09,926.82Z" transform="translate(28 3)"/><path class="cls-3" d="M451.32,928.78a1,1,0,1,1-1-1A1,1,0,0,1,451.32,928.78Z" transform="translate(28 3)"/><path class="cls-3" d="M430.48,904.86a1,1,0,1,1-1-1A1,1,0,0,1,430.48,904.86Z" transform="translate(28 3)"/><circle class="cls-3" cx="357.46" cy="944.29" r="0.96"/><path class="cls-3" d="M340.55,1006.45a1,1,0,1,1-1-1A1,1,0,0,1,340.55,1006.45Z" transform="translate(28 3)"/><circle class="cls-3" cx="411.66" cy="1046.01" r="0.96"/><path class="cls-3" d="M361.4,1027.29a1,1,0,1,1-1-1A1,1,0,0,1,361.4,1027.29Z" transform="translate(28 3)"/><path class="cls-3" d="M444.78,987.27a1,1,0,1,1-1-1A1,1,0,0,1,444.78,987.27Z" transform="translate(28 3)"/><path class="cls-3" d="M463.83,1028.83a1,1,0,1,1-1-1A1,1,0,0,1,463.83,1028.83Z" transform="translate(28 3)"/><path class="cls-3" d="M492.05,954.75a1,1,0,1,1-1-1A1,1,0,0,1,492.05,954.75Z" transform="translate(28 3)"/><path class="cls-3" d="M492.88,890.55a1,1,0,1,1-1-1A1,1,0,0,1,492.88,890.55Z" transform="translate(28 3)"/><path class="cls-3" d="M367,906.4a1,1,0,0,1-1.92,0,1,1,0,1,1,1.92,0Z" transform="translate(28 3)"/><path class="cls-3" d="M283.6,886.38a1,1,0,1,1-1-1A1,1,0,0,1,283.6,886.38Z" transform="translate(28 3)"/><path class="cls-3" d="M261.09,974.76a1,1,0,1,1-1-1A1,1,0,0,1,261.09,974.76Z" transform="translate(28 3)"/><path class="cls-3" d="M274.56,1030.5a1,1,0,1,1-1-1A1,1,0,0,1,274.56,1030.5Z" transform="translate(28 3)"/><path class="cls-3" d="M438.81,959.05a1,1,0,1,1-1-1A1,1,0,0,1,438.81,959.05Z" transform="translate(28 3)"/><path class="cls-3" d="M278.6,917.23a1,1,0,1,1-1-1A1,1,0,0,1,278.6,917.23Z" transform="translate(28 3)"/><path class="cls-3" d="M669.58,909.73a5.56,5.56,0,1,1-5.55-5.56A5.55,5.55,0,0,1,669.58,909.73Z" transform="translate(28 3)"/><path class="cls-3" d="M567.34,966.29a2.2,2.2,0,1,1-2.2-2.2A2.2,2.2,0,0,1,567.34,966.29Z" transform="translate(28 3)"/><path class="cls-3" d="M640.44,958.62a2.21,2.21,0,1,1-2.21-2.2A2.2,2.2,0,0,1,640.44,958.62Z" transform="translate(28 3)"/><path class="cls-3" d="M567.06,1038.13a2.2,2.2,0,1,1-2.2-2.2A2.19,2.19,0,0,1,567.06,1038.13Z" transform="translate(28 3)"/><path class="cls-3" d="M531.21,938.61a2.2,2.2,0,1,1-2.2-2.2A2.19,2.19,0,0,1,531.21,938.61Z" transform="translate(28 3)"/><path class="cls-3" d="M729.65,1006.45a2.2,2.2,0,1,1-2.2-2.2A2.21,2.21,0,0,1,729.65,1006.45Z" transform="translate(28 3)"/><path class="cls-3" d="M687.13,1019.26a2.2,2.2,0,1,1-2.2-2.2A2.2,2.2,0,0,1,687.13,1019.26Z" transform="translate(28 3)"/><path class="cls-3" d="M766.64,993.94a2.2,2.2,0,1,1-2.21-2.2A2.2,2.2,0,0,1,766.64,993.94Z" transform="translate(28 3)"/><path class="cls-3" d="M675.45,882.21a2.2,2.2,0,1,1-2.2-2.19A2.19,2.19,0,0,1,675.45,882.21Z" transform="translate(28 3)"/><circle class="cls-3" cx="694.05" cy="929.82" r="0.96"/><path class="cls-3" d="M719.24,928.78a1,1,0,1,1-1-1A1,1,0,0,1,719.24,928.78Z" transform="translate(28 3)"/><path class="cls-3" d="M698.4,904.86a1,1,0,1,1-1-1A1,1,0,0,1,698.4,904.86Z" transform="translate(28 3)"/><path class="cls-3" d="M598.34,941.29a1,1,0,1,1-1-1A1,1,0,0,1,598.34,941.29Z" transform="translate(28 3)"/><path class="cls-3" d="M608.47,1006.45a1,1,0,1,1-1-1A1,1,0,0,1,608.47,1006.45Z" transform="translate(28 3)"/><path class="cls-3" d="M652.54,1043a1,1,0,1,1-1-1A1,1,0,0,1,652.54,1043Z" transform="translate(28 3)"/><path class="cls-3" d="M629.32,1027.29a1,1,0,0,1-1,1,1,1,0,0,1,0-1.92A1,1,0,0,1,629.32,1027.29Z" transform="translate(28 3)"/><path class="cls-3" d="M712.7,987.27a1,1,0,1,1-1-1A1,1,0,0,1,712.7,987.27Z" transform="translate(28 3)"/><path class="cls-3" d="M731.75,1028.83a1,1,0,1,1-1-1A1,1,0,0,1,731.75,1028.83Z" transform="translate(28 3)"/><path class="cls-3" d="M760,954.75a1,1,0,1,1-1-1A1,1,0,0,1,760,954.75Z" transform="translate(28 3)"/><path class="cls-3" d="M760.8,890.55a1,1,0,1,1-1-1A1,1,0,0,1,760.8,890.55Z" transform="translate(28 3)"/><path class="cls-3" d="M634.9,906.4a1,1,0,0,1-1.92,0,1,1,0,1,1,1.92,0Z" transform="translate(28 3)"/><path class="cls-3" d="M551.52,886.38a1,1,0,1,1-1-1A1,1,0,0,1,551.52,886.38Z" transform="translate(28 3)"/><path class="cls-3" d="M529,974.76a1,1,0,1,1-1-1A1,1,0,0,1,529,974.76Z" transform="translate(28 3)"/><path class="cls-3" d="M542.48,1030.5a1,1,0,1,1-1-1A1,1,0,0,1,542.48,1030.5Z" transform="translate(28 3)"/><path class="cls-3" d="M706.73,959.05a1,1,0,1,1-1-1A1,1,0,0,1,706.73,959.05Z" transform="translate(28 3)"/><circle class="cls-3" cx="573.56" cy="920.23" r="0.96"/><path class="cls-3" d="M768,1017.57a5.56,5.56,0,1,1-5.56-5.56A5.55,5.55,0,0,1,768,1017.57Z" transform="translate(28 3)"/><path class="cls-3" d="M940.06,988.39a5.56,5.56,0,1,1-5.56-5.57A5.56,5.56,0,0,1,940.06,988.39Z" transform="translate(28 3)"/><path class="cls-3" d="M835.26,966.29a2.2,2.2,0,1,1-2.2-2.2A2.2,2.2,0,0,1,835.26,966.29Z" transform="translate(28 3)"/><path class="cls-3" d="M908.35,958.62a2.2,2.2,0,1,1-2.2-2.2A2.19,2.19,0,0,1,908.35,958.62Z" transform="translate(28 3)"/><path class="cls-3" d="M835,1038.13a2.2,2.2,0,1,1-2.2-2.2A2.19,2.19,0,0,1,835,1038.13Z" transform="translate(28 3)"/><path class="cls-3" d="M799.13,938.61a2.2,2.2,0,1,1-2.2-2.2A2.19,2.19,0,0,1,799.13,938.61Z" transform="translate(28 3)"/><path class="cls-3" d="M997.57,1006.45a2.2,2.2,0,1,1-2.2-2.2A2.21,2.21,0,0,1,997.57,1006.45Z" transform="translate(28 3)"/><path class="cls-3" d="M955.05,1019.26a2.2,2.2,0,1,1-2.21-2.2A2.2,2.2,0,0,1,955.05,1019.26Z" transform="translate(28 3)"/><path class="cls-3" d="M1034.55,993.94a2.2,2.2,0,1,1-2.19-2.2A2.19,2.19,0,0,1,1034.55,993.94Z" transform="translate(28 3)"/><path class="cls-3" d="M943.37,882.21a2.2,2.2,0,1,1-2.2-2.19A2.19,2.19,0,0,1,943.37,882.21Z" transform="translate(28 3)"/><path class="cls-3" d="M934.93,926.82a1,1,0,1,1-1-1A1,1,0,0,1,934.93,926.82Z" transform="translate(28 3)"/><path class="cls-3" d="M987.16,928.78a1,1,0,1,1-1-1A1,1,0,0,1,987.16,928.78Z" transform="translate(28 3)"/><path class="cls-3" d="M966.31,904.86a1,1,0,1,1-1-1A1,1,0,0,1,966.31,904.86Z" transform="translate(28 3)"/><path class="cls-3" d="M866.26,941.29a1,1,0,1,1-1-1A1,1,0,0,1,866.26,941.29Z" transform="translate(28 3)"/><path class="cls-3" d="M876.39,1006.45a1,1,0,1,1-1-1A1,1,0,0,1,876.39,1006.45Z" transform="translate(28 3)"/><path class="cls-3" d="M920.46,1043a1,1,0,0,1-1,1,1,1,0,0,1,0-1.92A1,1,0,0,1,920.46,1043Z" transform="translate(28 3)"/><path class="cls-3" d="M897.24,1027.29a1,1,0,1,1-1-1A1,1,0,0,1,897.24,1027.29Z" transform="translate(28 3)"/><path class="cls-3" d="M980.62,987.27a1,1,0,1,1-1-1A1,1,0,0,1,980.62,987.27Z" transform="translate(28 3)"/><path class="cls-3" d="M999.66,1028.83a1,1,0,1,1-1-1A1,1,0,0,1,999.66,1028.83Z" transform="translate(28 3)"/><path class="cls-3" d="M1027.88,954.75a1,1,0,1,1-1-1A1,1,0,0,1,1027.88,954.75Z" transform="translate(28 3)"/><path class="cls-3" d="M1028.72,890.55a1,1,0,1,1-1-1A1,1,0,0,1,1028.72,890.55Z" transform="translate(28 3)"/><path class="cls-3" d="M902.82,906.4a1,1,0,1,1-1-1A1,1,0,0,1,902.82,906.4Z" transform="translate(28 3)"/><path class="cls-3" d="M819.44,886.38a1,1,0,1,1-1-1A1,1,0,0,1,819.44,886.38Z" transform="translate(28 3)"/><path class="cls-3" d="M796.93,974.76a1,1,0,1,1-1-1A1,1,0,0,1,796.93,974.76Z" transform="translate(28 3)"/><path class="cls-3" d="M810.4,1030.5a1,1,0,1,1-1-1A1,1,0,0,1,810.4,1030.5Z" transform="translate(28 3)"/><path class="cls-3" d="M974.65,959.05a1,1,0,1,1-1-1A1,1,0,0,1,974.65,959.05Z" transform="translate(28 3)"/><path class="cls-3" d="M814.44,917.23a1,1,0,1,1-1-1A1,1,0,0,1,814.44,917.23Z" transform="translate(28 3)"/><path class="cls-3" d="M1123.71,1038.13a5.56,5.56,0,1,1-5.56-5.56A5.55,5.55,0,0,1,1123.71,1038.13Z" transform="translate(28 3)"/><path class="cls-3" d="M1208,988.39a5.56,5.56,0,1,1-5.56-5.57A5.56,5.56,0,0,1,1208,988.39Z" transform="translate(28 3)"/><path class="cls-3" d="M1103.18,966.29a2.2,2.2,0,1,1-2.2-2.2A2.21,2.21,0,0,1,1103.18,966.29Z" transform="translate(28 3)"/><path class="cls-3" d="M1176.28,958.62a2.2,2.2,0,1,1-2.21-2.2A2.2,2.2,0,0,1,1176.28,958.62Z" transform="translate(28 3)"/><path class="cls-3" d="M1102.9,1038.13a2.2,2.2,0,1,1-2.2-2.2A2.19,2.19,0,0,1,1102.9,1038.13Z" transform="translate(28 3)"/><path class="cls-3" d="M1067.05,938.61a2.2,2.2,0,1,1-2.2-2.2A2.2,2.2,0,0,1,1067.05,938.61Z" transform="translate(28 3)"/><path class="cls-3" d="M1265.49,1006.45a2.2,2.2,0,1,1-2.2-2.2A2.21,2.21,0,0,1,1265.49,1006.45Z" transform="translate(28 3)"/><path class="cls-3" d="M1223,1019.26a2.2,2.2,0,1,1-2.2-2.2A2.2,2.2,0,0,1,1223,1019.26Z" transform="translate(28 3)"/><path class="cls-3" d="M1302.47,993.94a2.2,2.2,0,1,1-2.2-2.2A2.19,2.19,0,0,1,1302.47,993.94Z" transform="translate(28 3)"/><path class="cls-3" d="M1211.29,882.21a2.2,2.2,0,1,1-2.2-2.19A2.19,2.19,0,0,1,1211.29,882.21Z" transform="translate(28 3)"/><path class="cls-3" d="M1202.85,926.82a1,1,0,1,1-1-1A1,1,0,0,1,1202.85,926.82Z" transform="translate(28 3)"/><path class="cls-3" d="M1255.08,928.78a1,1,0,1,1-1-1A1,1,0,0,1,1255.08,928.78Z" transform="translate(28 3)"/><path class="cls-3" d="M1234.24,904.86a1,1,0,1,1-1-1A1,1,0,0,1,1234.24,904.86Z" transform="translate(28 3)"/><path class="cls-3" d="M1134.18,941.29a1,1,0,1,1-1-1A1,1,0,0,1,1134.18,941.29Z" transform="translate(28 3)"/><path class="cls-3" d="M1144.31,1006.45a1,1,0,1,1-1-1A1,1,0,0,1,1144.31,1006.45Z" transform="translate(28 3)"/><path class="cls-3" d="M1188.38,1043a1,1,0,1,1-1-1A1,1,0,0,1,1188.38,1043Z" transform="translate(28 3)"/><path class="cls-3" d="M1165.16,1027.29a1,1,0,1,1-1-1A1,1,0,0,1,1165.16,1027.29Z" transform="translate(28 3)"/><path class="cls-3" d="M1248.54,987.27a1,1,0,1,1-1-1A1,1,0,0,1,1248.54,987.27Z" transform="translate(28 3)"/><path class="cls-3" d="M1267.59,1028.83a1,1,0,1,1-1-1A1,1,0,0,1,1267.59,1028.83Z" transform="translate(28 3)"/><path class="cls-3" d="M1295.8,954.75a1,1,0,1,1-1-1A1,1,0,0,1,1295.8,954.75Z" transform="translate(28 3)"/><path class="cls-3" d="M1296.64,890.55a1,1,0,1,1-1-1A1,1,0,0,1,1296.64,890.55Z" transform="translate(28 3)"/><path class="cls-3" d="M1170.74,906.4a1,1,0,1,1-1-1A1,1,0,0,1,1170.74,906.4Z" transform="translate(28 3)"/><path class="cls-3" d="M1087.36,886.38a1,1,0,1,1-1-1A1,1,0,0,1,1087.36,886.38Z" transform="translate(28 3)"/><path class="cls-3" d="M1064.85,974.76a1,1,0,1,1-1-1A1,1,0,0,1,1064.85,974.76Z" transform="translate(28 3)"/><path class="cls-3" d="M1078.32,1030.5a1,1,0,1,1-1-1A1,1,0,0,1,1078.32,1030.5Z" transform="translate(28 3)"/><path class="cls-3" d="M1242.57,959.05a1,1,0,1,1-1-1A1,1,0,0,1,1242.57,959.05Z" transform="translate(28 3)"/><path class="cls-3" d="M1082.36,917.23a1,1,0,1,1-1-1A1,1,0,0,1,1082.36,917.23Z" transform="translate(28 3)"/><path class="cls-3" d="M1371.1,966.29a2.2,2.2,0,1,1-2.2-2.2A2.21,2.21,0,0,1,1371.1,966.29Z" transform="translate(28 3)"/><path class="cls-3" d="M1370.82,1038.13a2.2,2.2,0,1,1-2.2-2.2A2.19,2.19,0,0,1,1370.82,1038.13Z" transform="translate(28 3)"/><path class="cls-3" d="M1335,938.61a2.2,2.2,0,1,1-2.2-2.2A2.2,2.2,0,0,1,1335,938.61Z" transform="translate(28 3)"/><path class="cls-3" d="M1355.28,886.38a1,1,0,1,1-1-1A1,1,0,0,1,1355.28,886.38Z" transform="translate(28 3)"/><path class="cls-3" d="M1332.77,974.76a1,1,0,1,1-1-1A1,1,0,0,1,1332.77,974.76Z" transform="translate(28 3)"/><path class="cls-3" d="M1346.24,1030.5a1,1,0,1,1-1-1A1,1,0,0,1,1346.24,1030.5Z" transform="translate(28 3)"/><path class="cls-3" d="M1350.28,917.23a1,1,0,0,1-1,1,1,1,0,0,1,0-1.92A1,1,0,0,1,1350.28,917.23Z" transform="translate(28 3)"/><path class="cls-3" d="M1306.94,711a5.56,5.56,0,1,0,5.56-5.56A5.56,5.56,0,0,0,1306.94,711Z" transform="translate(28 3)"/><path class="cls-3" d="M1225.77,789.67a5.56,5.56,0,1,0,5.56-5.56A5.56,5.56,0,0,0,1225.77,789.67Z" transform="translate(28 3)"/><path class="cls-3" d="M1330.57,767.57a2.2,2.2,0,1,0,2.2-2.2A2.19,2.19,0,0,0,1330.57,767.57Z" transform="translate(28 3)"/><path class="cls-3" d="M1257.47,759.91a2.2,2.2,0,1,0,2.2-2.2A2.21,2.21,0,0,0,1257.47,759.91Z" transform="translate(28 3)"/><path class="cls-3" d="M1330.85,839.42a2.2,2.2,0,1,0,2.2-2.2A2.2,2.2,0,0,0,1330.85,839.42Z" transform="translate(28 3)"/><path class="cls-3" d="M1366.7,739.9a2.2,2.2,0,1,0,2.2-2.2A2.2,2.2,0,0,0,1366.7,739.9Z" transform="translate(28 3)"/><path class="cls-3" d="M1168.26,807.73a2.2,2.2,0,1,0,2.2-2.2A2.19,2.19,0,0,0,1168.26,807.73Z" transform="translate(28 3)"/><path class="cls-3" d="M1210.78,820.54a2.2,2.2,0,1,0,2.2-2.2A2.2,2.2,0,0,0,1210.78,820.54Z" transform="translate(28 3)"/><path class="cls-3" d="M1131.27,795.23a2.2,2.2,0,1,0,2.21-2.2A2.2,2.2,0,0,0,1131.27,795.23Z" transform="translate(28 3)"/><path class="cls-3" d="M1222.46,683.5a2.2,2.2,0,1,0,2.2-2.2A2.19,2.19,0,0,0,1222.46,683.5Z" transform="translate(28 3)"/><path class="cls-3" d="M1230.9,728.11a1,1,0,1,0,1-1A1,1,0,0,0,1230.9,728.11Z" transform="translate(28 3)"/><path class="cls-3" d="M1178.67,730.06a1,1,0,1,0,1-1A1,1,0,0,0,1178.67,730.06Z" transform="translate(28 3)"/><path class="cls-3" d="M1199.52,706.14a1,1,0,1,0,1-1A1,1,0,0,0,1199.52,706.14Z" transform="translate(28 3)"/><path class="cls-3" d="M1299.57,742.57a1,1,0,1,0,1-1A1,1,0,0,0,1299.57,742.57Z" transform="translate(28 3)"/><path class="cls-3" d="M1289.43,807.73a1,1,0,1,0,1-1A1,1,0,0,0,1289.43,807.73Z" transform="translate(28 3)"/><path class="cls-3" d="M1245.37,844.29a1,1,0,1,0,1-1A1,1,0,0,0,1245.37,844.29Z" transform="translate(28 3)"/><path class="cls-3" d="M1268.59,828.58a1,1,0,1,0,1-1A1,1,0,0,0,1268.59,828.58Z" transform="translate(28 3)"/><path class="cls-3" d="M1185.21,788.56a1,1,0,1,0,1-1A1,1,0,0,0,1185.21,788.56Z" transform="translate(28 3)"/><path class="cls-3" d="M1166.17,830.12a1,1,0,1,0,1-1A1,1,0,0,0,1166.17,830.12Z" transform="translate(28 3)"/><path class="cls-3" d="M1138,756a1,1,0,1,0,1-1A1,1,0,0,0,1138,756Z" transform="translate(28 3)"/><path class="cls-3" d="M1137.11,691.84a1,1,0,1,0,1-1A1,1,0,0,0,1137.11,691.84Z" transform="translate(28 3)"/><path class="cls-3" d="M1263,707.68a1,1,0,1,0,1-1A1,1,0,0,0,1263,707.68Z" transform="translate(28 3)"/><path class="cls-3" d="M1346.39,687.67a1,1,0,1,0,1-1A1,1,0,0,0,1346.39,687.67Z" transform="translate(28 3)"/><path class="cls-3" d="M1368.9,776.05a1,1,0,1,0,1-1A1,1,0,0,0,1368.9,776.05Z" transform="translate(28 3)"/><path class="cls-3" d="M1355.43,831.79a1,1,0,0,0,1.92,0,1,1,0,1,0-1.92,0Z" transform="translate(28 3)"/><path class="cls-3" d="M1191.18,760.34a1,1,0,1,0,1-1A1,1,0,0,0,1191.18,760.34Z" transform="translate(28 3)"/><path class="cls-3" d="M1351.39,718.52a1,1,0,1,0,1-1A1,1,0,0,0,1351.39,718.52Z" transform="translate(28 3)"/><path class="cls-3" d="M883.94,716a5.56,5.56,0,1,0,5.56-5.56A5.56,5.56,0,0,0,883.94,716Z" transform="translate(28 3)"/><path class="cls-3" d="M959.29,854.43a5.56,5.56,0,1,0,5.57-5.56A5.55,5.55,0,0,0,959.29,854.43Z" transform="translate(28 3)"/><path class="cls-3" d="M1062.65,767.57a2.2,2.2,0,1,0,2.2-2.2A2.19,2.19,0,0,0,1062.65,767.57Z" transform="translate(28 3)"/><path class="cls-3" d="M989.55,759.91a2.2,2.2,0,1,0,2.21-2.2A2.21,2.21,0,0,0,989.55,759.91Z" transform="translate(28 3)"/><path class="cls-3" d="M1062.93,839.42a2.2,2.2,0,1,0,2.2-2.2A2.2,2.2,0,0,0,1062.93,839.42Z" transform="translate(28 3)"/><path class="cls-3" d="M1098.78,739.9a2.2,2.2,0,1,0,2.2-2.2A2.2,2.2,0,0,0,1098.78,739.9Z" transform="translate(28 3)"/><path class="cls-3" d="M900.34,807.73a2.2,2.2,0,1,0,2.2-2.2A2.19,2.19,0,0,0,900.34,807.73Z" transform="translate(28 3)"/><path class="cls-3" d="M942.86,820.54a2.2,2.2,0,1,0,2.21-2.2A2.2,2.2,0,0,0,942.86,820.54Z" transform="translate(28 3)"/><path class="cls-3" d="M863.36,795.23a2.2,2.2,0,1,0,2.19-2.2A2.19,2.19,0,0,0,863.36,795.23Z" transform="translate(28 3)"/><path class="cls-3" d="M954.54,683.5a2.2,2.2,0,1,0,2.2-2.2A2.19,2.19,0,0,0,954.54,683.5Z" transform="translate(28 3)"/><path class="cls-3" d="M963,728.11a1,1,0,1,0,1-1A1,1,0,0,0,963,728.11Z" transform="translate(28 3)"/><path class="cls-3" d="M910.75,730.06a1,1,0,1,0,1-1A1,1,0,0,0,910.75,730.06Z" transform="translate(28 3)"/><path class="cls-3" d="M931.59,706.14a1,1,0,1,0,1-1A1,1,0,0,0,931.59,706.14Z" transform="translate(28 3)"/><path class="cls-3" d="M1031.65,742.57a1,1,0,1,0,1-1A1,1,0,0,0,1031.65,742.57Z" transform="translate(28 3)"/><path class="cls-3" d="M1021.52,807.73a1,1,0,1,0,1-1A1,1,0,0,0,1021.52,807.73Z" transform="translate(28 3)"/><path class="cls-3" d="M977.45,844.29a1,1,0,1,0,1-1A1,1,0,0,0,977.45,844.29Z" transform="translate(28 3)"/><path class="cls-3" d="M1000.67,828.58a1,1,0,1,0,1-1A1,1,0,0,0,1000.67,828.58Z" transform="translate(28 3)"/><path class="cls-3" d="M917.29,788.56a1,1,0,1,0,1-1A1,1,0,0,0,917.29,788.56Z" transform="translate(28 3)"/><path class="cls-3" d="M898.24,830.12a1,1,0,1,0,1-1A1,1,0,0,0,898.24,830.12Z" transform="translate(28 3)"/><path class="cls-3" d="M870,756a1,1,0,1,0,1-1A1,1,0,0,0,870,756Z" transform="translate(28 3)"/><path class="cls-3" d="M869.19,691.84a1,1,0,1,0,1-1A1,1,0,0,0,869.19,691.84Z" transform="translate(28 3)"/><path class="cls-3" d="M995.09,707.68a1,1,0,1,0,1-1A1,1,0,0,0,995.09,707.68Z" transform="translate(28 3)"/><path class="cls-3" d="M1078.47,687.67a1,1,0,1,0,1-1A1,1,0,0,0,1078.47,687.67Z" transform="translate(28 3)"/><path class="cls-3" d="M1101,776.05a1,1,0,1,0,1-1A1,1,0,0,0,1101,776.05Z" transform="translate(28 3)"/><path class="cls-3" d="M1087.51,831.79a1,1,0,1,0,1-1A1,1,0,0,0,1087.51,831.79Z" transform="translate(28 3)"/><path class="cls-3" d="M923.26,760.34a1,1,0,1,0,1-1A1,1,0,0,0,923.26,760.34Z" transform="translate(28 3)"/><path class="cls-3" d="M1083.47,718.52a1,1,0,1,0,1-1A1,1,0,0,0,1083.47,718.52Z" transform="translate(28 3)"/><path class="cls-3" d="M692.48,711a5.56,5.56,0,1,0,5.56-5.57A5.55,5.55,0,0,0,692.48,711Z" transform="translate(28 3)"/><path class="cls-3" d="M794.73,767.57a2.2,2.2,0,1,0,2.2-2.2A2.19,2.19,0,0,0,794.73,767.57Z" transform="translate(28 3)"/><path class="cls-3" d="M721.64,759.91a2.2,2.2,0,1,0,2.2-2.2A2.2,2.2,0,0,0,721.64,759.91Z" transform="translate(28 3)"/><path class="cls-3" d="M795,839.42a2.2,2.2,0,1,0,2.2-2.2A2.2,2.2,0,0,0,795,839.42Z" transform="translate(28 3)"/><path class="cls-3" d="M830.86,739.9a2.2,2.2,0,1,0,2.2-2.2A2.2,2.2,0,0,0,830.86,739.9Z" transform="translate(28 3)"/><path class="cls-3" d="M632.42,807.73a2.2,2.2,0,1,0,2.2-2.2A2.2,2.2,0,0,0,632.42,807.73Z" transform="translate(28 3)"/><path class="cls-3" d="M674.94,820.54a2.2,2.2,0,1,0,2.2-2.2A2.2,2.2,0,0,0,674.94,820.54Z" transform="translate(28 3)"/><path class="cls-3" d="M595.43,795.23a2.2,2.2,0,1,0,2.21-2.2A2.2,2.2,0,0,0,595.43,795.23Z" transform="translate(28 3)"/><path class="cls-3" d="M686.62,683.5a2.2,2.2,0,1,0,2.2-2.2A2.19,2.19,0,0,0,686.62,683.5Z" transform="translate(28 3)"/><path class="cls-3" d="M695.06,728.11a1,1,0,1,0,1-1A1,1,0,0,0,695.06,728.11Z" transform="translate(28 3)"/><path class="cls-3" d="M642.83,730.06a1,1,0,1,0,1-1A1,1,0,0,0,642.83,730.06Z" transform="translate(28 3)"/><path class="cls-3" d="M663.68,706.14a1,1,0,1,0,1-1A1,1,0,0,0,663.68,706.14Z" transform="translate(28 3)"/><path class="cls-3" d="M763.73,742.57a1,1,0,1,0,1-1A1,1,0,0,0,763.73,742.57Z" transform="translate(28 3)"/><path class="cls-3" d="M753.59,807.73a1,1,0,1,0,1-1A1,1,0,0,0,753.59,807.73Z" transform="translate(28 3)"/><path class="cls-3" d="M709.53,844.29a1,1,0,1,0,1-1A1,1,0,0,0,709.53,844.29Z" transform="translate(28 3)"/><path class="cls-3" d="M732.75,828.58a1,1,0,1,0,1-1A1,1,0,0,0,732.75,828.58Z" transform="translate(28 3)"/><path class="cls-3" d="M649.37,788.56a1,1,0,1,0,1-1A1,1,0,0,0,649.37,788.56Z" transform="translate(28 3)"/><path class="cls-3" d="M630.33,830.12a1,1,0,1,0,1-1A1,1,0,0,0,630.33,830.12Z" transform="translate(28 3)"/><path class="cls-3" d="M602.11,756a1,1,0,1,0,1-1A1,1,0,0,0,602.11,756Z" transform="translate(28 3)"/><circle class="cls-3" cx="630.23" cy="694.84" r="0.96"/><path class="cls-3" d="M727.17,707.68a1,1,0,1,0,1-1A1,1,0,0,0,727.17,707.68Z" transform="translate(28 3)"/><path class="cls-3" d="M810.55,687.67a1,1,0,1,0,1-1A1,1,0,0,0,810.55,687.67Z" transform="translate(28 3)"/><path class="cls-3" d="M833.06,776.05a1,1,0,1,0,1-1A1,1,0,0,0,833.06,776.05Z" transform="translate(28 3)"/><path class="cls-3" d="M819.59,831.79a1,1,0,0,0,1.93,0,1,1,0,1,0-1.93,0Z" transform="translate(28 3)"/><path class="cls-3" d="M655.34,760.34a1,1,0,1,0,1-1A1,1,0,0,0,655.34,760.34Z" transform="translate(28 3)"/><path class="cls-3" d="M815.55,718.52a1,1,0,1,0,1-1A1,1,0,0,0,815.55,718.52Z" transform="translate(28 3)"/><path class="cls-3" d="M594.1,818.85a5.56,5.56,0,1,0,5.56-5.56A5.56,5.56,0,0,0,594.1,818.85Z" transform="translate(28 3)"/><path class="cls-3" d="M422,789.67a5.56,5.56,0,1,0,5.56-5.56A5.56,5.56,0,0,0,422,789.67Z" transform="translate(28 3)"/><path class="cls-3" d="M526.81,767.57a2.2,2.2,0,1,0,2.2-2.2A2.2,2.2,0,0,0,526.81,767.57Z" transform="translate(28 3)"/><path class="cls-3" d="M453.72,759.91a2.2,2.2,0,1,0,2.2-2.2A2.2,2.2,0,0,0,453.72,759.91Z" transform="translate(28 3)"/><path class="cls-3" d="M527.09,839.42a2.2,2.2,0,1,0,2.2-2.2A2.2,2.2,0,0,0,527.09,839.42Z" transform="translate(28 3)"/><path class="cls-3" d="M562.94,739.9a2.2,2.2,0,1,0,2.2-2.2A2.2,2.2,0,0,0,562.94,739.9Z" transform="translate(28 3)"/><path class="cls-3" d="M364.5,807.73a2.2,2.2,0,1,0,2.2-2.2A2.2,2.2,0,0,0,364.5,807.73Z" transform="translate(28 3)"/><path class="cls-3" d="M407,820.54a2.2,2.2,0,1,0,2.21-2.2A2.2,2.2,0,0,0,407,820.54Z" transform="translate(28 3)"/><path class="cls-3" d="M327.52,795.23a2.2,2.2,0,1,0,2.19-2.2A2.19,2.19,0,0,0,327.52,795.23Z" transform="translate(28 3)"/><circle class="cls-3" cx="420.9" cy="683.5" r="2.2" transform="translate(-76.05 79.25) rotate(-9.22)"/><path class="cls-3" d="M427.14,728.11a1,1,0,1,0,1-1A1,1,0,0,0,427.14,728.11Z" transform="translate(28 3)"/><path class="cls-3" d="M374.91,730.06a1,1,0,1,0,1-1A1,1,0,0,0,374.91,730.06Z" transform="translate(28 3)"/><path class="cls-3" d="M395.76,706.14a1,1,0,1,0,1-1A1,1,0,0,0,395.76,706.14Z" transform="translate(28 3)"/><path class="cls-3" d="M495.81,742.57a1,1,0,1,0,1-1A1,1,0,0,0,495.81,742.57Z" transform="translate(28 3)"/><path class="cls-3" d="M485.68,807.73a1,1,0,1,0,1-1A1,1,0,0,0,485.68,807.73Z" transform="translate(28 3)"/><path class="cls-3" d="M441.61,844.29a1,1,0,1,0,1-1A1,1,0,0,0,441.61,844.29Z" transform="translate(28 3)"/><path class="cls-3" d="M464.83,828.58a1,1,0,1,0,1-1A1,1,0,0,0,464.83,828.58Z" transform="translate(28 3)"/><path class="cls-3" d="M381.45,788.56a1,1,0,1,0,1-1A1,1,0,0,0,381.45,788.56Z" transform="translate(28 3)"/><path class="cls-3" d="M362.41,830.12a1,1,0,1,0,1-1A1,1,0,0,0,362.41,830.12Z" transform="translate(28 3)"/><path class="cls-3" d="M334.19,756a1,1,0,1,0,1-1A1,1,0,0,0,334.19,756Z" transform="translate(28 3)"/><path class="cls-3" d="M333.35,691.84a1,1,0,1,0,1-1A1,1,0,0,0,333.35,691.84Z" transform="translate(28 3)"/><path class="cls-3" d="M459.25,707.68a1,1,0,1,0,1-1A1,1,0,0,0,459.25,707.68Z" transform="translate(28 3)"/><path class="cls-3" d="M542.63,687.67a1,1,0,1,0,1-1A1,1,0,0,0,542.63,687.67Z" transform="translate(28 3)"/><path class="cls-3" d="M565.14,776.05a1,1,0,1,0,1-1A1,1,0,0,0,565.14,776.05Z" transform="translate(28 3)"/><path class="cls-3" d="M551.67,831.79a1,1,0,0,0,1.92,0,1,1,0,1,0-1.92,0Z" transform="translate(28 3)"/><path class="cls-3" d="M387.42,760.34a1,1,0,1,0,1-1A1,1,0,0,0,387.42,760.34Z" transform="translate(28 3)"/><path class="cls-3" d="M547.63,718.52a1,1,0,1,0,1-1A1,1,0,0,0,547.63,718.52Z" transform="translate(28 3)"/><path class="cls-3" d="M238.36,839.42a5.56,5.56,0,1,0,5.56-5.56A5.56,5.56,0,0,0,238.36,839.42Z" transform="translate(28 3)"/><path class="cls-3" d="M154.09,789.67a5.56,5.56,0,1,0,5.56-5.56A5.56,5.56,0,0,0,154.09,789.67Z" transform="translate(28 3)"/><path class="cls-3" d="M258.89,767.57a2.2,2.2,0,1,0,2.2-2.2A2.2,2.2,0,0,0,258.89,767.57Z" transform="translate(28 3)"/><path class="cls-3" d="M185.8,759.91a2.2,2.2,0,1,0,2.2-2.2A2.2,2.2,0,0,0,185.8,759.91Z" transform="translate(28 3)"/><path class="cls-3" d="M259.17,839.42a2.2,2.2,0,1,0,2.2-2.2A2.2,2.2,0,0,0,259.17,839.42Z" transform="translate(28 3)"/><path class="cls-3" d="M295,739.9a2.2,2.2,0,1,0,2.2-2.2A2.2,2.2,0,0,0,295,739.9Z" transform="translate(28 3)"/><circle class="cls-3" cx="126.78" cy="810.73" r="2.2"/><path class="cls-3" d="M139.11,820.54a2.2,2.2,0,1,0,2.19-2.2A2.19,2.19,0,0,0,139.11,820.54Z" transform="translate(28 3)"/><path class="cls-3" d="M59.6,795.23a2.2,2.2,0,1,0,2.2-2.2A2.19,2.19,0,0,0,59.6,795.23Z" transform="translate(28 3)"/><circle class="cls-3" cx="152.98" cy="683.5" r="2.2" transform="translate(-79.51 36.33) rotate(-9.22)"/><path class="cls-3" d="M159.22,728.11a1,1,0,1,0,1-1A1,1,0,0,0,159.22,728.11Z" transform="translate(28 3)"/><path class="cls-3" d="M107,730.06a1,1,0,1,0,1-1A1,1,0,0,0,107,730.06Z" transform="translate(28 3)"/><path class="cls-3" d="M127.84,706.14a1,1,0,1,0,1-1A1,1,0,0,0,127.84,706.14Z" transform="translate(28 3)"/><path class="cls-3" d="M227.89,742.57a1,1,0,1,0,1-1A1,1,0,0,0,227.89,742.57Z" transform="translate(28 3)"/><path class="cls-3" d="M217.76,807.73a1,1,0,1,0,1-1A1,1,0,0,0,217.76,807.73Z" transform="translate(28 3)"/><circle class="cls-3" cx="202.66" cy="847.29" r="0.96"/><path class="cls-3" d="M196.91,828.58a1,1,0,1,0,1-1A1,1,0,0,0,196.91,828.58Z" transform="translate(28 3)"/><path class="cls-3" d="M113.54,788.56a1,1,0,1,0,1-1A1,1,0,0,0,113.54,788.56Z" transform="translate(28 3)"/><path class="cls-3" d="M94.48,830.12a1,1,0,1,0,1-1A1,1,0,0,0,94.48,830.12Z" transform="translate(28 3)"/><path class="cls-3" d="M66.26,756a1,1,0,1,0,1-1A1,1,0,0,0,66.26,756Z" transform="translate(28 3)"/><path class="cls-3" d="M65.43,691.84a1,1,0,1,0,1-1A1,1,0,0,0,65.43,691.84Z" transform="translate(28 3)"/><path class="cls-3" d="M191.33,707.68a1,1,0,1,0,1-1A1,1,0,0,0,191.33,707.68Z" transform="translate(28 3)"/><path class="cls-3" d="M274.71,687.67a1,1,0,1,0,1-1A1,1,0,0,0,274.71,687.67Z" transform="translate(28 3)"/><path class="cls-3" d="M297.22,776.05a1,1,0,1,0,1-1A1,1,0,0,0,297.22,776.05Z" transform="translate(28 3)"/><path class="cls-3" d="M283.75,831.79a1,1,0,0,0,1.92,0,1,1,0,1,0-1.92,0Z" transform="translate(28 3)"/><path class="cls-3" d="M119.5,760.34a1,1,0,1,0,1-1A1,1,0,0,0,119.5,760.34Z" transform="translate(28 3)"/><path class="cls-3" d="M279.71,718.52a1,1,0,1,0,1-1A1,1,0,0,0,279.71,718.52Z" transform="translate(28 3)"/><path class="cls-3" d="M-9,767.57a2.19,2.19,0,0,0,2.2,2.2,2.19,2.19,0,0,0,2.2-2.2,2.2,2.2,0,0,0-2.2-2.2A2.2,2.2,0,0,0-9,767.57Z" transform="translate(28 3)"/><path class="cls-3" d="M-8.75,839.42a2.2,2.2,0,0,0,2.2,2.2,2.21,2.21,0,0,0,2.2-2.2,2.2,2.2,0,0,0-2.2-2.2A2.19,2.19,0,0,0-8.75,839.42Z" transform="translate(28 3)"/><path class="cls-3" d="M27.1,739.9a2.2,2.2,0,1,0,2.2-2.2A2.21,2.21,0,0,0,27.1,739.9Z" transform="translate(28 3)"/><path class="cls-3" d="M6.79,687.67a1,1,0,1,0,1-1A1,1,0,0,0,6.79,687.67Z" transform="translate(28 3)"/><path class="cls-3" d="M29.3,776.05a1,1,0,1,0,1-1A1,1,0,0,0,29.3,776.05Z" transform="translate(28 3)"/><path class="cls-3" d="M15.83,831.79a1,1,0,0,0,1.93,0,1,1,0,1,0-1.93,0Z" transform="translate(28 3)"/><path class="cls-3" d="M11.79,718.52a1,1,0,1,0,1-1A1,1,0,0,0,11.79,718.52Z" transform="translate(28 3)"/><g class="cls-4"><path class="cls-3" d="M1278.21,606.89l-4.91-26.52-4.92,26.52-26.52,4.92,26.52,4.91,4.92,26.52,4.91-26.52,26.52-4.91Zm-2.74,7.1-2.17,11.75L1271.12,614l-11.76-2.18,11.76-2.18,2.18-11.76,2.17,11.76,11.76,2.18Z" transform="translate(28 3)"/><path class="cls-3" d="M1004,956.81l-4.91-26.51-4.92,26.51-26.52,4.92,26.52,4.92,4.92,26.51,4.91-26.51,26.52-4.92Zm-2.74,7.1-2.17,11.75-2.18-11.75-11.76-2.18,11.76-2.18,2.18-11.75,2.17,11.75,11.76,2.18Z" transform="translate(28 3)"/><path class="cls-3" d="M105.37,26.81l-2.49-13.4-2.48,13.4L87,29.29l13.4,2.49,2.48,13.4,2.49-13.4,13.4-2.49Z" transform="translate(28 3)"/><path class="cls-3" d="M559.3,977.28l-2.48-13.4-2.49,13.4-13.4,2.49,13.4,2.48,2.49,13.4,2.48-13.4,13.4-2.48Z" transform="translate(28 3)"/><path class="cls-3" d="M75.71,590.41,73.23,577l-2.49,13.4-13.4,2.49,13.4,2.48,2.49,13.4,2.48-13.4,13.4-2.48Z" transform="translate(28 3)"/><path class="cls-3" d="M319.61,946.8a14.14,14.14,0,0,0-28.26-.72,7.07,7.07,0,0,1,14.11.72h0v0a7.08,7.08,0,0,0,14.15,0v0Z" transform="translate(28 3)"/><path class="cls-3" d="M290.61,951.65a14.14,14.14,0,0,0,28.26.72,7.07,7.07,0,0,1-14.11-.72h0v0a7.08,7.08,0,0,0-14.15,0v0Z" transform="translate(28 3)"/></g></g><g class="cls-4"><path class="cls-5" d="M397.57,2a360.74,360.74,0,0,0,178,46.65,361.81,361.81,0,0,0,123-21.41c364.88-109.4,502.47,213.35,691.6,229.71V212.31Q1359.8,86.16,1303.39,2Z" transform="translate(28 3)"/><path class="cls-5" d="M1303.39,2q56.4,84.21,86.68,210.31V2Z" transform="translate(28 3)"/><path class="cls-5" d="M1303.39,2a512.9,512.9,0,0,1,37.73,67.14q24-.6,47.88-1.14-23.89.56-47.88,1.14,29.75,63.15,49,143.17V2Z" transform="translate(28 3)"/><path class="cls-5" d="M1140.61,1091h24.8l-.51-.72C1157.33,1090.51,1149.21,1090.78,1140.61,1091Z" transform="translate(28 3)"/><path class="cls-5" d="M112.24,974.16c172.18-5.12,427.68-119.48,639.92,49.77,37.25,29.71,74.49,51.42,111,67.07H1083.5c-98.17-3.28-229.79-27.85-345.5-154.08C554.57,736.82,284.43,810.19,113.54,788.56,8.16,775.22-21.07,671.17-28,593.34v290.4C-1.12,934.29,42.29,976.24,112.24,974.16Z" transform="translate(28 3)"/><path class="cls-5" d="M752.16,1023.93C539.92,854.68,284.42,969,112.24,974.16,42.29,976.24-1.12,934.29-28,883.74V1091H863.11C826.65,1075.35,789.41,1053.64,752.16,1023.93Z" transform="translate(28 3)"/><path class="cls-5" d="M752.16,1023.93C539.92,854.68,284.42,969,112.24,974.16,42.29,976.24-1.12,934.29-28,883.74V1091H863.11C826.65,1075.35,789.41,1053.64,752.16,1023.93Z" transform="translate(28 3)"/><path class="cls-5" d="M-28,96.83V463.16C14,431,94.62,410.51,246.63,474.45,419.29,547.08,373.2,264.15,248.4,2H-28V96.83" transform="translate(28 3)"/><path class="cls-5" d="M957.2,450.3c-1.2-.09-2.41-.2-3.61-.27-215.27-13.24,37.22,391.85,211.31,640.25,19.42-.58,35.29-.86,46.63.72h48.8C1115.35,886.85,895.89,548.61,957.2,450.3Z" transform="translate(28 3)"/><path class="cls-5" d="M1164.9,1090.28l.51.72h46.12C1200.19,1089.42,1184.32,1089.7,1164.9,1090.28Z" transform="translate(28 3)"/><path class="cls-5" d="M1164.9,1090.28l.51.72h46.12C1200.19,1089.42,1184.32,1089.7,1164.9,1090.28Z" transform="translate(28 3)"/><path class="cls-5" d="M957.2,450.3c123.09,9.34,292.22,111.37,432.87,231.88v-88C1266.18,500.77,1131.5,429.3,1029.45,423,992.49,420.74,969.35,430.82,957.2,450.3Z" transform="translate(28 3)"/><path class="cls-5" d="M1260.33,1091h129.74V682.18C1249.42,561.67,1080.29,459.64,957.2,450.3,895.89,548.61,1115.35,886.85,1260.33,1091Z" transform="translate(28 3)"/><path class="cls-5" d="M1260.33,1091h129.74V682.18C1249.42,561.67,1080.29,459.64,957.2,450.3,895.89,548.61,1115.35,886.85,1260.33,1091Z" transform="translate(28 3)"/></g></g><g id="Camada_2" data-name="Camada 2"><rect class="cls-6" width="1418" height="5"/></g></svg>