<svg xmlns="http://www.w3.org/2000/svg" xmlns:xlink="http://www.w3.org/1999/xlink" viewBox="0 0 600 400"><defs><style>.cls-1{fill:none;}.cls-2{isolation:isolate;}.cls-3{fill:#0f054c;}.cls-4{opacity:0.9;fill:url(#_ÂÁ_Ï_ÌÌ_È_ËÂÌÚ_11);}.cls-11,.cls-12,.cls-13,.cls-4{mix-blend-mode:lighten;}.cls-10,.cls-11,.cls-5{opacity:0.8;}.cls-5{fill:url(#_ÂÁ_Ï_ÌÌ_È_ËÂÌÚ_19);}.cls-6{fill:#42e8e0;opacity:0.1;}.cls-7{fill:url(#_ÂÁ_Ï_ÌÌ_È_ËÂÌÚ_18);}.cls-8{fill:url(#_ÂÁ_Ï_ÌÌ_È_ËÂÌÚ_28);}.cls-9{fill:url(#_ÂÁ_Ï_ÌÌ_È_ËÂÌÚ_28-2);}.cls-10{fill:#15163a;}.cls-11,.cls-13,.cls-15{fill:#b41187;}.cls-12,.cls-23{fill:#9be6fa;}.cls-14{fill:#98dff6;}.cls-16{fill:url(#_ÂÁ_Ï_ÌÌ_È_ËÂÌÚ_6);}.cls-17{fill:#6399d1;}.cls-18{fill:url(#_ÂÁ_Ï_ÌÌ_È_ËÂÌÚ_14);}.cls-19{fill:url(#_ÂÁ_Ï_ÌÌ_È_ËÂÌÚ_3);}.cls-20{fill:url(#_ÂÁ_Ï_ÌÌ_È_ËÂÌÚ_6-2);}.cls-21{fill:url(#_ÂÁ_Ï_ÌÌ_È_ËÂÌÚ_3-2);}.cls-22{fill:url(#_ÂÁ_Ï_ÌÌ_È_ËÂÌÚ_103);}.cls-24{opacity:0.11;}.cls-25{clip-path:url(#clip-path);}.cls-26{fill:url(#_ÂÁ_Ï_ÌÌ_È_ËÂÌÚ_21);}.cls-27{fill:url(#_ÂÁ_Ï_ÌÌ_È_ËÂÌÚ_29);}.cls-28{fill:url(#_ÂÁ_Ï_ÌÌ_È_ËÂÌÚ_29-2);}.cls-29{fill:url(#_ÂÁ_Ï_ÌÌ_È_ËÂÌÚ_29-3);}.cls-30{fill:url(#_ÂÁ_Ï_ÌÌ_È_ËÂÌÚ_29-4);}.cls-31{fill:url(#_ÂÁ_Ï_ÌÌ_È_ËÂÌÚ_29-5);}.cls-32{opacity:0.5;}.cls-33{fill:#fff;}</style><radialGradient id="_ÂÁ_Ï_ÌÌ_È_ËÂÌÚ_11" cx="238.67" cy="215.33" r="317.88" gradientTransform="matrix(1, 0, 0, -1, 0, 400)" gradientUnits="userSpaceOnUse"><stop offset="0" stop-color="#5761d7"/><stop offset="0.03" stop-color="#525bce"/><stop offset="0.18" stop-color="#3e41a6"/><stop offset="0.33" stop-color="#2d2b85"/><stop offset="0.48" stop-color="#201a6c"/><stop offset="0.64" stop-color="#160e5a"/><stop offset="0.81" stop-color="#11074f"/><stop offset="1" stop-color="#0f054c"/></radialGradient><radialGradient id="_ÂÁ_Ï_ÌÌ_È_ËÂÌÚ_19" cx="-13" cy="93.59" r="439.34" gradientTransform="matrix(-1, 0, 0, 1, 600, 0)" gradientUnits="userSpaceOnUse"><stop offset="0" stop-color="#ff2c9c"/><stop offset="0.03" stop-color="#f62f9f"/><stop offset="0.2" stop-color="#c63eb0"/><stop offset="0.37" stop-color="#9e4bbe"/><stop offset="0.54" stop-color="#7f54c9"/><stop offset="0.7" stop-color="#695bd1"/><stop offset="0.86" stop-color="#5c60d5"/><stop offset="1" stop-color="#5761d7"/></radialGradient><linearGradient id="_ÂÁ_Ï_ÌÌ_È_ËÂÌÚ_18" x1="277.38" y1="898.22" x2="324.4" y2="898.22" gradientTransform="translate(1102.14 691.45) rotate(135)" gradientUnits="userSpaceOnUse"><stop offset="0" stop-color="#b41187"/><stop offset="0.39" stop-color="#7c1086"/><stop offset="0.74" stop-color="#500e84"/><stop offset="0.91" stop-color="#3f0e84"/></linearGradient><linearGradient id="_ÂÁ_Ï_ÌÌ_È_ËÂÌÚ_28" x1="113.73" y1="1072.33" x2="133.21" y2="1072.33" gradientTransform="translate(408.15 1175.28) rotate(180)" gradientUnits="userSpaceOnUse"><stop offset="0" stop-color="#9be6fa"/><stop offset="0.16" stop-color="#97e0f8"/><stop offset="0.37" stop-color="#8acff4"/><stop offset="0.61" stop-color="#75b3ed"/><stop offset="0.88" stop-color="#598ce4"/><stop offset="0.96" stop-color="#4e7ee0"/></linearGradient><linearGradient id="_ÂÁ_Ï_ÌÌ_È_ËÂÌÚ_28-2" x1="186.46" y1="742" x2="230.23" y2="742" gradientTransform="matrix(0.32, 0.95, -0.95, 0.32, 1201.24, -234.07)" xlink:href="#_ÂÁ_Ï_ÌÌ_È_ËÂÌÚ_28"/><linearGradient id="_ÂÁ_Ï_ÌÌ_È_ËÂÌÚ_6" x1="-5310.38" y1="182.04" x2="-5173.4" y2="182.04" gradientTransform="matrix(-1, 0, 0, 1, -4801.38, 0)" gradientUnits="userSpaceOnUse"><stop offset="0" stop-color="#9bd8fd"/><stop offset="1" stop-color="#7fbbec"/></linearGradient><linearGradient id="_ÂÁ_Ï_ÌÌ_È_ËÂÌÚ_14" x1="-5308.52" y1="182.64" x2="-5171.54" y2="182.64" gradientTransform="matrix(-1, 0, 0, 1, -4801.38, 0)" gradientUnits="userSpaceOnUse"><stop offset="0" stop-color="#4872b5"/><stop offset="1" stop-color="#3863a8"/></linearGradient><linearGradient id="_ÂÁ_Ï_ÌÌ_È_ËÂÌÚ_3" x1="-5308.52" y1="182.64" x2="-5171.54" y2="182.64" gradientTransform="matrix(-1, 0, 0, 1, -4801.38, 0)" gradientUnits="userSpaceOnUse"><stop offset="0" stop-color="#4b74df"/><stop offset="0.03" stop-color="#4b69d6"/><stop offset="0.12" stop-color="#4b48ba"/><stop offset="0.21" stop-color="#4c2fa5"/><stop offset="0.31" stop-color="#4c1c95"/><stop offset="0.41" stop-color="#4c128c"/><stop offset="0.52" stop-color="#4c0e89"/><stop offset="0.67" stop-color="#4f0f8a"/><stop offset="0.78" stop-color="#58128e"/><stop offset="0.87" stop-color="#681895"/><stop offset="0.96" stop-color="#7f209e"/><stop offset="1" stop-color="#8b24a3"/></linearGradient><linearGradient id="_ÂÁ_Ï_ÌÌ_È_ËÂÌÚ_6-2" x1="-5305.71" y1="182.66" x2="-5174.49" y2="182.66" xlink:href="#_ÂÁ_Ï_ÌÌ_È_ËÂÌÚ_6"/><linearGradient id="_ÂÁ_Ï_ÌÌ_È_ËÂÌÚ_3-2" x1="-5292.03" y1="256.66" x2="-5098.57" y2="256.66" xlink:href="#_ÂÁ_Ï_ÌÌ_È_ËÂÌÚ_3"/><radialGradient id="_ÂÁ_Ï_ÌÌ_È_ËÂÌÚ_103" cx="-5297.96" cy="265.88" r="205.39" gradientTransform="matrix(-1, 0, 0, 1, -4801.38, 0)" gradientUnits="userSpaceOnUse"><stop offset="0" stop-color="#4c78df"/><stop offset="0.2" stop-color="#585fcc"/><stop offset="0.55" stop-color="#6a3aaf"/><stop offset="0.82" stop-color="#75229d"/><stop offset="1" stop-color="#791a96"/></radialGradient><clipPath id="clip-path" transform="translate(0)"><polygon class="cls-1" points="388.55 107.85 504.32 174.69 490.15 258.25 374.45 191.45 388.55 107.85"/></clipPath><linearGradient id="_ÂÁ_Ï_ÌÌ_È_ËÂÌÚ_21" x1="-5315.7" y1="208.8" x2="-5100.21" y2="208.8" gradientTransform="matrix(-1, 0, 0, 1, -4801.38, 0)" gradientUnits="userSpaceOnUse"><stop offset="0" stop-color="#bdbdf3"/><stop offset="0.29" stop-color="#c2c2f4"/><stop offset="0.64" stop-color="#d0d0f7"/><stop offset="1" stop-color="#e7e7fb"/></linearGradient><radialGradient id="_ÂÁ_Ï_ÌÌ_È_ËÂÌÚ_29" cx="446.47" cy="221.37" r="40.15" gradientUnits="userSpaceOnUse"><stop offset="0" stop-color="#27265a"/><stop offset="0.34" stop-color="#242354"/><stop offset="0.79" stop-color="#1b1b44"/><stop offset="1" stop-color="#15163a"/></radialGradient><radialGradient id="_ÂÁ_Ï_ÌÌ_È_ËÂÌÚ_29-2" cx="454.09" cy="214.26" r="38.24" xlink:href="#_ÂÁ_Ï_ÌÌ_È_ËÂÌÚ_29"/><radialGradient id="_ÂÁ_Ï_ÌÌ_È_ËÂÌÚ_29-3" cx="467.89" cy="215.02" r="44.4" xlink:href="#_ÂÁ_Ï_ÌÌ_È_ËÂÌÚ_29"/><radialGradient id="_ÂÁ_Ï_ÌÌ_È_ËÂÌÚ_29-4" cx="474.14" cy="211.41" r="44.4" xlink:href="#_ÂÁ_Ï_ÌÌ_È_ËÂÌÚ_29"/><radialGradient id="_ÂÁ_Ï_ÌÌ_È_ËÂÌÚ_29-5" cx="480.38" cy="207.81" r="44.4" xlink:href="#_ÂÁ_Ï_ÌÌ_È_ËÂÌÚ_29"/></defs><title>bg</title><g class="cls-2"><g id="_ÎÓÈ_1" data-name="—ÎÓÈ_1"><rect class="cls-3" width="600" height="400" transform="translate(600 400) rotate(180)"/><rect class="cls-4" width="600" height="400" transform="translate(600 400) rotate(180)"/><path class="cls-5" d="M583.37,39.73a4.94,4.94,0,0,0-4.49,0c-.94.53-1.17,1.32-.7,2L508.66,81.86v50.67l-16.94,9.77v55.12l-58,33.5-9-5.22,44.74-25.83V169.65l-.18-.1-50.87-29.37V129.94l28.77-16.61a5,5,0,0,0,4.1-.19c1.24-.71,1.24-1.87,0-2.59a4.94,4.94,0,0,0-4.49,0c-1.12.65-1.22,1.65-.32,2.37l-28.77,16.61v11.06l.18.11,50.87,29.36v29.39L434.88,219V206.38l15.5-8.94a5,5,0,0,0,4.1-.19c1.24-.71,1.24-1.87,0-2.59a4.94,4.94,0,0,0-4.49,0c-1.12.65-1.22,1.65-.32,2.37L434.17,206v13.41L424,225.29l-12.09-7V196.38l22.8-13.16V168.06l-.18-.1-48-27.71c.9-.72.8-1.73-.32-2.37a4.94,4.94,0,0,0-4.49,0c-1.24.72-1.24,1.88,0,2.59a5,5,0,0,0,4.1.19L434,168.48v14.33l-22.09,12.75V180.45l-.18-.1-29.37-17c.9-.71.8-1.72-.32-2.36a4.94,4.94,0,0,0-4.49,0c-1.24.71-1.24,1.87,0,2.59a5,5,0,0,0,4.1.19l29.55,17.05v37l-8.5-4.9-14,8.08L376,213.75V196l-.18-.1-33.5-19.34V159.77a4.42,4.42,0,0,0,1.89-.52c1.24-.71,1.24-1.87,0-2.59a4.94,4.94,0,0,0-4.49,0c-1.24.72-1.24,1.88,0,2.59a4.42,4.42,0,0,0,1.89.52v17.17l.18.1,33.5,19.34v17l-54.53-31.48V148.49l29.57-17.07h27.13l.09,0,46.56-26.88a5,5,0,0,0,4.1-.19c1.24-.71,1.24-1.87,0-2.59a5,5,0,0,0-4.49,0c-1.12.65-1.22,1.65-.32,2.37l-46.13,26.63H351.56L437.1,81.32a5,5,0,0,0,4.1-.18,1.37,1.37,0,0,0,0-2.6,5,5,0,0,0-4.49,0c-1.12.65-1.22,1.65-.32,2.37L320,148.08v34.19l.18.11L388,221.48l-13.63,7.87L258.68,162.59V122.75l-.18-.1L219.18,99.94c.9-.71.8-1.72-.32-2.36a4.94,4.94,0,0,0-4.49,0c-1.24.71-1.24,1.87,0,2.59a5,5,0,0,0,4.1.18L258,123.16V163l.18.1,115.46,66.66-13,7.49-114.36-66h-68.2l-42.62-24.61V108.8a3.66,3.66,0,0,0,1.23-.43c1.24-.72,1.24-1.88,0-2.59a4.94,4.94,0,0,0-4.49,0c-1.24.71-1.24,1.87,0,2.59a4.76,4.76,0,0,0,2.55.52V147l.18.1,43,24.81h68.2l96.54,55.74H323.2l-32.95-19H264.87l-.08,0L229.59,229a5,5,0,0,0-4.1.19c-1.24.71-1.24,1.87,0,2.59a5,5,0,0,0,4.5,0c1.11-.65,1.21-1.65.31-2.37l34.77-20.06h25l32.95,19h20.84l16.07,9.28-34.64,20L315.43,252V237.05l-25-14.45c.9-.71.8-1.72-.31-2.36a5,5,0,0,0-4.5,0c-1.24.71-1.24,1.87,0,2.59a5,5,0,0,0,4.1.18l25,14.45v14.11L288,236.16H275.39l-.08.05-15.06,8.7a5,5,0,0,0-4.1.18c-1.24.72-1.24,1.88,0,2.59a4.94,4.94,0,0,0,4.49,0c1.12-.64,1.22-1.65.32-2.36l14.63-8.45h12.25l36.73,21.21-6.67,3.85,21.29,12.29-10,5.76H314.14l-10.79-6.23c.86-.72.75-1.7-.36-2.34a4.94,4.94,0,0,0-4.49,0c-1.24.72-1.24,1.88,0,2.59a5,5,0,0,0,4.15.16l11.3,6.53h14l-25.43,14.68-59.82-34.54H199.69l-.08.05-24.23,14a5,5,0,0,0-4.1.18,1.37,1.37,0,0,0,0,2.6,5,5,0,0,0,4.49,0c1.11-.65,1.21-1.65.32-2.37l23.79-13.74h42.67l46.14,26.64H268.94L249.63,277c.9-.71.8-1.72-.32-2.36a4.94,4.94,0,0,0-4.49,0c-1.24.71-1.24,1.87,0,2.59a5,5,0,0,0,4.1.18l19.83,11.45h21.17l11.93,6.89-30.37,17.53H174.41L99,269.78c.89-.72.79-1.72-.32-2.37a5,5,0,0,0-4.5,0c-1.24.72-1.24,1.88,0,2.59a5,5,0,0,0,4.1.19L174.22,314h96l-12.05,7H186.35l-.08,0-35.44,20.46a5,5,0,0,0-4.1.18c-1.24.72-1.24,1.88,0,2.59a4.94,4.94,0,0,0,4.49,0c1.12-.64,1.22-1.65.32-2.36l35-20.21h71.85l.08-.05,81.43-47,9,5.22-85.61,49.43H200.72l-.08,0L125,373H20.25L0,361.29v.82L20.06,373.7H125.21l.08-.05,47.46-27.4v16.22l-31.28,18.06a5,5,0,0,0-4.1.18c-1.24.72-1.24,1.88,0,2.59a4.94,4.94,0,0,0,4.49,0c1.12-.64,1.22-1.65.32-2.36l31.28-18.06V345.93h-.16L200.91,330h62.61l.08-.05,86-49.68,10.27,5.93L193,382.58V400h.71V383l167-96.39,12.69,7.33-86.13,49.72v8.89l-15.27,8.81V381.8l-29.61,17.1a5,5,0,0,0-4.1.18,1.87,1.87,0,0,0-.86.92h6.2a1.53,1.53,0,0,0-.53-.69l29.61-17.1V361.76l14.56-8.4V386.1l8.6,5L280.3,400h1.42l14.78-8.53L311.27,400h1.42L287.9,385.69V344.06L374,294.34,385.58,301l-60.95,35.19a5,5,0,0,0-4.1.19c-1.24.71-1.24,1.87,0,2.59a5,5,0,0,0,4.49,0c1.12-.65,1.22-1.65.32-2.37l61-35.19,11.15,6.44-72.91,42.09H304.72a1.88,1.88,0,0,0-.87-.94,5,5,0,0,0-4.49,0,1.37,1.37,0,0,0,0,2.6,5,5,0,0,0,4.49,0,1.86,1.86,0,0,0,.87-1h20l.09,0,73.34-42.35,4.5,2.6,3.47-2L423.58,319v14l-14.43,8.33v0H386.51l-.09,0-24.85,14.35a5,5,0,0,0-4.09.18,1.37,1.37,0,0,0,0,2.6,5,5,0,0,0,4.49,0c1.11-.65,1.21-1.65.32-2.37L386.7,342H408l-42.43,24.49a5,5,0,0,0-4.19.14,1.37,1.37,0,0,0,0,2.6,5,5,0,0,0,4.49,0c1.09-.63,1.22-1.61.39-2.32l52.92-30.55v6.75l-31.48,18.18v12.83l-25.63,14.8a5,5,0,0,0-4.1.19c-1.24.71-1.24,1.87,0,2.59a4.94,4.94,0,0,0,4.49,0c1.11-.65,1.21-1.65.32-2.37l25.63-14.8V361.69l31.48-18.18v-7.57l4.41-2.55V318.54l-17.46-10.09,11.48-6.63,35.94,20.76v23.59l-24.41,14.09a5,5,0,0,0-4.19.14c-1.24.72-1.24,1.88,0,2.59a4.94,4.94,0,0,0,4.49,0c1.1-.63,1.22-1.6.4-2.31L454.25,347V366l-18.74,10.82V400h.71V377.27l18-10.4V400H455V322.17L419,301.41,431.91,294l47,27.12v64.6l22.58,13V400h.71v-1.68l-22.58-13v-64.6l-47-27.12,9.55-5.51,63.4,36.6v55.11L540.62,400H542l-35.76-20.65V324.24l-63.4-36.61,15.48-8.93,105.49,60.9V367L600,387.89v-.82l-35.44-20.46V339.19l-59.33-34.26h46.92L600,332.56v-.82l-47.66-27.52H504l-44.92-25.93,18-10.39,38.61,22.29h62L600,303.07v-.82l-4.89-2.82H600v-.71h-6.12l-16-9.24h-62l-10.8-6.24h26.36l.08-.05,13.22-7.63h55.09l.18.1v-.81H546l14.89-8.6a5,5,0,0,0,4.1-.18c1.24-.72,1.24-1.88,0-2.59a4.94,4.94,0,0,0-4.49,0c-1.12.64-1.22,1.65-.32,2.36l-28.9,16.69h-27.4l-26.06-15,9.63-5.56-6.2-3.58h18l23.54,13.59c-.9.72-.8,1.72.32,2.37a5,5,0,0,0,4.49,0c1.24-.72,1.24-1.88,0-2.59a5,5,0,0,0-4.1-.19l-24.06-13.89H480L466.81,250l8.1-4.68h14.37l12.64-7.29h9.43l21.3,12.29c-1,.72-.88,1.75.26,2.41a5,5,0,0,0,4.49,0c1.24-.72,1.24-1.88,0-2.59a5,5,0,0,0-4-.22l-21.83-12.61h-9.81l-12.64,7.3H476.14l25.91-15h14l29.16,16.84H600v-.71H545.38L516.23,229H501.86l-.09.05-35.67,20.6-9.37-5.4,40.32-23.28h28.44l23.45,13.54H600v-.71H549.14l-22.23-12.83H600v-.71H496.86l-.08.05L456,243.8l-10.63-6.14,56.22-32.45H600v-.71H528.3L600,163.1v-.82l-73.12,42.21H502.12l53.31-30.77v-6.78l25.5-14.73A5,5,0,0,0,585,152a1.37,1.37,0,0,0,0-2.6,5,5,0,0,0-4.49,0c-1.12.65-1.22,1.65-.32,2.37l-13.89,8V141.23L600,121.8V121l-34.38,19.85v19.41l-10.9,6.3v6.78l-53.74,31,.18.31-56.48,32.6-10.27-5.92,58-33.5V142.71L600,80.61v-.82l-90.63,52.33V82.27l69.36-40,.15.1a5,5,0,0,0,4.49,0C584.61,41.6,584.61,40.44,583.37,39.73ZM486,261.93,402.65,310l-83.33-48.11,83.33-48.12Z" transform="translate(0)"/><path class="cls-6" d="M600,125.94l-14.81,8.56v27.55L453.59,238l-10-5.77,67.88-39.19v-7l12-6.95V163l23.34-13.48a4,4,0,0,0,3.23-.14,1.09,1.09,0,0,0,0-2,3.94,3.94,0,0,0-3.54,0c-.88.51-1,1.3-.26,1.87L523,162.67v16.12l-11.48,6.62v-25.8l-.14-.08-6.63-3.83,39.79-23V106.88l28.27-16.32a4,4,0,0,0,3.23-.14,1.08,1.08,0,0,0,0-2,3.94,3.94,0,0,0-3.54,0c-.88.51-1,1.31-.25,1.87l-28.27,16.32V132.4l-39.79,23L439.44,118V89.12a3.5,3.5,0,0,0,1.49-.41,1.08,1.08,0,0,0,0-2,3.88,3.88,0,0,0-3.54,0,1.08,1.08,0,0,0,0,2,3.58,3.58,0,0,0,1.49.41v29.22l.14.09,38.92,22.46H449.58l-22.93-13.24c.7-.56.63-1.35-.26-1.86a3.86,3.86,0,0,0-3.53,0,1.08,1.08,0,0,0,0,2,4,4,0,0,0,3.23.15l23.34,13.47h29.46l32,18.49v32.81L443,231.93l-9.1-5.25,48-27.74a4,4,0,0,0,3.23-.14,1.08,1.08,0,0,0,0-2.05,3.92,3.92,0,0,0-3.53,0c-.89.51-1,1.3-.26,1.87l-48,27.73-8.78-5.07L482,188.1h15.62a1.42,1.42,0,0,0,.68.75,3.94,3.94,0,0,0,3.54,0,1.08,1.08,0,0,0,0-2,3.94,3.94,0,0,0-3.54,0,1.44,1.44,0,0,0-.68.74H481.89l-.07,0L424,221l-3.54-2.05-.14.08-2.59,1.49L404,212.54V201.47l11.37-6.56v0h17.85l19.65-11.35a4,4,0,0,0,3.23-.14,1.08,1.08,0,0,0,0-2,3.94,3.94,0,0,0-3.54,0c-.89.51-1,1.3-.26,1.87L433,194.38H416.26l33.44-19.31A4,4,0,0,0,453,175a1.08,1.08,0,0,0,0-2.05,3.94,3.94,0,0,0-3.54,0c-.86.5-1,1.27-.31,1.83l-41.7,24.08V193.5l24.81-14.33V169.05l20.21-11.66a4,4,0,0,0,3.23-.15,1.08,1.08,0,0,0,0-2,3.94,3.94,0,0,0-3.54,0c-.88.51-1,1.3-.26,1.87l-20.2,11.66v10.12l-24.81,14.32v6l-3.48,2v11.71l13.77,7.95L408.13,226,379.8,209.67V191.08L399,180a3.92,3.92,0,0,0,3.3-.11,1.08,1.08,0,0,0,0-2,3.88,3.88,0,0,0-3.54,0c-.86.5-1,1.26-.31,1.82L379.8,190.43v-15l14.77-8.52V138.63a3.31,3.31,0,0,0,1.49-.41,1.08,1.08,0,0,0,0-2,3.94,3.94,0,0,0-3.54,0,1.08,1.08,0,0,0,0,2,3.24,3.24,0,0,0,1.49.41v27.94l-14.2,8.2V124.94h-.56V210l28.33,16.36-10.16,5.86-37-21.38V159.93l-17.8-10.28V130.5l-15.72-9.07c.71-.57.63-1.36-.25-1.87a3.94,3.94,0,0,0-3.54,0,1.08,1.08,0,0,0,0,2,4,4,0,0,0,3.23.14L342,130.83V150l17.8,10.27v50.92l37,21.37-7.53,4.35-50-28.85V164.6l-.14-.08L295,139c.71-.56.63-1.35-.25-1.86a3.88,3.88,0,0,0-3.54,0,1.08,1.08,0,0,0,0,2,4,4,0,0,0,3.23.15l44.38,25.61v43.44l.14.09,49.83,28.77-12.21,7-83.14-48V174.64l-.14-.08-69.6-40.18c.71-.57.63-1.36-.25-1.87a3.94,3.94,0,0,0-3.54,0,1.08,1.08,0,0,0,0,2,4,4,0,0,0,3.23.15L292.85,175v21.61l.14.08,46.63,26.92h-37l-42.81-24.72c.71-.56.63-1.35-.25-1.86a3.88,3.88,0,0,0-3.54,0,1.08,1.08,0,0,0,0,2,4,4,0,0,0,3.23.15l43.22,24.95h38.11L376,244.58l-14.18,8.19L331.38,235.2H282.51l-55.58-32.09H196.09l-12.57-7.25c.71-.57.63-1.36-.25-1.87a3.94,3.94,0,0,0-3.54,0,1.08,1.08,0,0,0,0,2,4,4,0,0,0,3.23.15l13,7.49h30.84l42,24.25H232.5L215,217.83c.71-.56.63-1.35-.25-1.86a3.88,3.88,0,0,0-3.54,0,1.08,1.08,0,0,0,0,2,4,4,0,0,0,3.23.15l17.88,10.32h37.4l12.61,7.28h48.87l8.51,4.92H319l-.07,0-10.42,6H265.06l-12.24-7.07H228.26a1.51,1.51,0,0,0-.69-.74,3.94,3.94,0,0,0-3.54,0,1.08,1.08,0,0,0,0,2.05,3.94,3.94,0,0,0,3.54,0,1.52,1.52,0,0,0,.69-.75h24.4l12.25,7.07h42.6l-11.73,6.78a4,4,0,0,0-3.23.14,1.08,1.08,0,0,0,0,2,3.94,3.94,0,0,0,3.54,0c.88-.51,1-1.3.25-1.87l22.78-13.15h21.59l20.54,11.86-7.59,4.38.42.24,4.46,2.58H344.35l-18.56-10.72c.71-.56.63-1.35-.25-1.86a3.88,3.88,0,0,0-3.54,0,1.08,1.08,0,0,0,0,2,4,4,0,0,0,3.23.15l19,11h15.31l10.39,6-6.39,3.68H352.18l-.06,0-9.9,5.71h-7.43L318,266.6c.75-.57.69-1.38-.21-1.9a3.94,3.94,0,0,0-3.54,0,1.08,1.08,0,0,0,0,2.05,4,4,0,0,0,3.17.17l17.21,9.93h7.74l.06,0,9.9-5.72h10.2l-20.42,11.79h-11l-23-13.27h-69.3l-43-24.81c.74-.57.68-1.38-.22-1.89a3.88,3.88,0,0,0-3.54,0,1.08,1.08,0,0,0,0,2,4,4,0,0,0,3.19.17l43.4,25.05H308l23,13.27h11.33l.06,0,28.12-16.24,7.38,4.26-31.78,18.35H323.65l-18.49-10.68H257.71a1.51,1.51,0,0,0-.69-.74,3.88,3.88,0,0,0-3.54,0,1.08,1.08,0,0,0,0,2,3.88,3.88,0,0,0,3.54,0,1.44,1.44,0,0,0,.68-.74H305l17.52,10.12H255.66l-.07,0-63.72,36.8a4,4,0,0,0-3.23.14,1.08,1.08,0,0,0,0,2,3.88,3.88,0,0,0,3.54,0c.88-.5,1-1.3.25-1.86l63.38-36.59h90.4l.07,0,32.12-18.55,8.38,4.84-44.31,25.59h-78l-.07,0-68.32,39.45H116.45L70,314.87c.71-.57.63-1.36-.25-1.87a3.94,3.94,0,0,0-3.54,0,1.08,1.08,0,0,0,0,2,4,4,0,0,0,3.23.15l46.84,27h79.91l.06,0,68.33-39.44h56.83L238,350.93v12.68l-33.29,19.22a4,4,0,0,0-3.23.15,1.08,1.08,0,0,0,0,2,3.94,3.94,0,0,0,3.54,0c.88-.51,1-1.3.25-1.87l33.29-19.21V351.25l84-48.5h19.51l-42,24.25v5.35L280,344a4,4,0,0,0-3.23.15,1.08,1.08,0,0,0,0,2,3.88,3.88,0,0,0,3.54,0c.88-.51,1-1.3.25-1.86L291.45,338v14.65l-63.23,36.51a4,4,0,0,0-3.23.14,1.08,1.08,0,0,0,0,2.05,3.94,3.94,0,0,0,3.54,0c.88-.51,1-1.3.25-1.87L292,352.93V337.64l8.6-5v-5.34L343,302.87l-.14-.24,44.51-25.7,8.1,4.67L349.71,308v43.44L265.6,400h1.12l69.64-40.2v39.28l-1.58.92h1.12l1-.59V359.47l13.35-7.71V308.32L396,281.92l7.12,4.11-35.26,20.36v23.82l.14.08,40.09,23.15v8.07L385.42,374.6a4,4,0,0,0-3.23.15,1.08,1.08,0,0,0,0,2,3.88,3.88,0,0,0,3.54,0c.88-.51,1-1.3.25-1.86l22.67-13.09v-8.73l-.14-.08-40.09-23.15V306.72l26.64-15.38v9.92l-12.21,7.05a4,4,0,0,0-3.23.14,1.08,1.08,0,0,0,0,2.05,3.94,3.94,0,0,0,3.54,0c.88-.51,1-1.3.25-1.87l12.21-7.05V291l8.06-4.65,9.53,5.5v17.28l-18,10.37v11.95l.14.08,37.83,21.85c-.7.56-.62,1.35.26,1.86a3.88,3.88,0,0,0,3.54,0,1.08,1.08,0,0,0,0-2,4,4,0,0,0-3.23-.15l-38-21.92v-11.3l17.41-10v11.9l23.29,13.45c-.71.57-.63,1.36.25,1.87a3.94,3.94,0,0,0,3.54,0,1.08,1.08,0,0,0,0-2.05,4,4,0,0,0-3.23-.14l-23.29-13.45V292.18l6.7,3.87.14-.08,10.88-6.29,10,5.77v14L468,324.79V338a3.27,3.27,0,0,0-1.49.41,1.08,1.08,0,0,0,0,2,3.94,3.94,0,0,0,3.54,0,1.08,1.08,0,0,0,0-2,3.31,3.31,0,0,0-1.49-.41V324.46L442,309.14V295.77l43,24.81v26.3l-23.31,13.46H440.32l-.06,0-36.71,21.19a4,4,0,0,0-3.23.15,1.08,1.08,0,0,0,0,2,3.94,3.94,0,0,0,3.54,0c.88-.51,1-1.3.25-1.87l36.36-21h20.27l-67.43,38.93a4,4,0,0,0-3.23.15l0,0h4.09l91.44-52.79V320.26l-.14-.08-53.39-30.82,10.75-6.21,91.14,52.63v31.4l31.14,18c-.71.57-.63,1.36.25,1.87a3.94,3.94,0,0,0,3.54,0,1.08,1.08,0,0,0,0-2,4,4,0,0,0-3.23-.14l-31.14-18v-31.4l-.14-.08-91-52.54,10.23-5.9,90.13,52h53.76l2.52,1.46v-.65l-2.37-1.37H543.87l-76.08-43.93h15.3l26,15h20l.07,0,27.74-16a4,4,0,0,0,3.23-.14,1.08,1.08,0,0,0,0-2,3.94,3.94,0,0,0-3.54,0c-.88.51-1,1.3-.25,1.87l-27.4,15.82h-19.7l-26-15H466.82l-12.67-7.31,27.3-15.76,7.77,4.48v11.77l19.72,11.38c-.71.57-.63,1.36.25,1.87a3.94,3.94,0,0,0,3.54,0,1.08,1.08,0,0,0,0-2,4,4,0,0,0-3.23-.14l-19.72-11.39V265.64l21,12.15h10l.06,0,11.88-6.86a4,4,0,0,0,3.23-.14,1.08,1.08,0,0,0,0-2.05,3.94,3.94,0,0,0-3.54,0c-.88.51-1,1.31-.25,1.87l-11.53,6.66H511L482,260.51l5.26-3-.42-.25-16.36-9.44,7.86-4.54h11.88l8.5,4.91c-.67.56-.58,1.34.29,1.84a3.88,3.88,0,0,0,3.54,0,1.08,1.08,0,0,0,0-2,4,4,0,0,0-3.27-.13l-8.91-5.14H479.32l20-11.57,47.15,27.22h33.93l.06,0,19.1-11c.13.05.27.07.4.11v-2.58a3.1,3.1,0,0,0-.7.28c-.89.51-1,1.3-.26,1.86l-18.75,10.83H546.66l-36.36-21h15.56l15.21,8.78c-.7.57-.63,1.36.26,1.87a3.94,3.94,0,0,0,3.54,0,1.09,1.09,0,0,0,0-2.05,4,4,0,0,0-3.23-.14l-15.63-9H509.32l-9.4-5.43L523.86,217H600v-.56H524.83l9.49-5.49H591l.06,0,9-5.19v-.65l-9.19,5.31H534.17l-.06,0-64.18,37.05-7.13-4.11,67.48-39h49.34l.07,0L600,192.63V192l-20.53,11.85H530.13l-.07,0L462.24,243l-8.09-4.68,131.6-76V134.82L600,126.59ZM486.15,257.48,420.47,295.4l-65.69-37.92,65.69-37.92Z" transform="translate(0)"/><circle class="cls-7" cx="254.25" cy="269.08" r="23.51"/><circle class="cls-8" cx="284.68" cy="102.96" r="9.74"/><circle class="cls-9" cx="563.61" cy="197.79" r="17.5" transform="translate(25.22 456.47) rotate(-45)"/><path class="cls-10" d="M568.09,268.67c-7,1.37-14.65-.82-17-4.88s1.42-8.47,8.46-9.83,14.66.82,17,4.88S575.13,267.31,568.09,268.67Z" transform="translate(0)"/><ellipse class="cls-10" cx="254.53" cy="337.67" rx="18.7" ry="10.8"/><path class="cls-10" d="M286.82,142.31c-3.51.68-7.32-.41-8.5-2.44s.71-4.22,4.22-4.91,7.33.41,8.51,2.44S290.34,141.63,286.82,142.31Z" transform="translate(0)"/><circle class="cls-11" cx="349" cy="62.44" r="2.49"/><circle class="cls-11" cx="305.28" cy="316.08" r="3.01"/><path class="cls-12" d="M287.78,302.78a1.55,1.55,0,1,1-1.55-1.55A1.56,1.56,0,0,1,287.78,302.78Z" transform="translate(0)"/><path class="cls-12" d="M550.37,245.67a1.6,1.6,0,1,1-1.6-1.6A1.6,1.6,0,0,1,550.37,245.67Z" transform="translate(0)"/><circle class="cls-12" cx="252.28" cy="137.74" r="2.25"/><path class="cls-12" d="M422.74,55.67a2.26,2.26,0,1,1-2.26-2.25A2.25,2.25,0,0,1,422.74,55.67Z" transform="translate(0)"/><path class="cls-12" d="M263.69,132.75a1.25,1.25,0,1,1-1.25-1.24A1.25,1.25,0,0,1,263.69,132.75Z" transform="translate(0)"/><path class="cls-13" d="M478.22,63.71a1.47,1.47,0,1,1-1.47-1.47A1.47,1.47,0,0,1,478.22,63.71Z" transform="translate(0)"/><polygon class="cls-14" points="261.98 211.54 261.44 209.61 265.72 208.42 264.52 204.14 266.45 203.6 268.19 209.8 261.98 211.54"/><polygon class="cls-14" points="258.2 218.25 257.67 216.32 261.94 215.13 260.75 210.85 262.67 210.31 264.41 216.51 258.2 218.25"/><polygon class="cls-14" points="262.21 216.09 260.48 209.88 266.69 208.15 267.23 210.07 262.94 211.27 264.14 215.55 262.21 216.09"/><path class="cls-14" d="M409.9,68.47a4.76,4.76,0,1,1,4.76-4.76A4.76,4.76,0,0,1,409.9,68.47Zm0-7.52a2.76,2.76,0,1,0,2.76,2.76A2.77,2.77,0,0,0,409.9,61Z" transform="translate(0)"/><path class="cls-14" d="M514.32,306.63l-5.41-5.4,5.41-5.4,5.4,5.4Zm-2.58-5.4,2.58,2.57,2.57-2.57-2.57-2.57Z" transform="translate(0)"/><rect class="cls-15" x="528.36" y="108.98" width="2" height="8.18" transform="translate(75.12 407.47) rotate(-45.01)"/><rect class="cls-15" x="525.27" y="112.07" width="8.18" height="2" transform="translate(75.1 407.44) rotate(-45)"/><path class="cls-13" d="M234.35,179.35a1.47,1.47,0,1,1-1.47-1.47A1.47,1.47,0,0,1,234.35,179.35Z" transform="translate(0)"/><path class="cls-10" d="M298.19,258.41l117.37,67.76a4.77,4.77,0,0,0,4.34.18l70-40.43c1.11-.64,1-1.77-.31-2.51L372.26,215.65a4.84,4.84,0,0,0-4.34-.18l-70,40.44C296.77,256.55,296.9,257.67,298.19,258.41Z" transform="translate(0)"/><path class="cls-16" d="M372.05,190.56l14.83-88-1.19-.5,1.79-1h0a1.28,1.28,0,0,1,1.38.1l118.58,68.46a3.32,3.32,0,0,1,1.53,3l-15,88.72a1.12,1.12,0,0,1-.62.9h0l-1.76,1-.3-1.64.1,0-117.85-68A3.33,3.33,0,0,1,372.05,190.56Z" transform="translate(0)"/><path class="cls-17" d="M506.77,172l2-.86a2.63,2.63,0,0,1,.25,1.47l-15,88.72a1.12,1.12,0,0,1-.62.9h0l-1.76,1-.3-1.64.1,0-6-3.44Z" transform="translate(0)"/><path class="cls-18" d="M371.73,194.64,490.3,263.1c.92.53,1.7.23,1.86-.72l14.95-88.73a3.32,3.32,0,0,0-1.54-3L387,102.18c-.92-.53-1.7-.22-1.86.73l-14.95,88.72A3.31,3.31,0,0,0,371.73,194.64Z" transform="translate(0)"/><path class="cls-19" d="M371.73,194.64,490.3,263.1c.92.53,1.7.23,1.86-.72l14.95-88.73a3.32,3.32,0,0,0-1.54-3L387,102.18c-.92-.53-1.7-.22-1.86.73l-14.95,88.72A3.31,3.31,0,0,0,371.73,194.64Z" transform="translate(0)"/><polygon class="cls-20" points="387.2 107.07 504.32 174.69 490.15 258.25 373.11 190.67 387.2 107.07"/><path class="cls-21" d="M297.19,236.65l6.47,3.38,64.89-37.46a4.7,4.7,0,0,1,4.23.17l111.91,64.61c1.07-.6,6-2.94,6-2.94l-2.37,6.17h0a1.42,1.42,0,0,1-.66.73l-68.34,39.46a4.69,4.69,0,0,1-4.24-.18L300.51,244.47a2.07,2.07,0,0,1-1-1h0Z" transform="translate(0)"/><path class="cls-22" d="M298.19,237.71l117.37,67.76a4.77,4.77,0,0,0,4.34.18l70-40.43c1.11-.64,1-1.77-.31-2.51L372.26,195a4.84,4.84,0,0,0-4.34-.18l-70,40.44C296.77,235.85,296.9,237,298.19,237.71Z" transform="translate(0)"/><path class="cls-23" d="M298.19,236.56l117.37,67.77a4.84,4.84,0,0,0,4.34.18l70-40.44a1.67,1.67,0,0,0,.58-.53,1.18,1.18,0,0,1-.58,1.68l-70,40.43a4.77,4.77,0,0,1-4.34-.18L298.19,237.71c-1-.56-1.29-1.35-.89-2A2.25,2.25,0,0,0,298.19,236.56Z" transform="translate(0)"/><g class="cls-24"><g class="cls-25"><path class="cls-26" d="M372.42,194.88l130.67,75.44a5.34,5.34,0,0,0,4.83.2l78-45c1.24-.71,1.08-2-.35-2.79L454.88,147.27a5.4,5.4,0,0,0-4.83-.2l-78,45C370.84,192.81,371,194.06,372.42,194.88Z" transform="translate(0)"/><polygon class="cls-27" points="401.04 192.98 495.64 247.59 491.89 249.76 397.3 195.14 401.04 192.98"/><polygon class="cls-28" points="411.01 187.22 500.92 239.13 497.17 241.3 407.26 189.39 411.01 187.22"/><polygon class="cls-14" points="507.63 243.01 516.03 247.86 512.28 250.02 503.89 245.17 507.63 243.01"/><polygon class="cls-14" points="500.22 250.24 506.06 253.61 502.32 255.78 496.47 252.4 500.22 250.24"/><polygon class="cls-29" points="417.25 183.62 522.28 244.25 518.53 246.42 413.51 185.78 417.25 183.62"/><polygon class="cls-30" points="423.5 180.01 528.52 240.65 524.77 242.81 419.75 182.18 423.5 180.01"/><polygon class="cls-31" points="429.75 176.41 534.77 237.04 531.02 239.2 426 178.57 429.75 176.41"/></g></g><polygon class="cls-14" points="369.42 210.21 454.14 259.12 457.91 256.95 373.19 208.03 369.42 210.21"/><polygon class="cls-14" points="360.19 215.54 439.65 261.42 443.42 259.25 363.95 213.37 360.19 215.54"/><polygon class="cls-14" points="354.17 219.01 447.73 273.03 451.5 270.86 357.94 216.84 354.17 219.01"/><polygon class="cls-14" points="348.16 222.49 441.72 276.51 445.49 274.33 351.92 220.31 348.16 222.49"/><polygon class="cls-14" points="342.14 225.96 435.7 279.98 439.47 277.8 345.91 223.79 342.14 225.96"/><polygon class="cls-14" points="459.26 262.08 463.03 264.25 466.8 262.08 463.03 259.9 459.26 262.08"/><polygon class="cls-14" points="445.98 265.07 453.79 269.59 457.56 267.41 449.74 262.9 445.98 265.07"/><g class="cls-32"><polygon class="cls-33" points="396.88 132.04 404.63 136.51 404.85 135.16 397.11 130.69 396.88 132.04"/><polygon class="cls-33" points="405.87 137.22 410.09 139.66 410.32 138.32 406.1 135.88 405.87 137.22"/><polygon class="cls-33" points="416.65 143.45 419.71 145.21 419.93 143.87 416.88 142.1 416.65 143.45"/><polygon class="cls-33" points="414.43 142.16 415.47 142.76 415.7 141.42 414.65 140.82 414.43 142.16"/><polygon class="cls-33" points="411.35 140.38 413.25 141.48 413.47 140.13 411.58 139.04 411.35 140.38"/><polygon class="cls-33" points="403.01 142.32 406.06 144.08 406.29 142.74 403.24 140.97 403.01 142.32"/><polygon class="cls-33" points="395.85 138.18 401.83 141.63 402.06 140.29 396.07 136.83 395.85 138.18"/><polygon class="cls-33" points="404.42 159.96 410.4 163.42 410.63 162.07 404.65 158.62 404.42 159.96"/><polygon class="cls-33" points="401.35 158.19 403.24 159.28 403.47 157.94 401.57 156.84 401.35 158.19"/><polygon class="cls-33" points="405.42 153.81 411.4 157.27 411.63 155.93 405.65 152.47 405.42 153.81"/><polygon class="cls-33" points="402.34 152.04 404.24 153.13 404.46 151.79 402.57 150.69 402.34 152.04"/><polygon class="cls-33" points="400.01 186.5 388.75 180 388.52 181.34 399.79 187.85 400.01 186.5"/><polygon class="cls-33" points="403.99 188.8 401.2 187.19 400.97 188.53 403.76 190.14 403.99 188.8"/><polygon class="cls-33" points="423.78 190.1 412.51 183.59 412.29 184.94 423.55 191.45 423.78 190.1"/><polygon class="cls-33" points="427.75 192.4 424.96 190.78 424.74 192.13 427.52 193.74 427.75 192.4"/><polygon class="cls-33" points="392.32 178.69 389.27 176.93 389.04 178.27 392.09 180.03 392.32 178.69"/><polygon class="cls-33" points="410.89 182.67 407.84 180.91 407.61 182.25 410.66 184.01 410.89 182.67"/><polygon class="cls-33" points="399.48 182.83 393.5 179.37 393.27 180.72 399.25 184.17 399.48 182.83"/><polygon class="cls-33" points="402.56 184.6 400.67 183.51 400.44 184.85 402.33 185.95 402.56 184.6"/><polygon class="cls-33" points="409.78 188.77 403.8 185.31 403.57 186.66 409.55 190.11 409.78 188.77"/><polygon class="cls-33" points="412.85 190.55 410.96 189.45 410.73 190.8 412.63 191.89 412.85 190.55"/><polygon class="cls-33" points="410.37 185.74 407.32 183.98 407.09 185.32 410.14 187.09 410.37 185.74"/><polygon class="cls-33" points="417.53 189.88 411.55 186.42 411.33 187.77 417.31 191.22 417.53 189.88"/><polygon class="cls-33" points="420.61 191.66 418.72 190.56 418.49 191.91 420.38 193 420.61 191.66"/><polygon class="cls-33" points="396.03 177.46 389.78 173.85 389.56 175.2 395.8 178.81 396.03 177.46"/><polygon class="cls-33" points="401.73 180.75 397.21 178.15 396.99 179.49 401.5 182.1 401.73 180.75"/><polygon class="cls-33" points="405.96 183.2 402.91 181.44 402.69 182.78 405.74 184.55 405.96 183.2"/><polygon class="cls-33" points="435.56 196.9 429.32 193.29 429.09 194.63 435.34 198.24 435.56 196.9"/><polygon class="cls-33" points="441.26 200.19 436.75 197.58 436.52 198.93 441.04 201.53 441.26 200.19"/><polygon class="cls-33" points="445.5 202.64 442.45 200.87 442.22 202.22 445.27 203.98 445.5 202.64"/><polygon class="cls-33" points="433.12 156.32 439.37 159.93 439.59 158.59 433.35 154.98 433.12 156.32"/><polygon class="cls-33" points="427.42 153.03 431.94 155.64 432.16 154.29 427.65 151.69 427.42 153.03"/><polygon class="cls-33" points="423.19 150.58 426.24 152.35 426.46 151 423.41 149.24 423.19 150.58"/><polygon class="cls-33" points="431.05 151.74 437.29 155.35 437.52 154 431.27 150.4 431.05 151.74"/><polygon class="cls-33" points="425.35 148.45 429.86 151.06 430.09 149.71 425.57 147.1 425.35 148.45"/><polygon class="cls-33" points="421.11 146 424.17 147.76 424.39 146.42 421.34 144.66 421.11 146"/><polygon class="cls-33" points="405.83 157.43 407.94 158.64 408.17 157.3 406.06 156.08 405.83 157.43"/><polygon class="cls-33" points="401.86 155.13 404.65 156.74 404.88 155.4 402.09 153.79 401.86 155.13"/><polygon class="cls-33" points="396.59 174.41 390.34 170.8 390.12 172.15 396.36 175.75 396.59 174.41"/><polygon class="cls-33" points="402.29 177.7 397.77 175.09 397.54 176.44 402.06 179.05 402.29 177.7"/><polygon class="cls-33" points="406.52 180.15 403.47 178.39 403.24 179.73 406.3 181.49 406.52 180.15"/><polygon class="cls-33" points="392.97 168.95 390.86 167.73 390.63 169.07 392.74 170.29 392.97 168.95"/><polygon class="cls-33" points="396.94 171.24 394.15 169.63 393.93 170.98 396.71 172.59 396.94 171.24"/><polygon class="cls-33" points="402.62 174.52 398.12 171.93 397.9 173.27 402.39 175.87 402.62 174.52"/><polygon class="cls-33" points="408.7 148.96 410.81 150.18 411.04 148.83 408.93 147.61 408.7 148.96"/><polygon class="cls-33" points="404.73 146.66 407.52 148.27 407.75 146.93 404.96 145.32 404.73 146.66"/><polygon class="cls-33" points="399.06 143.38 403.55 145.98 403.77 144.63 399.28 142.04 399.06 143.38"/><polygon class="cls-33" points="411.92 153.94 416.41 156.54 416.63 155.19 412.14 152.6 411.92 153.94"/><polygon class="cls-33" points="404.57 149.94 410.62 153.44 410.85 152.09 404.8 148.59 404.57 149.94"/><polygon class="cls-33" points="401.49 148.16 403.39 149.25 403.61 147.91 401.72 146.82 401.49 148.16"/><polygon class="cls-33" points="398.54 146.46 400.43 147.55 400.66 146.21 398.77 145.11 398.54 146.46"/><polygon class="cls-33" points="398.95 163.81 404.93 167.26 405.15 165.92 399.17 162.46 398.95 163.81"/><polygon class="cls-33" points="395.87 162.03 397.76 163.12 397.99 161.78 396.1 160.69 395.87 162.03"/><polygon class="cls-33" points="399.36 167.42 401.47 168.64 401.69 167.29 399.59 166.07 399.36 167.42"/><polygon class="cls-33" points="406.81 164.96 408.91 166.17 409.14 164.83 407.03 163.61 406.81 164.96"/><polygon class="cls-33" points="409.81 166.69 414.87 169.61 415.1 168.27 410.04 165.35 409.81 166.69"/><polygon class="cls-33" points="415.77 170.13 418.78 171.87 419.01 170.53 416 168.79 415.77 170.13"/><polygon class="cls-33" points="395.39 165.12 398.18 166.73 398.4 165.39 395.62 163.78 395.39 165.12"/><polygon class="cls-33" points="395.13 168.28 397.24 169.5 397.46 168.15 395.35 166.93 395.13 168.28"/><polygon class="cls-33" points="391.16 165.98 393.94 167.59 394.17 166.25 391.38 164.64 391.16 165.98"/><polygon class="cls-33" points="403.74 163.19 405.64 164.28 405.87 162.94 403.97 161.84 403.74 163.19"/><polygon class="cls-33" points="400.79 161.48 402.69 162.58 402.91 161.23 401.02 160.14 400.79 161.48"/><polygon class="cls-33" points="415.34 146.05 421.8 149.78 422.02 148.44 415.56 144.7 415.34 146.05"/><polygon class="cls-33" points="408.1 141.87 414.15 145.37 414.38 144.02 408.33 140.52 408.1 141.87"/><polygon class="cls-33" points="405.02 140.09 406.92 141.18 407.14 139.84 405.25 138.75 405.02 140.09"/><polygon class="cls-33" points="402.07 138.38 403.96 139.48 404.19 138.13 402.3 137.04 402.07 138.38"/><polygon class="cls-33" points="400.46 137.45 396.37 135.09 396.6 133.75 400.68 136.11 400.46 137.45"/></g></g></g></svg>