<svg xmlns="http://www.w3.org/2000/svg" xmlns:xlink="http://www.w3.org/1999/xlink" viewBox="0 0 600 360.81"><defs><style>.cls-1{fill:none;}.cls-2{isolation:isolate;}.cls-3,.cls-8,.cls-9{opacity:0.8;}.cls-3{fill:url(#_ÂÁ_Ï_ÌÌ_È_ËÂÌÚ_19);}.cls-4{fill:#42e8e0;opacity:0.1;}.cls-5{fill:url(#_ÂÁ_Ï_ÌÌ_È_ËÂÌÚ_18);}.cls-6{fill:url(#_ÂÁ_Ï_ÌÌ_È_ËÂÌÚ_28);}.cls-7{fill:url(#_ÂÁ_Ï_ÌÌ_È_ËÂÌÚ_28-2);}.cls-8{fill:#15163a;}.cls-11,.cls-13,.cls-9{fill:#b41187;}.cls-10,.cls-11,.cls-9{mix-blend-mode:lighten;}.cls-10,.cls-21{fill:#9be6fa;}.cls-12{fill:#98dff6;}.cls-14{fill:url(#_ÂÁ_Ï_ÌÌ_È_ËÂÌÚ_6);}.cls-15{fill:#6399d1;}.cls-16{fill:url(#_ÂÁ_Ï_ÌÌ_È_ËÂÌÚ_14);}.cls-17{fill:url(#_ÂÁ_Ï_ÌÌ_È_ËÂÌÚ_3);}.cls-18{fill:url(#_ÂÁ_Ï_ÌÌ_È_ËÂÌÚ_6-2);}.cls-19{fill:url(#_ÂÁ_Ï_ÌÌ_È_ËÂÌÚ_3-2);}.cls-20{fill:url(#_ÂÁ_Ï_ÌÌ_È_ËÂÌÚ_103);}.cls-22{opacity:0.11;}.cls-23{clip-path:url(#clip-path);}.cls-24{fill:url(#_ÂÁ_Ï_ÌÌ_È_ËÂÌÚ_21);}.cls-25{fill:url(#_ÂÁ_Ï_ÌÌ_È_ËÂÌÚ_29);}.cls-26{fill:url(#_ÂÁ_Ï_ÌÌ_È_ËÂÌÚ_29-2);}.cls-27{fill:url(#_ÂÁ_Ï_ÌÌ_È_ËÂÌÚ_29-3);}.cls-28{fill:url(#_ÂÁ_Ï_ÌÌ_È_ËÂÌÚ_29-4);}.cls-29{fill:url(#_ÂÁ_Ï_ÌÌ_È_ËÂÌÚ_29-5);}.cls-30{opacity:0.5;}.cls-31{fill:#fff;}</style><radialGradient id="_ÂÁ_Ï_ÌÌ_È_ËÂÌÚ_19" cx="-56.8" cy="58.73" r="439.34" gradientTransform="matrix(-1, 0, 0, 1, 481.76, 0)" gradientUnits="userSpaceOnUse"><stop offset="0" stop-color="#ff2c9c"/><stop offset="0.03" stop-color="#f62f9f"/><stop offset="0.2" stop-color="#c63eb0"/><stop offset="0.37" stop-color="#9e4bbe"/><stop offset="0.54" stop-color="#7f54c9"/><stop offset="0.7" stop-color="#695bd1"/><stop offset="0.86" stop-color="#5c60d5"/><stop offset="1" stop-color="#5761d7"/></radialGradient><linearGradient id="_ÂÁ_Ï_ÌÌ_È_ËÂÌÚ_18" x1="204.43" y1="933.7" x2="251.46" y2="933.7" gradientTransform="translate(1075.65 728.93) rotate(135)" gradientUnits="userSpaceOnUse"><stop offset="0" stop-color="#b41187"/><stop offset="0.39" stop-color="#7c1086"/><stop offset="0.74" stop-color="#500e84"/><stop offset="0.91" stop-color="#3f0e84"/></linearGradient><linearGradient id="_ÂÁ_Ï_ÌÌ_È_ËÂÌÚ_28" x1="69.93" y1="1107.19" x2="89.4" y2="1107.19" gradientTransform="translate(364.35 1170.96) rotate(180)" gradientUnits="userSpaceOnUse"><stop offset="0" stop-color="#9be6fa"/><stop offset="0.16" stop-color="#97e0f8"/><stop offset="0.37" stop-color="#8acff4"/><stop offset="0.61" stop-color="#75b3ed"/><stop offset="0.88" stop-color="#598ce4"/><stop offset="0.96" stop-color="#4e7ee0"/></linearGradient><linearGradient id="_ÂÁ_Ï_ÌÌ_È_ËÂÌÚ_28-2" x1="98.1" y1="717.6" x2="141.88" y2="717.6" gradientTransform="matrix(0.32, 0.95, -0.95, 0.32, 1131.81, -177.42)" xlink:href="#_ÂÁ_Ï_ÌÌ_È_ËÂÌÚ_28"/><linearGradient id="_ÂÁ_Ï_ÌÌ_È_ËÂÌÚ_6" x1="-5354.18" y1="147.18" x2="-5217.2" y2="147.18" gradientTransform="matrix(-1, 0, 0, 1, -4919.62, 0)" gradientUnits="userSpaceOnUse"><stop offset="0" stop-color="#9bd8fd"/><stop offset="1" stop-color="#7fbbec"/></linearGradient><linearGradient id="_ÂÁ_Ï_ÌÌ_È_ËÂÌÚ_14" x1="-5352.32" y1="147.78" x2="-5215.34" y2="147.78" gradientTransform="matrix(-1, 0, 0, 1, -4919.62, 0)" gradientUnits="userSpaceOnUse"><stop offset="0" stop-color="#4872b5"/><stop offset="1" stop-color="#3863a8"/></linearGradient><linearGradient id="_ÂÁ_Ï_ÌÌ_È_ËÂÌÚ_3" x1="-5352.32" y1="147.78" x2="-5215.34" y2="147.78" gradientTransform="matrix(-1, 0, 0, 1, -4919.62, 0)" gradientUnits="userSpaceOnUse"><stop offset="0" stop-color="#4b74df"/><stop offset="0.03" stop-color="#4b69d6"/><stop offset="0.12" stop-color="#4b48ba"/><stop offset="0.21" stop-color="#4c2fa5"/><stop offset="0.31" stop-color="#4c1c95"/><stop offset="0.41" stop-color="#4c128c"/><stop offset="0.52" stop-color="#4c0e89"/><stop offset="0.67" stop-color="#4f0f8a"/><stop offset="0.78" stop-color="#58128e"/><stop offset="0.87" stop-color="#681895"/><stop offset="0.96" stop-color="#7f209e"/><stop offset="1" stop-color="#8b24a3"/></linearGradient><linearGradient id="_ÂÁ_Ï_ÌÌ_È_ËÂÌÚ_6-2" x1="-5349.51" y1="147.8" x2="-5218.29" y2="147.8" gradientTransform="matrix(-1, 0, 0, 1, -4845.18, -4.32)" xlink:href="#_ÂÁ_Ï_ÌÌ_È_ËÂÌÚ_6"/><linearGradient id="_ÂÁ_Ï_ÌÌ_È_ËÂÌÚ_3-2" x1="-5335.83" y1="221.8" x2="-5142.37" y2="221.8" xlink:href="#_ÂÁ_Ï_ÌÌ_È_ËÂÌÚ_3"/><radialGradient id="_ÂÁ_Ï_ÌÌ_È_ËÂÌÚ_103" cx="-5341.76" cy="231.01" r="205.39" gradientTransform="matrix(-1, 0, 0, 1, -4919.62, 0)" gradientUnits="userSpaceOnUse"><stop offset="0" stop-color="#4c78df"/><stop offset="0.2" stop-color="#585fcc"/><stop offset="0.55" stop-color="#6a3aaf"/><stop offset="0.82" stop-color="#75229d"/><stop offset="1" stop-color="#791a96"/></radialGradient><clipPath id="clip-path" transform="translate(74.44 -4.32)"><polygon class="cls-1" points="314.11 72.98 429.89 139.83 415.71 223.39 300.02 156.59 314.11 72.98"/></clipPath><linearGradient id="_ÂÁ_Ï_ÌÌ_È_ËÂÌÚ_21" x1="-5359.5" y1="173.93" x2="-5144.01" y2="173.93" gradientTransform="matrix(-1, 0, 0, 1, -4919.62, 0)" gradientUnits="userSpaceOnUse"><stop offset="0" stop-color="#bdbdf3"/><stop offset="0.29" stop-color="#c2c2f4"/><stop offset="0.64" stop-color="#d0d0f7"/><stop offset="1" stop-color="#e7e7fb"/></linearGradient><radialGradient id="_ÂÁ_Ï_ÌÌ_È_ËÂÌÚ_29" cx="446.47" cy="182.18" r="40.15" gradientUnits="userSpaceOnUse"><stop offset="0" stop-color="#27265a"/><stop offset="0.34" stop-color="#242354"/><stop offset="0.79" stop-color="#1b1b44"/><stop offset="1" stop-color="#15163a"/></radialGradient><radialGradient id="_ÂÁ_Ï_ÌÌ_È_ËÂÌÚ_29-2" cx="454.09" cy="175.07" r="38.24" xlink:href="#_ÂÁ_Ï_ÌÌ_È_ËÂÌÚ_29"/><radialGradient id="_ÂÁ_Ï_ÌÌ_È_ËÂÌÚ_29-3" cx="467.89" cy="175.83" r="44.4" xlink:href="#_ÂÁ_Ï_ÌÌ_È_ËÂÌÚ_29"/><radialGradient id="_ÂÁ_Ï_ÌÌ_È_ËÂÌÚ_29-4" cx="474.14" cy="172.22" r="44.4" xlink:href="#_ÂÁ_Ï_ÌÌ_È_ËÂÌÚ_29"/><radialGradient id="_ÂÁ_Ï_ÌÌ_È_ËÂÌÚ_29-5" cx="480.38" cy="168.62" r="44.4" xlink:href="#_ÂÁ_Ï_ÌÌ_È_ËÂÌÚ_29"/></defs><title>section-left-remake</title><g class="cls-2"><g id="_ÎÓÈ_1" data-name="—ÎÓÈ_1"><path class="cls-3" d="M508.93,4.86a5,5,0,0,0-4.49,0c-.93.54-1.16,1.33-.69,2L434.22,47V97.66l-16.94,9.78v55.11l-58,33.5-9-5.22L395,165V134.79l-.18-.1-50.86-29.37V95.07l28.76-16.61a5,5,0,0,0,4.1-.18c1.24-.72,1.24-1.88,0-2.59a4.94,4.94,0,0,0-4.49,0c-1.12.64-1.22,1.65-.32,2.36L343.21,94.66v11.07l.17.1,50.87,29.37v29.39l-33.8,19.52V171.52l15.49-9a5,5,0,0,0,4.1-.18c1.24-.72,1.24-1.88,0-2.59a4.94,4.94,0,0,0-4.49,0c-1.12.64-1.22,1.65-.32,2.36l-15.49,9v13.41l-10.23,5.9-12.09-7V161.52l22.81-13.17V133.2l-.18-.1-48-27.72c.9-.71.8-1.72-.32-2.36a4.94,4.94,0,0,0-4.49,0c-1.24.71-1.24,1.87,0,2.59a5,5,0,0,0,4.1.18l48.18,27.82v14.33L337.42,160.7V145.59l-.18-.1-29.37-17c.9-.72.8-1.72-.32-2.37a5,5,0,0,0-4.49,0,1.37,1.37,0,0,0,0,2.6,5,5,0,0,0,4.1.18L336.71,146v37l-8.49-4.9-14,8.08-12.68-7.32V161.11l-.17-.1-33.51-19.34V124.91a4.52,4.52,0,0,0,1.89-.52c1.24-.72,1.24-1.88,0-2.59a4.94,4.94,0,0,0-4.49,0c-1.24.71-1.24,1.87,0,2.59a4.57,4.57,0,0,0,1.89.52v17.17l.18.1,33.5,19.34v17L246.32,147V113.63l29.57-17.07H303l.08,0,46.57-26.89a5,5,0,0,0,4.09-.18c1.24-.72,1.24-1.88,0-2.59a4.94,4.94,0,0,0-4.49,0c-1.11.64-1.21,1.65-.32,2.36L302.84,95.85H277.12l85.55-49.39a5,5,0,0,0,4.1-.19c1.24-.71,1.24-1.87,0-2.59a4.94,4.94,0,0,0-4.49,0c-1.12.64-1.22,1.65-.32,2.37L245.61,113.22v34.19l.17.1,67.74,39.11-13.64,7.87L184.25,127.72V87.89l-.18-.11-39.33-22.7c.9-.72.8-1.72-.32-2.37a5,5,0,0,0-4.49,0c-1.24.72-1.24,1.88,0,2.59a5,5,0,0,0,4.1.19L183.54,88.3v39.83l.18.11L299.17,194.9l-13,7.49-114.35-66h-68.2L61,111.76V73.94a4.33,4.33,0,0,0,1.24-.43,1.37,1.37,0,0,0,0-2.6,5,5,0,0,0-4.49,0,1.37,1.37,0,0,0,0,2.6A4.71,4.71,0,0,0,60.3,74v38.14l.18.1,43,24.81h68.19l96.54,55.73H248.76l-32.94-19H190.44l-.08.05-35.2,20.32a5,5,0,0,0-4.1.18,1.37,1.37,0,0,0,0,2.6,5,5,0,0,0,4.49,0c1.12-.65,1.22-1.65.32-2.37l34.76-20.07h25l32.94,19h20.84l16.07,9.28-34.64,20L241,217.11V202.19l-25-14.45c.9-.72.8-1.72-.32-2.37a5,5,0,0,0-4.49,0,1.37,1.37,0,0,0,0,2.6,5,5,0,0,0,4.1.18l25,14.45v14.1L213.6,201.3H201l-.08,0L185.81,210a5,5,0,0,0-4.1.19c-1.24.71-1.24,1.87,0,2.59a5,5,0,0,0,4.49,0c1.12-.65,1.22-1.65.32-2.37L201.15,202H213.4l36.73,21.2-6.67,3.85,21.29,12.3-10,5.75H239.7l-10.78-6.23c.86-.71.74-1.7-.36-2.33a4.94,4.94,0,0,0-4.49,0c-1.24.71-1.24,1.87,0,2.59a5,5,0,0,0,4.14.16l11.3,6.52h14L228.13,260.5,168.3,226h-43l-.09,0-24.23,14a5,5,0,0,0-4.1.18c-1.24.72-1.24,1.88,0,2.59a4.94,4.94,0,0,0,4.49,0c1.12-.64,1.22-1.65.32-2.36l23.8-13.74h42.66l46.14,26.64H194.5l-19.3-11.14c.9-.72.8-1.72-.32-2.37a5,5,0,0,0-4.49,0c-1.24.72-1.24,1.88,0,2.59a5,5,0,0,0,4.1.19L194.31,254h21.17l11.93,6.89L197,278.45H100L24.57,234.91c.9-.71.8-1.72-.32-2.36a4.94,4.94,0,0,0-4.49,0c-1.24.71-1.24,1.87,0,2.59a5,5,0,0,0,4.1.18l75.93,43.84h96l-12.05,7H111.91l-.08,0L76.4,306.62a5,5,0,0,0-4.1.19c-1.24.71-1.24,1.87,0,2.59a4.94,4.94,0,0,0,4.49,0c1.11-.65,1.21-1.65.32-2.37l35-20.2H184l.09-.05,81.42-47,9,5.22-85.61,49.42h-62.6l-.08,0L50.58,338.12H-54.18l-20.26-11.69v.82l20.06,11.58H50.77l.09-.05,47.45-27.4V327.6L67,345.66a5,5,0,0,0-4.1.19c-1.24.71-1.24,1.87,0,2.59a4.94,4.94,0,0,0,4.49,0c1.12-.65,1.22-1.65.32-2.37L99,328V311.07h-.16l27.62-15.95h62.61l.08,0,86-49.68,10.27,5.93-167,96.39v17.42h.71v-17l167-96.39,12.69,7.32-86.12,49.73v8.88l-15.27,8.82v20.45L167.88,364a5,5,0,0,0-4.1.19,1.78,1.78,0,0,0-.86.92h6.19a1.61,1.61,0,0,0-.52-.7l29.61-17.09V326.9l14.56-8.41v32.75l8.59,5-15.48,8.94h1.42l14.77-8.53,14.77,8.53h1.42l-24.78-14.31V309.2l86.12-49.73,11.55,6.67-60.95,35.19a5,5,0,0,0-4.1.18,1.37,1.37,0,0,0,0,2.6,5,5,0,0,0,4.49,0c1.12-.64,1.22-1.65.32-2.36l61-35.19L323,273l-72.9,42.09H230.28a1.76,1.76,0,0,0-.87-.94,4.94,4.94,0,0,0-4.49,0,1.37,1.37,0,0,0,0,2.59,4.94,4.94,0,0,0,4.49,0,1.76,1.76,0,0,0,.87-.94h20l.08-.05,73.34-42.34,4.51,2.6,3.46-2,17.47,10.08v14l-14.43,8.33v0H312.07l-.08,0-24.85,14.35a5,5,0,0,0-4.1.18c-1.24.72-1.24,1.88,0,2.59a4.94,4.94,0,0,0,4.49,0c1.12-.64,1.22-1.65.32-2.36l24.41-14.1h21.29l-42.43,24.5a5,5,0,0,0-4.18.14c-1.24.72-1.24,1.88,0,2.59a4.94,4.94,0,0,0,4.49,0c1.09-.63,1.22-1.6.39-2.31l52.92-30.56v6.76l-31.49,18.18v12.83l-25.63,14.8a5,5,0,0,0-4.1.18,1.37,1.37,0,0,0,0,2.6,5,5,0,0,0,4.49,0c1.12-.65,1.22-1.65.32-2.37L314,339.66V326.83l31.49-18.18v-7.58l4.41-2.54V283.67l-17.47-10.08L343.87,267l35.94,20.75V311.3l-24.4,14.09a5,5,0,0,0-4.19.15c-1.24.71-1.24,1.87,0,2.59a5,5,0,0,0,4.49,0c1.09-.63,1.22-1.6.39-2.32l23.71-13.69v19.06L361.08,342v23.14h.71V342.41l18-10.41v33.14h.71V287.3l-35.94-20.75,12.89-7.44,47,27.12v64.6l22.58,13v1.28h.71v-1.69l-22.58-13v-64.6l-47-27.12,9.55-5.52,63.41,36.61V344.9l35.05,20.24h1.43l-35.77-20.65V289.38l-63.41-36.61,15.49-8.94,105.48,60.9v27.43L525.56,353v-.82l-35.44-20.46V304.32l-59.33-34.25h46.92l47.85,27.62v-.82l-47.65-27.51H429.56l-44.92-25.94,18-10.39,38.62,22.3h62l22.31,12.89v-.82l-4.89-2.83h4.89v-.71h-6.12l-16-9.24h-62l-10.81-6.23H457l.08,0,13.23-7.64h55.08l.18.11V240h-54l14.88-8.59a5,5,0,0,0,4.1-.18,1.37,1.37,0,0,0,0-2.6,5,5,0,0,0-4.49,0c-1.12.65-1.22,1.65-.32,2.37l-28.9,16.69H429.4l-26.06-15,9.63-5.56-6.19-3.58h18l23.54,13.6c-.9.71-.8,1.72.32,2.36a4.94,4.94,0,0,0,4.49,0c1.24-.71,1.24-1.87,0-2.59a5,5,0,0,0-4.1-.18L425,222.77H405.55l-13.18-7.6,8.1-4.68h14.38l12.63-7.3h9.43l21.3,12.3c-.95.72-.88,1.75.26,2.4a5,5,0,0,0,4.5,0c1.24-.71,1.24-1.87,0-2.59a5.1,5.1,0,0,0-4-.22l-21.82-12.6h-9.82l-12.63,7.3h-13l25.91-15h14l29.16,16.83h54.8v-.71H471l-29.16-16.83H427.42l-.08,0-35.68,20.6-9.36-5.41,40.31-23.28h28.44l23.46,13.55h51v-.71H474.7l-22.23-12.84h73.09v-.71H422.42l-.08,0-40.75,23.53L371,202.8l56.22-32.46h98.39v-.71h-71.7l71.7-41.4v-.82l-73.12,42.22H427.69L481,138.86v-6.79l25.51-14.72a5,5,0,0,0,4.1-.19c1.24-.71,1.24-1.87,0-2.59a4.94,4.94,0,0,0-4.49,0c-1.12.65-1.22,1.65-.32,2.37l-13.89,8V106.37l33.66-19.44v-.82L491.19,106v19.41l-10.91,6.29v6.79l-53.74,31,.18.31-56.48,32.61L360,196.46,418,163V107.85L525.56,45.74v-.82L434.93,97.25V47.4l69.37-40,.14.1a4.94,4.94,0,0,0,4.49,0C510.17,6.74,510.17,5.58,508.93,4.86Zm-97.38,222.2-83.33,48.12-83.34-48.12L328.22,179Z" transform="translate(74.44 -4.32)"/><path class="cls-4" d="M525.56,91.08l-14.81,8.55v27.56l-131.6,76-10-5.78L437,158.2v-7l12-6.94V128.13l23.34-13.47a4,4,0,0,0,3.23-.15,1.08,1.08,0,0,0,0-2,3.88,3.88,0,0,0-3.54,0c-.88.51-1,1.3-.25,1.86l-23.34,13.48v16.11L437,150.55V124.74l-.14-.08-6.64-3.83,39.8-23V72L498.32,55.7a4,4,0,0,0,3.24-.15,1.08,1.08,0,0,0,0-2,3.94,3.94,0,0,0-3.54,0c-.88.51-1,1.3-.26,1.87L469.5,71.7V97.53l-39.79,23L365,83.16V54.26a3.58,3.58,0,0,0,1.49-.41,1.09,1.09,0,0,0,0-2.05,3.94,3.94,0,0,0-3.54,0,1.08,1.08,0,0,0,0,2.05,3.5,3.5,0,0,0,1.49.41V83.48l.14.08L403.5,106H375.14L352.21,92.79c.71-.57.63-1.36-.25-1.87a3.94,3.94,0,0,0-3.54,0,1.08,1.08,0,0,0,0,2,4,4,0,0,0,3.23.14L375,106.59h29.47l32,18.49v32.81l-67.88,39.19-9.1-5.26,48-27.73a4,4,0,0,0,3.23-.15,1.08,1.08,0,0,0,0-2,3.94,3.94,0,0,0-3.54,0c-.88.51-1,1.3-.25,1.87l-48,27.73-8.79-5.07,57.46-33.18h15.62a1.42,1.42,0,0,0,.69.74,3.88,3.88,0,0,0,3.54,0,1.08,1.08,0,0,0,0-2,3.88,3.88,0,0,0-3.54,0,1.42,1.42,0,0,0-.69.74H407.45l-.06,0-57.81,33.37L346,184l-.14.09-2.59,1.49-13.77-8V166.61L340.91,160v0h17.85l19.65-11.34a4,4,0,0,0,3.23-.15,1.08,1.08,0,0,0,0-2,3.88,3.88,0,0,0-3.54,0c-.88.51-1,1.3-.25,1.86l-19.24,11.11H341.83l33.44-19.3a4,4,0,0,0,3.3-.12,1.08,1.08,0,0,0,0-2,3.94,3.94,0,0,0-3.54,0c-.86.5-1,1.26-.31,1.82L333,164v-5.33l24.81-14.32V134.19L378,122.53a4,4,0,0,0,3.23-.15,1.08,1.08,0,0,0,0-2,3.88,3.88,0,0,0-3.54,0c-.88.5-1,1.3-.25,1.86l-20.21,11.67V144l-24.81,14.33v6l-3.48,2V178l13.77,7.94-9.05,5.23-28.33-16.36V156.22l19.24-11.11a4,4,0,0,0,3.3-.11,1.08,1.08,0,0,0,0-2.05,3.94,3.94,0,0,0-3.54,0c-.86.5-1,1.27-.31,1.83l-18.69,10.79v-15L320.13,132V103.77a3.58,3.58,0,0,0,1.49-.41,1.08,1.08,0,0,0,0-2,3.88,3.88,0,0,0-3.54,0,1.08,1.08,0,0,0,0,2,3.58,3.58,0,0,0,1.49.41V131.7l-14.21,8.2V90.08h-.57v85.05l28.33,16.36L323,197.36,286,176V125.07l-17.8-10.28V95.64l-15.72-9.08c.71-.56.63-1.35-.25-1.86a3.88,3.88,0,0,0-3.54,0,1.08,1.08,0,0,0,0,2,4,4,0,0,0,3.23.15L267.59,96v19.15l17.8,10.28V176.3l37,21.38L314.88,202l-50-28.85V129.74l-.14-.08-44.23-25.54c.71-.57.63-1.36-.25-1.87a3.94,3.94,0,0,0-3.54,0,1.08,1.08,0,0,0,0,2,4,4,0,0,0,3.23.14l44.37,25.62V173.5l.14.08,49.83,28.77-12.2,7.05L219,161.4V139.78l-.14-.08L149.23,99.51c.71-.56.63-1.35-.25-1.86a3.88,3.88,0,0,0-3.54,0,1.08,1.08,0,0,0,0,2,4,4,0,0,0,3.23.15l69.75,40.26v21.62l.14.08,46.62,26.92h-37L185.38,164c.71-.56.63-1.36-.25-1.87a3.91,3.91,0,0,0-3.54,0,1.08,1.08,0,0,0,0,2,4,4,0,0,0,3.23.14l43.23,25h38.1l35.41,20.44-14.19,8.19-30.43-17.57H208.07l-55.58-32.09H121.66L109.09,161c.7-.56.63-1.36-.26-1.86a3.88,3.88,0,0,0-3.54,0,1.08,1.08,0,0,0,0,2,4,4,0,0,0,3.24.14l13,7.5h30.83l42,24.25H158.06L140.59,183c.71-.56.63-1.36-.25-1.86a3.88,3.88,0,0,0-3.54,0,1.08,1.08,0,0,0,0,2,4,4,0,0,0,3.23.14l17.88,10.33h37.4l12.61,7.28h48.87l8.52,4.92H244.53l-.06,0-10.42,6H190.63l-12.25-7.07H153.82a1.42,1.42,0,0,0-.69-.74,3.88,3.88,0,0,0-3.54,0,1.08,1.08,0,0,0,0,2,3.88,3.88,0,0,0,3.54,0,1.42,1.42,0,0,0,.69-.74h24.41l12.25,7.07h42.59l-11.73,6.77a4,4,0,0,0-3.23.15,1.08,1.08,0,0,0,0,2,3.88,3.88,0,0,0,3.54,0c.88-.51,1-1.3.25-1.86l22.78-13.15h21.6l20.53,11.85-7.59,4.38.43.25,4.46,2.57h-14.2l-18.55-10.71c.7-.56.63-1.36-.26-1.86a3.88,3.88,0,0,0-3.54,0,1.08,1.08,0,0,0,0,2,4,4,0,0,0,3.23.14l19,11h15.32l10.38,6-6.38,3.69H277.75l-.07,0-9.89,5.71h-7.43l-16.79-9.69c.75-.57.69-1.38-.21-1.9a3.94,3.94,0,0,0-3.54,0,1.08,1.08,0,0,0,0,2,4,4,0,0,0,3.18.18L260.21,242h7.73l.06,0,9.9-5.71h10.21L267.69,248h-11l-23-13.27h-69.3l-43-24.82c.75-.56.68-1.37-.21-1.89a3.94,3.94,0,0,0-3.54,0,1.08,1.08,0,0,0,0,2,3.91,3.91,0,0,0,3.18.17l43.41,25.06h69.3l23,13.27h11.33l.06,0L296,232.31l7.37,4.26-31.77,18.35H249.22l-18.5-10.67H183.27a1.4,1.4,0,0,0-.69-.75,3.94,3.94,0,0,0-3.54,0,1.09,1.09,0,0,0,0,2.05,3.94,3.94,0,0,0,3.54,0,1.42,1.42,0,0,0,.69-.74h47.3l17.52,10.11H181.22l-.06,0-63.73,36.79a4,4,0,0,0-3.23.15,1.08,1.08,0,0,0,0,2,3.94,3.94,0,0,0,3.54,0c.88-.51,1-1.3.25-1.86l63.38-36.6h90.41l.06,0L304,236.9l8.39,4.84L268,267.32H190l-.06,0-68.33,39.45H42L-4.41,280c.71-.56.63-1.35-.26-1.86a3.86,3.86,0,0,0-3.53,0,1.08,1.08,0,0,0,0,2,4,4,0,0,0,3.23.15l46.83,27h79.91l.07,0,68.32-39.45H247l-83.46,48.18v12.69L130.25,348a4,4,0,0,0-3.23.14,1.08,1.08,0,0,0,0,2.05,3.94,3.94,0,0,0,3.54,0c.88-.51,1-1.3.25-1.87l33.29-19.22V316.39l84-48.51h19.51l-42,24.26v5.34l-20.1,11.61a4,4,0,0,0-3.23.15,1.08,1.08,0,0,0,0,2,3.94,3.94,0,0,0,3.54,0c.88-.51,1-1.3.25-1.87l11-6.32v14.65l-63.24,36.51a4,4,0,0,0-3.23.15,1.08,1.08,0,0,0,0,2,3.88,3.88,0,0,0,3.54,0c.88-.51,1-1.3.25-1.86l63.24-36.51v-15.3l8.6-5v-5.35L268.53,268l-.14-.25,44.52-25.7,8.09,4.67-45.73,26.41v43.44l-84.11,48.56h1.12l69.64-40.21v39.29l-1.59.92h1.12l1-.6V324.61l13.35-7.71V273.46l45.73-26.4,7.13,4.11-35.27,20.36v23.81l.14.08,40.1,23.15v8.08L311,339.74a4,4,0,0,0-3.23.14,1.08,1.08,0,0,0,0,2.05,3.94,3.94,0,0,0,3.54,0c.88-.51,1-1.3.25-1.87L334.22,327v-8.72l-.14-.08L294,295V271.85l26.65-15.38v9.92l-12.22,7.05a4,4,0,0,0-3.23.15,1.08,1.08,0,0,0,0,2,3.88,3.88,0,0,0,3.54,0c.88-.51,1-1.3.25-1.86l12.22-7V256.15l8.06-4.66,9.53,5.51v17.27l-18,10.38v12l.14.08,37.84,21.84c-.71.57-.63,1.36.25,1.87a3.94,3.94,0,0,0,3.54,0,1.08,1.08,0,0,0,0-2.05,4,4,0,0,0-3.23-.14l-38-21.93V285l17.42-10.05v11.91l23.29,13.45c-.7.56-.62,1.35.26,1.86a3.88,3.88,0,0,0,3.54,0,1.08,1.08,0,0,0,0-2,4,4,0,0,0-3.23-.15l-23.29-13.44V257.32l6.69,3.86.14-.08,10.89-6.28,10,5.76v14l26.54,15.32v13.21a3.58,3.58,0,0,0-1.49.41,1.08,1.08,0,0,0,0,2,3.88,3.88,0,0,0,3.54,0,1.08,1.08,0,0,0,0-2,3.54,3.54,0,0,0-1.49-.41V289.6l-26.54-15.33V260.91l43,24.81V312l-23.31,13.46H365.88l-.06,0-36.7,21.2a4,4,0,0,0-3.23.14,1.08,1.08,0,0,0,0,2,3.88,3.88,0,0,0,3.54,0c.88-.5,1-1.3.25-1.86L366,326H386.3L318.88,365a4,4,0,0,0-3.23.14l0,0h4.1l91.43-52.8V285.4l-.14-.09-53.38-30.82,10.74-6.2,91.15,52.62v31.4l31.13,18c-.71.56-.63,1.36.25,1.86a3.88,3.88,0,0,0,3.54,0,1.08,1.08,0,0,0,0-2,4,4,0,0,0-3.23-.14l-31.13-18v-31.4l-.14-.08-91-52.54,10.23-5.91,90.14,52H523l2.52,1.46v-.65l-2.37-1.37H469.44l-76.09-43.93h15.3l26,15h20l.06,0,27.74-16a4,4,0,0,0,3.23-.15,1.08,1.08,0,0,0,0-2,3.88,3.88,0,0,0-3.54,0c-.88.51-1,1.3-.25,1.86L454.48,264H434.77l-26-15H392.38l-12.67-7.31L407,226l7.76,4.49v11.76l19.72,11.39c-.71.56-.63,1.35.25,1.86a3.88,3.88,0,0,0,3.54,0,1.08,1.08,0,0,0,0-2,4,4,0,0,0-3.23-.15L415.34,241.9V230.78l21,12.14h10l.07,0L458.27,236a4,4,0,0,0,3.23-.15,1.08,1.08,0,0,0,0-2,3.94,3.94,0,0,0-3.54,0c-.88.51-1,1.3-.25,1.87l-11.53,6.65h-9.66l-28.94-16.71,5.26-3-.42-.24-16.37-9.45,7.86-4.53h11.88l8.51,4.91c-.68.56-.59,1.34.28,1.84a3.94,3.94,0,0,0,3.54,0,1.08,1.08,0,0,0,0-2,3.92,3.92,0,0,0-3.27-.13l-8.9-5.14H404.88l20-11.57,47.15,27.22H506l.07,0,19.1-11a2.5,2.5,0,0,0,.39.11v-2.58a3.1,3.1,0,0,0-.7.28c-.88.51-1,1.3-.25,1.87l-18.76,10.83H472.22l-36.36-21h15.56l15.22,8.79c-.71.56-.63,1.35.25,1.86a3.88,3.88,0,0,0,3.54,0,1.08,1.08,0,0,0,0-2,4,4,0,0,0-3.23-.15l-15.63-9H434.89l-9.41-5.43,23.94-13.82h76.14v-.56H450.39l9.5-5.48h56.63l.06,0,9-5.18v-.65l-9.19,5.31H459.74l-.07,0-64.18,37-7.12-4.11,67.47-39h49.35l.06,0,20.31-11.72v-.65L505,169H455.69l-.06,0-67.82,39.15-8.1-4.67,131.6-76V100l14.25-8.23ZM411.71,222.61,346,260.54l-65.68-37.93L346,184.69Z" transform="translate(74.44 -4.32)"/><circle class="cls-5" cx="254.25" cy="229.89" r="23.51"/><circle class="cls-6" cx="284.68" cy="63.77" r="9.74"/><circle class="cls-7" cx="489.18" cy="162.93" r="17.5" transform="translate(102.5 389.3) rotate(-45)"/><path class="cls-8" d="M493.66,233.81c-7,1.36-14.66-.82-17-4.89s1.43-8.46,8.46-9.82,14.66.82,17,4.88S500.7,232.44,493.66,233.81Z" transform="translate(74.44 -4.32)"/><ellipse class="cls-8" cx="254.53" cy="298.49" rx="18.7" ry="10.8"/><path class="cls-8" d="M212.39,107.45c-3.52.68-7.33-.41-8.51-2.44s.71-4.23,4.23-4.91,7.32.41,8.5,2.44S215.9,106.77,212.39,107.45Z" transform="translate(74.44 -4.32)"/><circle class="cls-9" cx="349" cy="23.26" r="2.49"/><circle class="cls-9" cx="305.28" cy="276.89" r="3.01"/><path class="cls-10" d="M213.34,267.92a1.55,1.55,0,1,1-1.55-1.55A1.54,1.54,0,0,1,213.34,267.92Z" transform="translate(74.44 -4.32)"/><path class="cls-10" d="M475.93,210.81a1.6,1.6,0,1,1-1.6-1.6A1.6,1.6,0,0,1,475.93,210.81Z" transform="translate(74.44 -4.32)"/><circle class="cls-10" cx="252.28" cy="98.55" r="2.25"/><path class="cls-10" d="M348.3,20.81a2.25,2.25,0,1,1-2.25-2.25A2.25,2.25,0,0,1,348.3,20.81Z" transform="translate(74.44 -4.32)"/><path class="cls-10" d="M189.26,97.89A1.25,1.25,0,1,1,188,96.64,1.25,1.25,0,0,1,189.26,97.89Z" transform="translate(74.44 -4.32)"/><path class="cls-11" d="M403.79,28.85a1.48,1.48,0,1,1-1.48-1.48A1.47,1.47,0,0,1,403.79,28.85Z" transform="translate(74.44 -4.32)"/><polygon class="cls-12" points="261.98 172.35 261.44 170.43 265.72 169.23 264.52 164.95 266.45 164.41 268.19 170.62 261.98 172.35"/><polygon class="cls-12" points="258.2 179.06 257.67 177.14 261.94 175.94 260.75 171.66 262.67 171.12 264.41 177.33 258.2 179.06"/><polygon class="cls-12" points="262.21 176.9 260.48 170.69 266.69 168.96 267.23 170.89 262.94 172.08 264.14 176.36 262.21 176.9"/><path class="cls-12" d="M335.47,33.61a4.76,4.76,0,1,1,4.76-4.76A4.76,4.76,0,0,1,335.47,33.61Zm0-7.52a2.76,2.76,0,1,0,2.76,2.76A2.77,2.77,0,0,0,335.47,26.09Z" transform="translate(74.44 -4.32)"/><path class="cls-12" d="M439.88,271.77l-5.4-5.4,5.4-5.41,5.4,5.41Zm-2.57-5.4,2.57,2.57,2.57-2.57-2.57-2.58Z" transform="translate(74.44 -4.32)"/><rect class="cls-13" x="453.93" y="74.11" width="2" height="8.18" transform="translate(152.41 340.29) rotate(-45.01)"/><rect class="cls-13" x="450.84" y="77.2" width="8.18" height="2" transform="translate(152.39 340.26) rotate(-45)"/><path class="cls-11" d="M159.92,144.48a1.48,1.48,0,1,1-1.48-1.47A1.48,1.48,0,0,1,159.92,144.48Z" transform="translate(74.44 -4.32)"/><path class="cls-8" d="M223.75,223.55l117.37,67.76a4.84,4.84,0,0,0,4.34.18l70-40.44c1.11-.64,1-1.76-.31-2.5L297.82,180.78a4.84,4.84,0,0,0-4.34-.18l-70,40.44C222.33,221.68,222.47,222.81,223.75,223.55Z" transform="translate(74.44 -4.32)"/><path class="cls-14" d="M297.61,155.7l14.84-88-1.2-.51,1.8-1h0a1.29,1.29,0,0,1,1.38.09L433,134.71a3.36,3.36,0,0,1,1.54,3l-15,88.73a1.08,1.08,0,0,1-.62.9h0l-1.75,1-.3-1.63.1,0-117.86-68A3.35,3.35,0,0,1,297.61,155.7Z" transform="translate(74.44 -4.32)"/><path class="cls-15" d="M432.34,137.12l2-.86a2.68,2.68,0,0,1,.25,1.46l-15,88.73a1.08,1.08,0,0,1-.62.9h0l-1.75,1-.3-1.63.1,0-6-3.45Z" transform="translate(74.44 -4.32)"/><path class="cls-16" d="M297.29,159.78l118.57,68.46c.92.53,1.7.22,1.86-.73l15-88.72a3.35,3.35,0,0,0-1.54-3L312.56,67.32c-.91-.53-1.7-.22-1.86.72l-14.95,88.73A3.35,3.35,0,0,0,297.29,159.78Z" transform="translate(74.44 -4.32)"/><path class="cls-17" d="M297.29,159.78l118.57,68.46c.92.53,1.7.22,1.86-.73l15-88.72a3.35,3.35,0,0,0-1.54-3L312.56,67.32c-.91-.53-1.7-.22-1.86.72l-14.95,88.73A3.35,3.35,0,0,0,297.29,159.78Z" transform="translate(74.44 -4.32)"/><polygon class="cls-18" points="387.2 67.88 504.32 135.5 490.15 219.06 373.11 151.48 387.2 67.88"/><path class="cls-19" d="M222.75,201.78l6.47,3.38,64.89-37.46a4.69,4.69,0,0,1,4.24.18l111.91,64.61c1.07-.6,5.95-3,5.95-3l-2.37,6.17h0a1.42,1.42,0,0,1-.66.73L344.83,275.9a4.73,4.73,0,0,1-4.23-.18L226.08,209.6a2,2,0,0,1-1-1h0Z" transform="translate(74.44 -4.32)"/><path class="cls-20" d="M223.75,202.85l117.37,67.76a4.84,4.84,0,0,0,4.34.18l70-40.44c1.11-.64,1-1.76-.31-2.5L297.82,160.08a4.8,4.8,0,0,0-4.34-.17l-70,40.43C222.33,201,222.47,202.11,223.75,202.85Z" transform="translate(74.44 -4.32)"/><path class="cls-21" d="M223.75,201.7l117.37,67.76a4.81,4.81,0,0,0,4.34.18l70-40.43a1.68,1.68,0,0,0,.58-.53,1.15,1.15,0,0,1-.58,1.67l-70,40.44a4.84,4.84,0,0,1-4.34-.18L223.75,202.85c-1-.57-1.29-1.35-.89-2A2.4,2.4,0,0,0,223.75,201.7Z" transform="translate(74.44 -4.32)"/><g class="cls-22"><g class="cls-23"><path class="cls-24" d="M298,160l130.66,75.44a5.4,5.4,0,0,0,4.83.2l78-45c1.23-.72,1.08-2-.35-2.79L380.44,112.41a5.34,5.34,0,0,0-4.83-.2l-78,45C296.4,157.94,296.56,159.19,298,160Z" transform="translate(74.44 -4.32)"/><polygon class="cls-25" points="401.04 153.79 495.64 208.4 491.89 210.57 397.3 155.95 401.04 153.79"/><polygon class="cls-26" points="411.01 148.04 500.92 199.94 497.17 202.11 407.26 150.2 411.01 148.04"/><polygon class="cls-12" points="507.63 203.82 516.03 208.67 512.28 210.83 503.89 205.99 507.63 203.82"/><polygon class="cls-12" points="500.22 211.05 506.06 214.42 502.32 216.59 496.47 213.21 500.22 211.05"/><polygon class="cls-27" points="417.25 144.43 522.28 205.06 518.53 207.23 413.51 146.59 417.25 144.43"/><polygon class="cls-28" points="423.5 140.82 528.52 201.46 524.77 203.62 419.75 142.99 423.5 140.82"/><polygon class="cls-29" points="429.75 137.22 534.77 197.85 531.02 200.02 426 139.38 429.75 137.22"/></g></g><polygon class="cls-12" points="369.42 171.02 454.14 219.94 457.91 217.76 373.19 168.85 369.42 171.02"/><polygon class="cls-12" points="360.19 176.35 439.65 222.23 443.42 220.06 363.95 174.18 360.19 176.35"/><polygon class="cls-12" points="354.17 179.83 447.73 233.84 451.5 231.67 357.94 177.65 354.17 179.83"/><polygon class="cls-12" points="348.16 183.3 441.72 237.32 445.49 235.14 351.92 181.13 348.16 183.3"/><polygon class="cls-12" points="342.14 186.77 435.7 240.79 439.47 238.62 345.91 184.6 342.14 186.77"/><polygon class="cls-12" points="459.26 222.89 463.03 225.07 466.8 222.89 463.03 220.72 459.26 222.89"/><polygon class="cls-12" points="445.98 225.88 453.79 230.4 457.56 228.22 449.74 223.71 445.98 225.88"/><g class="cls-30"><polygon class="cls-31" points="396.88 92.85 404.63 97.32 404.85 95.98 397.11 91.5 396.88 92.85"/><polygon class="cls-31" points="405.87 98.03 410.09 100.47 410.32 99.13 406.1 96.69 405.87 98.03"/><polygon class="cls-31" points="416.65 104.26 419.71 106.02 419.93 104.68 416.88 102.92 416.65 104.26"/><polygon class="cls-31" points="414.43 102.97 415.47 103.58 415.7 102.23 414.65 101.63 414.43 102.97"/><polygon class="cls-31" points="411.35 101.2 413.25 102.29 413.47 100.95 411.58 99.85 411.35 101.2"/><polygon class="cls-31" points="403.01 103.13 406.06 104.89 406.29 103.55 403.24 101.78 403.01 103.13"/><polygon class="cls-31" points="395.85 98.99 401.83 102.44 402.06 101.1 396.07 97.65 395.85 98.99"/><polygon class="cls-31" points="404.42 120.78 410.4 124.23 410.63 122.89 404.65 119.43 404.42 120.78"/><polygon class="cls-31" points="401.35 119 403.24 120.09 403.47 118.75 401.57 117.65 401.35 119"/><polygon class="cls-31" points="405.42 114.63 411.4 118.08 411.63 116.74 405.65 113.28 405.42 114.63"/><polygon class="cls-31" points="402.34 112.85 404.24 113.94 404.46 112.6 402.57 111.5 402.34 112.85"/><polygon class="cls-31" points="400.01 147.32 388.75 140.81 388.52 142.15 399.79 148.66 400.01 147.32"/><polygon class="cls-31" points="403.99 149.61 401.2 148 400.97 149.34 403.76 150.96 403.99 149.61"/><polygon class="cls-31" points="423.78 150.91 412.51 144.41 412.29 145.75 423.55 152.26 423.78 150.91"/><polygon class="cls-31" points="427.75 153.21 424.96 151.6 424.74 152.94 427.52 154.55 427.75 153.21"/><polygon class="cls-31" points="392.32 139.5 389.27 137.74 389.04 139.08 392.09 140.84 392.32 139.5"/><polygon class="cls-31" points="410.89 143.48 407.84 141.72 407.61 143.06 410.66 144.82 410.89 143.48"/><polygon class="cls-31" points="399.48 143.64 393.5 140.18 393.27 141.53 399.25 144.98 399.48 143.64"/><polygon class="cls-31" points="402.56 145.42 400.67 144.32 400.44 145.67 402.33 146.76 402.56 145.42"/><polygon class="cls-31" points="409.78 149.58 403.8 146.13 403.57 147.47 409.55 150.92 409.78 149.58"/><polygon class="cls-31" points="412.85 151.36 410.96 150.26 410.73 151.61 412.63 152.7 412.85 151.36"/><polygon class="cls-31" points="410.37 146.55 407.32 144.79 407.09 146.13 410.14 147.9 410.37 146.55"/><polygon class="cls-31" points="417.53 150.69 411.55 147.24 411.33 148.58 417.31 152.04 417.53 150.69"/><polygon class="cls-31" points="420.61 152.47 418.72 151.38 418.49 152.72 420.38 153.81 420.61 152.47"/><polygon class="cls-31" points="396.03 138.27 389.78 134.67 389.56 136.01 395.8 139.62 396.03 138.27"/><polygon class="cls-31" points="401.73 141.57 397.21 138.96 396.99 140.3 401.5 142.91 401.73 141.57"/><polygon class="cls-31" points="405.96 144.01 402.91 142.25 402.69 143.59 405.74 145.36 405.96 144.01"/><polygon class="cls-31" points="435.56 157.71 429.32 154.1 429.09 155.44 435.34 159.05 435.56 157.71"/><polygon class="cls-31" points="441.26 161 436.75 158.39 436.52 159.74 441.04 162.35 441.26 161"/><polygon class="cls-31" points="445.5 163.45 442.45 161.69 442.22 163.03 445.27 164.79 445.5 163.45"/><polygon class="cls-31" points="433.12 117.13 439.37 120.74 439.59 119.4 433.35 115.79 433.12 117.13"/><polygon class="cls-31" points="427.42 113.84 431.94 116.45 432.16 115.11 427.65 112.5 427.42 113.84"/><polygon class="cls-31" points="423.19 111.39 426.24 113.16 426.46 111.81 423.41 110.05 423.19 111.39"/><polygon class="cls-31" points="431.05 112.55 437.29 116.16 437.52 114.82 431.27 111.21 431.05 112.55"/><polygon class="cls-31" points="425.35 109.26 429.86 111.87 430.09 110.53 425.57 107.92 425.35 109.26"/><polygon class="cls-31" points="421.11 106.81 424.17 108.58 424.39 107.23 421.34 105.47 421.11 106.81"/><polygon class="cls-31" points="405.83 118.24 407.94 119.45 408.17 118.11 406.06 116.89 405.83 118.24"/><polygon class="cls-31" points="401.86 115.94 404.65 117.55 404.88 116.21 402.09 114.6 401.86 115.94"/><polygon class="cls-31" points="396.59 135.22 390.34 131.61 390.12 132.96 396.36 136.57 396.59 135.22"/><polygon class="cls-31" points="402.29 138.51 397.77 135.91 397.54 137.25 402.06 139.86 402.29 138.51"/><polygon class="cls-31" points="406.52 140.96 403.47 139.2 403.24 140.54 406.3 142.31 406.52 140.96"/><polygon class="cls-31" points="392.97 129.76 390.86 128.54 390.63 129.89 392.74 131.1 392.97 129.76"/><polygon class="cls-31" points="396.94 132.06 394.15 130.44 393.93 131.79 396.71 133.4 396.94 132.06"/><polygon class="cls-31" points="402.62 135.33 398.12 132.74 397.9 134.08 402.39 136.68 402.62 135.33"/><polygon class="cls-31" points="408.7 109.77 410.81 110.99 411.04 109.64 408.93 108.42 408.7 109.77"/><polygon class="cls-31" points="404.73 107.47 407.52 109.08 407.75 107.74 404.96 106.13 404.73 107.47"/><polygon class="cls-31" points="399.06 104.2 403.55 106.79 403.77 105.45 399.28 102.85 399.06 104.2"/><polygon class="cls-31" points="411.92 114.75 416.41 117.35 416.63 116 412.14 113.41 411.92 114.75"/><polygon class="cls-31" points="404.57 110.75 410.62 114.25 410.85 112.9 404.8 109.41 404.57 110.75"/><polygon class="cls-31" points="401.49 108.97 403.39 110.07 403.61 108.72 401.72 107.63 401.49 108.97"/><polygon class="cls-31" points="398.54 107.27 400.43 108.36 400.66 107.02 398.77 105.92 398.54 107.27"/><polygon class="cls-31" points="398.95 124.62 404.93 128.07 405.15 126.73 399.17 123.27 398.95 124.62"/><polygon class="cls-31" points="395.87 122.84 397.76 123.94 397.99 122.59 396.1 121.5 395.87 122.84"/><polygon class="cls-31" points="399.36 128.23 401.47 129.45 401.69 128.1 399.59 126.89 399.36 128.23"/><polygon class="cls-31" points="406.81 125.77 408.91 126.99 409.14 125.64 407.03 124.42 406.81 125.77"/><polygon class="cls-31" points="409.81 127.5 414.87 130.43 415.1 129.08 410.04 126.16 409.81 127.5"/><polygon class="cls-31" points="415.77 130.94 418.78 132.68 419.01 131.34 416 129.6 415.77 130.94"/><polygon class="cls-31" points="395.39 125.94 398.18 127.55 398.4 126.2 395.62 124.59 395.39 125.94"/><polygon class="cls-31" points="395.13 129.09 397.24 130.31 397.46 128.97 395.35 127.75 395.13 129.09"/><polygon class="cls-31" points="391.16 126.8 393.94 128.41 394.17 127.06 391.38 125.45 391.16 126.8"/><polygon class="cls-31" points="403.74 124 405.64 125.1 405.87 123.75 403.97 122.66 403.74 124"/><polygon class="cls-31" points="400.79 122.3 402.69 123.39 402.91 122.05 401.02 120.95 400.79 122.3"/><polygon class="cls-31" points="415.34 106.86 421.8 110.59 422.02 109.25 415.56 105.52 415.34 106.86"/><polygon class="cls-31" points="408.1 102.68 414.15 106.18 414.38 104.83 408.33 101.33 408.1 102.68"/><polygon class="cls-31" points="405.02 100.9 406.92 102 407.14 100.65 405.25 99.56 405.02 100.9"/><polygon class="cls-31" points="402.07 99.19 403.96 100.29 404.19 98.94 402.3 97.85 402.07 99.19"/><polygon class="cls-31" points="400.46 98.26 396.37 95.9 396.6 94.56 400.68 96.92 400.46 98.26"/></g></g></g></svg>