<svg id="Camada_1" data-name="Camada 1" xmlns="http://www.w3.org/2000/svg" xmlns:xlink="http://www.w3.org/1999/xlink" viewBox="0 0 939.24 769.81"><defs><style>.cls-1{fill:url(#linear-gradient);}.cls-2{fill:url(#linear-gradient-2);}</style><linearGradient id="linear-gradient" x1="883.44" y1="781.31" x2="1453.73" y2="209.08" gradientUnits="userSpaceOnUse"><stop offset="0" stop-color="#5563d0"/><stop offset="1" stop-color="#4f2ac1"/></linearGradient><linearGradient id="linear-gradient-2" x1="1091.98" y1="391.5" x2="1035.91" y2="758.8" gradientUnits="userSpaceOnUse"><stop offset="0" stop-color="#5563d0" stop-opacity="0"/><stop offset="1" stop-color="#4f2ac1"/></linearGradient></defs><title>wallpapper-sec-2</title><path class="cls-1" d="M1411.61,809A15.43,15.43,0,0,0,1427,793.61V39.19c-86.9,11.18-139,80.54-155.79,117.92-26.1,58-69.59,95-147.16,85.55s-124,13-171.81,113.81c-42.17,88.82-87.72,67.42-266.06,110.19s-129,160.94-166,282.41A168.69,168.69,0,0,1,487.76,809Z" transform="translate(-487.76 -39.19)"/><path class="cls-2" d="M906.54,645.39c-95.88,3.15-229.81,57.4-274.87,163.61h779.94A15.43,15.43,0,0,0,1427,793.61V304.26c-115.91-1.89-226.42,59-263.76,164.69C1122.12,585.31,1019.61,641.66,906.54,645.39Z" transform="translate(-487.76 -39.19)"/></svg>