<svg id="Слой_1" data-name="Слой 1" xmlns="http://www.w3.org/2000/svg" xmlns:xlink="http://www.w3.org/1999/xlink" viewBox="0 0 406.14 335.07"><defs><style>.cls-1{fill:url(#linear-gradient);}.cls-2{fill:url(#linear-gradient-2);}.cls-3{fill:#6aafe8;}.cls-4{fill:#1487e3;}.cls-5{fill:#78c2ff;}.cls-6{fill:#ff7e55;}.cls-7{fill:#424773;}.cls-8{fill:#292c47;}.cls-9{fill:#eea886;}.cls-10{fill:#754836;}.cls-11{fill:#e2d2ca;}.cls-12{fill:#ffcb55;}.cls-13{fill:#a1d4ff;}.cls-14{fill:url(#linear-gradient-3);}.cls-15{fill:#fff;}.cls-16{fill:url(#linear-gradient-4);}.cls-17{fill:#4d78eb;}.cls-18{fill:#e0e0e0;}.cls-19{fill:#ff8761;}.cls-20{opacity:0.76;}.cls-21{fill:#4aafff;}.cls-22{fill:#1a598c;}.cls-23{fill:#2273b5;}.cls-24{fill:#3788cc;}.cls-25{fill:#414773;}.cls-26{fill:#2d314f;}.cls-27{fill:#2b3b57;}.cls-28{fill:#ffc655;}.cls-29{fill:#353a3d;}.cls-30{fill:#d4d8e8;}.cls-31{fill:#e55353;}.cls-32{fill:#6069a8;}.cls-33{fill:#202338;}.cls-34{fill:#464240;}.cls-35{fill:#eb4747;}.cls-36{fill:#325bb3;}.cls-37{fill:#a77860;}.cls-38{fill:#5e5853;}.cls-39{fill:#91887f;}.cls-40{fill:#eddad3;}.cls-41{fill:#6e6760;}.cls-42{fill:#807066;}</style><linearGradient id="linear-gradient" x1="81.95" y1="186.08" x2="327.49" y2="186.08" gradientTransform="translate(398.26 372.15) rotate(-180)" gradientUnits="userSpaceOnUse"><stop offset="0" stop-color="#40d5e6"/><stop offset="1" stop-color="#57f"/></linearGradient><linearGradient id="linear-gradient-2" x1="96.43" y1="175.21" x2="301.44" y2="175.21" gradientTransform="translate(397.87 350.41) rotate(-180)" gradientUnits="userSpaceOnUse"><stop offset="0" stop-color="#404b61"/><stop offset="0.49" stop-color="#3c4860"/><stop offset="1" stop-color="#2f3e5c"/></linearGradient><linearGradient id="linear-gradient-3" x1="192.19" y1="228.94" x2="192.19" y2="365.08" gradientTransform="matrix(1, 0, 0, 1, 0, 0)" xlink:href="#linear-gradient"/><linearGradient id="linear-gradient-4" x1="-60.29" y1="338.18" x2="209" y2="338.18" gradientTransform="matrix(1, 0, 0, 1, 0, 0)" xlink:href="#linear-gradient"/></defs><title>web-site</title><path class="cls-1" d="M88.62,104.22h221a0,0,0,0,1,0,0v156a7.74,7.74,0,0,1-7.74,7.74H96.36a7.74,7.74,0,0,1-7.74-7.74v-156A0,0,0,0,1,88.62,104.22Z" transform="translate(391.29 365.53) rotate(180)"/><rect class="cls-2" x="96.43" y="112.24" width="205" height="125.94" transform="translate(390.9 343.79) rotate(180)"/><path class="cls-3" d="M74.9,112.82H22.75l.09-.47a9.2,9.2,0,0,1,9-7.41,9,9,0,0,1,1.88.2,15.65,15.65,0,0,1,26.49-1.94,11.44,11.44,0,0,1,14.61,9.17ZM23.71,112H74a10.68,10.68,0,0,0-13.79-8l-.28.1-.16-.24a14.87,14.87,0,0,0-25.46,1.88l-.14.28-.3-.08A8.41,8.41,0,0,0,23.71,112Z" transform="translate(-6.97 -6.62)"/><path class="cls-3" d="M266.41,48.63l-.18-.09c-18.51-9.45-16-27.74-16-27.93l0-.33h.33c11.77,0,15.46-3.79,15.5-3.83l.29-.31.28.31s3.73,3.83,15.5,3.83h.34l.05.33c0,.19,2.51,18.48-16,27.93ZM251,21.06c-.23,2.48-1,18.18,15.44,26.7,16.44-8.52,15.67-24.22,15.43-26.7-10.21-.07-14.37-2.91-15.43-3.81C265.34,18.15,261.18,21,251,21.06Z" transform="translate(-6.97 -6.62)"/><rect class="cls-4" x="82.65" y="209.31" width="20.66" height="2.34"/><polygon class="cls-5" points="78.34 144.78 45.37 144.78 45.37 102.62 46.15 102.62 46.15 144 78.34 144 78.34 144.78"/><polygon class="cls-5" points="217.87 117 217.09 117 217.09 73.53 259.05 73.53 259.05 36.97 259.83 36.97 259.83 74.31 217.87 74.31 217.87 117"/><polygon class="cls-5" points="353.4 165.43 309.75 165.43 309.75 164.65 352.62 164.65 352.62 139.3 353.4 139.3 353.4 165.43"/><path class="cls-6" d="M34,207.27S33.1,220.39,35.66,222c1.6,1,8,4.3,7.82,4.92s-3.62,5.53-3.62,5.53-12.29-8.09-12.69-10.64.61-19.21,2.3-20c1.26-.57,1.93-.1,3.52,1.09C35.23,204.54,34,207.27,34,207.27Z" transform="translate(-6.97 -6.62)"/><path class="cls-7" d="M32.6,302.71s-.38,2.66-.43,3.06-4.25-.24-4.25-.24l-.34-3.16S32.08,302.34,32.6,302.71Z" transform="translate(-6.97 -6.62)"/><path class="cls-8" d="M32.22,305.43a11.17,11.17,0,0,0,2.62,2.29c1.29.7,3.31,1,4.07,1.7.55.52,2,2.76-3.34,2.72s-7.94.31-8.51-.55.83-6.34.83-6.34A11.52,11.52,0,0,0,32.22,305.43Z" transform="translate(-6.97 -6.62)"/><path class="cls-7" d="M53.65,302.71s-.38,2.66-.43,3.06-4.25-.24-4.25-.24l-.35-3.16S53.12,302.34,53.65,302.71Z" transform="translate(-6.97 -6.62)"/><path class="cls-8" d="M53.26,305.43a11.17,11.17,0,0,0,2.62,2.29c1.29.7,6,1.27,6.8,2,.55.53,1.46,2.62-6.07,2.43-5.35-.14-7.93.31-8.5-.55s.82-6.34.82-6.34A10.25,10.25,0,0,0,53.26,305.43Z" transform="translate(-6.97 -6.62)"/><path class="cls-8" d="M34.11,234.53s-3.95,6.28-3.65,11.95-.36,11.74-.95,17.66c-.66,6.61-2.46,20.37-2.56,23.9s.13,16.84.13,16.84l6.85-.05s2.43-26.88,3.61-29.67,6-23,6.22-25.21S34.11,234.53,34.11,234.53Z" transform="translate(-6.97 -6.62)"/><path class="cls-8" d="M54.91,235.38s1.56,15.42,2,18.9S57,272.8,57.19,275s-1.32,25.13-1.69,29.5l-7.53,0s-.52-18.58-.52-27.6-2.32-19.53-5-25.48-8.73-6.1-10.36-17.14C32.12,234.21,52.7,231.87,54.91,235.38Z" transform="translate(-6.97 -6.62)"/><path class="cls-9" d="M38.29,181.6s4.7-3.15,8,.22,4.93,11.29,2.56,12.87-6.41,2-8.32-.15-3.95-5.41-4.45-7.8A5.31,5.31,0,0,1,38.29,181.6Z" transform="translate(-6.97 -6.62)"/><path class="cls-9" d="M47.26,195.23s-.07,3.3.3,4-6.87.72-6.87.72a48.08,48.08,0,0,0-1.7-7.07C37.87,189.64,47.26,195.23,47.26,195.23Z" transform="translate(-6.97 -6.62)"/><path class="cls-10" d="M39.17,192.83s.67.69,2.58-.09,3.71-4,4.47-4.47.66-1,.66-1l.69.64.9-.15s-1.36-2.18-.38-3.42S45,177,39.19,180.73c0,0-4.57,2.5-3.73,5.24S37.75,191.71,39.17,192.83Z" transform="translate(-6.97 -6.62)"/><path class="cls-11" d="M48,199.16s0-1.35-.64-1.48-6.74-.72-7.49-.42v1.56S41.31,199.71,48,199.16Z" transform="translate(-6.97 -6.62)"/><path class="cls-9" d="M46.51,186.31c-.22-.44-1.72-1.49-1.84,0s1.47,3.19,2.07,2.87S47.07,187.43,46.51,186.31Z" transform="translate(-6.97 -6.62)"/><path class="cls-10" d="M36.92,182.41s-6.73,1.8,2,10.16Z" transform="translate(-6.97 -6.62)"/><path class="cls-9" d="M97.08,218.21l-6.86-.07c.59-.34,1.55-1,1.34-1.24s-2.25.48-3,.56a11.65,11.65,0,0,0-2.86.31l-2.16.93,2,1.84s3.59.51,4.64.58c1.71.13,6.93-1.91,7-2.22C97.3,218.35,97.08,218.21,97.08,218.21Z" transform="translate(-6.97 -6.62)"/><path class="cls-6" d="M56.94,201c-4.36-.76-8.95-1.86-8.95-1.86l-8.13-.34s-7.46,1.65-10.39,3c-.28.13-.28,6.66-1,8.37l2.44,5.14s1.4,10.17,1.7,14.7c.13,2.08-2.91,19.48-2.91,19.48a56,56,0,0,0,8.8,1.57c5.55.61,19.41-.22,19.49-.87s-2.68-24.4-2.8-25.63c-.19-1.88.54-10.6.54-10.6a56.12,56.12,0,0,0,10,8.34c2.1,1.19,7.24.47,8.76.31,3.28-.33,12.34-1,12.52-1.31s-.52-3.49-.9-3.62-12-.69-15-.54c-1.19.06-5.07-4.27-5.07-4.27S59.35,202.1,56.94,201Z" transform="translate(-6.97 -6.62)"/><polygon class="cls-12" points="0 161.55 21.48 161.55 21.48 177.12 21.48 180.4 18.2 177.12 0 177.12 0 161.55"/><path class="cls-3" d="M352.88,118.62H332V97.76h20.87Zm-20.18-.69h19.48V98.45H332.7Z" transform="translate(-6.97 -6.62)"/><path class="cls-3" d="M404.82,105.41H357.05v-5.1h47.77Zm-47.07-.7h46.37V101H357.75Z" transform="translate(-6.97 -6.62)"/><path class="cls-3" d="M404.82,129.13H332V124h72.81Zm-72.12-.69h71.42v-3.71H332.7Z" transform="translate(-6.97 -6.62)"/><path class="cls-3" d="M378.38,138.93H332v-5.1h46.37Zm-45.68-.7h45v-3.71h-45Z" transform="translate(-6.97 -6.62)"/><path class="cls-3" d="M389.4,115.14H357.05V110H389.4Zm-31.65-.7H388.7v-3.71H357.75Z" transform="translate(-6.97 -6.62)"/><path class="cls-3" d="M413.11,150H323.72V86.66h89.39Zm-88.7-.69h88v-62h-88Z" transform="translate(-6.97 -6.62)"/><polygon class="cls-3" points="285.23 51.66 278.54 51.66 278.54 50.88 284.45 50.88 284.45 44.98 285.23 44.98 285.23 51.66"/><polygon class="cls-3" points="240.26 51.66 233.57 51.66 233.57 44.98 234.35 44.98 234.35 50.88 240.26 50.88 240.26 51.66"/><polygon class="cls-3" points="234.35 6.69 233.57 6.69 233.57 0 240.25 0 240.25 0.78 234.35 0.78 234.35 6.69"/><polygon class="cls-3" points="285.23 6.68 284.45 6.68 284.45 0.78 278.54 0.78 278.54 0 285.23 0 285.23 6.68"/><rect class="cls-3" x="284.45" y="16.67" width="0.78" height="18.32"/><rect class="cls-3" x="233.57" y="16.67" width="0.78" height="18.32"/><path class="cls-5" d="M52.73,109.63a2.86,2.86,0,1,1,2.86-2.86A2.86,2.86,0,0,1,52.73,109.63Zm0-4.94a2.08,2.08,0,1,0,2.08,2.08A2.08,2.08,0,0,0,52.73,104.69Z" transform="translate(-6.97 -6.62)"/><path class="cls-5" d="M266.41,44a2.86,2.86,0,1,1,2.86-2.86A2.87,2.87,0,0,1,266.41,44Zm0-4.94a2.08,2.08,0,1,0,2.08,2.08A2.09,2.09,0,0,0,266.41,39Z" transform="translate(-6.97 -6.62)"/><path class="cls-5" d="M360,146.45a2.87,2.87,0,1,1,2.86-2.86A2.87,2.87,0,0,1,360,146.45Zm0-4.95a2.09,2.09,0,1,0,2.08,2.09A2.09,2.09,0,0,0,360,141.5Z" transform="translate(-6.97 -6.62)"/><path class="cls-13" d="M120.75,74l-.29-.77a4.08,4.08,0,0,1-.77-.17l-.6.56-1.73-1.23.33-.75a3.54,3.54,0,0,1-.41-.67l-.82,0-.35-2.09.76-.29a3.45,3.45,0,0,1,.18-.77l-.56-.6,1.23-1.73.74.34a4.69,4.69,0,0,1,.67-.42l0-.82,2.09-.35.3.76a3.83,3.83,0,0,1,.76.18l.6-.56,1.73,1.23-.33.75a4.59,4.59,0,0,1,.42.66l.81,0,.36,2.1-.77.29a4.08,4.08,0,0,1-.17.77l.56.59-1.23,1.73-.75-.33a4.19,4.19,0,0,1-.67.42l0,.82Zm-1.2-1.62.17.07a3.59,3.59,0,0,0,1,.22l.18,0,.25.65,1.16-.19,0-.7.16-.08a3.53,3.53,0,0,0,.85-.52l.14-.12.64.28.67-1-.48-.51.07-.17a3.51,3.51,0,0,0,.22-1l0-.18.65-.25-.19-1.15-.7,0-.08-.17a3.47,3.47,0,0,0-.52-.84l-.12-.14.28-.64-1-.68-.51.48-.17-.06a3.61,3.61,0,0,0-1-.23h-.18l-.25-.66-1.15.2,0,.7-.17.07a3.62,3.62,0,0,0-.84.53l-.14.12-.64-.29-.68.95.48.51-.07.17a4,4,0,0,0-.22,1V69l-.66.26.2,1.15.7,0,.07.17a3.71,3.71,0,0,0,.53.84l.12.14-.29.64,1,.67Zm1.45-1a2.25,2.25,0,0,1-1.34-.43,2.31,2.31,0,1,1,3.22-.54,2.28,2.28,0,0,1-1.5.94A2.34,2.34,0,0,1,121,71.4Zm0-4a1.73,1.73,0,0,0-1.7,2,1.77,1.77,0,0,0,.7,1.12h0a1.74,1.74,0,0,0,2.41-.41,1.71,1.71,0,0,0,.29-1.28,1.65,1.65,0,0,0-.7-1.12A1.68,1.68,0,0,0,121,67.37Z" transform="translate(-6.97 -6.62)"/><path class="cls-13" d="M104.52,76.43l-.65-1.7a9.53,9.53,0,0,1-2.05-.47l-1.33,1.25-3.61-2.58.74-1.66a9.64,9.64,0,0,1-1.11-1.78l-1.83-.06L94,65.06l1.7-.65a9.53,9.53,0,0,1,.47-2L94.87,61l2.57-3.61,1.67.74A9.69,9.69,0,0,1,100.89,57l.06-1.82,4.37-.74.65,1.71a9.53,9.53,0,0,1,2,.47l1.33-1.25L113,58l-.74,1.67a8.57,8.57,0,0,1,1.11,1.78l1.83,0,.74,4.38-1.71.65a9,9,0,0,1-.47,2L115,69.89,112.4,73.5l-1.67-.74A9,9,0,0,1,109,73.87l-.06,1.83Zm-2.88-3.07.23.08a8.36,8.36,0,0,0,2.31.54l.24,0,.6,1.56,3.12-.53,0-1.67.22-.1a8.16,8.16,0,0,0,2-1.25l.19-.16,1.52.68L114,70l-1.14-1.22.09-.23a8.71,8.71,0,0,0,.53-2.31l0-.25,1.56-.59-.52-3.12-1.67-.05-.1-.22a8.51,8.51,0,0,0-1.26-2l-.16-.19.68-1.52-2.57-1.83-1.22,1.14-.23-.09a8.63,8.63,0,0,0-2.31-.53l-.24,0-.6-1.56-3.11.52-.06,1.67-.22.1a8.72,8.72,0,0,0-2,1.26l-.19.16-1.52-.68L95.88,61,97,62.18l-.09.23a8.63,8.63,0,0,0-.53,2.31l0,.24-1.56.6.53,3.11,1.67,0,.1.23a8.35,8.35,0,0,0,1.25,2l.16.19-.68,1.52,2.57,1.83Zm3.27-2.86a5,5,0,0,1-2.91-.93,5,5,0,1,1,2.91.93Zm0-9.3a4.25,4.25,0,1,0,2.46.78A4.25,4.25,0,0,0,104.93,61.2Z" transform="translate(-6.97 -6.62)"/><polygon class="cls-14" points="302.66 237.67 192.19 237.67 81.73 237.67 57.55 328.04 192.92 328.04 326.84 328.04 302.66 237.67"/><path class="cls-15" d="M97.05,260.15h13.58a.82.82,0,0,1,.89.92L110.2,267a.88.88,0,0,1-.89.63H95.51a.82.82,0,0,1-.89-.94l1.55-5.91A.88.88,0,0,1,97.05,260.15Z" transform="translate(-6.97 -6.62)"/><polygon class="cls-15" points="109.88 253.53 120.14 253.53 118.78 260.98 108.32 260.98 109.88 253.53"/><polygon class="cls-15" points="125.28 253.53 135.54 253.53 134.47 260.98 124.01 260.99 125.28 253.53"/><polygon class="cls-15" points="140.67 253.53 150.93 253.53 150.15 260.98 139.69 260.98 140.67 253.53"/><polygon class="cls-15" points="156.06 253.53 166.32 253.53 165.84 260.98 155.38 260.98 156.06 253.53"/><polygon class="cls-15" points="171.46 253.53 181.72 253.53 181.52 260.98 171.06 260.99 171.46 253.53"/><polygon class="cls-15" points="294.63 253.53 279.24 253.53 280.9 260.98 296.58 260.98 294.63 253.53"/><polygon class="cls-15" points="274.11 253.53 263.85 253.53 265.21 260.98 275.67 260.98 274.11 253.53"/><polygon class="cls-15" points="258.72 253.53 248.45 253.53 249.53 260.98 259.99 260.99 258.72 253.53"/><polygon class="cls-15" points="243.32 253.53 233.06 253.53 233.84 260.98 244.3 260.98 243.32 253.53"/><polygon class="cls-15" points="227.93 253.53 217.67 253.53 218.16 260.98 228.61 260.98 227.93 253.53"/><polygon class="cls-15" points="212.54 253.53 202.28 253.53 202.47 260.98 212.93 260.99 212.54 253.53"/><polygon class="cls-15" points="186.85 253.53 197.11 253.53 197.28 260.98 186.85 260.98 186.85 253.53"/><polygon class="cls-15" points="85.57 266.52 107.01 266.52 105.79 274.21 83.94 274.21 85.57 266.52"/><polygon class="cls-15" points="297.98 266.52 271.48 266.52 272.98 274.21 299.99 274.21 297.98 266.52"/><polygon class="cls-15" points="266.17 266.52 255.57 266.52 256.78 274.21 267.58 274.21 266.17 266.52"/><polygon class="cls-15" points="250.27 266.52 239.67 266.52 240.57 274.21 251.38 274.21 250.27 266.52"/><polygon class="cls-15" points="234.37 266.52 223.76 266.52 224.37 274.21 235.17 274.21 234.37 266.52"/><polygon class="cls-15" points="218.46 266.52 207.86 266.52 208.16 274.21 218.97 274.21 218.46 266.52"/><polygon class="cls-15" points="82.37 280.22 104.29 280.22 102.69 287.86 80.37 287.86 82.37 280.22"/><polygon class="cls-15" points="109.77 280.22 120.73 280.22 119.43 287.86 108.27 287.86 109.77 280.22"/><polygon class="cls-15" points="126.21 280.22 137.17 280.22 208.41 280.22 208.72 287.86 125.01 287.86 126.21 280.22"/><polygon class="cls-15" points="213.9 280.22 224.86 280.22 225.46 287.86 214.3 287.86 213.9 280.22"/><polygon class="cls-15" points="230.34 280.22 241.3 280.22 242.2 287.86 231.04 287.86 230.34 280.22"/><polygon class="cls-15" points="246.78 280.22 257.75 280.22 258.95 287.86 247.78 287.86 246.78 280.22"/><polygon class="cls-15" points="263.23 280.22 274.19 280.22 275.69 287.86 264.53 287.86 263.23 280.22"/><polygon class="cls-15" points="279.67 280.22 301.59 280.22 303.59 287.86 281.27 287.86 279.67 280.22"/><polygon class="cls-15" points="202.58 266.52 192.06 266.52 192.06 274.21 202.78 274.21 202.58 266.52"/><polygon class="cls-15" points="186.68 266.52 176.08 266.52 175.77 274.21 186.58 274.21 186.68 266.52"/><polygon class="cls-15" points="170.77 266.52 160.17 266.52 159.57 274.21 170.37 274.21 170.77 266.52"/><polygon class="cls-15" points="154.87 266.52 144.27 266.52 143.36 274.21 154.17 274.21 154.87 266.52"/><polygon class="cls-15" points="138.97 266.52 128.36 266.52 127.16 274.21 137.96 274.21 138.97 266.52"/><polygon class="cls-15" points="123.06 266.52 112.46 266.52 110.95 274.21 121.75 274.21 123.06 266.52"/><polygon class="cls-15" points="90.59 248.85 92.33 242.19 97.31 242.19 95.68 248.85 90.59 248.85"/><polygon class="cls-15" points="102.29 242.19 112.26 242.19 110.86 248.85 100.72 248.85 102.29 242.19"/><polygon class="cls-15" points="117.24 242.19 127.21 242.19 126.07 248.85 115.93 248.85 117.24 242.19"/><polygon class="cls-15" points="132.19 242.19 142.15 242.19 141.28 248.85 131.14 248.85 132.19 242.19"/><polygon class="cls-15" points="147.14 242.19 157.1 242.19 156.49 248.85 146.35 248.85 147.14 242.19"/><polygon class="cls-15" points="162.08 242.19 172.05 242.19 171.7 248.85 161.56 248.85 162.08 242.19"/><polygon class="cls-15" points="177.03 242.19 187 242.19 186.91 248.85 176.77 248.85 177.03 242.19"/><polygon class="cls-15" points="191.98 242.19 201.94 242.19 202.12 248.85 191.98 248.85 191.98 242.19"/><polygon class="cls-15" points="206.93 242.19 216.89 242.19 217.33 248.85 207.19 248.85 206.93 242.19"/><polygon class="cls-15" points="221.87 242.19 231.84 242.19 232.54 248.85 222.4 248.85 221.87 242.19"/><polygon class="cls-15" points="236.82 242.19 246.79 242.19 247.75 248.85 237.61 248.85 236.82 242.19"/><polygon class="cls-15" points="251.77 242.19 261.74 242.19 262.95 248.85 252.81 248.85 251.77 242.19"/><polygon class="cls-15" points="266.72 242.19 276.68 242.19 278.16 248.85 268.02 248.85 266.72 242.19"/><polygon class="cls-15" points="281.67 242.19 291.63 242.19 293.37 248.85 283.23 248.85 281.67 242.19"/><path class="cls-16" d="M326.77,341.7H71.55a7,7,0,0,1-7-7H333.81A7,7,0,0,1,326.77,341.7Z" transform="translate(-6.97 -6.62)"/><path class="cls-17" d="M230.47,305.46a3.31,3.31,0,0,0-3.26-2.76h-56.1a3.3,3.3,0,0,0-3.25,2.76l-3.51,21.21a3.29,3.29,0,0,0,3.25,3.83h63.12a3.29,3.29,0,0,0,3.25-3.83Z" transform="translate(-6.97 -6.62)"/><rect class="cls-18" x="103.3" y="116.3" width="22.84" height="2.34"/><rect class="cls-18" x="132.53" y="133.91" width="16.49" height="2.34"/><rect class="cls-4" x="151.59" y="133.91" width="10.94" height="2.34"/><rect class="cls-4" x="103.56" y="178.19" width="10.94" height="2.34"/><rect class="cls-18" x="164.7" y="133.91" width="26.42" height="2.34"/><rect class="cls-18" x="103.56" y="169.32" width="16.98" height="2.34"/><rect class="cls-18" x="127.23" y="186.99" width="10.36" height="2.34"/><rect class="cls-4" x="103.56" y="186.99" width="20.53" height="2.34"/><rect class="cls-18" x="103.56" y="195.79" width="11.32" height="2.34"/><rect class="cls-5" x="130.58" y="116.3" width="16.21" height="2.34"/><rect class="cls-4" x="130.58" y="142.71" width="16.21" height="2.34"/><rect class="cls-18" x="122.48" y="151.52" width="6.93" height="2.34"/><rect class="cls-5" x="115.55" y="160.45" width="15.56" height="2.34"/><rect class="cls-4" x="133.46" y="160.45" width="21.48" height="2.34"/><rect class="cls-4" x="103.56" y="151.58" width="16.21" height="2.34"/><rect class="cls-4" x="103.56" y="160.45" width="9.62" height="2.34"/><rect class="cls-19" x="132.67" y="151.58" width="9.08" height="2.34"/><rect class="cls-19" x="103.84" y="204.6" width="9.08" height="2.34"/><rect class="cls-5" x="103.5" y="133.91" width="16.21" height="2.34"/><rect class="cls-5" x="117.84" y="178.19" width="16.21" height="2.34"/><rect class="cls-5" x="118.04" y="195.79" width="16.21" height="2.34"/><rect class="cls-5" x="146.84" y="195.79" width="16.21" height="2.34"/><rect class="cls-5" x="103.5" y="142.71" width="23.11" height="2.34"/><rect class="cls-5" x="211.8" y="116.3" width="16.21" height="2.34"/><rect class="cls-5" x="154.04" y="204.6" width="16.21" height="2.34"/><rect class="cls-5" x="233.05" y="116.3" width="10.85" height="2.34"/><rect class="cls-5" x="269.77" y="125.1" width="10.85" height="2.34"/><rect class="cls-4" x="151.16" y="116.3" width="20.66" height="2.34"/><rect class="cls-4" x="231.64" y="125.1" width="20.66" height="2.34"/><rect class="cls-4" x="206.31" y="133.91" width="20.66" height="2.34"/><rect class="cls-4" x="179.42" y="142.71" width="20.66" height="2.34"/><rect class="cls-5" x="229.56" y="133.91" width="14.68" height="2.34"/><rect class="cls-19" x="187.1" y="116.3" width="20.65" height="2.34"/><rect class="cls-19" x="163.53" y="142.71" width="12.11" height="2.34"/><rect class="cls-19" x="154.04" y="178.32" width="12.11" height="2.34"/><rect class="cls-18" x="175.64" y="116.3" width="7.56" height="2.34"/><rect class="cls-18" x="151.16" y="142.71" width="7.56" height="2.34"/><rect class="cls-18" x="257.28" y="125.1" width="7.56" height="2.34"/><rect class="cls-4" x="103.3" y="125.1" width="11.83" height="2.34"/><rect class="cls-4" x="134.86" y="169.38" width="9.34" height="2.34"/><rect class="cls-4" x="118.04" y="125.1" width="3.82" height="2.34"/><rect class="cls-18" x="196.44" y="125.1" width="31.57" height="2.34"/><rect class="cls-18" x="166.15" y="195.79" width="31.57" height="2.34"/><rect class="cls-19" x="124.66" y="125.1" width="3.9" height="2.34"/><rect class="cls-4" x="183.2" y="125.1" width="10.33" height="2.34"/><rect class="cls-19" x="193.53" y="133.91" width="10.33" height="2.34"/><rect class="cls-19" x="140.42" y="204.6" width="10.33" height="2.34"/><rect class="cls-4" x="158.49" y="125.1" width="21.98" height="2.34"/><rect class="cls-4" x="138.03" y="178.32" width="12.84" height="2.34"/><rect class="cls-4" x="137.21" y="195.79" width="6.42" height="2.34"/><rect class="cls-5" x="147.81" y="125.1" width="7.56" height="2.34"/><rect class="cls-19" x="122.36" y="133.91" width="7.56" height="2.34"/><rect class="cls-19" x="123.87" y="169.38" width="7.56" height="2.34"/><rect class="cls-4" x="131.75" y="125.1" width="13.17" height="2.34"/><g class="cls-20"><rect class="cls-15" x="225.83" y="145.64" width="102.09" height="72.78" rx="3.28"/></g><rect class="cls-21" x="299.19" y="183.1" width="18.97" height="5.06" rx="1.26"/><rect class="cls-21" x="299.19" y="192.57" width="18.97" height="5.06" rx="1.26"/><rect class="cls-21" x="299.19" y="202.04" width="18.97" height="5.06" rx="1.26"/><path class="cls-21" d="M297,178.44a28.18,28.18,0,1,0-53.07,19c.21.59.45,1.18.69,1.75A28.18,28.18,0,0,0,297,178.44Zm-19.42,29.38a21.12,21.12,0,0,1-26.49-11.46c-.19-.43-.36-.87-.52-1.32a21.14,21.14,0,0,1,12.78-27,21.4,21.4,0,0,1,6.48-1.23,21.13,21.13,0,0,1,7.75,41Z" transform="translate(-6.97 -6.62)"/><path class="cls-22" d="M250.29,181.63l-6.74-2.1a28.21,28.21,0,0,1,26.06-19.78l.21,7.05a21.4,21.4,0,0,0-6.48,1.23A21.08,21.08,0,0,0,250.29,181.63Z" transform="translate(-6.97 -6.62)"/><path class="cls-23" d="M251.08,196.36l-6.47,2.81c-.24-.57-.48-1.16-.69-1.75a28.08,28.08,0,0,1-.37-17.89l6.74,2.1a21,21,0,0,0,.27,13.41C250.72,195.49,250.89,195.93,251.08,196.36Z" transform="translate(-6.97 -6.62)"/><path class="cls-24" d="M249,206.19a28.12,28.12,0,0,1-4.37-7l6.47-2.81a21.09,21.09,0,0,0,3.28,5.26Z" transform="translate(-6.97 -6.62)"/><path class="cls-9" d="M279.86,204.64s-1.37-2.39.8-8.79a6.45,6.45,0,0,1,11.64-1.66c2.31,4,1.53,6.43-1.86,10.91S281.27,206.69,279.86,204.64Z" transform="translate(-6.97 -6.62)"/><path class="cls-9" d="M296.69,314.78s.36,2.63.41,3,4-.24,4-.24l.32-3.13S297.19,314.41,296.69,314.78Z" transform="translate(-6.97 -6.62)"/><path class="cls-25" d="M297.05,317.47a10.93,10.93,0,0,1-2.45,2.28c-1.21.69-3.11,1-3.83,1.68-.51.51-1.88,2.73,3.14,2.69s7.44.31,8-.54-.78-6.29-.78-6.29A13.7,13.7,0,0,1,297.05,317.47Z" transform="translate(-6.97 -6.62)"/><path class="cls-9" d="M269.38,314.78s.36,2.63.4,3,4-.24,4-.24l.32-3.13S269.87,314.41,269.38,314.78Z" transform="translate(-6.97 -6.62)"/><path class="cls-25" d="M269.74,317.47a10.83,10.83,0,0,1-2.46,2.28c-1.2.69-5.65,1.26-6.37,2-.51.52-1.37,2.59,5.69,2.4,5-.14,7.44.31,8-.54s-.78-6.29-.78-6.29A20.66,20.66,0,0,1,269.74,317.47Z" transform="translate(-6.97 -6.62)"/><path class="cls-26" d="M295.36,249.32a38.79,38.79,0,0,1,1.76,11.7c-.27,5.42,1.05,11.34,1.58,17,.6,6.31,3.05,21.24,3.14,24.61s-.38,14.15-.38,14.15l-4.9.12s-4.12-26.11-5.18-28.77-6.35-21.65-6.53-23.78S295.36,249.32,295.36,249.32Z" transform="translate(-6.97 -6.62)"/><path class="cls-26" d="M275.05,248.66s-3,16.62-3.32,19.94-.6,16-.77,18.11-1.19,27.11-2.13,30.19h5.46s5.6-18.2,5.6-26.81,3.72-18.73,6.12-24.41,7.88-5.82,9.35-16.36C295.36,249.32,277.05,245.32,275.05,248.66Z" transform="translate(-6.97 -6.62)"/><path class="cls-9" d="M281.84,206.33a4.71,4.71,0,0,1,0,3.07c-.62,1.28,7.87.52,7.87.52a9.14,9.14,0,0,1,.73-4.82C291.55,202.92,281.84,206.33,281.84,206.33Z" transform="translate(-6.97 -6.62)"/><path class="cls-27" d="M295.76,250.69s-3.05,3.13-21-.49l.27-1.54,20.38.77Z" transform="translate(-6.97 -6.62)"/><path class="cls-9" d="M280.56,209.82s-3.14.32-4,.49-6.93-1.08-8.17-1.21-6.51-3.74-6.68-4.17-3.21-8.11-3.38-9.78-3-.8-2.72.34c.45,2.15,1,7.35,1.34,8.86s1.25,5.32,1.76,5.77a36.63,36.63,0,0,0,9.91,5.61,39.38,39.38,0,0,1,8.15,3.79h22.91s8.92-12.74,9.11-14.66-6.23-14.67-7.51-16.27-3.13.52-3.13.52S302,200.36,302.47,202s-4.46,8.63-5.83,8.65-4.87-.43-6.42-.49a11,11,0,0,1-3.2-.75Z" transform="translate(-6.97 -6.62)"/><path class="cls-28" d="M270.68,218.33a7.36,7.36,0,0,1,3.06,5.06,66.9,66.9,0,0,0,1.79,10c.51,1.73-.44,14.27-.57,15.16s17.73,3,20.47.9c0,0,.77-11.71,1.09-15s1.85-11.39,2.37-12.48,6.71-9.79,7-10.94c0,0-3.21-5.12-5.51-5.18,0,0-3.66,4.29-4.85,4.48s-8.51-1.15-8.51-1.16-.8,1.08-5-.2c0,0-5.05.57-5.87.68-1,.13-7.92-.87-7.92-.87s-2.77,4.69-2.28,7.05Z" transform="translate(-6.97 -6.62)"/><path class="cls-9" d="M258.46,196.15s-.62-3,.13-3.81c.43-.49,1.46-1.77,1.56-2s1.2-.83,1.2-1.13-1.09-.69-2,.19-1.53,1.06-1.91,1-.92-3.23-1-4-.35-2.83-.84-2.69-.46,1-.46,1-.57-1.56-.94-1.25-.33,1.06-.33,1.06-.71-.87-.9-.24a2.17,2.17,0,0,0,0,1.2s-.73-.4-.78.59a15.52,15.52,0,0,0,.73,4.93c.52,1,2.46,3.75,2.69,4.81S258.46,196.15,258.46,196.15Z" transform="translate(-6.97 -6.62)"/><path class="cls-9" d="M298.75,190.94s-2.13-3.58-2.86-3.9a12,12,0,0,1-2.64-1.14c-.9-.64-2.08-1.17-2-1.39s1.12-.12,2.25.37,1.63.25,1.73,0a6.62,6.62,0,0,0-.94-2.49c-.34-.42-2.77-2.87-2.37-3.23s2,1,2.24,1.26c0,0-1.26-2.65-.77-2.77s1.41.81,1.41.81-.11-2.26,2.33,1.4c0,0-.52-1.21.23-.81s1.47,2.69,1.71,3.84,1.3,4.82,2.2,5.71S298.75,190.94,298.75,190.94Z" transform="translate(-6.97 -6.62)"/><path class="cls-29" d="M290.44,205.1a9.89,9.89,0,0,1-3.51-.73c-2.39-.83-2.57-5-3.09-4.51a1.51,1.51,0,0,1-2.45-.28s1.17-1.54.63-2.28A5.72,5.72,0,0,0,280.6,196s1.68-8.09,9.33-4.4C298.88,195.94,290.44,205.1,290.44,205.1Z" transform="translate(-6.97 -6.62)"/><path class="cls-30" d="M281.84,209.4l.27-1.17a61.42,61.42,0,0,1,7.54.29l.28,1.4S286.52,211.46,281.84,209.4Z" transform="translate(-6.97 -6.62)"/><path class="cls-9" d="M283,198.84c.45-.74,2.09-1.23,2.28.85.15,1.62-2.93,3.39-3,1.88A4.57,4.57,0,0,1,283,198.84Z" transform="translate(-6.97 -6.62)"/><path class="cls-31" d="M258.35,195.48a4.88,4.88,0,0,0-2.62.81,1.87,1.87,0,0,0,.14.88,11.16,11.16,0,0,1,2.7-.85S258.55,195.68,258.35,195.48Z" transform="translate(-6.97 -6.62)"/><path class="cls-29" d="M256.27,195.92a.76.76,0,0,0,.4,1,.77.77,0,0,0,1-.4.75.75,0,0,0-.41-1A.74.74,0,0,0,256.27,195.92Z" transform="translate(-6.97 -6.62)"/><path class="cls-32" d="M213,133.35s2.52,4.26,3.58,5c1.45.95.54,1.9-.14,1.9s-4.19.25-5-.62-1.15-3.5-1.87-4.18-1.45-3.41.35-4.08C211.58,130.75,213,133.35,213,133.35Z" transform="translate(-6.97 -6.62)"/><path class="cls-33" d="M211.94,131.47s2.88,5,3.37,5.73-.93.74-1.82.39-3.12-3.93-3.44-4.58a2.46,2.46,0,0,1-.07-1.68Z" transform="translate(-6.97 -6.62)"/><polygon class="cls-32" points="202.05 127.53 202.71 132.66 203.06 132.67 202.95 128.99 202.05 127.53"/><path class="cls-32" d="M188.07,133.35s2.51,4.26,3.58,5c1.44.95.54,1.9-.15,1.9s-4.18.25-4.95-.62-1.16-3.5-1.87-4.18-1.48-3.48.35-4.08C186.63,130.81,188.07,133.35,188.07,133.35Z" transform="translate(-6.97 -6.62)"/><path class="cls-33" d="M187.13,131.48s2.73,5,3.23,5.72-.94.74-1.83.39-3.11-3.93-3.44-4.58a2.43,2.43,0,0,1-.06-1.68Z" transform="translate(-6.97 -6.62)"/><polygon class="cls-32" points="177.09 127.53 177.75 132.66 178.11 132.67 178 128.99 177.09 127.53"/><path class="cls-33" d="M176.9,94.52l22.78,10.38a4.36,4.36,0,0,1,2.82,3.65c.89,8.81,7.48,22.78,7.48,22.78,2.12,1,2,.14,2,.14-1.34-4.28-3-21.91-3.54-29-.12-1.51-.2-2.53-.21-2.86s-.26-.52-.68-.86c-3.13-2.53-16-7.78-16-7.78C181.87,90.73,176.9,94.52,176.9,94.52Z" transform="translate(-6.97 -6.62)"/><path class="cls-33" d="M172.61,99c.71,6.15,9.49,5.45,9.49,5.45h10.65a67.19,67.19,0,0,0-3.88,11.47c-1.14,5.58-3.84,15.43-3.84,15.43s.17.34,2.1.15c0,0,8.36-16.66,11.56-20.85a28.19,28.19,0,0,0,3-8.71c.12-1,0-1.74-.32-2A28.13,28.13,0,0,0,199,98.26c-3.34-2.1-9.13-5.34-12.36-6.07-4.32-1-11.16-2.79-11.16-2.79A11.8,11.8,0,0,0,172.61,99Z" transform="translate(-6.97 -6.62)"/><path class="cls-34" d="M179.86,51.56a9.88,9.88,0,0,1-.82-6.25c.78-3.22,3.77-6.43,8.15-5s7.91,4.88,5.29,8.81,2.38,5.71,1.1,7.58-.79,3.83-.25,4.27,2.28,2,2.09,3.82-8.5-5.35-8.5-5.35S182.4,50.39,179.86,51.56Z" transform="translate(-6.97 -6.62)"/><path class="cls-35" d="M193.2,90.24s-.66,3.2-17.66-.84C175.54,89.4,181.24,87.51,193.2,90.24Z" transform="translate(-6.97 -6.62)"/><path class="cls-36" d="M175.34,90.3l-.79,1.51,18.65.54c-1-3.29-.66-7.75-.49-11.14.21-4.13,2.5-7,2.25-11.19l2.68.43c-1.89-5.37-2.53-8-8.38-10.1a11,11,0,0,0-5.22-.63c-6.78.56-8.83.64-12.16,6.78,5.22.83,4.36,2.7,5.94,7.89.77,2.52,1.57,5.34,1.16,8S175.34,87.9,175.34,90.3Z" transform="translate(-6.97 -6.62)"/><path class="cls-9" d="M186.16,61.66c-2.78-.53-2.19-2.07-2.19-2.07s.13-.87.18-2c0-.28,0-.58,0-.88a12.32,12.32,0,0,0-.07-1.37c-.23-1.86,5-.75,5-.75s-.3,3.77.42,4.9S188.93,62.18,186.16,61.66Z" transform="translate(-6.97 -6.62)"/><path class="cls-9" d="M180.87,59.58s5.59,6.46,7.66,8c0,0,2.38-2.15.91-7.82C189.44,59.72,186.74,58.37,180.87,59.58Z" transform="translate(-6.97 -6.62)"/><path class="cls-9" d="M181,44s-2.91,5.6,0,10.9,8.54-2.31,8.91-3.2,2.3-5.95-1.56-7.48S181.84,42.51,181,44Z" transform="translate(-6.97 -6.62)"/><path class="cls-34" d="M182,46s-2,2.62-2.24,4.57a10.41,10.41,0,0,1,1.45-7.2c2.26-3.53,8-.17,8.75,1.24s3,2.65-.76,8.71C189.19,53.34,182.4,48.62,182,46Z" transform="translate(-6.97 -6.62)"/><path class="cls-37" d="M186.63,55.49a5.5,5.5,0,0,1-2.48,2.13c0-.28,0-.58,0-.88A4.69,4.69,0,0,0,186.63,55.49Z" transform="translate(-6.97 -6.62)"/><path class="cls-9" d="M157.26,85.26s-1.38.62-2,.34a6.32,6.32,0,0,0-2-.34c-.43,0-1.77-.47-1.74,0s2.17.88,2.61,1-1.32,1.13-1.48,1.56,1.82,3.24,2.93,2.44,1.73-2.4,1.95-2.51a7.68,7.68,0,0,0,.84-.55Z" transform="translate(-6.97 -6.62)"/><path class="cls-9" d="M152.84,87.67s-3.24,2.68-3.29,3,.12.53.43.29l3.22-2.5s-3.25,3.83-3.36,4.11.25.52.43.4,3.63-3.72,3.63-3.72-3,3.59-3,3.86a.36.36,0,0,0,.6.24L154.71,90s-2,2.76-1.9,3,.33.46.83-.27,1.87-2.31,1.87-2.31Z" transform="translate(-6.97 -6.62)"/><path class="cls-6" d="M191.64,104.43H182.1s-8.78.7-9.49-5.45a11.8,11.8,0,0,1,2.89-9.58s4.64,1.24,8.7,2.22a31.5,31.5,0,0,1,7.33-.64s17.18,5.68,16.66,8.66C208.19,99.64,201,95.8,191.64,104.43Z" transform="translate(-6.97 -6.62)"/><polygon class="cls-38" points="178.46 87.15 196.65 86.88 187.47 91.54 178.46 87.15"/><path class="cls-36" d="M191.08,91.44a15.52,15.52,0,0,1-9.1.16l-.24-1.88,10.33.58Z" transform="translate(-6.97 -6.62)"/><polygon class="cls-39" points="187.47 91.54 178.46 88.05 178.46 87.15 188.18 90.65 187.47 91.54"/><path class="cls-40" d="M191,92.31a.9.9,0,0,0,1.25.89l1-.45a.74.74,0,0,0,.45-.81c-.44-2.75-1.38-13.46,0-15.29a6.67,6.67,0,0,0,1-1.8c.91,2.35,2,5.37,2.5,7l8.59,11.43,2.88.73a98.46,98.46,0,0,0-6.48-13.25c-.57-1.51-2.18-6.08-3.6-10.16-.91-2.56-1.73-4.93-2.18-6.21a2.94,2.94,0,0,0-1.26-1.54c-1.33-.79-3.55-2.05-5.56-3l0,0-.19-.09h0c3.83,5.79,2.34,22.12,1.58,32.57Z" transform="translate(-6.97 -6.62)"/><path class="cls-40" d="M176.83,60.21c-1.23.19-4.27,3.14-5.88,6.12-1.84,3.39-3.71,7.26-5.12,8.53-2.58,2.34-9.81,10.61-10.15,10.41a22.82,22.82,0,0,0,2.25,2.59c.13.06,11.88-10.12,13-11.67s3.93-7.64,4.78-7.51h0a47.85,47.85,0,0,1,2.09,5.7,1.42,1.42,0,0,0,.05.16,18.41,18.41,0,0,1,.25,7.6,25.82,25.82,0,0,1-2.82,7.27,1.18,1.18,0,0,0,0,.88h0a.66.66,0,0,0,.32.37l3.44,1.27.81.3a1.74,1.74,0,0,0,1.66-.23,1.77,1.77,0,0,0,.71-1.19c.76-5.9,1.73-11.93,2.51-14.2a21.49,21.49,0,0,0-1.33-17.44A64,64,0,0,0,176.83,60.21Z" transform="translate(-6.97 -6.62)"/><polygon class="cls-41" points="187.47 91.54 192.88 76.77 210.31 77.06 205.16 90.67 187.47 91.54"/><path class="cls-42" d="M205.42,89.93c-.53,1.06-.37,2.22.36,2.59s1.76-.2,2.29-1.27.37-2.22-.36-2.59S206,88.86,205.42,89.93Z" transform="translate(-6.97 -6.62)"/><path class="cls-34" d="M187,49.6a3.14,3.14,0,0,1,.09,3.24c-1,1.5.26,3,.48,4.56s-4.31,5.81.73,7.93S195,63.94,193.7,62a10.93,10.93,0,0,1-2.31-6.25C191.29,53,190.38,48.72,187,49.6Z" transform="translate(-6.97 -6.62)"/><polygon class="cls-5" points="143.57 22.13 165.05 22.13 165.05 37.7 165.05 40.98 161.77 37.7 143.57 37.7 143.57 22.13"/></svg>