<svg xmlns="http://www.w3.org/2000/svg" xmlns:xlink="http://www.w3.org/1999/xlink" viewBox="0 0 438.49 339.73"><defs><style>.cls-1{isolation:isolate;}.cls-2{fill:url(#_ÂÁ_Ï_ÌÌ_È_ËÂÌÚ_33);}.cls-3{fill:url(#_ÂÁ_Ï_ÌÌ_È_ËÂÌÚ_33-2);}.cls-4{fill:url(#_ÂÁ_Ï_ÌÌ_È_ËÂÌÚ_33-3);}.cls-5{fill:#020230;opacity:0.6;}.cls-6{fill:url(#_ÂÁ_Ï_ÌÌ_È_ËÂÌÚ_33-4);}.cls-7{fill:url(#_ÂÁ_Ï_ÌÌ_È_ËÂÌÚ_113);}.cls-8{fill:url(#_ÂÁ_Ï_ÌÌ_È_ËÂÌÚ_109);}.cls-9{fill:url(#_ÂÁ_Ï_ÌÌ_È_ËÂÌÚ_343);}.cls-10,.cls-30{fill:#fff;}.cls-11,.cls-15{opacity:0.4;}.cls-12,.cls-15,.cls-16{fill:#06033e;}.cls-13{fill:url(#_ÂÁ_Ï_ÌÌ_È_ËÂÌÚ_343-2);}.cls-14{fill:url(#_ÂÁ_Ï_ÌÌ_È_ËÂÌÚ_441);}.cls-16,.cls-18,.cls-30{opacity:0.5;}.cls-17{fill:url(#_ÂÁ_Ï_ÌÌ_È_ËÂÌÚ_343-3);}.cls-19{fill:#e8975b;}.cls-20{fill:#f8359e;}.cls-21{fill:url(#_ÂÁ_Ï_ÌÌ_È_ËÂÌÚ_33-5);}.cls-22{fill:url(#_ÂÁ_Ï_ÌÌ_È_ËÂÌÚ_199);}.cls-23{fill:url(#_ÂÁ_Ï_ÌÌ_È_ËÂÌÚ_144);}.cls-24{fill:url(#_ÂÁ_Ï_ÌÌ_È_ËÂÌÚ_483);}.cls-25{fill:url(#_ÂÁ_Ï_ÌÌ_È_ËÂÌÚ_483-2);}.cls-26{fill:url(#_ÂÁ_Ï_ÌÌ_È_ËÂÌÚ_193);}.cls-27{fill:url(#_ÂÁ_Ï_ÌÌ_È_ËÂÌÚ_223);}.cls-28{fill:#0c0a78;}.cls-29{fill:url(#_ÂÁ_Ï_ÌÌ_È_ËÂÌÚ_193-2);}.cls-31{fill:url(#_ÂÁ_Ï_ÌÌ_È_ËÂÌÚ_18);}.cls-32{fill:url(#_ÂÁ_Ï_ÌÌ_È_ËÂÌÚ_28);}.cls-33{fill:url(#_ÂÁ_Ï_ÌÌ_È_ËÂÌÚ_28-2);}.cls-34{fill:#15163a;}.cls-34,.cls-35{opacity:0.8;}.cls-35,.cls-37,.cls-39{fill:#b41187;}.cls-35,.cls-36,.cls-37{mix-blend-mode:lighten;}.cls-36{fill:#9be6fa;}.cls-38{fill:#98dff6;}</style><linearGradient id="_ÂÁ_Ï_ÌÌ_È_ËÂÌÚ_33" x1="410.11" y1="288.17" x2="442.73" y2="288.17" gradientUnits="userSpaceOnUse"><stop offset="0" stop-color="#e39a65"/><stop offset="1" stop-color="#e95f8d"/></linearGradient><linearGradient id="_ÂÁ_Ï_ÌÌ_È_ËÂÌÚ_33-2" x1="365.46" y1="243.47" x2="420.24" y2="243.47" xlink:href="#_ÂÁ_Ï_ÌÌ_È_ËÂÌÚ_33"/><linearGradient id="_ÂÁ_Ï_ÌÌ_È_ËÂÌÚ_33-3" x1="4.24" y1="261.82" x2="59.02" y2="261.82" xlink:href="#_ÂÁ_Ï_ÌÌ_È_ËÂÌÚ_33"/><linearGradient id="_ÂÁ_Ï_ÌÌ_È_ËÂÌÚ_33-4" x1="68.01" y1="258.31" x2="360.37" y2="258.31" xlink:href="#_ÂÁ_Ï_ÌÌ_È_ËÂÌÚ_33"/><radialGradient id="_ÂÁ_Ï_ÌÌ_È_ËÂÌÚ_113" cx="229.5" cy="41.86" r="223.3" gradientUnits="userSpaceOnUse"><stop offset="0" stop-color="#e39a65"/><stop offset="0.47" stop-color="#a92ffb"/><stop offset="0.59" stop-color="#891cfb"/><stop offset="0.74" stop-color="#6507fa"/><stop offset="0.8" stop-color="#0d0c6f"/></radialGradient><radialGradient id="_ÂÁ_Ï_ÌÌ_È_ËÂÌÚ_109" cx="92.93" cy="221.18" r="244.17" gradientUnits="userSpaceOnUse"><stop offset="0" stop-color="#e39a65"/><stop offset="0.47" stop-color="#a92ffb"/><stop offset="0.57" stop-color="#891cfb"/><stop offset="0.68" stop-color="#6507fa"/><stop offset="0.74" stop-color="#0d0c6f"/></radialGradient><radialGradient id="_ÂÁ_Ï_ÌÌ_È_ËÂÌÚ_343" cx="115.39" cy="172.17" r="218.96" gradientUnits="userSpaceOnUse"><stop offset="0" stop-color="#e39a65"/><stop offset="0.47" stop-color="#a92ffb"/><stop offset="0.59" stop-color="#891cfb"/><stop offset="0.73" stop-color="#6507fa"/><stop offset="1" stop-color="#3919bb"/></radialGradient><radialGradient id="_ÂÁ_Ï_ÌÌ_È_ËÂÌÚ_343-2" cx="169.93" cy="88.43" r="223.34" xlink:href="#_ÂÁ_Ï_ÌÌ_È_ËÂÌÚ_343"/><linearGradient id="_ÂÁ_Ï_ÌÌ_È_ËÂÌÚ_441" x1="194.48" y1="147.06" x2="373.45" y2="147.06" gradientUnits="userSpaceOnUse"><stop offset="0" stop-color="#3919bb"/><stop offset="1" stop-color="#6507fa"/></linearGradient><radialGradient id="_ÂÁ_Ï_ÌÌ_È_ËÂÌÚ_343-3" cx="88.4" cy="40.74" r="347.85" xlink:href="#_ÂÁ_Ï_ÌÌ_È_ËÂÌÚ_343"/><linearGradient id="_ÂÁ_Ï_ÌÌ_È_ËÂÌÚ_33-5" x1="72.46" y1="171.54" x2="149.24" y2="171.54" xlink:href="#_ÂÁ_Ï_ÌÌ_È_ËÂÌÚ_33"/><radialGradient id="_ÂÁ_Ï_ÌÌ_È_ËÂÌÚ_199" cx="79.27" cy="108.92" r="165.35" gradientUnits="userSpaceOnUse"><stop offset="0" stop-color="#e39a65"/><stop offset="0.15" stop-color="#a92ffb"/><stop offset="0.41" stop-color="#3919bb"/><stop offset="0.93" stop-color="#3919bb"/></radialGradient><linearGradient id="_ÂÁ_Ï_ÌÌ_È_ËÂÌÚ_144" x1="82.2" y1="88.43" x2="141.51" y2="88.43" gradientUnits="userSpaceOnUse"><stop offset="0" stop-color="#e39a65"/><stop offset="0.25" stop-color="#a92ffb"/><stop offset="0.56" stop-color="#3919bb"/></linearGradient><linearGradient id="_ÂÁ_Ï_ÌÌ_È_ËÂÌÚ_483" x1="83.52" y1="81.57" x2="131.7" y2="81.57" gradientUnits="userSpaceOnUse"><stop offset="0" stop-color="#4f1fec"/><stop offset="1" stop-color="#a92ffb"/></linearGradient><linearGradient id="_ÂÁ_Ï_ÌÌ_È_ËÂÌÚ_483-2" x1="82.38" y1="81.57" x2="130.56" y2="81.57" xlink:href="#_ÂÁ_Ï_ÌÌ_È_ËÂÌÚ_483"/><linearGradient id="_ÂÁ_Ï_ÌÌ_È_ËÂÌÚ_193" x1="87.76" y1="79.07" x2="148.52" y2="79.07" gradientUnits="userSpaceOnUse"><stop offset="0" stop-color="#131060"/><stop offset="0.19" stop-color="#141062"/><stop offset="0.28" stop-color="#19106a"/><stop offset="0.36" stop-color="#221078"/><stop offset="0.42" stop-color="#2e0f8b"/><stop offset="0.48" stop-color="#3e0fa3"/><stop offset="0.54" stop-color="#510ec2"/><stop offset="0.58" stop-color="#680de5"/><stop offset="0.61" stop-color="#740df8"/><stop offset="0.62" stop-color="#7a14f0"/><stop offset="0.68" stop-color="#9b3cc3"/><stop offset="0.75" stop-color="#b75d9d"/><stop offset="0.81" stop-color="#cc7680"/><stop offset="0.88" stop-color="#dc886c"/><stop offset="0.94" stop-color="#e5935f"/><stop offset="1" stop-color="#e8975b"/></linearGradient><radialGradient id="_ÂÁ_Ï_ÌÌ_È_ËÂÌÚ_223" cx="74.8" cy="71.65" r="108.16" gradientUnits="userSpaceOnUse"><stop offset="0" stop-color="#e39a65"/><stop offset="0.25" stop-color="#a92ffb"/><stop offset="0.74" stop-color="#3919bb"/></radialGradient><linearGradient id="_ÂÁ_Ï_ÌÌ_È_ËÂÌÚ_193-2" x1="108.04" y1="98.68" x2="116.44" y2="98.68" xlink:href="#_ÂÁ_Ï_ÌÌ_È_ËÂÌÚ_193"/><linearGradient id="_ÂÁ_Ï_ÌÌ_È_ËÂÌÚ_18" x1="241.85" y1="1018.83" x2="288.87" y2="1018.83" gradientTransform="translate(981.21 748.43) rotate(135)" gradientUnits="userSpaceOnUse"><stop offset="0" stop-color="#b41187"/><stop offset="0.39" stop-color="#7c1086"/><stop offset="0.74" stop-color="#500e84"/><stop offset="0.91" stop-color="#3f0e84"/></linearGradient><linearGradient id="_ÂÁ_Ï_ÌÌ_È_ËÂÌÚ_28" x1="197.56" y1="1074.59" x2="217.04" y2="1074.59" gradientTransform="translate(262.02 1183.93) rotate(180)" gradientUnits="userSpaceOnUse"><stop offset="0" stop-color="#9be6fa"/><stop offset="0.16" stop-color="#97e0f8"/><stop offset="0.37" stop-color="#8acff4"/><stop offset="0.61" stop-color="#75b3ed"/><stop offset="0.88" stop-color="#598ce4"/><stop offset="0.96" stop-color="#4e7ee0"/></linearGradient><linearGradient id="_ÂÁ_Ï_ÌÌ_È_ËÂÌÚ_28-2" x1="-4.18" y1="745.4" x2="39.6" y2="745.4" gradientTransform="matrix(0.32, 0.95, -0.95, 0.32, 1088.33, -104.03)" xlink:href="#_ÂÁ_Ï_ÌÌ_È_ËÂÌÚ_28"/></defs><title>relax</title><g class="cls-1"><g id="_ÎÓÈ_1" data-name="—ÎÓÈ_1"><path class="cls-2" d="M426.42,297.75a7,7,0,0,1-3.48-.93l-11.74-6.77a2.17,2.17,0,0,1,0-3.77l11.74-6.77a7,7,0,0,1,7,0l11.74,6.77a2.17,2.17,0,0,1,0,3.77l-11.74,6.77A7,7,0,0,1,426.42,297.75Zm0-17.31a5.05,5.05,0,0,0-2.55.68l-11.74,6.77a.32.32,0,0,0-.15.27.32.32,0,0,0,.15.28l11.74,6.77h0a5.1,5.1,0,0,0,5.1,0l11.74-6.77a.32.32,0,0,0,.15-.28.32.32,0,0,0-.15-.27L429,281.12A5.05,5.05,0,0,0,426.42,280.44Z" transform="translate(-4.24 -3.85)"/><path class="cls-3" d="M392.85,259.3a11.26,11.26,0,0,1-5.65-1.51L367,246.13a3.07,3.07,0,0,1,0-5.32l20.2-11.66a11.36,11.36,0,0,1,11.31,0l20.2,11.66a3.08,3.08,0,0,1,0,5.32l-20.2,11.66A11.3,11.3,0,0,1,392.85,259.3Zm-4.72-3.12a9.49,9.49,0,0,0,9.45,0l20.2-11.66a1.22,1.22,0,0,0,0-2.1l-20.2-11.66a9.49,9.49,0,0,0-9.45,0l-20.2,11.66a1.21,1.21,0,0,0,0,2.1Z" transform="translate(-4.24 -3.85)"/><path class="cls-4" d="M31.63,277.66A11.31,11.31,0,0,1,26,276.14L5.78,264.48a3.06,3.06,0,0,1,0-5.31L26,247.5a11.36,11.36,0,0,1,11.31,0l20.2,11.67a3.06,3.06,0,0,1,0,5.31L37.29,276.14A11.34,11.34,0,0,1,31.63,277.66Zm0-29.81a9.51,9.51,0,0,0-4.73,1.27L6.71,260.78a1.17,1.17,0,0,0-.61,1,1.19,1.19,0,0,0,.61,1.05L26.9,274.53h0a9.51,9.51,0,0,0,9.46,0l20.19-11.66a1.17,1.17,0,0,0,.61-1,1.19,1.19,0,0,0-.61-1.05l-20.2-11.66A9.44,9.44,0,0,0,31.63,247.85Z" transform="translate(-4.24 -3.85)"/><path class="cls-5" d="M236.18,328.53,91.75,245.14c-2.11-1.21-1.85-3.34.58-4.74L185,186.88c2.43-1.4,6.11-1.55,8.21-.34l144.44,83.39c2.1,1.21,1.84,3.34-.59,4.74l-92.7,53.52C242,329.59,238.28,329.74,236.18,328.53Z" transform="translate(-4.24 -3.85)"/><path class="cls-6" d="M239.48,343.58a9.29,9.29,0,0,1-4.54-1.06h0L70.1,247.35A3.71,3.71,0,0,1,68,244.19c0-1.44,1-2.85,2.76-3.86l112.37-65.84c3.08-1.78,7.61-2,10.31-.39l164.84,95.17a3.7,3.7,0,0,1,2.08,3.16c0,1.44-1,2.85-2.76,3.87L245.25,342.13A11.85,11.85,0,0,1,239.48,343.58ZM188.92,174.91a10,10,0,0,0-4.85,1.19L71.71,241.93c-1.15.67-1.83,1.51-1.83,2.26A2,2,0,0,0,71,245.74l164.84,95.17h0c2.11,1.21,6,1,8.44-.39l112.37-65.83c1.15-.67,1.83-1.51,1.83-2.26a2,2,0,0,0-1.15-1.55L192.52,175.71A7.4,7.4,0,0,0,188.92,174.91Z" transform="translate(-4.24 -3.85)"/><path class="cls-7" d="M376,130.13,232.18,47.07a3.71,3.71,0,0,0-2.93-.42h0l-2.66.93.94.22a4.65,4.65,0,0,0-.88,1.65L194.09,155.08a6.39,6.39,0,0,0,2.64,7.11l143.86,83.06a4.29,4.29,0,0,0,1.06.43l-.36.78,2.55-.9h0a4.07,4.07,0,0,0,2.32-2.69l32.53-105.63A6.36,6.36,0,0,0,376,130.13Z" transform="translate(-4.24 -3.85)"/><path class="cls-8" d="M335.44,249.19l.05.06-142.09-82c-2.09-1.21-5.75-1.05-8.16.34l-91.81,53-3.06-1.17.86,4.29h0a2.59,2.59,0,0,0,1.38,1.72L236,308.2c2.09,1.2,5.75,1.05,8.16-.34l92-53.14a3.67,3.67,0,0,0,1.95-2.27h0l.88-4.18Z" transform="translate(-4.24 -3.85)"/><path class="cls-9" d="M236.18,304.42,91.75,221c-2.11-1.21-1.85-3.34.58-4.74L185,162.77c2.43-1.4,6.11-1.55,8.21-.34l144.44,83.39c2.1,1.21,1.84,3.34-.59,4.74l-92.7,53.52C242,305.48,238.28,305.63,236.18,304.42Z" transform="translate(-4.24 -3.85)"/><path class="cls-10" d="M337.09,249.44,244.39,303c-2.43,1.41-6.11,1.56-8.21.34L91.75,219.91a2.74,2.74,0,0,1-1.32-1.5A2.24,2.24,0,0,0,91.75,221l144.43,83.39c2.1,1.21,5.78,1.06,8.21-.34l92.7-53.52c1.6-.92,2.24-2.16,1.9-3.24A3.87,3.87,0,0,1,337.09,249.44Z" transform="translate(-4.24 -3.85)"/><g class="cls-11"><path class="cls-12" d="M160.64,207.5l-4.88-2.82c-.39-.22-.34-.62.11-.88l5.76-3.32a1.67,1.67,0,0,1,1.52-.06l4.88,2.81c.39.23.34.62-.11.88l-5.76,3.33A1.67,1.67,0,0,1,160.64,207.5Z" transform="translate(-4.24 -3.85)"/><path class="cls-12" d="M168.17,211.85,163.29,209c-.39-.22-.34-.62.11-.88l5.76-3.32a1.71,1.71,0,0,1,1.52-.07l4.88,2.82c.39.23.34.62-.11.88l-5.76,3.32A1.67,1.67,0,0,1,168.17,211.85Z" transform="translate(-4.24 -3.85)"/><path class="cls-12" d="M175.7,216.2l-4.88-2.82c-.39-.23-.34-.62.11-.88l5.76-3.32a1.67,1.67,0,0,1,1.52-.07l4.88,2.82c.39.22.34.62-.11.88l-5.76,3.32A1.71,1.71,0,0,1,175.7,216.2Z" transform="translate(-4.24 -3.85)"/><path class="cls-12" d="M186.11,212.6l-4.87-2.81c-.4-.23-.35-.62.11-.88l4.83-2.79a1.71,1.71,0,0,1,1.52-.07l4.88,2.82c.39.23.34.62-.11.88l-4.83,2.79A1.69,1.69,0,0,1,186.11,212.6Z" transform="translate(-4.24 -3.85)"/><path class="cls-12" d="M193.64,217l-4.87-2.81c-.4-.23-.35-.62.11-.88l4.83-2.79a1.67,1.67,0,0,1,1.52-.07l4.88,2.82c.39.22.34.62-.11.88l-4.83,2.79A1.69,1.69,0,0,1,193.64,217Z" transform="translate(-4.24 -3.85)"/><path class="cls-12" d="M201.17,221.3l-4.87-2.82c-.4-.22-.35-.62.11-.88l4.83-2.79a1.67,1.67,0,0,1,1.52-.06l4.88,2.82c.39.22.34.62-.11.88l-4.83,2.79A1.69,1.69,0,0,1,201.17,221.3Z" transform="translate(-4.24 -3.85)"/><path class="cls-12" d="M208.7,225.65l-4.87-2.82c-.4-.22-.35-.62.11-.88l4.83-2.79a1.69,1.69,0,0,1,1.53-.06l4.87,2.81c.39.23.34.62-.11.88l-4.83,2.79A1.7,1.7,0,0,1,208.7,225.65Z" transform="translate(-4.24 -3.85)"/><path class="cls-12" d="M216.23,230l-4.87-2.82c-.39-.23-.35-.62.11-.88l4.83-2.79a1.69,1.69,0,0,1,1.53-.06l4.87,2.81c.39.23.34.62-.11.88l-4.83,2.79A1.73,1.73,0,0,1,216.23,230Z" transform="translate(-4.24 -3.85)"/><path class="cls-12" d="M223.76,234.34l-4.87-2.81c-.39-.23-.35-.62.11-.88l4.83-2.79a1.73,1.73,0,0,1,1.53-.07l4.87,2.82c.39.22.34.62-.11.88l-4.83,2.79A1.69,1.69,0,0,1,223.76,234.34Z" transform="translate(-4.24 -3.85)"/><path class="cls-12" d="M231.29,238.69l-4.87-2.81c-.39-.23-.35-.63.11-.89l4.83-2.79a1.69,1.69,0,0,1,1.53-.06l4.87,2.82c.39.22.34.62-.11.88l-4.83,2.79A1.69,1.69,0,0,1,231.29,238.69Z" transform="translate(-4.24 -3.85)"/><path class="cls-12" d="M238.82,243,234,240.22c-.39-.22-.34-.62.11-.88l4.83-2.79a1.69,1.69,0,0,1,1.53-.06l4.87,2.81c.39.23.34.62-.11.89L240.35,243A1.69,1.69,0,0,1,238.82,243Z" transform="translate(-4.24 -3.85)"/><path class="cls-12" d="M246.35,247.39l-4.87-2.82c-.39-.23-.34-.62.11-.88l4.83-2.79a1.69,1.69,0,0,1,1.53-.06l4.87,2.81c.39.23.34.62-.11.88l-4.83,2.79A1.73,1.73,0,0,1,246.35,247.39Z" transform="translate(-4.24 -3.85)"/><path class="cls-12" d="M253.88,251.73,249,248.92c-.39-.23-.34-.62.11-.88l4.83-2.79a1.73,1.73,0,0,1,1.53-.07l4.87,2.82c.39.22.35.62-.11.88l-4.83,2.79A1.69,1.69,0,0,1,253.88,251.73Z" transform="translate(-4.24 -3.85)"/><path class="cls-12" d="M197.21,210.55l-4.88-2.82c-.39-.22-.34-.62.11-.88l4.83-2.79a1.69,1.69,0,0,1,1.53-.06l4.88,2.81c.39.23.34.62-.11.88l-4.84,2.79A1.71,1.71,0,0,1,197.21,210.55Z" transform="translate(-4.24 -3.85)"/><path class="cls-12" d="M189.56,206.13l-4.87-2.81c-.39-.23-.34-.62.11-.88l4.83-2.79a1.73,1.73,0,0,1,1.53-.07L196,202.4c.39.23.35.62-.11.88l-4.83,2.79A1.69,1.69,0,0,1,189.56,206.13Z" transform="translate(-4.24 -3.85)"/><path class="cls-12" d="M181.91,201.71l-10.5-6.06c-.39-.22-.35-.62.11-.88l4.83-2.79a1.69,1.69,0,0,1,1.53-.06l10.5,6.06c.39.23.34.62-.11.88l-4.83,2.79A1.69,1.69,0,0,1,181.91,201.71Z" transform="translate(-4.24 -3.85)"/><path class="cls-12" d="M187.26,196.34l-8.52-4.92c-.39-.23-.34-.62.11-.88l4.83-2.79a1.73,1.73,0,0,1,1.53-.07l8.52,4.92c.39.23.34.63-.11.89l-4.83,2.79A1.69,1.69,0,0,1,187.26,196.34Z" transform="translate(-4.24 -3.85)"/><path class="cls-12" d="M204.74,214.89l-4.88-2.81c-.39-.23-.34-.62.11-.88l4.83-2.79a1.73,1.73,0,0,1,1.53-.07l4.88,2.82c.39.23.34.62-.11.88l-4.84,2.79A1.67,1.67,0,0,1,204.74,214.89Z" transform="translate(-4.24 -3.85)"/><path class="cls-12" d="M212.27,219.24l-4.88-2.81c-.39-.23-.34-.62.11-.89l4.83-2.78a1.7,1.7,0,0,1,1.53-.07l4.88,2.82c.39.22.34.62-.11.88l-4.83,2.79A1.69,1.69,0,0,1,212.27,219.24Z" transform="translate(-4.24 -3.85)"/><path class="cls-12" d="M219.8,223.59l-4.88-2.82c-.39-.22-.34-.62.11-.88l4.83-2.79a1.69,1.69,0,0,1,1.53-.06l4.88,2.81c.39.23.34.63-.11.89l-4.83,2.79A1.69,1.69,0,0,1,219.8,223.59Z" transform="translate(-4.24 -3.85)"/><path class="cls-12" d="M227.33,227.94l-4.88-2.82c-.39-.22-.34-.62.11-.88l4.83-2.79a1.69,1.69,0,0,1,1.53-.06l4.88,2.81c.39.23.34.62-.11.88l-4.83,2.79A1.73,1.73,0,0,1,227.33,227.94Z" transform="translate(-4.24 -3.85)"/><path class="cls-12" d="M234.86,232.28,230,229.47c-.39-.23-.34-.62.11-.88l4.83-2.79a1.73,1.73,0,0,1,1.53-.07l4.88,2.82c.39.23.34.62-.11.88l-4.83,2.79A1.69,1.69,0,0,1,234.86,232.28Z" transform="translate(-4.24 -3.85)"/><path class="cls-12" d="M242.39,236.63l-4.88-2.81c-.39-.23-.34-.62.11-.88l4.83-2.79a1.7,1.7,0,0,1,1.53-.07l4.88,2.82c.39.22.34.62-.11.88l-4.83,2.79A1.69,1.69,0,0,1,242.39,236.63Z" transform="translate(-4.24 -3.85)"/><path class="cls-12" d="M249.92,241,245,238.16c-.39-.22-.34-.62.11-.88l4.83-2.79a1.69,1.69,0,0,1,1.53-.06l4.88,2.82c.39.22.34.62-.11.88l-4.83,2.79A1.69,1.69,0,0,1,249.92,241Z" transform="translate(-4.24 -3.85)"/><path class="cls-12" d="M257.45,245.33l-4.88-2.82c-.39-.22-.34-.62.11-.88l4.83-2.79a1.69,1.69,0,0,1,1.53-.06l4.88,2.81c.39.23.34.62-.11.88L259,245.26A1.7,1.7,0,0,1,257.45,245.33Z" transform="translate(-4.24 -3.85)"/><path class="cls-12" d="M265,249.68l-4.88-2.82c-.39-.23-.34-.62.11-.88l4.83-2.79a1.69,1.69,0,0,1,1.53-.06l4.88,2.81c.39.23.34.62-.11.88l-4.83,2.79A1.73,1.73,0,0,1,265,249.68Z" transform="translate(-4.24 -3.85)"/><path class="cls-12" d="M278.37,257.4l-10.64-6.14c-.39-.22-.35-.62.11-.88l4.83-2.79a1.69,1.69,0,0,1,1.53-.06l10.64,6.14c.39.23.34.62-.11.88l-4.84,2.79A1.67,1.67,0,0,1,278.37,257.4Z" transform="translate(-4.24 -3.85)"/><path class="cls-12" d="M293,248.94l-9-5.18c-.39-.23-.35-.63.11-.89l4.83-2.79a1.69,1.69,0,0,1,1.53-.06l9,5.19c.39.22.34.62-.11.88l-4.84,2.79A1.67,1.67,0,0,1,293,248.94Z" transform="translate(-4.24 -3.85)"/><path class="cls-12" d="M217.92,214l-4.87-2.81c-.39-.23-.34-.62.11-.88l4.83-2.79a1.73,1.73,0,0,1,1.53-.07l4.87,2.82c.39.22.35.62-.11.88L219.45,214A1.69,1.69,0,0,1,217.92,214Z" transform="translate(-4.24 -3.85)"/><path class="cls-12" d="M210.21,209.59l-4.88-2.82c-.39-.22-.34-.62.11-.88l4.83-2.79a1.69,1.69,0,0,1,1.53-.06l4.88,2.81c.39.23.34.62-.11.89l-4.84,2.78A1.67,1.67,0,0,1,210.21,209.59Z" transform="translate(-4.24 -3.85)"/><path class="cls-12" d="M202.49,205.13l-4.88-2.81c-.39-.23-.34-.62.11-.89l4.83-2.78a1.7,1.7,0,0,1,1.53-.07L209,201.4c.39.22.34.62-.11.88L204,205.07A1.69,1.69,0,0,1,202.49,205.13Z" transform="translate(-4.24 -3.85)"/><path class="cls-12" d="M194.77,200.68l-4.87-2.82c-.4-.23-.35-.62.11-.88l4.83-2.79a1.67,1.67,0,0,1,1.52-.06l4.88,2.81c.39.23.34.62-.11.88l-4.83,2.79A1.73,1.73,0,0,1,194.77,200.68Z" transform="translate(-4.24 -3.85)"/><path class="cls-12" d="M225.45,218.39l-4.87-2.81c-.39-.23-.34-.62.11-.89l4.83-2.79a1.72,1.72,0,0,1,1.53-.06l4.87,2.82c.39.22.35.62-.11.88L227,218.33A1.69,1.69,0,0,1,225.45,218.39Z" transform="translate(-4.24 -3.85)"/><path class="cls-12" d="M233,222.74l-4.88-2.82c-.39-.22-.34-.62.11-.88l4.83-2.79a1.69,1.69,0,0,1,1.53-.06l4.87,2.81c.4.23.35.62-.11.89l-4.83,2.79A1.7,1.7,0,0,1,233,222.74Z" transform="translate(-4.24 -3.85)"/><path class="cls-12" d="M240.52,227.09l-4.88-2.82c-.39-.22-.34-.62.11-.88l4.83-2.79a1.69,1.69,0,0,1,1.53-.06l4.87,2.81c.4.23.35.62-.11.88L242,227A1.71,1.71,0,0,1,240.52,227.09Z" transform="translate(-4.24 -3.85)"/><path class="cls-12" d="M248.05,231.43l-4.88-2.81c-.39-.23-.34-.62.11-.88l4.83-2.79a1.73,1.73,0,0,1,1.53-.07l4.87,2.82c.4.23.35.62-.11.88l-4.83,2.79A1.67,1.67,0,0,1,248.05,231.43Z" transform="translate(-4.24 -3.85)"/><path class="cls-12" d="M255.58,235.78,250.7,233c-.39-.23-.34-.62.11-.89l4.83-2.79a1.72,1.72,0,0,1,1.53-.06l4.87,2.82c.4.22.35.62-.11.88l-4.83,2.79A1.67,1.67,0,0,1,255.58,235.78Z" transform="translate(-4.24 -3.85)"/><path class="cls-12" d="M263.11,240.13l-4.88-2.82c-.39-.22-.34-.62.11-.88l4.83-2.79a1.69,1.69,0,0,1,1.53-.06l4.87,2.81c.4.23.35.63-.1.89l-4.84,2.79A1.67,1.67,0,0,1,263.11,240.13Z" transform="translate(-4.24 -3.85)"/><path class="cls-12" d="M270.64,244.48l-4.88-2.82c-.39-.22-.34-.62.11-.88L270.7,238a1.69,1.69,0,0,1,1.53-.06l4.88,2.81c.39.23.34.62-.11.88l-4.84,2.79A1.71,1.71,0,0,1,270.64,244.48Z" transform="translate(-4.24 -3.85)"/><path class="cls-12" d="M278.17,248.82,273.29,246c-.39-.23-.34-.62.11-.88l4.83-2.79a1.73,1.73,0,0,1,1.53-.07l4.88,2.82c.39.23.34.62-.11.88l-4.84,2.79A1.67,1.67,0,0,1,278.17,248.82Z" transform="translate(-4.24 -3.85)"/><path class="cls-12" d="M285.7,253.17l-4.88-2.81c-.39-.23-.34-.62.11-.89l4.83-2.78a1.7,1.7,0,0,1,1.53-.07l4.88,2.82c.39.22.34.62-.11.88l-4.84,2.79A1.67,1.67,0,0,1,285.7,253.17Z" transform="translate(-4.24 -3.85)"/><path class="cls-12" d="M214,203.29l-4.88-2.82c-.39-.22-.34-.62.11-.88L214,196.8a1.69,1.69,0,0,1,1.53-.06l4.88,2.82c.39.22.34.62-.11.88l-4.83,2.79A1.69,1.69,0,0,1,214,203.29Z" transform="translate(-4.24 -3.85)"/><path class="cls-12" d="M206.47,199l-4.88-2.81c-.39-.23-.34-.62.11-.88l4.83-2.79a1.73,1.73,0,0,1,1.53-.07l4.88,2.82c.39.23.34.62-.11.88L208,198.9A1.67,1.67,0,0,1,206.47,199Z" transform="translate(-4.24 -3.85)"/><path class="cls-12" d="M199,194.64l-4.87-2.82c-.39-.22-.34-.62.11-.88l4.83-2.79a1.69,1.69,0,0,1,1.53-.06l4.87,2.81c.39.23.34.62-.11.89l-4.83,2.78A1.69,1.69,0,0,1,199,194.64Z" transform="translate(-4.24 -3.85)"/><path class="cls-12" d="M191.48,190.31l-4.88-2.81c-.39-.23-.34-.62.11-.89l4.84-2.78a1.67,1.67,0,0,1,1.52-.07l4.88,2.82c.39.22.34.62-.11.88L193,190.25A1.69,1.69,0,0,1,191.48,190.31Z" transform="translate(-4.24 -3.85)"/><path class="cls-12" d="M199.19,185.86l-4.88-2.81c-.39-.23-.34-.62.11-.88l1.6-.93a1.7,1.7,0,0,1,1.52-.06l4.88,2.82c.39.22.34.62-.11.88l-1.6.92A1.67,1.67,0,0,1,199.19,185.86Z" transform="translate(-4.24 -3.85)"/><path class="cls-12" d="M209,191.51l-4.87-2.82c-.39-.22-.34-.62.11-.88l1.59-.92a1.69,1.69,0,0,1,1.53-.06l4.88,2.81c.39.23.34.62-.11.88l-1.6.93A1.69,1.69,0,0,1,209,191.51Z" transform="translate(-4.24 -3.85)"/><path class="cls-12" d="M216.43,195.82,211.55,193c-.39-.22-.34-.62.11-.88l1.6-.92a1.71,1.71,0,0,1,1.52-.07l4.88,2.82c.39.23.34.62-.11.88l-1.6.92A1.71,1.71,0,0,1,216.43,195.82Z" transform="translate(-4.24 -3.85)"/><path class="cls-12" d="M223.89,200.12,219,197.31c-.39-.23-.34-.62.11-.88l1.6-.92a1.69,1.69,0,0,1,1.53-.07l4.87,2.82c.39.22.34.62-.11.88l-1.6.92A1.67,1.67,0,0,1,223.89,200.12Z" transform="translate(-4.24 -3.85)"/><path class="cls-12" d="M231.35,204.43l-4.88-2.81c-.39-.23-.34-.62.11-.88l1.6-.93a1.69,1.69,0,0,1,1.53-.06l4.87,2.82c.39.22.35.62-.11.88l-1.59.92A1.69,1.69,0,0,1,231.35,204.43Z" transform="translate(-4.24 -3.85)"/><path class="cls-12" d="M273,228.48l-4.88-2.81c-.39-.23-.34-.62.11-.88l1.6-.93a1.67,1.67,0,0,1,1.52-.06l4.88,2.82c.39.22.34.62-.11.88l-1.6.92A1.67,1.67,0,0,1,273,228.48Z" transform="translate(-4.24 -3.85)"/><path class="cls-12" d="M280.47,232.79,275.59,230c-.39-.23-.34-.62.11-.89l1.6-.92a1.69,1.69,0,0,1,1.53-.06l4.87,2.81c.39.23.34.63-.11.89l-1.6.92A1.67,1.67,0,0,1,280.47,232.79Z" transform="translate(-4.24 -3.85)"/><path class="cls-12" d="M287.93,237.1l-4.88-2.82c-.39-.22-.34-.62.11-.88l1.6-.92a1.69,1.69,0,0,1,1.53-.06l4.87,2.81c.39.23.35.62-.11.88l-1.59.93A1.69,1.69,0,0,1,287.93,237.1Z" transform="translate(-4.24 -3.85)"/><path class="cls-12" d="M295.39,241.41l-4.88-2.82c-.39-.22-.34-.62.11-.88l1.6-.92a1.73,1.73,0,0,1,1.53-.07l4.87,2.82c.4.23.35.62-.1.88l-1.6.92A1.7,1.7,0,0,1,295.39,241.41Z" transform="translate(-4.24 -3.85)"/><path class="cls-12" d="M221.49,207.64l-4.88-2.82c-.39-.22-.34-.62.11-.88l4.83-2.79a1.69,1.69,0,0,1,1.53-.06L228,203.9c.39.23.34.62-.11.88L223,207.57A1.7,1.7,0,0,1,221.49,207.64Z" transform="translate(-4.24 -3.85)"/><path class="cls-12" d="M229,212l-4.88-2.82c-.39-.23-.34-.62.11-.88l4.83-2.79a1.69,1.69,0,0,1,1.53-.06l4.88,2.81c.39.23.34.62-.11.88l-4.83,2.79A1.73,1.73,0,0,1,229,212Z" transform="translate(-4.24 -3.85)"/><path class="cls-12" d="M236.55,216.33l-4.88-2.81c-.39-.23-.34-.62.11-.88l4.84-2.79a1.71,1.71,0,0,1,1.52-.07L243,212.6c.39.22.34.62-.11.88l-4.83,2.79A1.69,1.69,0,0,1,236.55,216.33Z" transform="translate(-4.24 -3.85)"/><path class="cls-12" d="M244.08,220.68l-4.88-2.81c-.39-.23-.34-.63.11-.89l4.84-2.79a1.67,1.67,0,0,1,1.52-.06l4.88,2.82c.39.22.34.62-.11.88l-4.83,2.79A1.69,1.69,0,0,1,244.08,220.68Z" transform="translate(-4.24 -3.85)"/><path class="cls-12" d="M251.61,225l-4.88-2.82c-.39-.22-.34-.62.11-.88l4.84-2.79a1.67,1.67,0,0,1,1.52-.06l4.88,2.81c.39.23.34.62-.11.89L253.14,225A1.7,1.7,0,0,1,251.61,225Z" transform="translate(-4.24 -3.85)"/><path class="cls-12" d="M259.14,229.38l-4.88-2.82c-.39-.23-.34-.62.11-.88l4.84-2.79a1.67,1.67,0,0,1,1.52-.06l4.88,2.81c.39.23.34.62-.11.88l-4.83,2.79A1.73,1.73,0,0,1,259.14,229.38Z" transform="translate(-4.24 -3.85)"/><path class="cls-12" d="M266.67,233.72l-4.87-2.81c-.4-.23-.35-.62.1-.88l4.84-2.79a1.71,1.71,0,0,1,1.52-.07l4.88,2.82c.39.22.34.62-.11.88l-4.83,2.79A1.69,1.69,0,0,1,266.67,233.72Z" transform="translate(-4.24 -3.85)"/><path class="cls-12" d="M274.2,238.07l-4.87-2.81c-.4-.23-.35-.63.11-.89l4.83-2.79a1.67,1.67,0,0,1,1.52-.06l4.88,2.82c.39.22.34.62-.11.88L275.73,238A1.69,1.69,0,0,1,274.2,238.07Z" transform="translate(-4.24 -3.85)"/><path class="cls-12" d="M281.73,242.42l-4.87-2.82c-.4-.22-.35-.62.11-.88l4.83-2.79a1.67,1.67,0,0,1,1.52-.06l4.88,2.81c.39.23.34.62-.11.89l-4.83,2.79A1.72,1.72,0,0,1,281.73,242.42Z" transform="translate(-4.24 -3.85)"/><path class="cls-12" d="M178.44,208.17l-14.36-8.29c-.39-.22-.35-.62.11-.88l4.83-2.79a1.69,1.69,0,0,1,1.53-.06l14.36,8.29c.39.23.34.62-.11.88L180,208.11A1.69,1.69,0,0,1,178.44,208.17Z" transform="translate(-4.24 -3.85)"/><path class="cls-12" d="M271,261.59l-14.36-8.3c-.39-.22-.34-.62.11-.88l4.83-2.79a1.69,1.69,0,0,1,1.53-.06l14.36,8.29c.39.23.34.62-.11.88l-4.83,2.79A1.73,1.73,0,0,1,271,261.59Z" transform="translate(-4.24 -3.85)"/><path class="cls-12" d="M240.83,253.8,236,251c-.39-.23-.34-.62.11-.88l5.75-3.33a1.69,1.69,0,0,1,1.53-.06l4.88,2.81c.39.23.34.63-.11.89l-5.76,3.32A1.69,1.69,0,0,1,240.83,253.8Z" transform="translate(-4.24 -3.85)"/><path class="cls-12" d="M186.15,222.23l-7.8-4.5c-.39-.23-.34-.62.11-.88l5.76-3.33a1.67,1.67,0,0,1,1.52-.06l7.8,4.5c.39.23.34.62-.11.88l-5.75,3.33A1.69,1.69,0,0,1,186.15,222.23Z" transform="translate(-4.24 -3.85)"/><path class="cls-12" d="M233.58,249.61l-7.8-4.5c-.39-.22-.34-.62.11-.88l5.76-3.32a1.71,1.71,0,0,1,1.52-.07l7.8,4.51c.39.22.34.62-.11.88l-5.75,3.32A1.69,1.69,0,0,1,233.58,249.61Z" transform="translate(-4.24 -3.85)"/><path class="cls-12" d="M197,228.5l-7.79-4.5c-.4-.23-.35-.62.11-.88l5.75-3.32a1.7,1.7,0,0,1,1.53-.07l7.8,4.5c.39.23.34.63-.11.89l-5.76,3.32A1.69,1.69,0,0,1,197,228.5Z" transform="translate(-4.24 -3.85)"/><path class="cls-12" d="M196.66,219.76l33.91,19.58c.42.24.42.63,0,.88l-5.87,3.39a1.72,1.72,0,0,1-1.53,0L189.27,224Z" transform="translate(-4.24 -3.85)"/><path class="cls-12" d="M261.88,261.69l5.43,3.13c.32.19.28.51-.09.72l-2.35,1.36a1.39,1.39,0,0,1-1.25.06l-5.44-3.14c-.32-.19-.28-.51.09-.72l2.36-1.36A1.35,1.35,0,0,1,261.88,261.69Z" transform="translate(-4.24 -3.85)"/><path class="cls-12" d="M254.29,257.3l5.43,3.14c.32.18.28.51-.09.72l-2.36,1.36a1.38,1.38,0,0,1-1.25.05l-5.43-3.13c-.32-.19-.28-.51.09-.73l2.36-1.36A1.42,1.42,0,0,1,254.29,257.3Z" transform="translate(-4.24 -3.85)"/><path class="cls-12" d="M246.76,253l5.43,3.14c.32.19.28.51-.09.72l-2.36,1.36a1.35,1.35,0,0,1-1.25.05l-5.43-3.13c-.32-.19-.28-.51.09-.72l2.36-1.36A1.39,1.39,0,0,1,246.76,253Z" transform="translate(-4.24 -3.85)"/><path class="cls-12" d="M258.45,254.9l5.43,3.14c.32.18.28.51-.09.72l-2.36,1.36a1.38,1.38,0,0,1-1.25.05L254.75,257c-.32-.18-.28-.5.09-.72l2.35-1.36A1.44,1.44,0,0,1,258.45,254.9Z" transform="translate(-4.24 -3.85)"/></g><g class="cls-11"><path class="cls-12" d="M160.64,207.5l-4.88-2.82c-.39-.22-.34-.62.11-.88l5.76-3.32a1.67,1.67,0,0,1,1.52-.06l4.88,2.81c.39.23.34.62-.11.88l-5.76,3.33A1.67,1.67,0,0,1,160.64,207.5Z" transform="translate(-4.24 -3.85)"/><path class="cls-12" d="M168.17,211.85,163.29,209c-.39-.22-.34-.62.11-.88l5.76-3.32a1.71,1.71,0,0,1,1.52-.07l4.88,2.82c.39.23.34.62-.11.88l-5.76,3.32A1.67,1.67,0,0,1,168.17,211.85Z" transform="translate(-4.24 -3.85)"/><path class="cls-12" d="M175.7,216.2l-4.88-2.82c-.39-.23-.34-.62.11-.88l5.76-3.32a1.67,1.67,0,0,1,1.52-.07l4.88,2.82c.39.22.34.62-.11.88l-5.76,3.32A1.71,1.71,0,0,1,175.7,216.2Z" transform="translate(-4.24 -3.85)"/><path class="cls-12" d="M186.11,212.6l-4.87-2.81c-.4-.23-.35-.62.11-.88l4.83-2.79a1.71,1.71,0,0,1,1.52-.07l4.88,2.82c.39.23.34.62-.11.88l-4.83,2.79A1.69,1.69,0,0,1,186.11,212.6Z" transform="translate(-4.24 -3.85)"/><path class="cls-12" d="M193.64,217l-4.87-2.81c-.4-.23-.35-.62.11-.88l4.83-2.79a1.67,1.67,0,0,1,1.52-.07l4.88,2.82c.39.22.34.62-.11.88l-4.83,2.79A1.69,1.69,0,0,1,193.64,217Z" transform="translate(-4.24 -3.85)"/><path class="cls-12" d="M201.17,221.3l-4.87-2.82c-.4-.22-.35-.62.11-.88l4.83-2.79a1.67,1.67,0,0,1,1.52-.06l4.88,2.82c.39.22.34.62-.11.88l-4.83,2.79A1.69,1.69,0,0,1,201.17,221.3Z" transform="translate(-4.24 -3.85)"/><path class="cls-12" d="M208.7,225.65l-4.87-2.82c-.4-.22-.35-.62.11-.88l4.83-2.79a1.69,1.69,0,0,1,1.53-.06l4.87,2.81c.39.23.34.62-.11.88l-4.83,2.79A1.7,1.7,0,0,1,208.7,225.65Z" transform="translate(-4.24 -3.85)"/><path class="cls-12" d="M216.23,230l-4.87-2.82c-.39-.23-.35-.62.11-.88l4.83-2.79a1.69,1.69,0,0,1,1.53-.06l4.87,2.81c.39.23.34.62-.11.88l-4.83,2.79A1.73,1.73,0,0,1,216.23,230Z" transform="translate(-4.24 -3.85)"/><path class="cls-12" d="M223.76,234.34l-4.87-2.81c-.39-.23-.35-.62.11-.88l4.83-2.79a1.73,1.73,0,0,1,1.53-.07l4.87,2.82c.39.22.34.62-.11.88l-4.83,2.79A1.69,1.69,0,0,1,223.76,234.34Z" transform="translate(-4.24 -3.85)"/><path class="cls-12" d="M231.29,238.69l-4.87-2.81c-.39-.23-.35-.63.11-.89l4.83-2.79a1.69,1.69,0,0,1,1.53-.06l4.87,2.82c.39.22.34.62-.11.88l-4.83,2.79A1.69,1.69,0,0,1,231.29,238.69Z" transform="translate(-4.24 -3.85)"/><path class="cls-12" d="M238.82,243,234,240.22c-.39-.22-.34-.62.11-.88l4.83-2.79a1.69,1.69,0,0,1,1.53-.06l4.87,2.81c.39.23.34.62-.11.89L240.35,243A1.69,1.69,0,0,1,238.82,243Z" transform="translate(-4.24 -3.85)"/><path class="cls-12" d="M246.35,247.39l-4.87-2.82c-.39-.23-.34-.62.11-.88l4.83-2.79a1.69,1.69,0,0,1,1.53-.06l4.87,2.81c.39.23.34.62-.11.88l-4.83,2.79A1.73,1.73,0,0,1,246.35,247.39Z" transform="translate(-4.24 -3.85)"/><path class="cls-12" d="M253.88,251.73,249,248.92c-.39-.23-.34-.62.11-.88l4.83-2.79a1.73,1.73,0,0,1,1.53-.07l4.87,2.82c.39.22.35.62-.11.88l-4.83,2.79A1.69,1.69,0,0,1,253.88,251.73Z" transform="translate(-4.24 -3.85)"/><path class="cls-12" d="M197.21,210.55l-4.88-2.82c-.39-.22-.34-.62.11-.88l4.83-2.79a1.69,1.69,0,0,1,1.53-.06l4.88,2.81c.39.23.34.62-.11.88l-4.84,2.79A1.71,1.71,0,0,1,197.21,210.55Z" transform="translate(-4.24 -3.85)"/><path class="cls-12" d="M189.56,206.13l-4.87-2.81c-.39-.23-.34-.62.11-.88l4.83-2.79a1.73,1.73,0,0,1,1.53-.07L196,202.4c.39.23.35.62-.11.88l-4.83,2.79A1.69,1.69,0,0,1,189.56,206.13Z" transform="translate(-4.24 -3.85)"/><path class="cls-12" d="M181.91,201.71l-10.5-6.06c-.39-.22-.35-.62.11-.88l4.83-2.79a1.69,1.69,0,0,1,1.53-.06l10.5,6.06c.39.23.34.62-.11.88l-4.83,2.79A1.69,1.69,0,0,1,181.91,201.71Z" transform="translate(-4.24 -3.85)"/><path class="cls-12" d="M187.26,196.34l-8.52-4.92c-.39-.23-.34-.62.11-.88l4.83-2.79a1.73,1.73,0,0,1,1.53-.07l8.52,4.92c.39.23.34.63-.11.89l-4.83,2.79A1.69,1.69,0,0,1,187.26,196.34Z" transform="translate(-4.24 -3.85)"/><path class="cls-12" d="M204.74,214.89l-4.88-2.81c-.39-.23-.34-.62.11-.88l4.83-2.79a1.73,1.73,0,0,1,1.53-.07l4.88,2.82c.39.23.34.62-.11.88l-4.84,2.79A1.67,1.67,0,0,1,204.74,214.89Z" transform="translate(-4.24 -3.85)"/><path class="cls-12" d="M212.27,219.24l-4.88-2.81c-.39-.23-.34-.62.11-.89l4.83-2.78a1.7,1.7,0,0,1,1.53-.07l4.88,2.82c.39.22.34.62-.11.88l-4.83,2.79A1.69,1.69,0,0,1,212.27,219.24Z" transform="translate(-4.24 -3.85)"/><path class="cls-12" d="M219.8,223.59l-4.88-2.82c-.39-.22-.34-.62.11-.88l4.83-2.79a1.69,1.69,0,0,1,1.53-.06l4.88,2.81c.39.23.34.63-.11.89l-4.83,2.79A1.69,1.69,0,0,1,219.8,223.59Z" transform="translate(-4.24 -3.85)"/><path class="cls-12" d="M227.33,227.94l-4.88-2.82c-.39-.22-.34-.62.11-.88l4.83-2.79a1.69,1.69,0,0,1,1.53-.06l4.88,2.81c.39.23.34.62-.11.88l-4.83,2.79A1.73,1.73,0,0,1,227.33,227.94Z" transform="translate(-4.24 -3.85)"/><path class="cls-12" d="M234.86,232.28,230,229.47c-.39-.23-.34-.62.11-.88l4.83-2.79a1.73,1.73,0,0,1,1.53-.07l4.88,2.82c.39.23.34.62-.11.88l-4.83,2.79A1.69,1.69,0,0,1,234.86,232.28Z" transform="translate(-4.24 -3.85)"/><path class="cls-12" d="M242.39,236.63l-4.88-2.81c-.39-.23-.34-.62.11-.88l4.83-2.79a1.7,1.7,0,0,1,1.53-.07l4.88,2.82c.39.22.34.62-.11.88l-4.83,2.79A1.69,1.69,0,0,1,242.39,236.63Z" transform="translate(-4.24 -3.85)"/><path class="cls-12" d="M249.92,241,245,238.16c-.39-.22-.34-.62.11-.88l4.83-2.79a1.69,1.69,0,0,1,1.53-.06l4.88,2.82c.39.22.34.62-.11.88l-4.83,2.79A1.69,1.69,0,0,1,249.92,241Z" transform="translate(-4.24 -3.85)"/><path class="cls-12" d="M257.45,245.33l-4.88-2.82c-.39-.22-.34-.62.11-.88l4.83-2.79a1.69,1.69,0,0,1,1.53-.06l4.88,2.81c.39.23.34.62-.11.88L259,245.26A1.7,1.7,0,0,1,257.45,245.33Z" transform="translate(-4.24 -3.85)"/><path class="cls-12" d="M265,249.68l-4.88-2.82c-.39-.23-.34-.62.11-.88l4.83-2.79a1.69,1.69,0,0,1,1.53-.06l4.88,2.81c.39.23.34.62-.11.88l-4.83,2.79A1.73,1.73,0,0,1,265,249.68Z" transform="translate(-4.24 -3.85)"/><path class="cls-12" d="M278.37,257.4l-10.64-6.14c-.39-.22-.35-.62.11-.88l4.83-2.79a1.69,1.69,0,0,1,1.53-.06l10.64,6.14c.39.23.34.62-.11.88l-4.84,2.79A1.67,1.67,0,0,1,278.37,257.4Z" transform="translate(-4.24 -3.85)"/><path class="cls-12" d="M293,248.94l-9-5.18c-.39-.23-.35-.63.11-.89l4.83-2.79a1.69,1.69,0,0,1,1.53-.06l9,5.19c.39.22.34.62-.11.88l-4.84,2.79A1.67,1.67,0,0,1,293,248.94Z" transform="translate(-4.24 -3.85)"/><path class="cls-12" d="M217.92,214l-4.87-2.81c-.39-.23-.34-.62.11-.88l4.83-2.79a1.73,1.73,0,0,1,1.53-.07l4.87,2.82c.39.22.35.62-.11.88L219.45,214A1.69,1.69,0,0,1,217.92,214Z" transform="translate(-4.24 -3.85)"/><path class="cls-12" d="M210.21,209.59l-4.88-2.82c-.39-.22-.34-.62.11-.88l4.83-2.79a1.69,1.69,0,0,1,1.53-.06l4.88,2.81c.39.23.34.62-.11.89l-4.84,2.78A1.67,1.67,0,0,1,210.21,209.59Z" transform="translate(-4.24 -3.85)"/><path class="cls-12" d="M202.49,205.13l-4.88-2.81c-.39-.23-.34-.62.11-.89l4.83-2.78a1.7,1.7,0,0,1,1.53-.07L209,201.4c.39.22.34.62-.11.88L204,205.07A1.69,1.69,0,0,1,202.49,205.13Z" transform="translate(-4.24 -3.85)"/><path class="cls-12" d="M194.77,200.68l-4.87-2.82c-.4-.23-.35-.62.11-.88l4.83-2.79a1.67,1.67,0,0,1,1.52-.06l4.88,2.81c.39.23.34.62-.11.88l-4.83,2.79A1.73,1.73,0,0,1,194.77,200.68Z" transform="translate(-4.24 -3.85)"/><path class="cls-12" d="M225.45,218.39l-4.87-2.81c-.39-.23-.34-.62.11-.89l4.83-2.79a1.72,1.72,0,0,1,1.53-.06l4.87,2.82c.39.22.35.62-.11.88L227,218.33A1.69,1.69,0,0,1,225.45,218.39Z" transform="translate(-4.24 -3.85)"/><path class="cls-12" d="M233,222.74l-4.88-2.82c-.39-.22-.34-.62.11-.88l4.83-2.79a1.69,1.69,0,0,1,1.53-.06l4.87,2.81c.4.23.35.62-.11.89l-4.83,2.79A1.7,1.7,0,0,1,233,222.74Z" transform="translate(-4.24 -3.85)"/><path class="cls-12" d="M240.52,227.09l-4.88-2.82c-.39-.22-.34-.62.11-.88l4.83-2.79a1.69,1.69,0,0,1,1.53-.06l4.87,2.81c.4.23.35.62-.11.88L242,227A1.71,1.71,0,0,1,240.52,227.09Z" transform="translate(-4.24 -3.85)"/><path class="cls-12" d="M248.05,231.43l-4.88-2.81c-.39-.23-.34-.62.11-.88l4.83-2.79a1.73,1.73,0,0,1,1.53-.07l4.87,2.82c.4.23.35.62-.11.88l-4.83,2.79A1.67,1.67,0,0,1,248.05,231.43Z" transform="translate(-4.24 -3.85)"/><path class="cls-12" d="M255.58,235.78,250.7,233c-.39-.23-.34-.62.11-.89l4.83-2.79a1.72,1.72,0,0,1,1.53-.06l4.87,2.82c.4.22.35.62-.11.88l-4.83,2.79A1.67,1.67,0,0,1,255.58,235.78Z" transform="translate(-4.24 -3.85)"/><path class="cls-12" d="M263.11,240.13l-4.88-2.82c-.39-.22-.34-.62.11-.88l4.83-2.79a1.69,1.69,0,0,1,1.53-.06l4.87,2.81c.4.23.35.63-.1.89l-4.84,2.79A1.67,1.67,0,0,1,263.11,240.13Z" transform="translate(-4.24 -3.85)"/><path class="cls-12" d="M270.64,244.48l-4.88-2.82c-.39-.22-.34-.62.11-.88L270.7,238a1.69,1.69,0,0,1,1.53-.06l4.88,2.81c.39.23.34.62-.11.88l-4.84,2.79A1.71,1.71,0,0,1,270.64,244.48Z" transform="translate(-4.24 -3.85)"/><path class="cls-12" d="M278.17,248.82,273.29,246c-.39-.23-.34-.62.11-.88l4.83-2.79a1.73,1.73,0,0,1,1.53-.07l4.88,2.82c.39.23.34.62-.11.88l-4.84,2.79A1.67,1.67,0,0,1,278.17,248.82Z" transform="translate(-4.24 -3.85)"/><path class="cls-12" d="M285.7,253.17l-4.88-2.81c-.39-.23-.34-.62.11-.89l4.83-2.78a1.7,1.7,0,0,1,1.53-.07l4.88,2.82c.39.22.34.62-.11.88l-4.84,2.79A1.67,1.67,0,0,1,285.7,253.17Z" transform="translate(-4.24 -3.85)"/><path class="cls-12" d="M214,203.29l-4.88-2.82c-.39-.22-.34-.62.11-.88L214,196.8a1.69,1.69,0,0,1,1.53-.06l4.88,2.82c.39.22.34.62-.11.88l-4.83,2.79A1.69,1.69,0,0,1,214,203.29Z" transform="translate(-4.24 -3.85)"/><path class="cls-12" d="M206.47,199l-4.88-2.81c-.39-.23-.34-.62.11-.88l4.83-2.79a1.73,1.73,0,0,1,1.53-.07l4.88,2.82c.39.23.34.62-.11.88L208,198.9A1.67,1.67,0,0,1,206.47,199Z" transform="translate(-4.24 -3.85)"/><path class="cls-12" d="M199,194.64l-4.87-2.82c-.39-.22-.34-.62.11-.88l4.83-2.79a1.69,1.69,0,0,1,1.53-.06l4.87,2.81c.39.23.34.62-.11.89l-4.83,2.78A1.69,1.69,0,0,1,199,194.64Z" transform="translate(-4.24 -3.85)"/><path class="cls-12" d="M191.48,190.31l-4.88-2.81c-.39-.23-.34-.62.11-.89l4.84-2.78a1.67,1.67,0,0,1,1.52-.07l4.88,2.82c.39.22.34.62-.11.88L193,190.25A1.69,1.69,0,0,1,191.48,190.31Z" transform="translate(-4.24 -3.85)"/><path class="cls-12" d="M199.19,185.86l-4.88-2.81c-.39-.23-.34-.62.11-.88l1.6-.93a1.7,1.7,0,0,1,1.52-.06l4.88,2.82c.39.22.34.62-.11.88l-1.6.92A1.67,1.67,0,0,1,199.19,185.86Z" transform="translate(-4.24 -3.85)"/><path class="cls-12" d="M209,191.51l-4.87-2.82c-.39-.22-.34-.62.11-.88l1.59-.92a1.69,1.69,0,0,1,1.53-.06l4.88,2.81c.39.23.34.62-.11.88l-1.6.93A1.69,1.69,0,0,1,209,191.51Z" transform="translate(-4.24 -3.85)"/><path class="cls-12" d="M216.43,195.82,211.55,193c-.39-.22-.34-.62.11-.88l1.6-.92a1.71,1.71,0,0,1,1.52-.07l4.88,2.82c.39.23.34.62-.11.88l-1.6.92A1.71,1.71,0,0,1,216.43,195.82Z" transform="translate(-4.24 -3.85)"/><path class="cls-12" d="M223.89,200.12,219,197.31c-.39-.23-.34-.62.11-.88l1.6-.92a1.69,1.69,0,0,1,1.53-.07l4.87,2.82c.39.22.34.62-.11.88l-1.6.92A1.67,1.67,0,0,1,223.89,200.12Z" transform="translate(-4.24 -3.85)"/><path class="cls-12" d="M231.35,204.43l-4.88-2.81c-.39-.23-.34-.62.11-.88l1.6-.93a1.69,1.69,0,0,1,1.53-.06l4.87,2.82c.39.22.35.62-.11.88l-1.59.92A1.69,1.69,0,0,1,231.35,204.43Z" transform="translate(-4.24 -3.85)"/><path class="cls-12" d="M273,228.48l-4.88-2.81c-.39-.23-.34-.62.11-.88l1.6-.93a1.67,1.67,0,0,1,1.52-.06l4.88,2.82c.39.22.34.62-.11.88l-1.6.92A1.67,1.67,0,0,1,273,228.48Z" transform="translate(-4.24 -3.85)"/><path class="cls-12" d="M280.47,232.79,275.59,230c-.39-.23-.34-.62.11-.89l1.6-.92a1.69,1.69,0,0,1,1.53-.06l4.87,2.81c.39.23.34.63-.11.89l-1.6.92A1.67,1.67,0,0,1,280.47,232.79Z" transform="translate(-4.24 -3.85)"/><path class="cls-12" d="M287.93,237.1l-4.88-2.82c-.39-.22-.34-.62.11-.88l1.6-.92a1.69,1.69,0,0,1,1.53-.06l4.87,2.81c.39.23.35.62-.11.88l-1.59.93A1.69,1.69,0,0,1,287.93,237.1Z" transform="translate(-4.24 -3.85)"/><path class="cls-12" d="M295.39,241.41l-4.88-2.82c-.39-.22-.34-.62.11-.88l1.6-.92a1.73,1.73,0,0,1,1.53-.07l4.87,2.82c.4.23.35.62-.1.88l-1.6.92A1.7,1.7,0,0,1,295.39,241.41Z" transform="translate(-4.24 -3.85)"/><path class="cls-12" d="M221.49,207.64l-4.88-2.82c-.39-.22-.34-.62.11-.88l4.83-2.79a1.69,1.69,0,0,1,1.53-.06L228,203.9c.39.23.34.62-.11.88L223,207.57A1.7,1.7,0,0,1,221.49,207.64Z" transform="translate(-4.24 -3.85)"/><path class="cls-12" d="M229,212l-4.88-2.82c-.39-.23-.34-.62.11-.88l4.83-2.79a1.69,1.69,0,0,1,1.53-.06l4.88,2.81c.39.23.34.62-.11.88l-4.83,2.79A1.73,1.73,0,0,1,229,212Z" transform="translate(-4.24 -3.85)"/><path class="cls-12" d="M236.55,216.33l-4.88-2.81c-.39-.23-.34-.62.11-.88l4.84-2.79a1.71,1.71,0,0,1,1.52-.07L243,212.6c.39.22.34.62-.11.88l-4.83,2.79A1.69,1.69,0,0,1,236.55,216.33Z" transform="translate(-4.24 -3.85)"/><path class="cls-12" d="M244.08,220.68l-4.88-2.81c-.39-.23-.34-.63.11-.89l4.84-2.79a1.67,1.67,0,0,1,1.52-.06l4.88,2.82c.39.22.34.62-.11.88l-4.83,2.79A1.69,1.69,0,0,1,244.08,220.68Z" transform="translate(-4.24 -3.85)"/><path class="cls-12" d="M251.61,225l-4.88-2.82c-.39-.22-.34-.62.11-.88l4.84-2.79a1.67,1.67,0,0,1,1.52-.06l4.88,2.81c.39.23.34.62-.11.89L253.14,225A1.7,1.7,0,0,1,251.61,225Z" transform="translate(-4.24 -3.85)"/><path class="cls-12" d="M259.14,229.38l-4.88-2.82c-.39-.23-.34-.62.11-.88l4.84-2.79a1.67,1.67,0,0,1,1.52-.06l4.88,2.81c.39.23.34.62-.11.88l-4.83,2.79A1.73,1.73,0,0,1,259.14,229.38Z" transform="translate(-4.24 -3.85)"/><path class="cls-12" d="M266.67,233.72l-4.87-2.81c-.4-.23-.35-.62.1-.88l4.84-2.79a1.71,1.71,0,0,1,1.52-.07l4.88,2.82c.39.22.34.62-.11.88l-4.83,2.79A1.69,1.69,0,0,1,266.67,233.72Z" transform="translate(-4.24 -3.85)"/><path class="cls-12" d="M274.2,238.07l-4.87-2.81c-.4-.23-.35-.63.11-.89l4.83-2.79a1.67,1.67,0,0,1,1.52-.06l4.88,2.82c.39.22.34.62-.11.88L275.73,238A1.69,1.69,0,0,1,274.2,238.07Z" transform="translate(-4.24 -3.85)"/><path class="cls-12" d="M281.73,242.42l-4.87-2.82c-.4-.22-.35-.62.11-.88l4.83-2.79a1.67,1.67,0,0,1,1.52-.06l4.88,2.81c.39.23.34.62-.11.89l-4.83,2.79A1.72,1.72,0,0,1,281.73,242.42Z" transform="translate(-4.24 -3.85)"/><path class="cls-12" d="M178.44,208.17l-14.36-8.29c-.39-.22-.35-.62.11-.88l4.83-2.79a1.69,1.69,0,0,1,1.53-.06l14.36,8.29c.39.23.34.62-.11.88L180,208.11A1.69,1.69,0,0,1,178.44,208.17Z" transform="translate(-4.24 -3.85)"/><path class="cls-12" d="M271,261.59l-14.36-8.3c-.39-.22-.34-.62.11-.88l4.83-2.79a1.69,1.69,0,0,1,1.53-.06l14.36,8.29c.39.23.34.62-.11.88l-4.83,2.79A1.73,1.73,0,0,1,271,261.59Z" transform="translate(-4.24 -3.85)"/><path class="cls-12" d="M240.83,253.8,236,251c-.39-.23-.34-.62.11-.88l5.75-3.33a1.69,1.69,0,0,1,1.53-.06l4.88,2.81c.39.23.34.63-.11.89l-5.76,3.32A1.69,1.69,0,0,1,240.83,253.8Z" transform="translate(-4.24 -3.85)"/><path class="cls-12" d="M186.15,222.23l-7.8-4.5c-.39-.23-.34-.62.11-.88l5.76-3.33a1.67,1.67,0,0,1,1.52-.06l7.8,4.5c.39.23.34.62-.11.88l-5.75,3.33A1.69,1.69,0,0,1,186.15,222.23Z" transform="translate(-4.24 -3.85)"/><path class="cls-12" d="M233.58,249.61l-7.8-4.5c-.39-.22-.34-.62.11-.88l5.76-3.32a1.71,1.71,0,0,1,1.52-.07l7.8,4.51c.39.22.34.62-.11.88l-5.75,3.32A1.69,1.69,0,0,1,233.58,249.61Z" transform="translate(-4.24 -3.85)"/><path class="cls-12" d="M197,228.5l-7.79-4.5c-.4-.23-.35-.62.11-.88l5.75-3.32a1.7,1.7,0,0,1,1.53-.07l7.8,4.5c.39.23.34.63-.11.89l-5.76,3.32A1.69,1.69,0,0,1,197,228.5Z" transform="translate(-4.24 -3.85)"/><path class="cls-12" d="M196.66,219.76l33.91,19.58c.42.24.42.63,0,.88l-5.87,3.39a1.72,1.72,0,0,1-1.53,0L189.27,224Z" transform="translate(-4.24 -3.85)"/><path class="cls-12" d="M261.88,261.69l5.43,3.13c.32.19.28.51-.09.72l-2.35,1.36a1.39,1.39,0,0,1-1.25.06l-5.44-3.14c-.32-.19-.28-.51.09-.72l2.36-1.36A1.35,1.35,0,0,1,261.88,261.69Z" transform="translate(-4.24 -3.85)"/><path class="cls-12" d="M254.29,257.3l5.43,3.14c.32.18.28.51-.09.72l-2.36,1.36a1.38,1.38,0,0,1-1.25.05l-5.43-3.13c-.32-.19-.28-.51.09-.73l2.36-1.36A1.42,1.42,0,0,1,254.29,257.3Z" transform="translate(-4.24 -3.85)"/><path class="cls-12" d="M246.76,253l5.43,3.14c.32.19.28.51-.09.72l-2.36,1.36a1.35,1.35,0,0,1-1.25.05l-5.43-3.13c-.32-.19-.28-.51.09-.72l2.36-1.36A1.39,1.39,0,0,1,246.76,253Z" transform="translate(-4.24 -3.85)"/><path class="cls-12" d="M258.45,254.9l5.43,3.14c.32.18.28.51-.09.72l-2.36,1.36a1.38,1.38,0,0,1-1.25.05L254.75,257c-.32-.18-.28-.5.09-.72l2.35-1.36A1.44,1.44,0,0,1,258.45,254.9Z" transform="translate(-4.24 -3.85)"/></g><path class="cls-13" d="M338.14,246.11,194.28,163.05a6.39,6.39,0,0,1-2.64-7.11L224.18,50.31c.8-2.62,3.29-3.69,5.55-2.38L373.59,131a6.36,6.36,0,0,1,2.64,7.11L343.7,243.73C342.89,246.35,340.4,247.41,338.14,246.11Z" transform="translate(-4.24 -3.85)"/><path class="cls-14" d="M336.78,242.41,197.25,161.78a6.1,6.1,0,0,1-2.53-6.81L225.83,54c.77-2.5,3.15-3.52,5.31-2.27l139.54,80.63a6.07,6.07,0,0,1,2.52,6.8l-31.1,101C341.33,242.64,339,243.66,336.78,242.41Z" transform="translate(-4.24 -3.85)"/><path class="cls-15" d="M336.78,242.41,197.25,161.78a6.1,6.1,0,0,1-2.53-6.81L225.83,54c.77-2.5,3.15-3.52,5.31-2.27l139.54,80.63a6.07,6.07,0,0,1,2.52,6.8l-31.1,101C341.33,242.64,339,243.66,336.78,242.41Z" transform="translate(-4.24 -3.85)"/><path class="cls-15" d="M336.78,242.41,197.25,161.78a6.1,6.1,0,0,1-2.53-6.81L225.83,54c.77-2.5,3.15-3.52,5.31-2.27l139.54,80.63a6.07,6.07,0,0,1,2.52,6.8l-31.1,101C341.33,242.64,339,243.66,336.78,242.41Z" transform="translate(-4.24 -3.85)"/><path class="cls-16" d="M329.29,211.55,234.83,157a4.18,4.18,0,0,1-1.73-4.67L254.46,83a2.43,2.43,0,0,1,3.65-1.56L352.57,136a4.19,4.19,0,0,1,1.73,4.67L332.94,210A2.44,2.44,0,0,1,329.29,211.55Z" transform="translate(-4.24 -3.85)"/><path class="cls-17" d="M316.53,213.22l-94.46-54.54a4.18,4.18,0,0,1-1.74-4.66L241.7,84.66a2.42,2.42,0,0,1,3.64-1.56l94.46,54.53a4.18,4.18,0,0,1,1.73,4.67l-21.36,69.36A2.42,2.42,0,0,1,316.53,213.22Z" transform="translate(-4.24 -3.85)"/><g class="cls-18"><path class="cls-12" d="M316.53,213.22l-94.46-54.54a4.18,4.18,0,0,1-1.74-4.66L241.7,84.66a2.42,2.42,0,0,1,3.64-1.56l94.46,54.53a4.18,4.18,0,0,1,1.73,4.67l-21.36,69.36A2.42,2.42,0,0,1,316.53,213.22Z" transform="translate(-4.24 -3.85)"/></g><path class="cls-10" d="M339.8,137.63,245.34,83.1a2.32,2.32,0,0,0-2.65.09,2.49,2.49,0,0,1,1.36.35l94.46,54.53a4.19,4.19,0,0,1,1.73,4.67L318.88,212.1a2.88,2.88,0,0,1-1,1.47,2.49,2.49,0,0,0,2.28-1.91l21.36-69.36A4.18,4.18,0,0,0,339.8,137.63Z" transform="translate(-4.24 -3.85)"/><path class="cls-15" d="M197.39,269.86a7.1,7.1,0,0,1-3.5-.82h0L156,247.19a2.74,2.74,0,0,1-1.55-2.33,3.58,3.58,0,0,1,2.09-2.9l19.48-11.24a8.69,8.69,0,0,1,7.95-.31l37.85,21.85a2.74,2.74,0,0,1,1.55,2.33,3.57,3.57,0,0,1-2.08,2.89l-19.48,11.25A9.12,9.12,0,0,1,197.39,269.86ZM180.53,230.7a8.11,8.11,0,0,0-3.93,1l-19.48,11.25c-1,.57-1.54,1.28-1.54,2a1.72,1.72,0,0,0,1,1.38l37.85,21.85c1.71,1,4.85.85,6.86-.31l19.48-11.24c1-.57,1.54-1.28,1.54-2a1.72,1.72,0,0,0-1-1.38l-37.84-21.85A6,6,0,0,0,180.53,230.7Z" transform="translate(-4.24 -3.85)"/><path class="cls-10" d="M268.35,119.48l-5.84-3.37a1.53,1.53,0,0,1-.65-1.68h0a.86.86,0,0,1,1.31-.54l5.84,3.37a1.5,1.5,0,0,1,.65,1.68h0A.86.86,0,0,1,268.35,119.48Z" transform="translate(-4.24 -3.85)"/><path class="cls-10" d="M282.26,127.52l-8.61-5a1.52,1.52,0,0,1-.65-1.67h0a.86.86,0,0,1,1.31-.55l8.62,5a1.51,1.51,0,0,1,.64,1.68h0A.87.87,0,0,1,282.26,127.52Z" transform="translate(-4.24 -3.85)"/><path class="cls-10" d="M256.57,145.48l-5.84-3.37a1.53,1.53,0,0,1-.65-1.68h0a.87.87,0,0,1,1.32-.54l5.84,3.37a1.53,1.53,0,0,1,.65,1.68h0A.87.87,0,0,1,256.57,145.48Z" transform="translate(-4.24 -3.85)"/><path class="cls-10" d="M269,152.64l-8.61-5a1.53,1.53,0,0,1-.65-1.68h0a.87.87,0,0,1,1.32-.54l8.61,5a1.53,1.53,0,0,1,.65,1.68h0A.87.87,0,0,1,269,152.64Z" transform="translate(-4.24 -3.85)"/><path class="cls-10" d="M250.86,114.85l-3.65-2.11a1.52,1.52,0,0,1-.65-1.67h0a.86.86,0,0,1,1.31-.55l3.65,2.11a1.52,1.52,0,0,1,.65,1.67h0A.86.86,0,0,1,250.86,114.85Z" transform="translate(-4.24 -3.85)"/><path class="cls-10" d="M261.83,126.66l-11.14-6.44a1.53,1.53,0,0,1-.65-1.68h0a.87.87,0,0,1,1.31-.55l11.15,6.44a1.53,1.53,0,0,1,.65,1.68h0A.88.88,0,0,1,261.83,126.66Z" transform="translate(-4.24 -3.85)"/><path class="cls-10" d="M251.55,131.65l-3.64-2.1a1.51,1.51,0,0,1-.65-1.68h0a.86.86,0,0,1,1.31-.55l3.65,2.11a1.53,1.53,0,0,1,.65,1.68h0A.87.87,0,0,1,251.55,131.65Z" transform="translate(-4.24 -3.85)"/><path class="cls-10" d="M270.32,164.35l-9.75-5.62a1.52,1.52,0,0,1-.64-1.68h0a.86.86,0,0,1,1.31-.55l9.74,5.63a1.53,1.53,0,0,1,.65,1.68h0A.86.86,0,0,1,270.32,164.35Z" transform="translate(-4.24 -3.85)"/><path class="cls-10" d="M247.47,140.23l-2.35-1.36a1.53,1.53,0,0,1-.65-1.68h0a.87.87,0,0,1,1.32-.54l2.34,1.35a1.53,1.53,0,0,1,.65,1.68h0A.87.87,0,0,1,247.47,140.23Z" transform="translate(-4.24 -3.85)"/><path class="cls-10" d="M245.25,149.88l-2.91-1.68a1.53,1.53,0,0,1-.65-1.68h0A.88.88,0,0,1,243,146l2.9,1.68a1.52,1.52,0,0,1,.65,1.68h0A.86.86,0,0,1,245.25,149.88Z" transform="translate(-4.24 -3.85)"/><path class="cls-10" d="M256.56,156.41,248.9,152a1.49,1.49,0,0,1-.65-1.67h0a.86.86,0,0,1,1.31-.55l7.67,4.43a1.52,1.52,0,0,1,.65,1.67h0A.87.87,0,0,1,256.56,156.41Z" transform="translate(-4.24 -3.85)"/><path class="cls-10" d="M246.46,156.05,241,152.86a1.53,1.53,0,0,1-.65-1.68h0a.86.86,0,0,1,1.31-.54l5.52,3.18a1.53,1.53,0,0,1,.65,1.68h0A.88.88,0,0,1,246.46,156.05Z" transform="translate(-4.24 -3.85)"/><path class="cls-10" d="M278.68,169.2l-3.54-2a1.52,1.52,0,0,1-.65-1.68h0a.86.86,0,0,1,1.31-.55l3.54,2a1.53,1.53,0,0,1,.65,1.68h0A.86.86,0,0,1,278.68,169.2Z" transform="translate(-4.24 -3.85)"/><path class="cls-10" d="M265.12,139.49l-9.74-5.63a1.53,1.53,0,0,1-.65-1.68h0a.86.86,0,0,1,1.31-.54l9.75,5.62a1.54,1.54,0,0,1,.65,1.68h0A.87.87,0,0,1,265.12,139.49Z" transform="translate(-4.24 -3.85)"/><path class="cls-19" d="M266.28,134.69l-17-9.81a1.51,1.51,0,0,1-.65-1.68h0a.86.86,0,0,1,1.31-.54l17,9.8a1.51,1.51,0,0,1,.65,1.68h0A.86.86,0,0,1,266.28,134.69Z" transform="translate(-4.24 -3.85)"/><path class="cls-19" d="M256.26,139.84l-9.75-5.63a1.51,1.51,0,0,1-.64-1.68h0a.87.87,0,0,1,1.31-.55l9.74,5.63a1.53,1.53,0,0,1,.65,1.68h0A.87.87,0,0,1,256.26,139.84Z" transform="translate(-4.24 -3.85)"/><path class="cls-19" d="M272.51,143.75l-3.54-2a1.51,1.51,0,0,1-.64-1.68h0a.86.86,0,0,1,1.31-.54l3.54,2a1.53,1.53,0,0,1,.65,1.68h0A.87.87,0,0,1,272.51,143.75Z" transform="translate(-4.24 -3.85)"/><path class="cls-19" d="M308.53,142.68l-21-12.1a1.54,1.54,0,0,1-.65-1.68h0a.86.86,0,0,1,1.31-.55l21,12.1a1.54,1.54,0,0,1,.65,1.68h0A.86.86,0,0,1,308.53,142.68Z" transform="translate(-4.24 -3.85)"/><path class="cls-20" d="M255.45,150.3l-11.72-6.76a1.54,1.54,0,0,1-.65-1.68h0a.87.87,0,0,1,1.32-.55l11.71,6.76a1.54,1.54,0,0,1,.65,1.68h0A.86.86,0,0,1,255.45,150.3Z" transform="translate(-4.24 -3.85)"/><path class="cls-20" d="M257.21,113.05l-8.61-5a1.53,1.53,0,0,1-.65-1.68h0a.86.86,0,0,1,1.31-.54l8.62,5a1.51,1.51,0,0,1,.64,1.68h0A.86.86,0,0,1,257.21,113.05Z" transform="translate(-4.24 -3.85)"/><path class="cls-19" d="M244.66,160.47l-10-5.75A1.54,1.54,0,0,1,234,153h0a.86.86,0,0,1,1.31-.55l10,5.76a1.51,1.51,0,0,1,.64,1.68h0A.86.86,0,0,1,244.66,160.47Z" transform="translate(-4.24 -3.85)"/><path class="cls-10" d="M310.88,131.9l-4.27-2.47a1.09,1.09,0,0,1-.47-1.22h0a.63.63,0,0,1,1-.4l4.26,2.46a1.12,1.12,0,0,1,.48,1.23h0A.63.63,0,0,1,310.88,131.9Z" transform="translate(-4.24 -3.85)"/><path class="cls-10" d="M319,136.6l-4.27-2.47a1.1,1.1,0,0,1-.47-1.22h0a.63.63,0,0,1,1-.4l4.27,2.46a1.13,1.13,0,0,1,.47,1.23h0A.63.63,0,0,1,319,136.6Z" transform="translate(-4.24 -3.85)"/><path class="cls-10" d="M327.16,141.3l-4.27-2.47a1.11,1.11,0,0,1-.47-1.22h0a.63.63,0,0,1,1-.4l4.27,2.46a1.12,1.12,0,0,1,.47,1.23h0A.63.63,0,0,1,327.16,141.3Z" transform="translate(-4.24 -3.85)"/><path class="cls-20" d="M331.17,143.61l-.13-.07a1.12,1.12,0,0,1-.48-1.23h0a.63.63,0,0,1,1-.4l.13.08a1.1,1.1,0,0,1,.48,1.22h0A.63.63,0,0,1,331.17,143.61Z" transform="translate(-4.24 -3.85)"/><path class="cls-21" d="M110.85,193.57a15.63,15.63,0,0,1-7.81-2.09h0L74.45,175a4,4,0,0,1,0-6.86L103,151.6a15.69,15.69,0,0,1,15.63,0l28.59,16.51a4,4,0,0,1,0,6.86l-28.59,16.51A15.67,15.67,0,0,1,110.85,193.57Zm-6.88-3.7a13.82,13.82,0,0,0,13.77,0l28.59-16.51a2.09,2.09,0,0,0,0-3.63l-28.59-16.51a13.79,13.79,0,0,0-13.77,0l-28.6,16.5a2.11,2.11,0,0,0,0,3.64Z" transform="translate(-4.24 -3.85)"/><ellipse class="cls-5" cx="106.47" cy="168.08" rx="19.64" ry="11.34"/><path class="cls-22" d="M139.82,91.11H83.88l5.2,60.57h0c0,3.37,2.23,6.73,6.67,9.3,8.89,5.13,23.31,5.13,32.2,0,4.45-2.57,6.67-5.93,6.67-9.3Z" transform="translate(-4.24 -3.85)"/><path class="cls-15" d="M139.82,91.11H83.88l.86,10a21.63,21.63,0,0,0,5.18,4.66c10.69,7.09,28.33,8.46,40.36,3.35l-1.86,44.3a8.63,8.63,0,0,1-2,5.28c-1.81,2.14-5.3,4.65-12,6.06A31.52,31.52,0,0,0,128,161c4.45-2.57,6.67-5.93,6.67-9.3l4.17-48.57h0Z" transform="translate(-4.24 -3.85)"/><ellipse class="cls-15" cx="107.61" cy="87.26" rx="27.97" ry="16.15"/><ellipse class="cls-15" cx="107.61" cy="81.57" rx="24.09" ry="13.91"/><path class="cls-23" d="M141.48,90.35h0v0a.28.28,0,0,1,0-.09l-.54-5.42,0,.06c-.24-4.1-3.07-8.17-8.5-11.3-11.35-6.56-29.77-6.56-41.12,0-5.57,3.21-8.4,7.4-8.51,11.61h0L82.26,90c0,.12,0,.25,0,.37v.08h0c-.31,4.6,2.58,9.26,8.66,12.77,11.58,6.69,30.36,6.69,41.94,0C139,99.68,141.83,95,141.48,90.35Z" transform="translate(-4.24 -3.85)"/><ellipse class="cls-24" cx="107.61" cy="81.57" rx="24.09" ry="13.91"/><ellipse class="cls-25" cx="106.47" cy="81.57" rx="24.09" ry="13.91"/><path class="cls-15" d="M97.67,77.66c9.41-5.44,24.67-5.44,34.07,0l.34.21a19.64,19.64,0,0,0-3.19-2.29c-9.41-5.43-24.67-5.43-34.07,0s-9.39,14-.34,19.46C88.43,89.65,89.49,82.38,97.67,77.66Z" transform="translate(-4.24 -3.85)"/><path class="cls-26" d="M94.82,78c9.4-5.43,24.66-5.43,34.07,0,4.17,2.41,6.49,5.48,7,8.63.59-3.95-1.73-8-7-11-9.41-5.43-24.67-5.43-34.07,0-5.24,3-7.56,7.1-7,11C88.33,83.48,90.64,80.41,94.82,78Z" transform="translate(-4.24 -3.85)"/><path class="cls-27" d="M132.59,73.69c-11.34-6.69-29.82-6.85-41.27-.37s-11.55,17.15-.21,23.83,29.82,6.85,41.27.37S143.93,80.37,132.59,73.69Zm-3.7,21.57a31.74,31.74,0,0,1-11,3.61l-.44-1.44a1.37,1.37,0,0,0-1.31-1h-8.65a1.37,1.37,0,0,0-1.32,1l-.44,1.44a31.62,31.62,0,0,1-11-3.61c-9.41-5.44-9.41-14.24,0-19.68s24.66-5.43,34.07,0S138.3,89.82,128.89,95.26Z" transform="translate(-4.24 -3.85)"/><path class="cls-10" d="M128.89,74.55c-9.41-5.43-24.67-5.43-34.07,0-4.94,2.85-7.28,6.63-7,10.35.22-3.38,2.56-6.73,7-9.32,9.4-5.43,24.66-5.43,34.07,0,4.47,2.59,6.82,5.94,7,9.33C136.16,81.18,133.82,77.4,128.89,74.55Z" transform="translate(-4.24 -3.85)"/><path class="cls-10" d="M132.38,96.49c-11.45,6.48-29.93,6.32-41.27-.37-5.4-3.18-8.2-7.26-8.43-11.36-.22,4.44,2.58,8.95,8.43,12.39,11.34,6.68,29.82,6.85,41.27.37,6-3.4,8.89-8,8.64-12.47C140.81,89.23,137.93,93.35,132.38,96.49Z" transform="translate(-4.24 -3.85)"/><rect class="cls-28" x="104.37" y="94.36" width="6.48" height="1.4" rx="0.65"/><path class="cls-29" d="M114.44,98.22h-5.17a.65.65,0,0,0-.66.65V99a.58.58,0,0,0,0,.18.63.63,0,0,1,.62-.48h5.17a.62.62,0,0,1,.61.48.58.58,0,0,0,0-.18v-.09A.65.65,0,0,0,114.44,98.22Z" transform="translate(-4.24 -3.85)"/><path class="cls-19" d="M112.64,145.46a4.47,4.47,0,0,1-8.64-2.3c.64-2.38,2.89-3.06,5.27-2.42S113.28,143.07,112.64,145.46Z" transform="translate(-4.24 -3.85)"/><path class="cls-19" d="M116.16,140.75a2,2,0,1,1-2.76-2.83c.89-.88,2.61-1.31,3.37-.53S117.06,139.87,116.16,140.75Z" transform="translate(-4.24 -3.85)"/><path class="cls-19" d="M111.49,137a2,2,0,1,1-3.9-.69c.22-1.24,1.36-2.59,2.44-2.4S111.71,135.77,111.49,137Z" transform="translate(-4.24 -3.85)"/><path class="cls-19" d="M105.73,136.44a2,2,0,1,1-3.66,1.51c-.48-1.17-.24-2.92.77-3.33S105.25,135.28,105.73,136.44Z" transform="translate(-4.24 -3.85)"/><path class="cls-30" d="M113.68,98.92S129.32,93.67,123,75.7,104.33,52.26,109.3,37.88c0,0-7.79,11.64-.51,27.38s8.86,13.94,8.78,21.47a13.59,13.59,0,0,1-7.33,12.19Z" transform="translate(-4.24 -3.85)"/><path class="cls-30" d="M115.09,40.38s-1.63-10.75,8.45-21.58c0,0-8.91,19.91-6,29.75C117.54,48.55,115.19,42.3,115.09,40.38Z" transform="translate(-4.24 -3.85)"/><circle class="cls-31" cx="73.15" cy="215.66" r="23.51"/><circle class="cls-32" cx="54.72" cy="109.34" r="9.74"/><circle class="cls-33" cx="386.75" cy="148.22" r="17.5" transform="translate(4.23 313.04) rotate(-45)"/><path class="cls-34" d="M391.24,219.1c-7,1.37-14.66-.82-17-4.88s1.42-8.47,8.46-9.83,14.66.82,17,4.88S398.27,217.74,391.24,219.1Z" transform="translate(-4.24 -3.85)"/><ellipse class="cls-34" cx="73.43" cy="284.25" rx="18.7" ry="10.8"/><path class="cls-34" d="M61.16,156c-3.52.68-7.32-.41-8.51-2.44s.71-4.23,4.23-4.91,7.32.41,8.5,2.44S64.67,155.35,61.16,156Z" transform="translate(-4.24 -3.85)"/><circle class="cls-35" cx="167.91" cy="9.02" r="2.49"/><circle class="cls-35" cx="124.18" cy="262.66" r="3.01"/><path class="cls-36" d="M110.92,253.21a1.55,1.55,0,1,1-1.55-1.55A1.55,1.55,0,0,1,110.92,253.21Z" transform="translate(-4.24 -3.85)"/><path class="cls-36" d="M373.51,196.1a1.6,1.6,0,1,1-1.6-1.6A1.6,1.6,0,0,1,373.51,196.1Z" transform="translate(-4.24 -3.85)"/><circle class="cls-36" cx="71.18" cy="84.32" r="2.25"/><path class="cls-36" d="M245.88,6.1a2.25,2.25,0,1,1-2.25-2.25A2.25,2.25,0,0,1,245.88,6.1Z" transform="translate(-4.24 -3.85)"/><path class="cls-36" d="M86.83,83.18a1.25,1.25,0,1,1-1.24-1.24A1.24,1.24,0,0,1,86.83,83.18Z" transform="translate(-4.24 -3.85)"/><path class="cls-37" d="M301.36,14.14a1.47,1.47,0,1,1-1.47-1.47A1.47,1.47,0,0,1,301.36,14.14Z" transform="translate(-4.24 -3.85)"/><polygon class="cls-38" points="80.88 158.12 80.34 156.19 84.62 155 83.43 150.71 85.35 150.18 87.09 156.38 80.88 158.12"/><polygon class="cls-38" points="77.11 164.83 76.57 162.9 80.85 161.71 79.65 157.42 81.58 156.88 83.31 163.09 77.11 164.83"/><polygon class="cls-38" points="81.12 162.67 79.38 156.46 85.59 154.73 86.13 156.65 81.84 157.85 83.04 162.13 81.12 162.67"/><path class="cls-38" d="M233.05,18.9a4.76,4.76,0,1,1,4.76-4.76A4.76,4.76,0,0,1,233.05,18.9Zm0-7.52a2.76,2.76,0,1,0,2.76,2.76A2.76,2.76,0,0,0,233.05,11.38Z" transform="translate(-4.24 -3.85)"/><path class="cls-38" d="M337.46,257.06l-5.4-5.4,5.4-5.4,5.4,5.4Zm-2.58-5.4,2.58,2.57,2.57-2.57-2.57-2.58Z" transform="translate(-4.24 -3.85)"/><rect class="cls-39" x="351.5" y="59.41" width="2" height="8.18" transform="translate(54.13 264.03) rotate(-45.01)"/><rect class="cls-39" x="348.41" y="62.5" width="8.18" height="2" transform="translate(54.11 264.01) rotate(-45)"/></g></g></svg>