<svg id="Camada_1" data-name="Camada 1" xmlns="http://www.w3.org/2000/svg" viewBox="0 0 1418.07 1148"><defs><style>.cls-1{fill:#2d2d2b;}.cls-2{opacity:0.1;}.cls-3,.cls-5{fill:#fff;}.cls-4{opacity:0.5;}.cls-5{opacity:0.05;}</style></defs><title>bg-sec-3</title><rect class="cls-1" y="59" width="1418.07" height="1089"/><g class="cls-2"><path class="cls-3" d="M1232.59,59h-6.53a5.57,5.57,0,1,0,6.53,0Z" transform="translate(30)"/><path class="cls-3" d="M1328.85,113.23a2.2,2.2,0,1,0,2.2-2.2A2.2,2.2,0,0,0,1328.85,113.23Z" transform="translate(30)"/><path class="cls-3" d="M1166.26,81.54a2.2,2.2,0,1,0,2.2-2.2A2.19,2.19,0,0,0,1166.26,81.54Z" transform="translate(30)"/><path class="cls-3" d="M1208.78,94.35a2.2,2.2,0,1,0,2.2-2.2A2.2,2.2,0,0,0,1208.78,94.35Z" transform="translate(30)"/><path class="cls-3" d="M1129.27,69a2.2,2.2,0,1,0,2.21-2.2A2.2,2.2,0,0,0,1129.27,69Z" transform="translate(30)"/><path class="cls-3" d="M1287.43,81.54a1,1,0,1,0,1-1A1,1,0,0,0,1287.43,81.54Z" transform="translate(30)"/><path class="cls-3" d="M1243.37,118.1a1,1,0,1,0,1-1A1,1,0,0,0,1243.37,118.1Z" transform="translate(30)"/><path class="cls-3" d="M1266.59,102.39a1,1,0,1,0,1-1A1,1,0,0,0,1266.59,102.39Z" transform="translate(30)"/><path class="cls-3" d="M1183.21,62.37a1,1,0,1,0,1-1A1,1,0,0,0,1183.21,62.37Z" transform="translate(30)"/><path class="cls-3" d="M1164.17,103.93a1,1,0,1,0,1-1A1,1,0,0,0,1164.17,103.93Z" transform="translate(30)"/><path class="cls-3" d="M1353.43,105.59a1,1,0,1,0,1.92,0,1,1,0,0,0-1.92,0Z" transform="translate(30)"/><path class="cls-3" d="M957.29,128.24a5.56,5.56,0,1,0,5.57-5.56A5.55,5.55,0,0,0,957.29,128.24Z" transform="translate(30)"/><path class="cls-3" d="M1060.93,113.23a2.2,2.2,0,1,0,2.2-2.2A2.2,2.2,0,0,0,1060.93,113.23Z" transform="translate(30)"/><path class="cls-3" d="M898.34,81.54a2.2,2.2,0,1,0,2.2-2.2A2.19,2.19,0,0,0,898.34,81.54Z" transform="translate(30)"/><path class="cls-3" d="M940.86,94.35a2.2,2.2,0,1,0,2.21-2.2A2.2,2.2,0,0,0,940.86,94.35Z" transform="translate(30)"/><path class="cls-3" d="M861.36,69a2.2,2.2,0,1,0,2.19-2.2A2.19,2.19,0,0,0,861.36,69Z" transform="translate(30)"/><path class="cls-3" d="M1019.52,81.54a1,1,0,1,0,1-1A1,1,0,0,0,1019.52,81.54Z" transform="translate(30)"/><path class="cls-3" d="M975.45,118.1a1,1,0,1,0,1-1A1,1,0,0,0,975.45,118.1Z" transform="translate(30)"/><path class="cls-3" d="M998.67,102.39a1,1,0,1,0,1-1A1,1,0,0,0,998.67,102.39Z" transform="translate(30)"/><path class="cls-3" d="M915.29,62.37a1,1,0,1,0,1-1A1,1,0,0,0,915.29,62.37Z" transform="translate(30)"/><path class="cls-3" d="M896.24,103.93a1,1,0,1,0,1-1A1,1,0,0,0,896.24,103.93Z" transform="translate(30)"/><path class="cls-3" d="M1085.51,105.59a1,1,0,1,0,1.93,0,1,1,0,0,0-1.93,0Z" transform="translate(30)"/><path class="cls-3" d="M793,113.23a2.2,2.2,0,1,0,2.2-2.2A2.2,2.2,0,0,0,793,113.23Z" transform="translate(30)"/><path class="cls-3" d="M630.42,81.54a2.2,2.2,0,1,0,2.2-2.2A2.2,2.2,0,0,0,630.42,81.54Z" transform="translate(30)"/><path class="cls-3" d="M672.94,94.35a2.2,2.2,0,1,0,2.2-2.2A2.2,2.2,0,0,0,672.94,94.35Z" transform="translate(30)"/><path class="cls-3" d="M593.43,69a2.2,2.2,0,1,0,2.21-2.2A2.2,2.2,0,0,0,593.43,69Z" transform="translate(30)"/><path class="cls-3" d="M751.59,81.54a1,1,0,1,0,1-1A1,1,0,0,0,751.59,81.54Z" transform="translate(30)"/><path class="cls-3" d="M707.53,118.1a1,1,0,1,0,1-1A1,1,0,0,0,707.53,118.1Z" transform="translate(30)"/><path class="cls-3" d="M730.75,102.39a1,1,0,1,0,1-1A1,1,0,0,0,730.75,102.39Z" transform="translate(30)"/><path class="cls-3" d="M647.37,62.37a1,1,0,1,0,1-1A1,1,0,0,0,647.37,62.37Z" transform="translate(30)"/><path class="cls-3" d="M628.33,103.93a1,1,0,1,0,1-1A1,1,0,0,0,628.33,103.93Z" transform="translate(30)"/><path class="cls-3" d="M817.59,105.59a1,1,0,1,0,1.93,0,1,1,0,0,0-1.93,0Z" transform="translate(30)"/><path class="cls-3" d="M592.1,92.66a5.56,5.56,0,1,0,5.56-5.56A5.56,5.56,0,0,0,592.1,92.66Z" transform="translate(30)"/><path class="cls-3" d="M428.83,59H422.3a5.57,5.57,0,1,0,6.53,0Z" transform="translate(30)"/><path class="cls-3" d="M525.09,113.23a2.2,2.2,0,1,0,2.2-2.2A2.2,2.2,0,0,0,525.09,113.23Z" transform="translate(30)"/><path class="cls-3" d="M362.5,81.54a2.2,2.2,0,1,0,2.2-2.2A2.2,2.2,0,0,0,362.5,81.54Z" transform="translate(30)"/><path class="cls-3" d="M405,94.35a2.2,2.2,0,1,0,2.21-2.2A2.2,2.2,0,0,0,405,94.35Z" transform="translate(30)"/><path class="cls-3" d="M325.52,69a2.2,2.2,0,1,0,2.19-2.2A2.19,2.19,0,0,0,325.52,69Z" transform="translate(30)"/><path class="cls-3" d="M483.68,81.54a1,1,0,1,0,1-1A1,1,0,0,0,483.68,81.54Z" transform="translate(30)"/><path class="cls-3" d="M439.61,118.1a1,1,0,1,0,1-1A1,1,0,0,0,439.61,118.1Z" transform="translate(30)"/><path class="cls-3" d="M462.83,102.39a1,1,0,1,0,1-1A1,1,0,0,0,462.83,102.39Z" transform="translate(30)"/><path class="cls-3" d="M379.45,62.37a1,1,0,1,0,1-1A1,1,0,0,0,379.45,62.37Z" transform="translate(30)"/><circle class="cls-3" cx="391.37" cy="103.93" r="0.96"/><path class="cls-3" d="M549.67,105.59a1,1,0,1,0,1.92,0,1,1,0,0,0-1.92,0Z" transform="translate(30)"/><path class="cls-3" d="M236.36,113.23a5.56,5.56,0,1,0,5.56-5.56A5.56,5.56,0,0,0,236.36,113.23Z" transform="translate(30)"/><path class="cls-3" d="M160.91,59h-6.53a5.57,5.57,0,1,0,6.53,0Z" transform="translate(30)"/><path class="cls-3" d="M257.17,113.23a2.2,2.2,0,1,0,2.2-2.2A2.2,2.2,0,0,0,257.17,113.23Z" transform="translate(30)"/><path class="cls-3" d="M94.58,81.54a2.2,2.2,0,1,0,2.2-2.2A2.2,2.2,0,0,0,94.58,81.54Z" transform="translate(30)"/><path class="cls-3" d="M137.11,94.35a2.2,2.2,0,1,0,2.19-2.2A2.19,2.19,0,0,0,137.11,94.35Z" transform="translate(30)"/><path class="cls-3" d="M57.6,69a2.2,2.2,0,1,0,2.2-2.2A2.19,2.19,0,0,0,57.6,69Z" transform="translate(30)"/><path class="cls-3" d="M215.76,81.54a1,1,0,1,0,1-1A1,1,0,0,0,215.76,81.54Z" transform="translate(30)"/><circle class="cls-3" cx="202.66" cy="118.1" r="0.96"/><path class="cls-3" d="M194.91,102.39a1,1,0,1,0,1-1A1,1,0,0,0,194.91,102.39Z" transform="translate(30)"/><path class="cls-3" d="M111.54,62.37a1,1,0,1,0,1-1A1,1,0,0,0,111.54,62.37Z" transform="translate(30)"/><path class="cls-3" d="M92.48,103.93a1,1,0,1,0,1-1A1,1,0,0,0,92.48,103.93Z" transform="translate(30)"/><path class="cls-3" d="M281.75,105.59a1,1,0,1,0,1.92,0,1,1,0,0,0-1.92,0Z" transform="translate(30)"/><path class="cls-3" d="M-10.75,113.23a2.2,2.2,0,0,0,2.2,2.2,2.21,2.21,0,0,0,2.2-2.2,2.2,2.2,0,0,0-2.2-2.2A2.19,2.19,0,0,0-10.75,113.23Z" transform="translate(30)"/><path class="cls-3" d="M13.83,105.59a1,1,0,1,0,1.93,0,1,1,0,0,0-1.93,0Z" transform="translate(30)"/><path class="cls-3" d="M53.13,183.55A5.56,5.56,0,1,1,47.57,178,5.56,5.56,0,0,1,53.13,183.55Z" transform="translate(30)"/><circle class="cls-3" cx="128.74" cy="262.19" r="5.56" transform="translate(-126.08 326.98) rotate(-76.66)"/><path class="cls-3" d="M29.5,240.1a2.2,2.2,0,1,1-2.2-2.2A2.2,2.2,0,0,1,29.5,240.1Z" transform="translate(30)"/><path class="cls-3" d="M102.59,232.43a2.2,2.2,0,1,1-2.19-2.2A2.19,2.19,0,0,1,102.59,232.43Z" transform="translate(30)"/><path class="cls-3" d="M29.22,311.94a2.2,2.2,0,1,1-2.2-2.2A2.19,2.19,0,0,1,29.22,311.94Z" transform="translate(30)"/><path class="cls-3" d="M-6.63,212.42a2.19,2.19,0,0,1-2.2,2.2,2.19,2.19,0,0,1-2.2-2.2,2.19,2.19,0,0,1,2.2-2.2A2.19,2.19,0,0,1-6.63,212.42Z" transform="translate(30)"/><circle class="cls-3" cx="219.61" cy="280.26" r="2.2"/><path class="cls-3" d="M149.29,293.07a2.2,2.2,0,1,1-2.21-2.2A2.2,2.2,0,0,1,149.29,293.07Z" transform="translate(30)"/><path class="cls-3" d="M228.8,267.75a2.2,2.2,0,1,1-2.2-2.2A2.21,2.21,0,0,1,228.8,267.75Z" transform="translate(30)"/><circle class="cls-3" cx="165.41" cy="156.02" r="2.2"/><path class="cls-3" d="M129.17,200.63a1,1,0,1,1-1-1A1,1,0,0,1,129.17,200.63Z" transform="translate(30)"/><path class="cls-3" d="M181.4,202.59a1,1,0,1,1-1-1A1,1,0,0,1,181.4,202.59Z" transform="translate(30)"/><path class="cls-3" d="M160.55,178.67a1,1,0,1,1-1-1A1,1,0,0,1,160.55,178.67Z" transform="translate(30)"/><path class="cls-3" d="M60.5,215.1a1,1,0,1,1-1-1A1,1,0,0,1,60.5,215.1Z" transform="translate(30)"/><path class="cls-3" d="M70.64,280.26a1,1,0,1,1-1-1A1,1,0,0,1,70.64,280.26Z" transform="translate(30)"/><path class="cls-3" d="M114.7,316.82a1,1,0,1,1-1-1A1,1,0,0,1,114.7,316.82Z" transform="translate(30)"/><path class="cls-3" d="M91.48,301.1a1,1,0,1,1-1-1A1,1,0,0,1,91.48,301.1Z" transform="translate(30)"/><path class="cls-3" d="M174.86,261.08a1,1,0,1,1-1-1A1,1,0,0,1,174.86,261.08Z" transform="translate(30)"/><path class="cls-3" d="M193.91,302.64a1,1,0,1,1-1-1A1,1,0,0,1,193.91,302.64Z" transform="translate(30)"/><circle class="cls-3" cx="251.16" cy="228.56" r="0.96"/><path class="cls-3" d="M223,164.36a1,1,0,1,1-1-1A1,1,0,0,1,223,164.36Z" transform="translate(30)"/><path class="cls-3" d="M97.06,180.2a1,1,0,1,1-1-1A1,1,0,0,1,97.06,180.2Z" transform="translate(30)"/><path class="cls-3" d="M13.68,160.19a1,1,0,1,1-1-1A1,1,0,0,1,13.68,160.19Z" transform="translate(30)"/><path class="cls-3" d="M-8.83,248.57a1,1,0,0,1-1,1,1,1,0,0,1-1-1,1,1,0,0,1,1-1A1,1,0,0,1-8.83,248.57Z" transform="translate(30)"/><path class="cls-3" d="M4.64,304.31a1,1,0,1,1-1-1A1,1,0,0,1,4.64,304.31Z" transform="translate(30)"/><path class="cls-3" d="M168.89,232.86a1,1,0,1,1-1-1A1,1,0,0,1,168.89,232.86Z" transform="translate(30)"/><path class="cls-3" d="M8.68,191a1,1,0,1,1-1-1A1,1,0,0,1,8.68,191Z" transform="translate(30)"/><path class="cls-3" d="M476.13,188.56a5.56,5.56,0,1,1-5.56-5.56A5.55,5.55,0,0,1,476.13,188.56Z" transform="translate(30)"/><path class="cls-3" d="M400.78,327a5.56,5.56,0,1,1-5.56-5.56A5.56,5.56,0,0,1,400.78,327Z" transform="translate(30)"/><path class="cls-3" d="M297.42,240.1a2.2,2.2,0,1,1-2.2-2.2A2.21,2.21,0,0,1,297.42,240.1Z" transform="translate(30)"/><path class="cls-3" d="M370.51,232.43a2.2,2.2,0,1,1-2.2-2.2A2.19,2.19,0,0,1,370.51,232.43Z" transform="translate(30)"/><path class="cls-3" d="M297.14,311.94a2.2,2.2,0,1,1-2.2-2.2A2.19,2.19,0,0,1,297.14,311.94Z" transform="translate(30)"/><path class="cls-3" d="M261.29,212.42a2.2,2.2,0,1,1-2.2-2.2A2.19,2.19,0,0,1,261.29,212.42Z" transform="translate(30)"/><path class="cls-3" d="M459.73,280.26a2.2,2.2,0,1,1-2.2-2.2A2.21,2.21,0,0,1,459.73,280.26Z" transform="translate(30)"/><path class="cls-3" d="M417.21,293.07a2.2,2.2,0,1,1-2.2-2.2A2.2,2.2,0,0,1,417.21,293.07Z" transform="translate(30)"/><path class="cls-3" d="M496.71,267.75a2.2,2.2,0,1,1-2.19-2.2A2.2,2.2,0,0,1,496.71,267.75Z" transform="translate(30)"/><circle class="cls-3" cx="433.33" cy="156.02" r="2.2"/><path class="cls-3" d="M397.09,200.63a1,1,0,1,1-1-1A1,1,0,0,1,397.09,200.63Z" transform="translate(30)"/><path class="cls-3" d="M449.32,202.59a1,1,0,1,1-1-1A1,1,0,0,1,449.32,202.59Z" transform="translate(30)"/><path class="cls-3" d="M428.48,178.67a1,1,0,1,1-1-1A1,1,0,0,1,428.48,178.67Z" transform="translate(30)"/><path class="cls-3" d="M328.42,215.1a1,1,0,1,1-1-1A1,1,0,0,1,328.42,215.1Z" transform="translate(30)"/><path class="cls-3" d="M338.55,280.26a1,1,0,1,1-1-1A1,1,0,0,1,338.55,280.26Z" transform="translate(30)"/><path class="cls-3" d="M382.62,316.82a1,1,0,1,1-1-1A1,1,0,0,1,382.62,316.82Z" transform="translate(30)"/><path class="cls-3" d="M359.4,301.1a1,1,0,1,1-1-1A1,1,0,0,1,359.4,301.1Z" transform="translate(30)"/><path class="cls-3" d="M442.78,261.08a1,1,0,1,1-1-1A1,1,0,0,1,442.78,261.08Z" transform="translate(30)"/><path class="cls-3" d="M461.83,302.64a1,1,0,1,1-1-1A1,1,0,0,1,461.83,302.64Z" transform="translate(30)"/><path class="cls-3" d="M490.05,228.56a1,1,0,1,1-1-1A1,1,0,0,1,490.05,228.56Z" transform="translate(30)"/><path class="cls-3" d="M490.88,164.36a1,1,0,1,1-1-1A1,1,0,0,1,490.88,164.36Z" transform="translate(30)"/><path class="cls-3" d="M365,180.2a1,1,0,1,1-1-1A1,1,0,0,1,365,180.2Z" transform="translate(30)"/><path class="cls-3" d="M281.6,160.19a1,1,0,1,1-1-1A1,1,0,0,1,281.6,160.19Z" transform="translate(30)"/><path class="cls-3" d="M259.09,248.57a1,1,0,1,1-1-1A1,1,0,0,1,259.09,248.57Z" transform="translate(30)"/><path class="cls-3" d="M272.56,304.31a1,1,0,1,1-1-1A1,1,0,0,1,272.56,304.31Z" transform="translate(30)"/><path class="cls-3" d="M436.81,232.86a1,1,0,1,1-1-1A1,1,0,0,1,436.81,232.86Z" transform="translate(30)"/><path class="cls-3" d="M276.6,191a1,1,0,1,1-1-1A1,1,0,0,1,276.6,191Z" transform="translate(30)"/><path class="cls-3" d="M667.58,183.54A5.56,5.56,0,1,1,662,178,5.55,5.55,0,0,1,667.58,183.54Z" transform="translate(30)"/><path class="cls-3" d="M565.34,240.1a2.2,2.2,0,1,1-2.2-2.2A2.2,2.2,0,0,1,565.34,240.1Z" transform="translate(30)"/><path class="cls-3" d="M638.44,232.43a2.21,2.21,0,1,1-2.21-2.2A2.2,2.2,0,0,1,638.44,232.43Z" transform="translate(30)"/><path class="cls-3" d="M565.06,311.94a2.2,2.2,0,1,1-2.2-2.2A2.19,2.19,0,0,1,565.06,311.94Z" transform="translate(30)"/><path class="cls-3" d="M529.21,212.42a2.2,2.2,0,1,1-2.2-2.2A2.19,2.19,0,0,1,529.21,212.42Z" transform="translate(30)"/><path class="cls-3" d="M727.65,280.26a2.2,2.2,0,1,1-2.2-2.2A2.21,2.21,0,0,1,727.65,280.26Z" transform="translate(30)"/><path class="cls-3" d="M685.13,293.07a2.2,2.2,0,1,1-2.2-2.2A2.2,2.2,0,0,1,685.13,293.07Z" transform="translate(30)"/><path class="cls-3" d="M764.64,267.75a2.2,2.2,0,1,1-2.21-2.2A2.21,2.21,0,0,1,764.64,267.75Z" transform="translate(30)"/><path class="cls-3" d="M673.45,156a2.2,2.2,0,1,1-2.2-2.19A2.19,2.19,0,0,1,673.45,156Z" transform="translate(30)"/><path class="cls-3" d="M665,200.63a1,1,0,1,1-1-1A1,1,0,0,1,665,200.63Z" transform="translate(30)"/><path class="cls-3" d="M717.24,202.59a1,1,0,1,1-1-1A1,1,0,0,1,717.24,202.59Z" transform="translate(30)"/><path class="cls-3" d="M696.4,178.67a1,1,0,1,1-1-1A1,1,0,0,1,696.4,178.67Z" transform="translate(30)"/><path class="cls-3" d="M596.34,215.1a1,1,0,1,1-1-1A1,1,0,0,1,596.34,215.1Z" transform="translate(30)"/><circle class="cls-3" cx="635.51" cy="280.26" r="0.96"/><path class="cls-3" d="M650.54,316.82a1,1,0,1,1-1-1A1,1,0,0,1,650.54,316.82Z" transform="translate(30)"/><path class="cls-3" d="M627.32,301.1a1,1,0,0,1-1,1,1,1,0,0,1,0-1.92A1,1,0,0,1,627.32,301.1Z" transform="translate(30)"/><path class="cls-3" d="M710.7,261.08a1,1,0,1,1-1-1A1,1,0,0,1,710.7,261.08Z" transform="translate(30)"/><path class="cls-3" d="M729.75,302.64a1,1,0,1,1-1-1A1,1,0,0,1,729.75,302.64Z" transform="translate(30)"/><path class="cls-3" d="M758,228.56a1,1,0,1,1-1-1A1,1,0,0,1,758,228.56Z" transform="translate(30)"/><path class="cls-3" d="M758.8,164.36a1,1,0,1,1-1-1A1,1,0,0,1,758.8,164.36Z" transform="translate(30)"/><path class="cls-3" d="M632.9,180.2a1,1,0,1,1-1-1A1,1,0,0,1,632.9,180.2Z" transform="translate(30)"/><path class="cls-3" d="M549.52,160.19a1,1,0,1,1-1-1A1,1,0,0,1,549.52,160.19Z" transform="translate(30)"/><path class="cls-3" d="M527,248.57a1,1,0,1,1-1-1A1,1,0,0,1,527,248.57Z" transform="translate(30)"/><path class="cls-3" d="M540.48,304.31a1,1,0,1,1-1-1A1,1,0,0,1,540.48,304.31Z" transform="translate(30)"/><path class="cls-3" d="M704.73,232.86a1,1,0,1,1-1-1A1,1,0,0,1,704.73,232.86Z" transform="translate(30)"/><path class="cls-3" d="M544.52,191a1,1,0,1,1-1-1A1,1,0,0,1,544.52,191Z" transform="translate(30)"/><path class="cls-3" d="M766,291.38a5.56,5.56,0,1,1-5.56-5.56A5.55,5.55,0,0,1,766,291.38Z" transform="translate(30)"/><path class="cls-3" d="M938.06,262.19a5.56,5.56,0,1,1-5.56-5.55A5.56,5.56,0,0,1,938.06,262.19Z" transform="translate(30)"/><path class="cls-3" d="M833.26,240.1a2.2,2.2,0,1,1-2.2-2.2A2.2,2.2,0,0,1,833.26,240.1Z" transform="translate(30)"/><path class="cls-3" d="M906.35,232.43a2.2,2.2,0,1,1-2.2-2.2A2.19,2.19,0,0,1,906.35,232.43Z" transform="translate(30)"/><path class="cls-3" d="M833,311.94a2.2,2.2,0,1,1-2.2-2.2A2.19,2.19,0,0,1,833,311.94Z" transform="translate(30)"/><path class="cls-3" d="M797.13,212.42a2.2,2.2,0,1,1-2.2-2.2A2.19,2.19,0,0,1,797.13,212.42Z" transform="translate(30)"/><path class="cls-3" d="M995.57,280.26a2.2,2.2,0,1,1-2.2-2.2A2.21,2.21,0,0,1,995.57,280.26Z" transform="translate(30)"/><path class="cls-3" d="M953.05,293.07a2.2,2.2,0,1,1-2.21-2.2A2.2,2.2,0,0,1,953.05,293.07Z" transform="translate(30)"/><path class="cls-3" d="M1032.55,267.75a2.2,2.2,0,1,1-2.19-2.2A2.2,2.2,0,0,1,1032.55,267.75Z" transform="translate(30)"/><path class="cls-3" d="M941.37,156a2.2,2.2,0,1,1-2.2-2.19A2.19,2.19,0,0,1,941.37,156Z" transform="translate(30)"/><path class="cls-3" d="M932.93,200.63a1,1,0,1,1-1-1A1,1,0,0,1,932.93,200.63Z" transform="translate(30)"/><path class="cls-3" d="M985.16,202.59a1,1,0,1,1-1-1A1,1,0,0,1,985.16,202.59Z" transform="translate(30)"/><path class="cls-3" d="M964.31,178.67a1,1,0,1,1-1-1A1,1,0,0,1,964.31,178.67Z" transform="translate(30)"/><path class="cls-3" d="M864.26,215.1a1,1,0,1,1-1-1A1,1,0,0,1,864.26,215.1Z" transform="translate(30)"/><path class="cls-3" d="M874.39,280.26a1,1,0,1,1-1-1A1,1,0,0,1,874.39,280.26Z" transform="translate(30)"/><path class="cls-3" d="M918.46,316.82a1,1,0,0,1-1,1,1,1,0,0,1,0-1.92A1,1,0,0,1,918.46,316.82Z" transform="translate(30)"/><path class="cls-3" d="M895.24,301.1a1,1,0,1,1-1-1A1,1,0,0,1,895.24,301.1Z" transform="translate(30)"/><path class="cls-3" d="M978.62,261.08a1,1,0,1,1-1-1A1,1,0,0,1,978.62,261.08Z" transform="translate(30)"/><path class="cls-3" d="M997.66,302.64a1,1,0,1,1-1-1A1,1,0,0,1,997.66,302.64Z" transform="translate(30)"/><path class="cls-3" d="M1025.88,228.56a1,1,0,1,1-1-1A1,1,0,0,1,1025.88,228.56Z" transform="translate(30)"/><path class="cls-3" d="M1026.72,164.36a1,1,0,1,1-1-1A1,1,0,0,1,1026.72,164.36Z" transform="translate(30)"/><path class="cls-3" d="M900.82,180.2a1,1,0,1,1-1-1A1,1,0,0,1,900.82,180.2Z" transform="translate(30)"/><circle class="cls-3" cx="846.48" cy="160.19" r="0.96"/><path class="cls-3" d="M794.93,248.57a1,1,0,1,1-1-1A1,1,0,0,1,794.93,248.57Z" transform="translate(30)"/><path class="cls-3" d="M808.4,304.31a1,1,0,1,1-1-1A1,1,0,0,1,808.4,304.31Z" transform="translate(30)"/><path class="cls-3" d="M972.65,232.86a1,1,0,1,1-1-1A1,1,0,0,1,972.65,232.86Z" transform="translate(30)"/><path class="cls-3" d="M812.44,191a1,1,0,1,1-1-1A1,1,0,0,1,812.44,191Z" transform="translate(30)"/><path class="cls-3" d="M1121.71,311.94a5.56,5.56,0,1,1-5.56-5.56A5.55,5.55,0,0,1,1121.71,311.94Z" transform="translate(30)"/><path class="cls-3" d="M1206,262.19a5.56,5.56,0,1,1-5.56-5.55A5.56,5.56,0,0,1,1206,262.19Z" transform="translate(30)"/><path class="cls-3" d="M1101.18,240.1a2.2,2.2,0,1,1-2.2-2.2A2.21,2.21,0,0,1,1101.18,240.1Z" transform="translate(30)"/><path class="cls-3" d="M1174.28,232.43a2.2,2.2,0,1,1-2.21-2.2A2.2,2.2,0,0,1,1174.28,232.43Z" transform="translate(30)"/><path class="cls-3" d="M1100.9,311.94a2.2,2.2,0,1,1-2.2-2.2A2.19,2.19,0,0,1,1100.9,311.94Z" transform="translate(30)"/><path class="cls-3" d="M1065.05,212.42a2.2,2.2,0,1,1-2.2-2.2A2.2,2.2,0,0,1,1065.05,212.42Z" transform="translate(30)"/><path class="cls-3" d="M1263.49,280.26a2.2,2.2,0,1,1-2.2-2.2A2.21,2.21,0,0,1,1263.49,280.26Z" transform="translate(30)"/><path class="cls-3" d="M1221,293.07a2.2,2.2,0,1,1-2.2-2.2A2.2,2.2,0,0,1,1221,293.07Z" transform="translate(30)"/><path class="cls-3" d="M1300.47,267.75a2.2,2.2,0,1,1-2.2-2.2A2.2,2.2,0,0,1,1300.47,267.75Z" transform="translate(30)"/><path class="cls-3" d="M1209.29,156a2.2,2.2,0,1,1-2.2-2.19A2.19,2.19,0,0,1,1209.29,156Z" transform="translate(30)"/><path class="cls-3" d="M1200.85,200.63a1,1,0,1,1-1-1A1,1,0,0,1,1200.85,200.63Z" transform="translate(30)"/><path class="cls-3" d="M1253.08,202.59a1,1,0,1,1-1-1A1,1,0,0,1,1253.08,202.59Z" transform="translate(30)"/><path class="cls-3" d="M1232.24,178.67a1,1,0,1,1-1-1A1,1,0,0,1,1232.24,178.67Z" transform="translate(30)"/><path class="cls-3" d="M1132.18,215.1a1,1,0,1,1-1-1A1,1,0,0,1,1132.18,215.1Z" transform="translate(30)"/><path class="cls-3" d="M1142.31,280.26a1,1,0,1,1-1-1A1,1,0,0,1,1142.31,280.26Z" transform="translate(30)"/><path class="cls-3" d="M1186.38,316.82a1,1,0,1,1-1-1A1,1,0,0,1,1186.38,316.82Z" transform="translate(30)"/><path class="cls-3" d="M1163.16,301.1a1,1,0,1,1-1-1A1,1,0,0,1,1163.16,301.1Z" transform="translate(30)"/><path class="cls-3" d="M1246.54,261.08a1,1,0,1,1-1-1A1,1,0,0,1,1246.54,261.08Z" transform="translate(30)"/><path class="cls-3" d="M1265.59,302.64a1,1,0,1,1-1-1A1,1,0,0,1,1265.59,302.64Z" transform="translate(30)"/><path class="cls-3" d="M1293.8,228.56a1,1,0,1,1-1-1A1,1,0,0,1,1293.8,228.56Z" transform="translate(30)"/><path class="cls-3" d="M1294.64,164.36a1,1,0,1,1-1-1A1,1,0,0,1,1294.64,164.36Z" transform="translate(30)"/><path class="cls-3" d="M1168.74,180.2a1,1,0,1,1-1-1A1,1,0,0,1,1168.74,180.2Z" transform="translate(30)"/><path class="cls-3" d="M1085.36,160.19a1,1,0,1,1-1-1A1,1,0,0,1,1085.36,160.19Z" transform="translate(30)"/><path class="cls-3" d="M1062.85,248.57a1,1,0,1,1-1-1A1,1,0,0,1,1062.85,248.57Z" transform="translate(30)"/><path class="cls-3" d="M1076.32,304.31a1,1,0,1,1-1-1A1,1,0,0,1,1076.32,304.31Z" transform="translate(30)"/><path class="cls-3" d="M1240.57,232.86a1,1,0,1,1-1-1A1,1,0,0,1,1240.57,232.86Z" transform="translate(30)"/><path class="cls-3" d="M1080.36,191a1,1,0,1,1-1-1A1,1,0,0,1,1080.36,191Z" transform="translate(30)"/><path class="cls-3" d="M1369.1,240.1a2.2,2.2,0,1,1-2.2-2.2A2.21,2.21,0,0,1,1369.1,240.1Z" transform="translate(30)"/><path class="cls-3" d="M1368.82,311.94a2.2,2.2,0,1,1-2.2-2.2A2.19,2.19,0,0,1,1368.82,311.94Z" transform="translate(30)"/><path class="cls-3" d="M1333,212.42a2.2,2.2,0,1,1-2.2-2.2A2.2,2.2,0,0,1,1333,212.42Z" transform="translate(30)"/><path class="cls-3" d="M1353.28,160.19a1,1,0,1,1-1-1A1,1,0,0,1,1353.28,160.19Z" transform="translate(30)"/><path class="cls-3" d="M1330.77,248.57a1,1,0,1,1-1-1A1,1,0,0,1,1330.77,248.57Z" transform="translate(30)"/><path class="cls-3" d="M1344.24,304.31a1,1,0,1,1-1-1A1,1,0,0,1,1344.24,304.31Z" transform="translate(30)"/><path class="cls-3" d="M1348.28,191a1,1,0,0,1-1,1,1,1,0,0,1,0-1.92A1,1,0,0,1,1348.28,191Z" transform="translate(30)"/><path class="cls-3" d="M1304.94,376.44a5.56,5.56,0,1,0,5.56-5.57A5.56,5.56,0,0,0,1304.94,376.44Z" transform="translate(30)"/><path class="cls-3" d="M1223.77,455.07a5.56,5.56,0,1,0,5.56-5.56A5.56,5.56,0,0,0,1223.77,455.07Z" transform="translate(30)"/><path class="cls-3" d="M1328.57,433a2.2,2.2,0,1,0,2.2-2.2A2.2,2.2,0,0,0,1328.57,433Z" transform="translate(30)"/><path class="cls-3" d="M1255.47,425.31a2.2,2.2,0,1,0,2.2-2.2A2.2,2.2,0,0,0,1255.47,425.31Z" transform="translate(30)"/><path class="cls-3" d="M1328.85,504.82a2.2,2.2,0,1,0,2.2-2.2A2.19,2.19,0,0,0,1328.85,504.82Z" transform="translate(30)"/><path class="cls-3" d="M1364.7,405.3a2.2,2.2,0,1,0,2.2-2.2A2.19,2.19,0,0,0,1364.7,405.3Z" transform="translate(30)"/><path class="cls-3" d="M1166.26,473.14a2.2,2.2,0,1,0,2.2-2.2A2.2,2.2,0,0,0,1166.26,473.14Z" transform="translate(30)"/><path class="cls-3" d="M1208.78,486a2.2,2.2,0,1,0,2.2-2.2A2.21,2.21,0,0,0,1208.78,486Z" transform="translate(30)"/><path class="cls-3" d="M1129.27,460.63a2.2,2.2,0,1,0,2.21-2.2A2.2,2.2,0,0,0,1129.27,460.63Z" transform="translate(30)"/><path class="cls-3" d="M1220.46,348.91a2.2,2.2,0,1,0,2.2-2.21A2.2,2.2,0,0,0,1220.46,348.91Z" transform="translate(30)"/><path class="cls-3" d="M1228.9,393.51a1,1,0,1,0,1-1A1,1,0,0,0,1228.9,393.51Z" transform="translate(30)"/><path class="cls-3" d="M1176.67,395.47a1,1,0,1,0,1-1A1,1,0,0,0,1176.67,395.47Z" transform="translate(30)"/><path class="cls-3" d="M1197.52,371.55a1,1,0,1,0,1-1A1,1,0,0,0,1197.52,371.55Z" transform="translate(30)"/><path class="cls-3" d="M1297.57,408a1,1,0,1,0,1-1A1,1,0,0,0,1297.57,408Z" transform="translate(30)"/><path class="cls-3" d="M1287.43,473.14a1,1,0,1,0,1-1A1,1,0,0,0,1287.43,473.14Z" transform="translate(30)"/><path class="cls-3" d="M1243.37,509.7a1,1,0,1,0,1-1A1,1,0,0,0,1243.37,509.7Z" transform="translate(30)"/><path class="cls-3" d="M1266.59,494a1,1,0,1,0,1-1A1,1,0,0,0,1266.59,494Z" transform="translate(30)"/><path class="cls-3" d="M1183.21,454a1,1,0,1,0,1-1A1,1,0,0,0,1183.21,454Z" transform="translate(30)"/><path class="cls-3" d="M1164.17,495.52a1,1,0,1,0,1-1A1,1,0,0,0,1164.17,495.52Z" transform="translate(30)"/><path class="cls-3" d="M1136,421.45a1,1,0,1,0,1-1A1,1,0,0,0,1136,421.45Z" transform="translate(30)"/><path class="cls-3" d="M1135.11,357.25a1,1,0,1,0,1-1A1,1,0,0,0,1135.11,357.25Z" transform="translate(30)"/><path class="cls-3" d="M1261,373.09a1,1,0,1,0,1-1A1,1,0,0,0,1261,373.09Z" transform="translate(30)"/><path class="cls-3" d="M1344.39,353.08a1,1,0,1,0,1-1A1,1,0,0,0,1344.39,353.08Z" transform="translate(30)"/><path class="cls-3" d="M1366.9,441.46a1,1,0,1,0,1-1A1,1,0,0,0,1366.9,441.46Z" transform="translate(30)"/><path class="cls-3" d="M1353.43,497.19a1,1,0,1,0,1-1A1,1,0,0,0,1353.43,497.19Z" transform="translate(30)"/><path class="cls-3" d="M1189.18,425.74a1,1,0,1,0,1-1A1,1,0,0,0,1189.18,425.74Z" transform="translate(30)"/><path class="cls-3" d="M1349.39,383.93a1,1,0,1,0,1-1A1,1,0,0,0,1349.39,383.93Z" transform="translate(30)"/><path class="cls-3" d="M881.94,381.44a5.56,5.56,0,1,0,5.56-5.56A5.56,5.56,0,0,0,881.94,381.44Z" transform="translate(30)"/><path class="cls-3" d="M957.29,519.83a5.56,5.56,0,1,0,5.57-5.56A5.56,5.56,0,0,0,957.29,519.83Z" transform="translate(30)"/><path class="cls-3" d="M1060.65,433a2.2,2.2,0,1,0,2.2-2.2A2.2,2.2,0,0,0,1060.65,433Z" transform="translate(30)"/><path class="cls-3" d="M987.55,425.31a2.2,2.2,0,1,0,2.21-2.2A2.2,2.2,0,0,0,987.55,425.31Z" transform="translate(30)"/><path class="cls-3" d="M1060.93,504.82a2.2,2.2,0,1,0,2.2-2.2A2.19,2.19,0,0,0,1060.93,504.82Z" transform="translate(30)"/><path class="cls-3" d="M1096.78,405.3a2.2,2.2,0,1,0,2.2-2.2A2.19,2.19,0,0,0,1096.78,405.3Z" transform="translate(30)"/><path class="cls-3" d="M898.34,473.14a2.2,2.2,0,1,0,2.2-2.2A2.2,2.2,0,0,0,898.34,473.14Z" transform="translate(30)"/><path class="cls-3" d="M940.86,486a2.2,2.2,0,1,0,2.21-2.2A2.21,2.21,0,0,0,940.86,486Z" transform="translate(30)"/><path class="cls-3" d="M861.36,460.63a2.2,2.2,0,1,0,2.19-2.2A2.19,2.19,0,0,0,861.36,460.63Z" transform="translate(30)"/><path class="cls-3" d="M952.54,348.91a2.2,2.2,0,1,0,2.2-2.21A2.2,2.2,0,0,0,952.54,348.91Z" transform="translate(30)"/><path class="cls-3" d="M961,393.51a1,1,0,1,0,1-1A1,1,0,0,0,961,393.51Z" transform="translate(30)"/><path class="cls-3" d="M908.75,395.47a1,1,0,1,0,1-1A1,1,0,0,0,908.75,395.47Z" transform="translate(30)"/><path class="cls-3" d="M929.59,371.55a1,1,0,1,0,1-1A1,1,0,0,0,929.59,371.55Z" transform="translate(30)"/><path class="cls-3" d="M1029.65,408a1,1,0,1,0,1-1A1,1,0,0,0,1029.65,408Z" transform="translate(30)"/><path class="cls-3" d="M1019.52,473.14a1,1,0,1,0,1-1A1,1,0,0,0,1019.52,473.14Z" transform="translate(30)"/><path class="cls-3" d="M975.45,509.7a1,1,0,1,0,1-1A1,1,0,0,0,975.45,509.7Z" transform="translate(30)"/><path class="cls-3" d="M998.67,494a1,1,0,1,0,1-1A1,1,0,0,0,998.67,494Z" transform="translate(30)"/><path class="cls-3" d="M915.29,454a1,1,0,1,0,1-1A1,1,0,0,0,915.29,454Z" transform="translate(30)"/><path class="cls-3" d="M896.24,495.52a1,1,0,1,0,1.93,0,1,1,0,0,0-1.93,0Z" transform="translate(30)"/><path class="cls-3" d="M868,421.45a1,1,0,1,0,1-1A1,1,0,0,0,868,421.45Z" transform="translate(30)"/><path class="cls-3" d="M867.19,357.25a1,1,0,1,0,1-1A1,1,0,0,0,867.19,357.25Z" transform="translate(30)"/><path class="cls-3" d="M993.09,373.09a1,1,0,1,0,1-1A1,1,0,0,0,993.09,373.09Z" transform="translate(30)"/><path class="cls-3" d="M1076.47,353.08a1,1,0,1,0,1-1A1,1,0,0,0,1076.47,353.08Z" transform="translate(30)"/><path class="cls-3" d="M1099,441.46a1,1,0,1,0,1-1A1,1,0,0,0,1099,441.46Z" transform="translate(30)"/><path class="cls-3" d="M1085.51,497.19a1,1,0,1,0,1-1A1,1,0,0,0,1085.51,497.19Z" transform="translate(30)"/><path class="cls-3" d="M921.26,425.74a1,1,0,1,0,1-1A1,1,0,0,0,921.26,425.74Z" transform="translate(30)"/><path class="cls-3" d="M1081.47,383.93a1,1,0,1,0,1-1A1,1,0,0,0,1081.47,383.93Z" transform="translate(30)"/><path class="cls-3" d="M690.48,376.42a5.56,5.56,0,1,0,5.56-5.56A5.56,5.56,0,0,0,690.48,376.42Z" transform="translate(30)"/><path class="cls-3" d="M792.73,433a2.2,2.2,0,1,0,2.2-2.2A2.2,2.2,0,0,0,792.73,433Z" transform="translate(30)"/><path class="cls-3" d="M719.64,425.31a2.2,2.2,0,1,0,2.2-2.2A2.19,2.19,0,0,0,719.64,425.31Z" transform="translate(30)"/><path class="cls-3" d="M793,504.82a2.2,2.2,0,1,0,2.2-2.2A2.19,2.19,0,0,0,793,504.82Z" transform="translate(30)"/><path class="cls-3" d="M828.86,405.3a2.2,2.2,0,1,0,2.2-2.2A2.19,2.19,0,0,0,828.86,405.3Z" transform="translate(30)"/><path class="cls-3" d="M630.42,473.14a2.2,2.2,0,1,0,2.2-2.2A2.21,2.21,0,0,0,630.42,473.14Z" transform="translate(30)"/><path class="cls-3" d="M672.94,486a2.2,2.2,0,1,0,2.2-2.2A2.21,2.21,0,0,0,672.94,486Z" transform="translate(30)"/><path class="cls-3" d="M593.43,460.63a2.2,2.2,0,1,0,2.21-2.2A2.2,2.2,0,0,0,593.43,460.63Z" transform="translate(30)"/><path class="cls-3" d="M684.62,348.91a2.2,2.2,0,1,0,2.2-2.21A2.2,2.2,0,0,0,684.62,348.91Z" transform="translate(30)"/><path class="cls-3" d="M693.06,393.51a1,1,0,1,0,1-1A1,1,0,0,0,693.06,393.51Z" transform="translate(30)"/><path class="cls-3" d="M640.83,395.47a1,1,0,1,0,1-1A1,1,0,0,0,640.83,395.47Z" transform="translate(30)"/><path class="cls-3" d="M661.68,371.55a1,1,0,1,0,1-1A1,1,0,0,0,661.68,371.55Z" transform="translate(30)"/><path class="cls-3" d="M761.73,408a1,1,0,1,0,1-1A1,1,0,0,0,761.73,408Z" transform="translate(30)"/><path class="cls-3" d="M751.59,473.14a1,1,0,1,0,1-1A1,1,0,0,0,751.59,473.14Z" transform="translate(30)"/><path class="cls-3" d="M707.53,509.7a1,1,0,1,0,1-1A1,1,0,0,0,707.53,509.7Z" transform="translate(30)"/><path class="cls-3" d="M730.75,494a1,1,0,1,0,1-1A1,1,0,0,0,730.75,494Z" transform="translate(30)"/><path class="cls-3" d="M647.37,454a1,1,0,1,0,1-1A1,1,0,0,0,647.37,454Z" transform="translate(30)"/><path class="cls-3" d="M628.33,495.52a1,1,0,1,0,1-1A1,1,0,0,0,628.33,495.52Z" transform="translate(30)"/><path class="cls-3" d="M600.11,421.45a1,1,0,1,0,1-1A1,1,0,0,0,600.11,421.45Z" transform="translate(30)"/><path class="cls-3" d="M599.27,357.25a1,1,0,1,0,1-1A1,1,0,0,0,599.27,357.25Z" transform="translate(30)"/><path class="cls-3" d="M725.17,373.09a1,1,0,0,0,1.93,0,1,1,0,1,0-1.93,0Z" transform="translate(30)"/><path class="cls-3" d="M808.55,353.08a1,1,0,1,0,1-1A1,1,0,0,0,808.55,353.08Z" transform="translate(30)"/><path class="cls-3" d="M831.06,441.46a1,1,0,1,0,1-1A1,1,0,0,0,831.06,441.46Z" transform="translate(30)"/><path class="cls-3" d="M817.59,497.19a1,1,0,1,0,1-1A1,1,0,0,0,817.59,497.19Z" transform="translate(30)"/><path class="cls-3" d="M653.34,425.74a1,1,0,1,0,1-1A1,1,0,0,0,653.34,425.74Z" transform="translate(30)"/><path class="cls-3" d="M813.55,383.93a1,1,0,1,0,1-1A1,1,0,0,0,813.55,383.93Z" transform="translate(30)"/><path class="cls-3" d="M592.1,484.26a5.56,5.56,0,1,0,5.56-5.56A5.55,5.55,0,0,0,592.1,484.26Z" transform="translate(30)"/><path class="cls-3" d="M420,455.07a5.56,5.56,0,1,0,5.56-5.56A5.56,5.56,0,0,0,420,455.07Z" transform="translate(30)"/><path class="cls-3" d="M524.81,433a2.2,2.2,0,1,0,2.2-2.2A2.21,2.21,0,0,0,524.81,433Z" transform="translate(30)"/><path class="cls-3" d="M451.72,425.31a2.2,2.2,0,1,0,2.2-2.2A2.19,2.19,0,0,0,451.72,425.31Z" transform="translate(30)"/><path class="cls-3" d="M525.09,504.82a2.2,2.2,0,1,0,2.2-2.2A2.19,2.19,0,0,0,525.09,504.82Z" transform="translate(30)"/><path class="cls-3" d="M560.94,405.3a2.2,2.2,0,1,0,2.2-2.2A2.19,2.19,0,0,0,560.94,405.3Z" transform="translate(30)"/><path class="cls-3" d="M362.5,473.14a2.2,2.2,0,1,0,2.2-2.2A2.21,2.21,0,0,0,362.5,473.14Z" transform="translate(30)"/><path class="cls-3" d="M405,486a2.2,2.2,0,1,0,2.21-2.2A2.21,2.21,0,0,0,405,486Z" transform="translate(30)"/><path class="cls-3" d="M325.52,460.63a2.2,2.2,0,1,0,2.19-2.2A2.19,2.19,0,0,0,325.52,460.63Z" transform="translate(30)"/><path class="cls-3" d="M416.7,348.91a2.2,2.2,0,1,0,2.2-2.21A2.2,2.2,0,0,0,416.7,348.91Z" transform="translate(30)"/><path class="cls-3" d="M425.14,393.51a1,1,0,1,0,1-1A1,1,0,0,0,425.14,393.51Z" transform="translate(30)"/><path class="cls-3" d="M372.91,395.47a1,1,0,1,0,1-1A1,1,0,0,0,372.91,395.47Z" transform="translate(30)"/><path class="cls-3" d="M393.76,371.55a1,1,0,1,0,1-1A1,1,0,0,0,393.76,371.55Z" transform="translate(30)"/><path class="cls-3" d="M493.81,408a1,1,0,1,0,1-1A1,1,0,0,0,493.81,408Z" transform="translate(30)"/><path class="cls-3" d="M483.68,473.14a1,1,0,1,0,1-1A1,1,0,0,0,483.68,473.14Z" transform="translate(30)"/><path class="cls-3" d="M439.61,509.7a1,1,0,1,0,1-1A1,1,0,0,0,439.61,509.7Z" transform="translate(30)"/><path class="cls-3" d="M462.83,494a1,1,0,1,0,1-1A1,1,0,0,0,462.83,494Z" transform="translate(30)"/><path class="cls-3" d="M379.45,454a1,1,0,1,0,1-1A1,1,0,0,0,379.45,454Z" transform="translate(30)"/><path class="cls-3" d="M360.41,495.52a1,1,0,1,0,1-1A1,1,0,0,0,360.41,495.52Z" transform="translate(30)"/><path class="cls-3" d="M332.19,421.45a1,1,0,1,0,1-1A1,1,0,0,0,332.19,421.45Z" transform="translate(30)"/><path class="cls-3" d="M331.35,357.25a1,1,0,0,0,1.93,0,1,1,0,1,0-1.93,0Z" transform="translate(30)"/><path class="cls-3" d="M457.25,373.09a1,1,0,1,0,1-1A1,1,0,0,0,457.25,373.09Z" transform="translate(30)"/><path class="cls-3" d="M540.63,353.08a1,1,0,1,0,1-1A1,1,0,0,0,540.63,353.08Z" transform="translate(30)"/><path class="cls-3" d="M563.14,441.46a1,1,0,1,0,1-1A1,1,0,0,0,563.14,441.46Z" transform="translate(30)"/><path class="cls-3" d="M549.67,497.19a1,1,0,1,0,1-1A1,1,0,0,0,549.67,497.19Z" transform="translate(30)"/><path class="cls-3" d="M385.42,425.74a1,1,0,1,0,1-1A1,1,0,0,0,385.42,425.74Z" transform="translate(30)"/><path class="cls-3" d="M545.63,383.93a1,1,0,0,0,1.93,0,1,1,0,1,0-1.93,0Z" transform="translate(30)"/><path class="cls-3" d="M236.36,504.82a5.56,5.56,0,1,0,5.56-5.56A5.56,5.56,0,0,0,236.36,504.82Z" transform="translate(30)"/><path class="cls-3" d="M152.09,455.07a5.56,5.56,0,1,0,5.56-5.56A5.56,5.56,0,0,0,152.09,455.07Z" transform="translate(30)"/><circle class="cls-3" cx="289.09" cy="432.98" r="2.2"/><path class="cls-3" d="M183.8,425.31a2.2,2.2,0,1,0,2.2-2.2A2.19,2.19,0,0,0,183.8,425.31Z" transform="translate(30)"/><path class="cls-3" d="M257.17,504.82a2.2,2.2,0,1,0,2.2-2.2A2.19,2.19,0,0,0,257.17,504.82Z" transform="translate(30)"/><path class="cls-3" d="M293,405.3a2.2,2.2,0,1,0,2.2-2.2A2.19,2.19,0,0,0,293,405.3Z" transform="translate(30)"/><path class="cls-3" d="M94.58,473.14a2.2,2.2,0,1,0,2.2-2.2A2.21,2.21,0,0,0,94.58,473.14Z" transform="translate(30)"/><path class="cls-3" d="M137.11,486a2.2,2.2,0,1,0,2.19-2.2A2.2,2.2,0,0,0,137.11,486Z" transform="translate(30)"/><path class="cls-3" d="M57.6,460.63a2.2,2.2,0,1,0,2.2-2.2A2.19,2.19,0,0,0,57.6,460.63Z" transform="translate(30)"/><path class="cls-3" d="M148.78,348.91a2.2,2.2,0,1,0,2.2-2.21A2.2,2.2,0,0,0,148.78,348.91Z" transform="translate(30)"/><path class="cls-3" d="M157.22,393.51a1,1,0,1,0,1-1A1,1,0,0,0,157.22,393.51Z" transform="translate(30)"/><path class="cls-3" d="M105,395.47a1,1,0,1,0,1-1A1,1,0,0,0,105,395.47Z" transform="translate(30)"/><path class="cls-3" d="M125.84,371.55a1,1,0,1,0,1-1A1,1,0,0,0,125.84,371.55Z" transform="translate(30)"/><path class="cls-3" d="M225.89,408a1,1,0,1,0,1-1A1,1,0,0,0,225.89,408Z" transform="translate(30)"/><path class="cls-3" d="M215.76,473.14a1,1,0,1,0,1-1A1,1,0,0,0,215.76,473.14Z" transform="translate(30)"/><path class="cls-3" d="M171.69,509.7a1,1,0,1,0,1-1A1,1,0,0,0,171.69,509.7Z" transform="translate(30)"/><path class="cls-3" d="M194.91,494a1,1,0,1,0,1.93,0,1,1,0,0,0-1.93,0Z" transform="translate(30)"/><path class="cls-3" d="M111.54,454a1,1,0,1,0,1-1A1,1,0,0,0,111.54,454Z" transform="translate(30)"/><path class="cls-3" d="M92.48,495.52a1,1,0,1,0,1.93,0,1,1,0,0,0-1.93,0Z" transform="translate(30)"/><path class="cls-3" d="M64.26,421.45a1,1,0,1,0,1-1A1,1,0,0,0,64.26,421.45Z" transform="translate(30)"/><path class="cls-3" d="M63.43,357.25a1,1,0,1,0,1-1A1,1,0,0,0,63.43,357.25Z" transform="translate(30)"/><path class="cls-3" d="M189.33,373.09a1,1,0,1,0,1-1A1,1,0,0,0,189.33,373.09Z" transform="translate(30)"/><path class="cls-3" d="M272.71,353.08a1,1,0,1,0,1-1A1,1,0,0,0,272.71,353.08Z" transform="translate(30)"/><path class="cls-3" d="M295.22,441.46a1,1,0,1,0,1-1A1,1,0,0,0,295.22,441.46Z" transform="translate(30)"/><path class="cls-3" d="M281.75,497.19a1,1,0,1,0,1-1A1,1,0,0,0,281.75,497.19Z" transform="translate(30)"/><path class="cls-3" d="M117.5,425.74a1,1,0,1,0,1-1A1,1,0,0,0,117.5,425.74Z" transform="translate(30)"/><path class="cls-3" d="M277.71,383.93a1,1,0,1,0,1-1A1,1,0,0,0,277.71,383.93Z" transform="translate(30)"/><circle class="cls-3" cx="21.17" cy="432.98" r="2.2"/><path class="cls-3" d="M-10.75,504.82a2.19,2.19,0,0,0,2.2,2.2,2.2,2.2,0,0,0,2.2-2.2,2.21,2.21,0,0,0-2.2-2.2A2.2,2.2,0,0,0-10.75,504.82Z" transform="translate(30)"/><circle class="cls-3" cx="57.3" cy="405.3" r="2.2"/><path class="cls-3" d="M4.79,353.08a1,1,0,1,0,1-1A1,1,0,0,0,4.79,353.08Z" transform="translate(30)"/><path class="cls-3" d="M27.3,441.46a1,1,0,0,0,1.93,0,1,1,0,1,0-1.93,0Z" transform="translate(30)"/><path class="cls-3" d="M13.83,497.19a1,1,0,1,0,1-1A1,1,0,0,0,13.83,497.19Z" transform="translate(30)"/><path class="cls-3" d="M9.79,383.93a1,1,0,1,0,1-1A1,1,0,0,0,9.79,383.93Z" transform="translate(30)"/><path class="cls-3" d="M53.13,575.15a5.56,5.56,0,1,1-5.56-5.56A5.56,5.56,0,0,1,53.13,575.15Z" transform="translate(30)"/><path class="cls-3" d="M134.3,653.79a5.56,5.56,0,1,1-5.56-5.56A5.56,5.56,0,0,1,134.3,653.79Z" transform="translate(30)"/><path class="cls-3" d="M29.5,631.69a2.2,2.2,0,1,1-2.2-2.2A2.19,2.19,0,0,1,29.5,631.69Z" transform="translate(30)"/><path class="cls-3" d="M102.59,624a2.2,2.2,0,1,1-2.19-2.2A2.19,2.19,0,0,1,102.59,624Z" transform="translate(30)"/><path class="cls-3" d="M29.22,703.54a2.2,2.2,0,1,1-2.2-2.2A2.2,2.2,0,0,1,29.22,703.54Z" transform="translate(30)"/><path class="cls-3" d="M-6.63,604a2.19,2.19,0,0,1-2.2,2.19A2.19,2.19,0,0,1-11,604a2.19,2.19,0,0,1,2.2-2.2A2.19,2.19,0,0,1-6.63,604Z" transform="translate(30)"/><path class="cls-3" d="M191.81,671.85a2.2,2.2,0,1,1-2.2-2.2A2.2,2.2,0,0,1,191.81,671.85Z" transform="translate(30)"/><path class="cls-3" d="M149.29,684.66a2.2,2.2,0,1,1-2.21-2.2A2.2,2.2,0,0,1,149.29,684.66Z" transform="translate(30)"/><path class="cls-3" d="M228.8,659.35a2.2,2.2,0,1,1-2.2-2.2A2.21,2.21,0,0,1,228.8,659.35Z" transform="translate(30)"/><path class="cls-3" d="M137.61,547.62a2.2,2.2,0,1,1-2.2-2.2A2.19,2.19,0,0,1,137.61,547.62Z" transform="translate(30)"/><path class="cls-3" d="M129.17,592.23a1,1,0,1,1-1-1A1,1,0,0,1,129.17,592.23Z" transform="translate(30)"/><path class="cls-3" d="M181.4,594.19a1,1,0,1,1-1-1A1,1,0,0,1,181.4,594.19Z" transform="translate(30)"/><path class="cls-3" d="M160.55,570.26a1,1,0,1,1-1-1A1,1,0,0,1,160.55,570.26Z" transform="translate(30)"/><path class="cls-3" d="M60.5,606.69a1,1,0,1,1-1-1A1,1,0,0,1,60.5,606.69Z" transform="translate(30)"/><path class="cls-3" d="M70.64,671.85a1,1,0,1,1-1-1A1,1,0,0,1,70.64,671.85Z" transform="translate(30)"/><path class="cls-3" d="M114.7,708.41a1,1,0,1,1-1-1A1,1,0,0,1,114.7,708.41Z" transform="translate(30)"/><path class="cls-3" d="M91.48,692.7a1,1,0,1,1-1-1A1,1,0,0,1,91.48,692.7Z" transform="translate(30)"/><path class="cls-3" d="M174.86,652.68a1,1,0,1,1-1-1A1,1,0,0,1,174.86,652.68Z" transform="translate(30)"/><path class="cls-3" d="M193.91,694.24a1,1,0,1,1-1-1A1,1,0,0,1,193.91,694.24Z" transform="translate(30)"/><path class="cls-3" d="M222.12,620.16a1,1,0,1,1-1-1A1,1,0,0,1,222.12,620.16Z" transform="translate(30)"/><path class="cls-3" d="M223,556a1,1,0,1,1-1-1A1,1,0,0,1,223,556Z" transform="translate(30)"/><path class="cls-3" d="M97.06,571.8a1,1,0,1,1-1-1A1,1,0,0,1,97.06,571.8Z" transform="translate(30)"/><path class="cls-3" d="M13.68,551.79a1,1,0,1,1-1-1A1,1,0,0,1,13.68,551.79Z" transform="translate(30)"/><path class="cls-3" d="M-8.83,640.17a1,1,0,0,1-1,1,1,1,0,0,1-1-1,1,1,0,0,1,1-1A1,1,0,0,1-8.83,640.17Z" transform="translate(30)"/><path class="cls-3" d="M4.64,695.91a1,1,0,1,1-1-1A1,1,0,0,1,4.64,695.91Z" transform="translate(30)"/><path class="cls-3" d="M168.89,624.46a1,1,0,1,1-1-1A1,1,0,0,1,168.89,624.46Z" transform="translate(30)"/><path class="cls-3" d="M8.68,582.64a1,1,0,1,1-1-1A1,1,0,0,1,8.68,582.64Z" transform="translate(30)"/><path class="cls-3" d="M476.13,580.15a5.56,5.56,0,1,1-5.56-5.56A5.56,5.56,0,0,1,476.13,580.15Z" transform="translate(30)"/><path class="cls-3" d="M400.78,718.55a5.56,5.56,0,1,1-5.56-5.57A5.55,5.55,0,0,1,400.78,718.55Z" transform="translate(30)"/><path class="cls-3" d="M297.42,631.69a2.2,2.2,0,1,1-2.2-2.2A2.2,2.2,0,0,1,297.42,631.69Z" transform="translate(30)"/><path class="cls-3" d="M370.51,624a2.2,2.2,0,1,1-2.2-2.2A2.19,2.19,0,0,1,370.51,624Z" transform="translate(30)"/><path class="cls-3" d="M297.14,703.54a2.2,2.2,0,1,1-2.2-2.2A2.2,2.2,0,0,1,297.14,703.54Z" transform="translate(30)"/><path class="cls-3" d="M261.29,604a2.2,2.2,0,1,1-2.2-2.2A2.19,2.19,0,0,1,261.29,604Z" transform="translate(30)"/><path class="cls-3" d="M459.73,671.85a2.2,2.2,0,1,1-2.2-2.2A2.2,2.2,0,0,1,459.73,671.85Z" transform="translate(30)"/><path class="cls-3" d="M417.21,684.66a2.2,2.2,0,1,1-2.2-2.2A2.2,2.2,0,0,1,417.21,684.66Z" transform="translate(30)"/><path class="cls-3" d="M496.71,659.35a2.2,2.2,0,1,1-2.19-2.2A2.2,2.2,0,0,1,496.71,659.35Z" transform="translate(30)"/><path class="cls-3" d="M405.53,547.62a2.2,2.2,0,1,1-2.2-2.2A2.19,2.19,0,0,1,405.53,547.62Z" transform="translate(30)"/><path class="cls-3" d="M397.09,592.23a1,1,0,1,1-1-1A1,1,0,0,1,397.09,592.23Z" transform="translate(30)"/><path class="cls-3" d="M449.32,594.19a1,1,0,1,1-1-1A1,1,0,0,1,449.32,594.19Z" transform="translate(30)"/><path class="cls-3" d="M428.48,570.26a1,1,0,1,1-1-1A1,1,0,0,1,428.48,570.26Z" transform="translate(30)"/><path class="cls-3" d="M328.42,606.69a1,1,0,1,1-1-1A1,1,0,0,1,328.42,606.69Z" transform="translate(30)"/><path class="cls-3" d="M338.55,671.85a1,1,0,1,1-1-1A1,1,0,0,1,338.55,671.85Z" transform="translate(30)"/><path class="cls-3" d="M382.62,708.41a1,1,0,1,1-1-1A1,1,0,0,1,382.62,708.41Z" transform="translate(30)"/><path class="cls-3" d="M359.4,692.7a1,1,0,0,1-1.93,0,1,1,0,1,1,1.93,0Z" transform="translate(30)"/><path class="cls-3" d="M442.78,652.68a1,1,0,1,1-1-1A1,1,0,0,1,442.78,652.68Z" transform="translate(30)"/><path class="cls-3" d="M461.83,694.24a1,1,0,1,1-1-1A1,1,0,0,1,461.83,694.24Z" transform="translate(30)"/><path class="cls-3" d="M490.05,620.16a1,1,0,1,1-1-1A1,1,0,0,1,490.05,620.16Z" transform="translate(30)"/><path class="cls-3" d="M490.88,556a1,1,0,1,1-1-1A1,1,0,0,1,490.88,556Z" transform="translate(30)"/><path class="cls-3" d="M365,571.8a1,1,0,1,1-1-1A1,1,0,0,1,365,571.8Z" transform="translate(30)"/><path class="cls-3" d="M281.6,551.79a1,1,0,1,1-1-1A1,1,0,0,1,281.6,551.79Z" transform="translate(30)"/><path class="cls-3" d="M259.09,640.17a1,1,0,1,1-1-1A1,1,0,0,1,259.09,640.17Z" transform="translate(30)"/><path class="cls-3" d="M272.56,695.91a1,1,0,1,1-1-1A1,1,0,0,1,272.56,695.91Z" transform="translate(30)"/><path class="cls-3" d="M436.81,624.46a1,1,0,1,1-1-1A1,1,0,0,1,436.81,624.46Z" transform="translate(30)"/><path class="cls-3" d="M276.6,582.64a1,1,0,1,1-1-1A1,1,0,0,1,276.6,582.64Z" transform="translate(30)"/><path class="cls-3" d="M667.58,575.14a5.56,5.56,0,1,1-5.55-5.56A5.55,5.55,0,0,1,667.58,575.14Z" transform="translate(30)"/><path class="cls-3" d="M565.34,631.69a2.2,2.2,0,1,1-2.2-2.2A2.19,2.19,0,0,1,565.34,631.69Z" transform="translate(30)"/><path class="cls-3" d="M638.44,624a2.21,2.21,0,1,1-2.21-2.2A2.2,2.2,0,0,1,638.44,624Z" transform="translate(30)"/><path class="cls-3" d="M565.06,703.54a2.2,2.2,0,1,1-2.2-2.2A2.2,2.2,0,0,1,565.06,703.54Z" transform="translate(30)"/><path class="cls-3" d="M529.21,604a2.2,2.2,0,1,1-2.2-2.2A2.19,2.19,0,0,1,529.21,604Z" transform="translate(30)"/><path class="cls-3" d="M727.65,671.85a2.2,2.2,0,1,1-2.2-2.2A2.2,2.2,0,0,1,727.65,671.85Z" transform="translate(30)"/><path class="cls-3" d="M685.13,684.66a2.2,2.2,0,1,1-2.2-2.2A2.2,2.2,0,0,1,685.13,684.66Z" transform="translate(30)"/><path class="cls-3" d="M764.64,659.35a2.2,2.2,0,1,1-2.21-2.2A2.21,2.21,0,0,1,764.64,659.35Z" transform="translate(30)"/><path class="cls-3" d="M673.45,547.62a2.2,2.2,0,1,1-2.2-2.2A2.19,2.19,0,0,1,673.45,547.62Z" transform="translate(30)"/><path class="cls-3" d="M665,592.23a1,1,0,1,1-1-1A1,1,0,0,1,665,592.23Z" transform="translate(30)"/><path class="cls-3" d="M717.24,594.19a1,1,0,0,1-1.93,0,1,1,0,1,1,1.93,0Z" transform="translate(30)"/><path class="cls-3" d="M696.4,570.26a1,1,0,1,1-1-1A1,1,0,0,1,696.4,570.26Z" transform="translate(30)"/><path class="cls-3" d="M596.34,606.69a1,1,0,1,1-1-1A1,1,0,0,1,596.34,606.69Z" transform="translate(30)"/><path class="cls-3" d="M606.47,671.85a1,1,0,1,1-1-1A1,1,0,0,1,606.47,671.85Z" transform="translate(30)"/><path class="cls-3" d="M650.54,708.41a1,1,0,1,1-1-1A1,1,0,0,1,650.54,708.41Z" transform="translate(30)"/><path class="cls-3" d="M627.32,692.7a1,1,0,0,1-1,1,1,1,0,0,1,0-1.93A1,1,0,0,1,627.32,692.7Z" transform="translate(30)"/><path class="cls-3" d="M710.7,652.68a1,1,0,1,1-1-1A1,1,0,0,1,710.7,652.68Z" transform="translate(30)"/><path class="cls-3" d="M729.75,694.24a1,1,0,1,1-1-1A1,1,0,0,1,729.75,694.24Z" transform="translate(30)"/><path class="cls-3" d="M758,620.16a1,1,0,1,1-1-1A1,1,0,0,1,758,620.16Z" transform="translate(30)"/><path class="cls-3" d="M758.8,556a1,1,0,1,1-1-1A1,1,0,0,1,758.8,556Z" transform="translate(30)"/><path class="cls-3" d="M632.9,571.8a1,1,0,1,1-1-1A1,1,0,0,1,632.9,571.8Z" transform="translate(30)"/><path class="cls-3" d="M549.52,551.79a1,1,0,1,1-1-1A1,1,0,0,1,549.52,551.79Z" transform="translate(30)"/><path class="cls-3" d="M527,640.17a1,1,0,1,1-1-1A1,1,0,0,1,527,640.17Z" transform="translate(30)"/><path class="cls-3" d="M540.48,695.91a1,1,0,0,1-1.93,0,1,1,0,1,1,1.93,0Z" transform="translate(30)"/><path class="cls-3" d="M704.73,624.46a1,1,0,1,1-1-1A1,1,0,0,1,704.73,624.46Z" transform="translate(30)"/><path class="cls-3" d="M544.52,582.64a1,1,0,1,1-1-1A1,1,0,0,1,544.52,582.64Z" transform="translate(30)"/><path class="cls-3" d="M766,683a5.56,5.56,0,1,1-5.56-5.56A5.56,5.56,0,0,1,766,683Z" transform="translate(30)"/><path class="cls-3" d="M938.06,653.79a5.56,5.56,0,1,1-5.56-5.56A5.56,5.56,0,0,1,938.06,653.79Z" transform="translate(30)"/><path class="cls-3" d="M833.26,631.69a2.2,2.2,0,1,1-2.2-2.2A2.19,2.19,0,0,1,833.26,631.69Z" transform="translate(30)"/><path class="cls-3" d="M906.35,624a2.2,2.2,0,1,1-2.2-2.2A2.19,2.19,0,0,1,906.35,624Z" transform="translate(30)"/><path class="cls-3" d="M833,703.54a2.2,2.2,0,1,1-2.2-2.2A2.2,2.2,0,0,1,833,703.54Z" transform="translate(30)"/><path class="cls-3" d="M797.13,604a2.2,2.2,0,1,1-2.2-2.2A2.19,2.19,0,0,1,797.13,604Z" transform="translate(30)"/><path class="cls-3" d="M995.57,671.85a2.2,2.2,0,1,1-2.2-2.2A2.2,2.2,0,0,1,995.57,671.85Z" transform="translate(30)"/><path class="cls-3" d="M953.05,684.66a2.2,2.2,0,1,1-2.21-2.2A2.2,2.2,0,0,1,953.05,684.66Z" transform="translate(30)"/><path class="cls-3" d="M1032.55,659.35a2.2,2.2,0,1,1-2.19-2.2A2.2,2.2,0,0,1,1032.55,659.35Z" transform="translate(30)"/><path class="cls-3" d="M941.37,547.62a2.2,2.2,0,1,1-2.2-2.2A2.19,2.19,0,0,1,941.37,547.62Z" transform="translate(30)"/><path class="cls-3" d="M932.93,592.23a1,1,0,1,1-1-1A1,1,0,0,1,932.93,592.23Z" transform="translate(30)"/><path class="cls-3" d="M985.16,594.19a1,1,0,1,1-1-1A1,1,0,0,1,985.16,594.19Z" transform="translate(30)"/><path class="cls-3" d="M964.31,570.26a1,1,0,1,1-1-1A1,1,0,0,1,964.31,570.26Z" transform="translate(30)"/><path class="cls-3" d="M864.26,606.69a1,1,0,1,1-1-1A1,1,0,0,1,864.26,606.69Z" transform="translate(30)"/><path class="cls-3" d="M874.39,671.85a1,1,0,1,1-1-1A1,1,0,0,1,874.39,671.85Z" transform="translate(30)"/><path class="cls-3" d="M918.46,708.41a1,1,0,0,1-1,1,1,1,0,0,1,0-1.92A1,1,0,0,1,918.46,708.41Z" transform="translate(30)"/><path class="cls-3" d="M895.24,692.7a1,1,0,0,1-1.93,0,1,1,0,1,1,1.93,0Z" transform="translate(30)"/><path class="cls-3" d="M978.62,652.68a1,1,0,1,1-1-1A1,1,0,0,1,978.62,652.68Z" transform="translate(30)"/><path class="cls-3" d="M997.66,694.24a1,1,0,1,1-1-1A1,1,0,0,1,997.66,694.24Z" transform="translate(30)"/><path class="cls-3" d="M1025.88,620.16a1,1,0,1,1-1-1A1,1,0,0,1,1025.88,620.16Z" transform="translate(30)"/><path class="cls-3" d="M1026.72,556a1,1,0,1,1-1-1A1,1,0,0,1,1026.72,556Z" transform="translate(30)"/><path class="cls-3" d="M900.82,571.8a1,1,0,1,1-1-1A1,1,0,0,1,900.82,571.8Z" transform="translate(30)"/><path class="cls-3" d="M817.44,551.79a1,1,0,1,1-1-1A1,1,0,0,1,817.44,551.79Z" transform="translate(30)"/><path class="cls-3" d="M794.93,640.17a1,1,0,1,1-1-1A1,1,0,0,1,794.93,640.17Z" transform="translate(30)"/><path class="cls-3" d="M808.4,695.91a1,1,0,1,1-1-1A1,1,0,0,1,808.4,695.91Z" transform="translate(30)"/><path class="cls-3" d="M972.65,624.46a1,1,0,1,1-1-1A1,1,0,0,1,972.65,624.46Z" transform="translate(30)"/><path class="cls-3" d="M812.44,582.64a1,1,0,1,1-1-1A1,1,0,0,1,812.44,582.64Z" transform="translate(30)"/><path class="cls-3" d="M1121.71,703.54a5.56,5.56,0,1,1-5.56-5.56A5.55,5.55,0,0,1,1121.71,703.54Z" transform="translate(30)"/><path class="cls-3" d="M1206,653.79a5.56,5.56,0,1,1-5.56-5.56A5.56,5.56,0,0,1,1206,653.79Z" transform="translate(30)"/><path class="cls-3" d="M1101.18,631.69a2.2,2.2,0,1,1-2.2-2.2A2.2,2.2,0,0,1,1101.18,631.69Z" transform="translate(30)"/><path class="cls-3" d="M1174.28,624a2.2,2.2,0,1,1-2.21-2.2A2.2,2.2,0,0,1,1174.28,624Z" transform="translate(30)"/><path class="cls-3" d="M1100.9,703.54a2.2,2.2,0,1,1-2.2-2.2A2.2,2.2,0,0,1,1100.9,703.54Z" transform="translate(30)"/><path class="cls-3" d="M1065.05,604a2.2,2.2,0,1,1-2.2-2.2A2.2,2.2,0,0,1,1065.05,604Z" transform="translate(30)"/><path class="cls-3" d="M1263.49,671.85a2.2,2.2,0,1,1-2.2-2.2A2.2,2.2,0,0,1,1263.49,671.85Z" transform="translate(30)"/><path class="cls-3" d="M1221,684.66a2.2,2.2,0,1,1-2.2-2.2A2.2,2.2,0,0,1,1221,684.66Z" transform="translate(30)"/><path class="cls-3" d="M1300.47,659.35a2.2,2.2,0,1,1-2.2-2.2A2.2,2.2,0,0,1,1300.47,659.35Z" transform="translate(30)"/><path class="cls-3" d="M1209.29,547.62a2.2,2.2,0,1,1-2.2-2.2A2.19,2.19,0,0,1,1209.29,547.62Z" transform="translate(30)"/><path class="cls-3" d="M1200.85,592.23a1,1,0,1,1-1-1A1,1,0,0,1,1200.85,592.23Z" transform="translate(30)"/><path class="cls-3" d="M1253.08,594.19a1,1,0,1,1-1-1A1,1,0,0,1,1253.08,594.19Z" transform="translate(30)"/><path class="cls-3" d="M1232.24,570.26a1,1,0,1,1-1-1A1,1,0,0,1,1232.24,570.26Z" transform="translate(30)"/><path class="cls-3" d="M1132.18,606.69a1,1,0,1,1-1-1A1,1,0,0,1,1132.18,606.69Z" transform="translate(30)"/><path class="cls-3" d="M1142.31,671.85a1,1,0,1,1-1-1A1,1,0,0,1,1142.31,671.85Z" transform="translate(30)"/><path class="cls-3" d="M1186.38,708.41a1,1,0,1,1-1-1A1,1,0,0,1,1186.38,708.41Z" transform="translate(30)"/><path class="cls-3" d="M1163.16,692.7a1,1,0,0,1-1.93,0,1,1,0,1,1,1.93,0Z" transform="translate(30)"/><path class="cls-3" d="M1246.54,652.68a1,1,0,1,1-1-1A1,1,0,0,1,1246.54,652.68Z" transform="translate(30)"/><path class="cls-3" d="M1265.59,694.24a1,1,0,1,1-1-1A1,1,0,0,1,1265.59,694.24Z" transform="translate(30)"/><path class="cls-3" d="M1293.8,620.16a1,1,0,1,1-1-1A1,1,0,0,1,1293.8,620.16Z" transform="translate(30)"/><path class="cls-3" d="M1294.64,556a1,1,0,1,1-1-1A1,1,0,0,1,1294.64,556Z" transform="translate(30)"/><path class="cls-3" d="M1168.74,571.8a1,1,0,1,1-1-1A1,1,0,0,1,1168.74,571.8Z" transform="translate(30)"/><path class="cls-3" d="M1085.36,551.79a1,1,0,1,1-1-1A1,1,0,0,1,1085.36,551.79Z" transform="translate(30)"/><path class="cls-3" d="M1062.85,640.17a1,1,0,1,1-1-1A1,1,0,0,1,1062.85,640.17Z" transform="translate(30)"/><path class="cls-3" d="M1076.32,695.91a1,1,0,1,1-1-1A1,1,0,0,1,1076.32,695.91Z" transform="translate(30)"/><path class="cls-3" d="M1240.57,624.46a1,1,0,1,1-1-1A1,1,0,0,1,1240.57,624.46Z" transform="translate(30)"/><path class="cls-3" d="M1080.36,582.64a1,1,0,1,1-1-1A1,1,0,0,1,1080.36,582.64Z" transform="translate(30)"/><path class="cls-3" d="M1369.1,631.69a2.2,2.2,0,1,1-2.2-2.2A2.2,2.2,0,0,1,1369.1,631.69Z" transform="translate(30)"/><path class="cls-3" d="M1368.82,703.54a2.2,2.2,0,1,1-2.2-2.2A2.2,2.2,0,0,1,1368.82,703.54Z" transform="translate(30)"/><path class="cls-3" d="M1333,604a2.2,2.2,0,1,1-2.2-2.2A2.2,2.2,0,0,1,1333,604Z" transform="translate(30)"/><path class="cls-3" d="M1353.28,551.79a1,1,0,1,1-1-1A1,1,0,0,1,1353.28,551.79Z" transform="translate(30)"/><path class="cls-3" d="M1330.77,640.17a1,1,0,1,1-1-1A1,1,0,0,1,1330.77,640.17Z" transform="translate(30)"/><path class="cls-3" d="M1344.24,695.91a1,1,0,1,1-1-1A1,1,0,0,1,1344.24,695.91Z" transform="translate(30)"/><path class="cls-3" d="M1348.28,582.64a1,1,0,0,1-1,1,1,1,0,0,1,0-1.92A1,1,0,0,1,1348.28,582.64Z" transform="translate(30)"/><path class="cls-3" d="M53.13,966.74a5.56,5.56,0,1,1-5.56-5.56A5.56,5.56,0,0,1,53.13,966.74Z" transform="translate(30)"/><path class="cls-3" d="M134.3,1045.39a5.56,5.56,0,1,1-5.56-5.57A5.56,5.56,0,0,1,134.3,1045.39Z" transform="translate(30)"/><path class="cls-3" d="M29.5,1023.29a2.2,2.2,0,1,1-2.2-2.2A2.2,2.2,0,0,1,29.5,1023.29Z" transform="translate(30)"/><path class="cls-3" d="M102.59,1015.62a2.2,2.2,0,1,1-2.19-2.2A2.19,2.19,0,0,1,102.59,1015.62Z" transform="translate(30)"/><path class="cls-3" d="M29.22,1095.13a2.2,2.2,0,1,1-2.2-2.2A2.19,2.19,0,0,1,29.22,1095.13Z" transform="translate(30)"/><path class="cls-3" d="M-6.63,995.61a2.19,2.19,0,0,1-2.2,2.2,2.19,2.19,0,0,1-2.2-2.2,2.19,2.19,0,0,1,2.2-2.2A2.19,2.19,0,0,1-6.63,995.61Z" transform="translate(30)"/><circle class="cls-3" cx="219.61" cy="1063.45" r="2.2"/><path class="cls-3" d="M149.29,1076.26a2.2,2.2,0,1,1-2.21-2.2A2.2,2.2,0,0,1,149.29,1076.26Z" transform="translate(30)"/><path class="cls-3" d="M228.8,1050.94a2.2,2.2,0,1,1-2.2-2.2A2.2,2.2,0,0,1,228.8,1050.94Z" transform="translate(30)"/><path class="cls-3" d="M137.61,939.21a2.2,2.2,0,1,1-2.2-2.19A2.19,2.19,0,0,1,137.61,939.21Z" transform="translate(30)"/><path class="cls-3" d="M129.17,983.82a1,1,0,1,1-1-1A1,1,0,0,1,129.17,983.82Z" transform="translate(30)"/><path class="cls-3" d="M181.4,985.78a1,1,0,1,1-1-1A1,1,0,0,1,181.4,985.78Z" transform="translate(30)"/><path class="cls-3" d="M160.55,961.86a1,1,0,1,1-1-1A1,1,0,0,1,160.55,961.86Z" transform="translate(30)"/><path class="cls-3" d="M60.5,998.29a1,1,0,1,1-1-1A1,1,0,0,1,60.5,998.29Z" transform="translate(30)"/><path class="cls-3" d="M70.64,1063.45a1,1,0,1,1-1-1A1,1,0,0,1,70.64,1063.45Z" transform="translate(30)"/><path class="cls-3" d="M114.7,1100a1,1,0,1,1-1-1A1,1,0,0,1,114.7,1100Z" transform="translate(30)"/><path class="cls-3" d="M91.48,1084.29a1,1,0,1,1-1-1A1,1,0,0,1,91.48,1084.29Z" transform="translate(30)"/><path class="cls-3" d="M174.86,1044.27a1,1,0,1,1-1-1A1,1,0,0,1,174.86,1044.27Z" transform="translate(30)"/><path class="cls-3" d="M193.91,1085.83a1,1,0,1,1-1-1A1,1,0,0,1,193.91,1085.83Z" transform="translate(30)"/><path class="cls-3" d="M222.12,1011.75a1,1,0,1,1-1-1A1,1,0,0,1,222.12,1011.75Z" transform="translate(30)"/><path class="cls-3" d="M223,947.55a1,1,0,1,1-1-1A1,1,0,0,1,223,947.55Z" transform="translate(30)"/><path class="cls-3" d="M97.06,963.4a1,1,0,0,1-1.92,0,1,1,0,1,1,1.92,0Z" transform="translate(30)"/><path class="cls-3" d="M13.68,943.38a1,1,0,1,1-1-1A1,1,0,0,1,13.68,943.38Z" transform="translate(30)"/><path class="cls-3" d="M-8.83,1031.76a1,1,0,0,1-1,1,1,1,0,0,1-1-1,1,1,0,0,1,1-1A1,1,0,0,1-8.83,1031.76Z" transform="translate(30)"/><path class="cls-3" d="M4.64,1087.5a1,1,0,1,1-1-1A1,1,0,0,1,4.64,1087.5Z" transform="translate(30)"/><path class="cls-3" d="M168.89,1016.05a1,1,0,1,1-1-1A1,1,0,0,1,168.89,1016.05Z" transform="translate(30)"/><path class="cls-3" d="M8.68,974.23a1,1,0,1,1-1-1A1,1,0,0,1,8.68,974.23Z" transform="translate(30)"/><path class="cls-3" d="M476.13,971.75a5.56,5.56,0,1,1-5.56-5.56A5.55,5.55,0,0,1,476.13,971.75Z" transform="translate(30)"/><path class="cls-3" d="M400.78,1110.14a5.56,5.56,0,1,1-5.56-5.56A5.56,5.56,0,0,1,400.78,1110.14Z" transform="translate(30)"/><path class="cls-3" d="M297.42,1023.29a2.2,2.2,0,1,1-2.2-2.2A2.21,2.21,0,0,1,297.42,1023.29Z" transform="translate(30)"/><path class="cls-3" d="M370.51,1015.62a2.2,2.2,0,1,1-2.2-2.2A2.19,2.19,0,0,1,370.51,1015.62Z" transform="translate(30)"/><path class="cls-3" d="M297.14,1095.13a2.2,2.2,0,1,1-2.2-2.2A2.19,2.19,0,0,1,297.14,1095.13Z" transform="translate(30)"/><path class="cls-3" d="M261.29,995.61a2.2,2.2,0,1,1-2.2-2.2A2.19,2.19,0,0,1,261.29,995.61Z" transform="translate(30)"/><path class="cls-3" d="M459.73,1063.45a2.2,2.2,0,1,1-2.2-2.2A2.21,2.21,0,0,1,459.73,1063.45Z" transform="translate(30)"/><path class="cls-3" d="M417.21,1076.26a2.2,2.2,0,1,1-2.2-2.2A2.2,2.2,0,0,1,417.21,1076.26Z" transform="translate(30)"/><path class="cls-3" d="M496.71,1050.94a2.2,2.2,0,1,1-2.19-2.2A2.19,2.19,0,0,1,496.71,1050.94Z" transform="translate(30)"/><path class="cls-3" d="M405.53,939.21a2.2,2.2,0,1,1-2.2-2.19A2.19,2.19,0,0,1,405.53,939.21Z" transform="translate(30)"/><path class="cls-3" d="M397.09,983.82a1,1,0,1,1-1-1A1,1,0,0,1,397.09,983.82Z" transform="translate(30)"/><path class="cls-3" d="M449.32,985.78a1,1,0,1,1-1-1A1,1,0,0,1,449.32,985.78Z" transform="translate(30)"/><path class="cls-3" d="M428.48,961.86a1,1,0,1,1-1-1A1,1,0,0,1,428.48,961.86Z" transform="translate(30)"/><circle class="cls-3" cx="357.46" cy="998.29" r="0.96"/><path class="cls-3" d="M338.55,1063.45a1,1,0,1,1-1-1A1,1,0,0,1,338.55,1063.45Z" transform="translate(30)"/><circle class="cls-3" cx="411.66" cy="1100.01" r="0.96"/><path class="cls-3" d="M359.4,1084.29a1,1,0,1,1-1-1A1,1,0,0,1,359.4,1084.29Z" transform="translate(30)"/><path class="cls-3" d="M442.78,1044.27a1,1,0,1,1-1-1A1,1,0,0,1,442.78,1044.27Z" transform="translate(30)"/><path class="cls-3" d="M461.83,1085.83a1,1,0,1,1-1-1A1,1,0,0,1,461.83,1085.83Z" transform="translate(30)"/><path class="cls-3" d="M490.05,1011.75a1,1,0,1,1-1-1A1,1,0,0,1,490.05,1011.75Z" transform="translate(30)"/><path class="cls-3" d="M490.88,947.55a1,1,0,1,1-1-1A1,1,0,0,1,490.88,947.55Z" transform="translate(30)"/><path class="cls-3" d="M365,963.4a1,1,0,0,1-1.92,0,1,1,0,1,1,1.92,0Z" transform="translate(30)"/><path class="cls-3" d="M281.6,943.38a1,1,0,1,1-1-1A1,1,0,0,1,281.6,943.38Z" transform="translate(30)"/><path class="cls-3" d="M259.09,1031.76a1,1,0,1,1-1-1A1,1,0,0,1,259.09,1031.76Z" transform="translate(30)"/><path class="cls-3" d="M272.56,1087.5a1,1,0,1,1-1-1A1,1,0,0,1,272.56,1087.5Z" transform="translate(30)"/><path class="cls-3" d="M436.81,1016.05a1,1,0,1,1-1-1A1,1,0,0,1,436.81,1016.05Z" transform="translate(30)"/><path class="cls-3" d="M276.6,974.23a1,1,0,1,1-1-1A1,1,0,0,1,276.6,974.23Z" transform="translate(30)"/><path class="cls-3" d="M667.58,966.73a5.56,5.56,0,1,1-5.55-5.56A5.55,5.55,0,0,1,667.58,966.73Z" transform="translate(30)"/><path class="cls-3" d="M565.34,1023.29a2.2,2.2,0,1,1-2.2-2.2A2.2,2.2,0,0,1,565.34,1023.29Z" transform="translate(30)"/><path class="cls-3" d="M638.44,1015.62a2.21,2.21,0,1,1-2.21-2.2A2.2,2.2,0,0,1,638.44,1015.62Z" transform="translate(30)"/><path class="cls-3" d="M565.06,1095.13a2.2,2.2,0,1,1-2.2-2.2A2.19,2.19,0,0,1,565.06,1095.13Z" transform="translate(30)"/><path class="cls-3" d="M529.21,995.61a2.2,2.2,0,1,1-2.2-2.2A2.19,2.19,0,0,1,529.21,995.61Z" transform="translate(30)"/><path class="cls-3" d="M727.65,1063.45a2.2,2.2,0,1,1-2.2-2.2A2.21,2.21,0,0,1,727.65,1063.45Z" transform="translate(30)"/><path class="cls-3" d="M685.13,1076.26a2.2,2.2,0,1,1-2.2-2.2A2.2,2.2,0,0,1,685.13,1076.26Z" transform="translate(30)"/><path class="cls-3" d="M764.64,1050.94a2.2,2.2,0,1,1-2.21-2.2A2.2,2.2,0,0,1,764.64,1050.94Z" transform="translate(30)"/><path class="cls-3" d="M673.45,939.21a2.2,2.2,0,1,1-2.2-2.19A2.19,2.19,0,0,1,673.45,939.21Z" transform="translate(30)"/><circle class="cls-3" cx="694.05" cy="983.82" r="0.96"/><path class="cls-3" d="M717.24,985.78a1,1,0,1,1-1-1A1,1,0,0,1,717.24,985.78Z" transform="translate(30)"/><path class="cls-3" d="M696.4,961.86a1,1,0,1,1-1-1A1,1,0,0,1,696.4,961.86Z" transform="translate(30)"/><path class="cls-3" d="M596.34,998.29a1,1,0,1,1-1-1A1,1,0,0,1,596.34,998.29Z" transform="translate(30)"/><path class="cls-3" d="M606.47,1063.45a1,1,0,1,1-1-1A1,1,0,0,1,606.47,1063.45Z" transform="translate(30)"/><path class="cls-3" d="M650.54,1100a1,1,0,1,1-1-1A1,1,0,0,1,650.54,1100Z" transform="translate(30)"/><path class="cls-3" d="M627.32,1084.29a1,1,0,0,1-1,1,1,1,0,0,1,0-1.92A1,1,0,0,1,627.32,1084.29Z" transform="translate(30)"/><path class="cls-3" d="M710.7,1044.27a1,1,0,1,1-1-1A1,1,0,0,1,710.7,1044.27Z" transform="translate(30)"/><path class="cls-3" d="M729.75,1085.83a1,1,0,1,1-1-1A1,1,0,0,1,729.75,1085.83Z" transform="translate(30)"/><path class="cls-3" d="M758,1011.75a1,1,0,1,1-1-1A1,1,0,0,1,758,1011.75Z" transform="translate(30)"/><path class="cls-3" d="M758.8,947.55a1,1,0,1,1-1-1A1,1,0,0,1,758.8,947.55Z" transform="translate(30)"/><path class="cls-3" d="M632.9,963.4a1,1,0,0,1-1.92,0,1,1,0,1,1,1.92,0Z" transform="translate(30)"/><path class="cls-3" d="M549.52,943.38a1,1,0,1,1-1-1A1,1,0,0,1,549.52,943.38Z" transform="translate(30)"/><path class="cls-3" d="M527,1031.76a1,1,0,1,1-1-1A1,1,0,0,1,527,1031.76Z" transform="translate(30)"/><path class="cls-3" d="M540.48,1087.5a1,1,0,1,1-1-1A1,1,0,0,1,540.48,1087.5Z" transform="translate(30)"/><path class="cls-3" d="M704.73,1016.05a1,1,0,1,1-1-1A1,1,0,0,1,704.73,1016.05Z" transform="translate(30)"/><circle class="cls-3" cx="573.56" cy="974.23" r="0.96"/><path class="cls-3" d="M766,1074.57a5.56,5.56,0,1,1-5.56-5.56A5.55,5.55,0,0,1,766,1074.57Z" transform="translate(30)"/><path class="cls-3" d="M938.06,1045.39a5.56,5.56,0,1,1-5.56-5.57A5.56,5.56,0,0,1,938.06,1045.39Z" transform="translate(30)"/><path class="cls-3" d="M833.26,1023.29a2.2,2.2,0,1,1-2.2-2.2A2.2,2.2,0,0,1,833.26,1023.29Z" transform="translate(30)"/><path class="cls-3" d="M906.35,1015.62a2.2,2.2,0,1,1-2.2-2.2A2.19,2.19,0,0,1,906.35,1015.62Z" transform="translate(30)"/><path class="cls-3" d="M833,1095.13a2.2,2.2,0,1,1-2.2-2.2A2.19,2.19,0,0,1,833,1095.13Z" transform="translate(30)"/><path class="cls-3" d="M797.13,995.61a2.2,2.2,0,1,1-2.2-2.2A2.19,2.19,0,0,1,797.13,995.61Z" transform="translate(30)"/><path class="cls-3" d="M995.57,1063.45a2.2,2.2,0,1,1-2.2-2.2A2.21,2.21,0,0,1,995.57,1063.45Z" transform="translate(30)"/><path class="cls-3" d="M953.05,1076.26a2.2,2.2,0,1,1-2.21-2.2A2.2,2.2,0,0,1,953.05,1076.26Z" transform="translate(30)"/><path class="cls-3" d="M1032.55,1050.94a2.2,2.2,0,1,1-2.19-2.2A2.19,2.19,0,0,1,1032.55,1050.94Z" transform="translate(30)"/><path class="cls-3" d="M941.37,939.21a2.2,2.2,0,1,1-2.2-2.19A2.19,2.19,0,0,1,941.37,939.21Z" transform="translate(30)"/><path class="cls-3" d="M932.93,983.82a1,1,0,1,1-1-1A1,1,0,0,1,932.93,983.82Z" transform="translate(30)"/><path class="cls-3" d="M985.16,985.78a1,1,0,1,1-1-1A1,1,0,0,1,985.16,985.78Z" transform="translate(30)"/><path class="cls-3" d="M964.31,961.86a1,1,0,1,1-1-1A1,1,0,0,1,964.31,961.86Z" transform="translate(30)"/><path class="cls-3" d="M864.26,998.29a1,1,0,1,1-1-1A1,1,0,0,1,864.26,998.29Z" transform="translate(30)"/><path class="cls-3" d="M874.39,1063.45a1,1,0,1,1-1-1A1,1,0,0,1,874.39,1063.45Z" transform="translate(30)"/><path class="cls-3" d="M918.46,1100a1,1,0,0,1-1,1,1,1,0,0,1,0-1.92A1,1,0,0,1,918.46,1100Z" transform="translate(30)"/><path class="cls-3" d="M895.24,1084.29a1,1,0,1,1-1-1A1,1,0,0,1,895.24,1084.29Z" transform="translate(30)"/><path class="cls-3" d="M978.62,1044.27a1,1,0,1,1-1-1A1,1,0,0,1,978.62,1044.27Z" transform="translate(30)"/><path class="cls-3" d="M997.66,1085.83a1,1,0,1,1-1-1A1,1,0,0,1,997.66,1085.83Z" transform="translate(30)"/><path class="cls-3" d="M1025.88,1011.75a1,1,0,1,1-1-1A1,1,0,0,1,1025.88,1011.75Z" transform="translate(30)"/><path class="cls-3" d="M1026.72,947.55a1,1,0,1,1-1-1A1,1,0,0,1,1026.72,947.55Z" transform="translate(30)"/><path class="cls-3" d="M900.82,963.4a1,1,0,1,1-1-1A1,1,0,0,1,900.82,963.4Z" transform="translate(30)"/><path class="cls-3" d="M817.44,943.38a1,1,0,1,1-1-1A1,1,0,0,1,817.44,943.38Z" transform="translate(30)"/><path class="cls-3" d="M794.93,1031.76a1,1,0,1,1-1-1A1,1,0,0,1,794.93,1031.76Z" transform="translate(30)"/><path class="cls-3" d="M808.4,1087.5a1,1,0,1,1-1-1A1,1,0,0,1,808.4,1087.5Z" transform="translate(30)"/><path class="cls-3" d="M972.65,1016.05a1,1,0,1,1-1-1A1,1,0,0,1,972.65,1016.05Z" transform="translate(30)"/><path class="cls-3" d="M812.44,974.23a1,1,0,1,1-1-1A1,1,0,0,1,812.44,974.23Z" transform="translate(30)"/><path class="cls-3" d="M1121.71,1095.13a5.56,5.56,0,1,1-5.56-5.56A5.55,5.55,0,0,1,1121.71,1095.13Z" transform="translate(30)"/><path class="cls-3" d="M1206,1045.39a5.56,5.56,0,1,1-5.56-5.57A5.56,5.56,0,0,1,1206,1045.39Z" transform="translate(30)"/><path class="cls-3" d="M1101.18,1023.29a2.2,2.2,0,1,1-2.2-2.2A2.21,2.21,0,0,1,1101.18,1023.29Z" transform="translate(30)"/><path class="cls-3" d="M1174.28,1015.62a2.2,2.2,0,1,1-2.21-2.2A2.2,2.2,0,0,1,1174.28,1015.62Z" transform="translate(30)"/><path class="cls-3" d="M1100.9,1095.13a2.2,2.2,0,1,1-2.2-2.2A2.19,2.19,0,0,1,1100.9,1095.13Z" transform="translate(30)"/><path class="cls-3" d="M1065.05,995.61a2.2,2.2,0,1,1-2.2-2.2A2.2,2.2,0,0,1,1065.05,995.61Z" transform="translate(30)"/><path class="cls-3" d="M1263.49,1063.45a2.2,2.2,0,1,1-2.2-2.2A2.21,2.21,0,0,1,1263.49,1063.45Z" transform="translate(30)"/><path class="cls-3" d="M1221,1076.26a2.2,2.2,0,1,1-2.2-2.2A2.2,2.2,0,0,1,1221,1076.26Z" transform="translate(30)"/><path class="cls-3" d="M1300.47,1050.94a2.2,2.2,0,1,1-2.2-2.2A2.19,2.19,0,0,1,1300.47,1050.94Z" transform="translate(30)"/><path class="cls-3" d="M1209.29,939.21a2.2,2.2,0,1,1-2.2-2.19A2.19,2.19,0,0,1,1209.29,939.21Z" transform="translate(30)"/><path class="cls-3" d="M1200.85,983.82a1,1,0,1,1-1-1A1,1,0,0,1,1200.85,983.82Z" transform="translate(30)"/><path class="cls-3" d="M1253.08,985.78a1,1,0,1,1-1-1A1,1,0,0,1,1253.08,985.78Z" transform="translate(30)"/><path class="cls-3" d="M1232.24,961.86a1,1,0,1,1-1-1A1,1,0,0,1,1232.24,961.86Z" transform="translate(30)"/><path class="cls-3" d="M1132.18,998.29a1,1,0,1,1-1-1A1,1,0,0,1,1132.18,998.29Z" transform="translate(30)"/><path class="cls-3" d="M1142.31,1063.45a1,1,0,1,1-1-1A1,1,0,0,1,1142.31,1063.45Z" transform="translate(30)"/><path class="cls-3" d="M1186.38,1100a1,1,0,1,1-1-1A1,1,0,0,1,1186.38,1100Z" transform="translate(30)"/><path class="cls-3" d="M1163.16,1084.29a1,1,0,1,1-1-1A1,1,0,0,1,1163.16,1084.29Z" transform="translate(30)"/><path class="cls-3" d="M1246.54,1044.27a1,1,0,1,1-1-1A1,1,0,0,1,1246.54,1044.27Z" transform="translate(30)"/><path class="cls-3" d="M1265.59,1085.83a1,1,0,1,1-1-1A1,1,0,0,1,1265.59,1085.83Z" transform="translate(30)"/><path class="cls-3" d="M1293.8,1011.75a1,1,0,1,1-1-1A1,1,0,0,1,1293.8,1011.75Z" transform="translate(30)"/><path class="cls-3" d="M1294.64,947.55a1,1,0,1,1-1-1A1,1,0,0,1,1294.64,947.55Z" transform="translate(30)"/><path class="cls-3" d="M1168.74,963.4a1,1,0,1,1-1-1A1,1,0,0,1,1168.74,963.4Z" transform="translate(30)"/><path class="cls-3" d="M1085.36,943.38a1,1,0,1,1-1-1A1,1,0,0,1,1085.36,943.38Z" transform="translate(30)"/><path class="cls-3" d="M1062.85,1031.76a1,1,0,1,1-1-1A1,1,0,0,1,1062.85,1031.76Z" transform="translate(30)"/><path class="cls-3" d="M1076.32,1087.5a1,1,0,1,1-1-1A1,1,0,0,1,1076.32,1087.5Z" transform="translate(30)"/><path class="cls-3" d="M1240.57,1016.05a1,1,0,1,1-1-1A1,1,0,0,1,1240.57,1016.05Z" transform="translate(30)"/><path class="cls-3" d="M1080.36,974.23a1,1,0,1,1-1-1A1,1,0,0,1,1080.36,974.23Z" transform="translate(30)"/><path class="cls-3" d="M1369.1,1023.29a2.2,2.2,0,1,1-2.2-2.2A2.21,2.21,0,0,1,1369.1,1023.29Z" transform="translate(30)"/><path class="cls-3" d="M1368.82,1095.13a2.2,2.2,0,1,1-2.2-2.2A2.19,2.19,0,0,1,1368.82,1095.13Z" transform="translate(30)"/><path class="cls-3" d="M1333,995.61a2.2,2.2,0,1,1-2.2-2.2A2.2,2.2,0,0,1,1333,995.61Z" transform="translate(30)"/><path class="cls-3" d="M1353.28,943.38a1,1,0,1,1-1-1A1,1,0,0,1,1353.28,943.38Z" transform="translate(30)"/><path class="cls-3" d="M1330.77,1031.76a1,1,0,1,1-1-1A1,1,0,0,1,1330.77,1031.76Z" transform="translate(30)"/><path class="cls-3" d="M1344.24,1087.5a1,1,0,1,1-1-1A1,1,0,0,1,1344.24,1087.5Z" transform="translate(30)"/><path class="cls-3" d="M1348.28,974.23a1,1,0,0,1-1,1,1,1,0,0,1,0-1.92A1,1,0,0,1,1348.28,974.23Z" transform="translate(30)"/><path class="cls-3" d="M1304.94,768a5.56,5.56,0,1,0,5.56-5.56A5.56,5.56,0,0,0,1304.94,768Z" transform="translate(30)"/><path class="cls-3" d="M1223.77,846.67a5.56,5.56,0,1,0,5.56-5.56A5.56,5.56,0,0,0,1223.77,846.67Z" transform="translate(30)"/><path class="cls-3" d="M1328.57,824.57a2.2,2.2,0,1,0,2.2-2.2A2.19,2.19,0,0,0,1328.57,824.57Z" transform="translate(30)"/><path class="cls-3" d="M1255.47,816.91a2.2,2.2,0,1,0,2.2-2.2A2.21,2.21,0,0,0,1255.47,816.91Z" transform="translate(30)"/><path class="cls-3" d="M1328.85,896.42a2.2,2.2,0,1,0,2.2-2.2A2.2,2.2,0,0,0,1328.85,896.42Z" transform="translate(30)"/><path class="cls-3" d="M1364.7,796.9a2.2,2.2,0,1,0,2.2-2.2A2.2,2.2,0,0,0,1364.7,796.9Z" transform="translate(30)"/><path class="cls-3" d="M1166.26,864.73a2.2,2.2,0,1,0,2.2-2.2A2.19,2.19,0,0,0,1166.26,864.73Z" transform="translate(30)"/><path class="cls-3" d="M1208.78,877.54a2.2,2.2,0,1,0,2.2-2.2A2.2,2.2,0,0,0,1208.78,877.54Z" transform="translate(30)"/><path class="cls-3" d="M1129.27,852.23a2.2,2.2,0,1,0,2.21-2.2A2.2,2.2,0,0,0,1129.27,852.23Z" transform="translate(30)"/><path class="cls-3" d="M1220.46,740.5a2.2,2.2,0,1,0,2.2-2.2A2.19,2.19,0,0,0,1220.46,740.5Z" transform="translate(30)"/><path class="cls-3" d="M1228.9,785.11a1,1,0,1,0,1-1A1,1,0,0,0,1228.9,785.11Z" transform="translate(30)"/><path class="cls-3" d="M1176.67,787.06a1,1,0,1,0,1-1A1,1,0,0,0,1176.67,787.06Z" transform="translate(30)"/><path class="cls-3" d="M1197.52,763.14a1,1,0,1,0,1-1A1,1,0,0,0,1197.52,763.14Z" transform="translate(30)"/><path class="cls-3" d="M1297.57,799.57a1,1,0,1,0,1-1A1,1,0,0,0,1297.57,799.57Z" transform="translate(30)"/><path class="cls-3" d="M1287.43,864.73a1,1,0,1,0,1-1A1,1,0,0,0,1287.43,864.73Z" transform="translate(30)"/><path class="cls-3" d="M1243.37,901.29a1,1,0,1,0,1-1A1,1,0,0,0,1243.37,901.29Z" transform="translate(30)"/><path class="cls-3" d="M1266.59,885.58a1,1,0,1,0,1-1A1,1,0,0,0,1266.59,885.58Z" transform="translate(30)"/><path class="cls-3" d="M1183.21,845.56a1,1,0,1,0,1-1A1,1,0,0,0,1183.21,845.56Z" transform="translate(30)"/><path class="cls-3" d="M1164.17,887.12a1,1,0,1,0,1-1A1,1,0,0,0,1164.17,887.12Z" transform="translate(30)"/><path class="cls-3" d="M1136,813a1,1,0,1,0,1-1A1,1,0,0,0,1136,813Z" transform="translate(30)"/><path class="cls-3" d="M1135.11,748.84a1,1,0,1,0,1-1A1,1,0,0,0,1135.11,748.84Z" transform="translate(30)"/><path class="cls-3" d="M1261,764.68a1,1,0,1,0,1-1A1,1,0,0,0,1261,764.68Z" transform="translate(30)"/><path class="cls-3" d="M1344.39,744.67a1,1,0,1,0,1-1A1,1,0,0,0,1344.39,744.67Z" transform="translate(30)"/><path class="cls-3" d="M1366.9,833.05a1,1,0,1,0,1-1A1,1,0,0,0,1366.9,833.05Z" transform="translate(30)"/><path class="cls-3" d="M1353.43,888.79a1,1,0,0,0,1.92,0,1,1,0,1,0-1.92,0Z" transform="translate(30)"/><path class="cls-3" d="M1189.18,817.34a1,1,0,1,0,1-1A1,1,0,0,0,1189.18,817.34Z" transform="translate(30)"/><path class="cls-3" d="M1349.39,775.52a1,1,0,1,0,1-1A1,1,0,0,0,1349.39,775.52Z" transform="translate(30)"/><path class="cls-3" d="M881.94,773a5.56,5.56,0,1,0,5.56-5.56A5.56,5.56,0,0,0,881.94,773Z" transform="translate(30)"/><path class="cls-3" d="M957.29,911.43a5.56,5.56,0,1,0,5.57-5.56A5.55,5.55,0,0,0,957.29,911.43Z" transform="translate(30)"/><path class="cls-3" d="M1060.65,824.57a2.2,2.2,0,1,0,2.2-2.2A2.19,2.19,0,0,0,1060.65,824.57Z" transform="translate(30)"/><path class="cls-3" d="M987.55,816.91a2.2,2.2,0,1,0,2.21-2.2A2.21,2.21,0,0,0,987.55,816.91Z" transform="translate(30)"/><path class="cls-3" d="M1060.93,896.42a2.2,2.2,0,1,0,2.2-2.2A2.2,2.2,0,0,0,1060.93,896.42Z" transform="translate(30)"/><path class="cls-3" d="M1096.78,796.9a2.2,2.2,0,1,0,2.2-2.2A2.2,2.2,0,0,0,1096.78,796.9Z" transform="translate(30)"/><path class="cls-3" d="M898.34,864.73a2.2,2.2,0,1,0,2.2-2.2A2.19,2.19,0,0,0,898.34,864.73Z" transform="translate(30)"/><path class="cls-3" d="M940.86,877.54a2.2,2.2,0,1,0,2.21-2.2A2.2,2.2,0,0,0,940.86,877.54Z" transform="translate(30)"/><path class="cls-3" d="M861.36,852.23a2.2,2.2,0,1,0,2.19-2.2A2.19,2.19,0,0,0,861.36,852.23Z" transform="translate(30)"/><path class="cls-3" d="M952.54,740.5a2.2,2.2,0,1,0,2.2-2.2A2.19,2.19,0,0,0,952.54,740.5Z" transform="translate(30)"/><path class="cls-3" d="M961,785.11a1,1,0,1,0,1-1A1,1,0,0,0,961,785.11Z" transform="translate(30)"/><path class="cls-3" d="M908.75,787.06a1,1,0,1,0,1-1A1,1,0,0,0,908.75,787.06Z" transform="translate(30)"/><path class="cls-3" d="M929.59,763.14a1,1,0,1,0,1-1A1,1,0,0,0,929.59,763.14Z" transform="translate(30)"/><path class="cls-3" d="M1029.65,799.57a1,1,0,1,0,1-1A1,1,0,0,0,1029.65,799.57Z" transform="translate(30)"/><path class="cls-3" d="M1019.52,864.73a1,1,0,1,0,1-1A1,1,0,0,0,1019.52,864.73Z" transform="translate(30)"/><path class="cls-3" d="M975.45,901.29a1,1,0,1,0,1-1A1,1,0,0,0,975.45,901.29Z" transform="translate(30)"/><path class="cls-3" d="M998.67,885.58a1,1,0,1,0,1-1A1,1,0,0,0,998.67,885.58Z" transform="translate(30)"/><path class="cls-3" d="M915.29,845.56a1,1,0,1,0,1-1A1,1,0,0,0,915.29,845.56Z" transform="translate(30)"/><path class="cls-3" d="M896.24,887.12a1,1,0,1,0,1-1A1,1,0,0,0,896.24,887.12Z" transform="translate(30)"/><path class="cls-3" d="M868,813a1,1,0,1,0,1-1A1,1,0,0,0,868,813Z" transform="translate(30)"/><path class="cls-3" d="M867.19,748.84a1,1,0,1,0,1-1A1,1,0,0,0,867.19,748.84Z" transform="translate(30)"/><path class="cls-3" d="M993.09,764.68a1,1,0,1,0,1-1A1,1,0,0,0,993.09,764.68Z" transform="translate(30)"/><path class="cls-3" d="M1076.47,744.67a1,1,0,1,0,1-1A1,1,0,0,0,1076.47,744.67Z" transform="translate(30)"/><path class="cls-3" d="M1099,833.05a1,1,0,1,0,1-1A1,1,0,0,0,1099,833.05Z" transform="translate(30)"/><path class="cls-3" d="M1085.51,888.79a1,1,0,1,0,1-1A1,1,0,0,0,1085.51,888.79Z" transform="translate(30)"/><path class="cls-3" d="M921.26,817.34a1,1,0,1,0,1-1A1,1,0,0,0,921.26,817.34Z" transform="translate(30)"/><path class="cls-3" d="M1081.47,775.52a1,1,0,1,0,1-1A1,1,0,0,0,1081.47,775.52Z" transform="translate(30)"/><path class="cls-3" d="M690.48,768a5.56,5.56,0,1,0,5.56-5.57A5.55,5.55,0,0,0,690.48,768Z" transform="translate(30)"/><path class="cls-3" d="M792.73,824.57a2.2,2.2,0,1,0,2.2-2.2A2.19,2.19,0,0,0,792.73,824.57Z" transform="translate(30)"/><path class="cls-3" d="M719.64,816.91a2.2,2.2,0,1,0,2.2-2.2A2.2,2.2,0,0,0,719.64,816.91Z" transform="translate(30)"/><path class="cls-3" d="M793,896.42a2.2,2.2,0,1,0,2.2-2.2A2.2,2.2,0,0,0,793,896.42Z" transform="translate(30)"/><path class="cls-3" d="M828.86,796.9a2.2,2.2,0,1,0,2.2-2.2A2.2,2.2,0,0,0,828.86,796.9Z" transform="translate(30)"/><path class="cls-3" d="M630.42,864.73a2.2,2.2,0,1,0,2.2-2.2A2.2,2.2,0,0,0,630.42,864.73Z" transform="translate(30)"/><path class="cls-3" d="M672.94,877.54a2.2,2.2,0,1,0,2.2-2.2A2.2,2.2,0,0,0,672.94,877.54Z" transform="translate(30)"/><path class="cls-3" d="M593.43,852.23a2.2,2.2,0,1,0,2.21-2.2A2.2,2.2,0,0,0,593.43,852.23Z" transform="translate(30)"/><path class="cls-3" d="M684.62,740.5a2.2,2.2,0,1,0,2.2-2.2A2.19,2.19,0,0,0,684.62,740.5Z" transform="translate(30)"/><path class="cls-3" d="M693.06,785.11a1,1,0,1,0,1-1A1,1,0,0,0,693.06,785.11Z" transform="translate(30)"/><path class="cls-3" d="M640.83,787.06a1,1,0,1,0,1-1A1,1,0,0,0,640.83,787.06Z" transform="translate(30)"/><path class="cls-3" d="M661.68,763.14a1,1,0,1,0,1-1A1,1,0,0,0,661.68,763.14Z" transform="translate(30)"/><path class="cls-3" d="M761.73,799.57a1,1,0,1,0,1-1A1,1,0,0,0,761.73,799.57Z" transform="translate(30)"/><path class="cls-3" d="M751.59,864.73a1,1,0,1,0,1-1A1,1,0,0,0,751.59,864.73Z" transform="translate(30)"/><path class="cls-3" d="M707.53,901.29a1,1,0,1,0,1-1A1,1,0,0,0,707.53,901.29Z" transform="translate(30)"/><path class="cls-3" d="M730.75,885.58a1,1,0,1,0,1-1A1,1,0,0,0,730.75,885.58Z" transform="translate(30)"/><path class="cls-3" d="M647.37,845.56a1,1,0,1,0,1-1A1,1,0,0,0,647.37,845.56Z" transform="translate(30)"/><path class="cls-3" d="M628.33,887.12a1,1,0,1,0,1-1A1,1,0,0,0,628.33,887.12Z" transform="translate(30)"/><path class="cls-3" d="M600.11,813a1,1,0,1,0,1-1A1,1,0,0,0,600.11,813Z" transform="translate(30)"/><circle class="cls-3" cx="630.23" cy="748.84" r="0.96"/><path class="cls-3" d="M725.17,764.68a1,1,0,1,0,1-1A1,1,0,0,0,725.17,764.68Z" transform="translate(30)"/><path class="cls-3" d="M808.55,744.67a1,1,0,1,0,1-1A1,1,0,0,0,808.55,744.67Z" transform="translate(30)"/><path class="cls-3" d="M831.06,833.05a1,1,0,1,0,1-1A1,1,0,0,0,831.06,833.05Z" transform="translate(30)"/><path class="cls-3" d="M817.59,888.79a1,1,0,0,0,1.93,0,1,1,0,1,0-1.93,0Z" transform="translate(30)"/><path class="cls-3" d="M653.34,817.34a1,1,0,1,0,1-1A1,1,0,0,0,653.34,817.34Z" transform="translate(30)"/><path class="cls-3" d="M813.55,775.52a1,1,0,1,0,1-1A1,1,0,0,0,813.55,775.52Z" transform="translate(30)"/><path class="cls-3" d="M592.1,875.85a5.56,5.56,0,1,0,5.56-5.56A5.56,5.56,0,0,0,592.1,875.85Z" transform="translate(30)"/><path class="cls-3" d="M420,846.67a5.56,5.56,0,1,0,5.56-5.56A5.56,5.56,0,0,0,420,846.67Z" transform="translate(30)"/><path class="cls-3" d="M524.81,824.57a2.2,2.2,0,1,0,2.2-2.2A2.2,2.2,0,0,0,524.81,824.57Z" transform="translate(30)"/><path class="cls-3" d="M451.72,816.91a2.2,2.2,0,1,0,2.2-2.2A2.2,2.2,0,0,0,451.72,816.91Z" transform="translate(30)"/><path class="cls-3" d="M525.09,896.42a2.2,2.2,0,1,0,2.2-2.2A2.2,2.2,0,0,0,525.09,896.42Z" transform="translate(30)"/><path class="cls-3" d="M560.94,796.9a2.2,2.2,0,1,0,2.2-2.2A2.2,2.2,0,0,0,560.94,796.9Z" transform="translate(30)"/><path class="cls-3" d="M362.5,864.73a2.2,2.2,0,1,0,2.2-2.2A2.2,2.2,0,0,0,362.5,864.73Z" transform="translate(30)"/><path class="cls-3" d="M405,877.54a2.2,2.2,0,1,0,2.21-2.2A2.2,2.2,0,0,0,405,877.54Z" transform="translate(30)"/><path class="cls-3" d="M325.52,852.23a2.2,2.2,0,1,0,2.19-2.2A2.19,2.19,0,0,0,325.52,852.23Z" transform="translate(30)"/><circle class="cls-3" cx="418.9" cy="740.5" r="2.2" transform="translate(-83.21 76.66) rotate(-9.22)"/><path class="cls-3" d="M425.14,785.11a1,1,0,1,0,1-1A1,1,0,0,0,425.14,785.11Z" transform="translate(30)"/><path class="cls-3" d="M372.91,787.06a1,1,0,1,0,1-1A1,1,0,0,0,372.91,787.06Z" transform="translate(30)"/><path class="cls-3" d="M393.76,763.14a1,1,0,1,0,1-1A1,1,0,0,0,393.76,763.14Z" transform="translate(30)"/><path class="cls-3" d="M493.81,799.57a1,1,0,1,0,1-1A1,1,0,0,0,493.81,799.57Z" transform="translate(30)"/><path class="cls-3" d="M483.68,864.73a1,1,0,1,0,1-1A1,1,0,0,0,483.68,864.73Z" transform="translate(30)"/><path class="cls-3" d="M439.61,901.29a1,1,0,1,0,1-1A1,1,0,0,0,439.61,901.29Z" transform="translate(30)"/><path class="cls-3" d="M462.83,885.58a1,1,0,1,0,1-1A1,1,0,0,0,462.83,885.58Z" transform="translate(30)"/><path class="cls-3" d="M379.45,845.56a1,1,0,1,0,1-1A1,1,0,0,0,379.45,845.56Z" transform="translate(30)"/><path class="cls-3" d="M360.41,887.12a1,1,0,1,0,1-1A1,1,0,0,0,360.41,887.12Z" transform="translate(30)"/><path class="cls-3" d="M332.19,813a1,1,0,1,0,1-1A1,1,0,0,0,332.19,813Z" transform="translate(30)"/><path class="cls-3" d="M331.35,748.84a1,1,0,1,0,1-1A1,1,0,0,0,331.35,748.84Z" transform="translate(30)"/><path class="cls-3" d="M457.25,764.68a1,1,0,1,0,1-1A1,1,0,0,0,457.25,764.68Z" transform="translate(30)"/><path class="cls-3" d="M540.63,744.67a1,1,0,1,0,1-1A1,1,0,0,0,540.63,744.67Z" transform="translate(30)"/><path class="cls-3" d="M563.14,833.05a1,1,0,1,0,1-1A1,1,0,0,0,563.14,833.05Z" transform="translate(30)"/><path class="cls-3" d="M549.67,888.79a1,1,0,0,0,1.92,0,1,1,0,1,0-1.92,0Z" transform="translate(30)"/><path class="cls-3" d="M385.42,817.34a1,1,0,1,0,1-1A1,1,0,0,0,385.42,817.34Z" transform="translate(30)"/><path class="cls-3" d="M545.63,775.52a1,1,0,1,0,1-1A1,1,0,0,0,545.63,775.52Z" transform="translate(30)"/><path class="cls-3" d="M236.36,896.42a5.56,5.56,0,1,0,5.56-5.56A5.56,5.56,0,0,0,236.36,896.42Z" transform="translate(30)"/><path class="cls-3" d="M152.09,846.67a5.56,5.56,0,1,0,5.56-5.56A5.56,5.56,0,0,0,152.09,846.67Z" transform="translate(30)"/><path class="cls-3" d="M256.89,824.57a2.2,2.2,0,1,0,2.2-2.2A2.2,2.2,0,0,0,256.89,824.57Z" transform="translate(30)"/><path class="cls-3" d="M183.8,816.91a2.2,2.2,0,1,0,2.2-2.2A2.2,2.2,0,0,0,183.8,816.91Z" transform="translate(30)"/><path class="cls-3" d="M257.17,896.42a2.2,2.2,0,1,0,2.2-2.2A2.2,2.2,0,0,0,257.17,896.42Z" transform="translate(30)"/><path class="cls-3" d="M293,796.9a2.2,2.2,0,1,0,2.2-2.2A2.2,2.2,0,0,0,293,796.9Z" transform="translate(30)"/><circle class="cls-3" cx="126.78" cy="864.73" r="2.2"/><path class="cls-3" d="M137.11,877.54a2.2,2.2,0,1,0,2.19-2.2A2.19,2.19,0,0,0,137.11,877.54Z" transform="translate(30)"/><path class="cls-3" d="M57.6,852.23a2.2,2.2,0,1,0,2.2-2.2A2.19,2.19,0,0,0,57.6,852.23Z" transform="translate(30)"/><circle class="cls-3" cx="150.98" cy="740.5" r="2.2" transform="translate(-86.67 33.75) rotate(-9.22)"/><path class="cls-3" d="M157.22,785.11a1,1,0,1,0,1-1A1,1,0,0,0,157.22,785.11Z" transform="translate(30)"/><path class="cls-3" d="M105,787.06a1,1,0,1,0,1-1A1,1,0,0,0,105,787.06Z" transform="translate(30)"/><path class="cls-3" d="M125.84,763.14a1,1,0,1,0,1-1A1,1,0,0,0,125.84,763.14Z" transform="translate(30)"/><path class="cls-3" d="M225.89,799.57a1,1,0,1,0,1-1A1,1,0,0,0,225.89,799.57Z" transform="translate(30)"/><path class="cls-3" d="M215.76,864.73a1,1,0,1,0,1-1A1,1,0,0,0,215.76,864.73Z" transform="translate(30)"/><circle class="cls-3" cx="202.66" cy="901.29" r="0.96"/><path class="cls-3" d="M194.91,885.58a1,1,0,1,0,1-1A1,1,0,0,0,194.91,885.58Z" transform="translate(30)"/><path class="cls-3" d="M111.54,845.56a1,1,0,1,0,1-1A1,1,0,0,0,111.54,845.56Z" transform="translate(30)"/><path class="cls-3" d="M92.48,887.12a1,1,0,1,0,1-1A1,1,0,0,0,92.48,887.12Z" transform="translate(30)"/><path class="cls-3" d="M64.26,813a1,1,0,1,0,1-1A1,1,0,0,0,64.26,813Z" transform="translate(30)"/><path class="cls-3" d="M63.43,748.84a1,1,0,1,0,1-1A1,1,0,0,0,63.43,748.84Z" transform="translate(30)"/><path class="cls-3" d="M189.33,764.68a1,1,0,1,0,1-1A1,1,0,0,0,189.33,764.68Z" transform="translate(30)"/><path class="cls-3" d="M272.71,744.67a1,1,0,1,0,1-1A1,1,0,0,0,272.71,744.67Z" transform="translate(30)"/><path class="cls-3" d="M295.22,833.05a1,1,0,1,0,1-1A1,1,0,0,0,295.22,833.05Z" transform="translate(30)"/><path class="cls-3" d="M281.75,888.79a1,1,0,0,0,1.92,0,1,1,0,1,0-1.92,0Z" transform="translate(30)"/><path class="cls-3" d="M117.5,817.34a1,1,0,1,0,1-1A1,1,0,0,0,117.5,817.34Z" transform="translate(30)"/><path class="cls-3" d="M277.71,775.52a1,1,0,1,0,1-1A1,1,0,0,0,277.71,775.52Z" transform="translate(30)"/><path class="cls-3" d="M-11,824.57a2.19,2.19,0,0,0,2.2,2.2,2.19,2.19,0,0,0,2.2-2.2,2.2,2.2,0,0,0-2.2-2.2A2.2,2.2,0,0,0-11,824.57Z" transform="translate(30)"/><path class="cls-3" d="M-10.75,896.42a2.2,2.2,0,0,0,2.2,2.2,2.21,2.21,0,0,0,2.2-2.2,2.2,2.2,0,0,0-2.2-2.2A2.19,2.19,0,0,0-10.75,896.42Z" transform="translate(30)"/><path class="cls-3" d="M25.1,796.9a2.2,2.2,0,1,0,2.2-2.2A2.21,2.21,0,0,0,25.1,796.9Z" transform="translate(30)"/><path class="cls-3" d="M4.79,744.67a1,1,0,1,0,1-1A1,1,0,0,0,4.79,744.67Z" transform="translate(30)"/><path class="cls-3" d="M27.3,833.05a1,1,0,1,0,1-1A1,1,0,0,0,27.3,833.05Z" transform="translate(30)"/><path class="cls-3" d="M13.83,888.79a1,1,0,0,0,1.93,0,1,1,0,1,0-1.93,0Z" transform="translate(30)"/><path class="cls-3" d="M9.79,775.52a1,1,0,1,0,1-1A1,1,0,0,0,9.79,775.52Z" transform="translate(30)"/><g class="cls-4"><path class="cls-3" d="M1276.21,663.89l-4.91-26.52-4.92,26.52-26.52,4.92,26.52,4.91,4.92,26.52,4.91-26.52,26.52-4.91Zm-2.74,7.1-2.17,11.75L1269.12,671l-11.76-2.18,11.76-2.18,2.18-11.76,2.17,11.76,11.76,2.18Z" transform="translate(30)"/><path class="cls-3" d="M1002,1013.81l-4.91-26.51-4.92,26.51-26.52,4.92,26.52,4.92,4.92,26.51,4.91-26.51,26.52-4.92Zm-2.74,7.1-2.17,11.75-2.18-11.75-11.76-2.18,11.76-2.18,2.18-11.75,2.17,11.75,11.76,2.18Z" transform="translate(30)"/><path class="cls-3" d="M103.37,83.81l-2.49-13.4L98.4,83.81,85,86.29l13.4,2.49,2.48,13.4,2.49-13.4,13.4-2.49Z" transform="translate(30)"/><path class="cls-3" d="M557.3,1034.28l-2.48-13.4-2.49,13.4-13.4,2.49,13.4,2.48,2.49,13.4,2.48-13.4,13.4-2.48Z" transform="translate(30)"/><path class="cls-3" d="M73.71,647.41,71.23,634l-2.49,13.4-13.4,2.49,13.4,2.48,2.49,13.4,2.48-13.4,13.4-2.48Z" transform="translate(30)"/><path class="cls-3" d="M317.61,1003.8a14.14,14.14,0,0,0-28.26-.72,7.07,7.07,0,0,1,14.11.72h0v0a7.08,7.08,0,0,0,14.15,0v0Z" transform="translate(30)"/><path class="cls-3" d="M288.61,1008.65a14.14,14.14,0,0,0,28.26.72,7.07,7.07,0,0,1-14.11-.72h0v0a7.08,7.08,0,0,0-14.15,0v0Z" transform="translate(30)"/></g></g><g class="cls-4"><path class="cls-5" d="M395.57,59a360.74,360.74,0,0,0,178,46.65,361.81,361.81,0,0,0,123-21.41c364.88-109.4,502.47,213.35,691.6,229.71V269.31Q1357.8,143.16,1301.39,59Z" transform="translate(30)"/><path class="cls-5" d="M1301.39,59q56.4,84.21,86.68,210.31V59Z" transform="translate(30)"/><path class="cls-5" d="M1301.39,59a512.9,512.9,0,0,1,37.73,67.14q24-.6,47.88-1.14-23.89.56-47.88,1.14,29.75,63.15,49,143.17V59Z" transform="translate(30)"/><path class="cls-5" d="M1138.61,1148h24.8l-.51-.72C1155.33,1147.51,1147.21,1147.78,1138.61,1148Z" transform="translate(30)"/><path class="cls-5" d="M110.24,1031.16c172.18-5.12,427.68-119.48,639.92,49.77,37.25,29.71,74.49,51.42,111,67.07H1081.5c-98.17-3.28-229.79-27.85-345.5-154.08C552.57,793.82,282.43,867.19,111.54,845.56,6.16,832.22-23.07,728.17-30,650.34v290.4C-3.12,991.29,40.29,1033.24,110.24,1031.16Z" transform="translate(30)"/><path class="cls-5" d="M750.16,1080.93C537.92,911.68,282.42,1026,110.24,1031.16,40.29,1033.24-3.12,991.29-30,940.74V1148H861.11C824.65,1132.35,787.41,1110.64,750.16,1080.93Z" transform="translate(30)"/><path class="cls-5" d="M750.16,1080.93C537.92,911.68,282.42,1026,110.24,1031.16,40.29,1033.24-3.12,991.29-30,940.74V1148H861.11C824.65,1132.35,787.41,1110.64,750.16,1080.93Z" transform="translate(30)"/><path class="cls-5" d="M-30,153.83V520.16C12,488,92.62,467.51,244.63,531.45,417.29,604.08,371.2,321.15,246.4,59H-30v94.83" transform="translate(30)"/><path class="cls-5" d="M955.2,507.3c-1.2-.09-2.41-.2-3.61-.27-215.27-13.24,37.22,391.85,211.31,640.25,19.42-.58,35.29-.86,46.63.72h48.8C1113.35,943.85,893.89,605.61,955.2,507.3Z" transform="translate(30)"/><path class="cls-5" d="M1162.9,1147.28l.51.72h46.12C1198.19,1146.42,1182.32,1146.7,1162.9,1147.28Z" transform="translate(30)"/><path class="cls-5" d="M1162.9,1147.28l.51.72h46.12C1198.19,1146.42,1182.32,1146.7,1162.9,1147.28Z" transform="translate(30)"/><path class="cls-5" d="M955.2,507.3c123.09,9.34,292.22,111.37,432.87,231.88v-88C1264.18,557.77,1129.5,486.3,1027.45,480,990.49,477.74,967.35,487.82,955.2,507.3Z" transform="translate(30)"/><path class="cls-5" d="M1258.33,1148h129.74V739.18C1247.42,618.67,1078.29,516.64,955.2,507.3,893.89,605.61,1113.35,943.85,1258.33,1148Z" transform="translate(30)"/><path class="cls-5" d="M1258.33,1148h129.74V739.18C1247.42,618.67,1078.29,516.64,955.2,507.3,893.89,605.61,1113.35,943.85,1258.33,1148Z" transform="translate(30)"/></g><path class="cls-1" d="M537.09,470.91" transform="translate(30)"/><rect class="cls-3" width="1418" height="58"/></svg>