<svg xmlns="http://www.w3.org/2000/svg" xmlns:xlink="http://www.w3.org/1999/xlink" viewBox="0 0 355.99 346.49"><defs><style>.cls-1{fill:none;}.cls-2{isolation:isolate;}.cls-3{fill:#fff;}.cls-4{fill:url(#_ÂÁ_Ï_ÌÌ_È_ËÂÌÚ_18);}.cls-5{fill:url(#_ÂÁ_Ï_ÌÌ_È_ËÂÌÚ_28);}.cls-6{fill:url(#_ÂÁ_Ï_ÌÌ_È_ËÂÌÚ_28-2);}.cls-7{fill:#0c0f38;}.cls-7,.cls-8{opacity:0.8;}.cls-10,.cls-12,.cls-8{fill:#d4088c;}.cls-10,.cls-8,.cls-9{mix-blend-mode:lighten;}.cls-20,.cls-9{fill:#6ee8fc;}.cls-11{fill:#6ee1f8;}.cls-13{fill:url(#_ÂÁ_Ï_ÌÌ_È_ËÂÌÚ_6);}.cls-14{fill:#3a9bd5;}.cls-15{fill:url(#_ÂÁ_Ï_ÌÌ_È_ËÂÌÚ_14);}.cls-16{fill:url(#_ÂÁ_Ï_ÌÌ_È_ËÂÌÚ_3);}.cls-17{fill:url(#_ÂÁ_Ï_ÌÌ_È_ËÂÌÚ_6-2);}.cls-18{fill:url(#_ÂÁ_Ï_ÌÌ_È_ËÂÌÚ_3-2);}.cls-19{fill:url(#_ÂÁ_Ï_ÌÌ_È_ËÂÌÚ_103);}.cls-21{opacity:0.11;}.cls-22{clip-path:url(#clip-path);}.cls-23{fill:url(#_ÂÁ_Ï_ÌÌ_È_ËÂÌÚ_21);}.cls-24{fill:url(#_ÂÁ_Ï_ÌÌ_È_ËÂÌÚ_29);}.cls-25{fill:url(#_ÂÁ_Ï_ÌÌ_È_ËÂÌÚ_29-2);}.cls-26{fill:url(#_ÂÁ_Ï_ÌÌ_È_ËÂÌÚ_29-3);}.cls-27{fill:url(#_ÂÁ_Ï_ÌÌ_È_ËÂÌÚ_29-4);}.cls-28{fill:url(#_ÂÁ_Ï_ÌÌ_È_ËÂÌÚ_29-5);}.cls-29{opacity:0.5;}</style><linearGradient id="_ÂÁ_Ï_ÌÌ_È_ËÂÌÚ_18" x1="340.52" y1="1011.38" x2="387.54" y2="1011.38" gradientTransform="translate(996.06 673.39) rotate(135)" gradientUnits="userSpaceOnUse"><stop offset="0" stop-color="#d4088c"/><stop offset="0.04" stop-color="#cc088c"/><stop offset="0.46" stop-color="#85078a"/><stop offset="0.76" stop-color="#590689"/><stop offset="0.91" stop-color="#480689"/></linearGradient><linearGradient id="_ÂÁ_Ï_ÌÌ_È_ËÂÌÚ_28" x1="220.72" y1="1115.02" x2="240.19" y2="1115.02" gradientTransform="translate(284.4 1164.55) rotate(180)" gradientUnits="userSpaceOnUse"><stop offset="0" stop-color="#6ee8fc"/><stop offset="0.16" stop-color="#6ae2fb"/><stop offset="0.37" stop-color="#5ed1f7"/><stop offset="0.61" stop-color="#4bb5f1"/><stop offset="0.87" stop-color="#308ee8"/><stop offset="0.96" stop-color="#267fe5"/></linearGradient><linearGradient id="_ÂÁ_Ï_ÌÌ_È_ËÂÌÚ_28-2" x1="82.77" y1="798.78" x2="126.55" y2="798.78" gradientTransform="matrix(0.32, 0.95, -0.95, 0.32, 1181.09, -146.57)" xlink:href="#_ÂÁ_Ï_ÌÌ_È_ËÂÌÚ_28"/><linearGradient id="_ÂÁ_Ï_ÌÌ_È_ËÂÌÚ_6" x1="-5203.4" y1="189.36" x2="-5066.42" y2="189.36" gradientTransform="matrix(-1, 0, 0, 1, -4801.38, 0)" gradientUnits="userSpaceOnUse"><stop offset="0" stop-color="#7bdaff"/><stop offset="1" stop-color="#59bdef"/></linearGradient><linearGradient id="_ÂÁ_Ï_ÌÌ_È_ËÂÌÚ_14" x1="-5201.54" y1="189.96" x2="-5064.56" y2="189.96" gradientTransform="matrix(-1, 0, 0, 1, -4801.38, 0)" gradientUnits="userSpaceOnUse"><stop offset="0" stop-color="#2573ba"/><stop offset="1" stop-color="#0063ad"/></linearGradient><linearGradient id="_ÂÁ_Ï_ÌÌ_È_ËÂÌÚ_3" x1="-5201.54" y1="189.96" x2="-5064.56" y2="189.96" gradientTransform="matrix(-1, 0, 0, 1, -4801.38, 0)" gradientUnits="userSpaceOnUse"><stop offset="0" stop-color="#2c75e4"/><stop offset="0.04" stop-color="#3461d5"/><stop offset="0.13" stop-color="#4140bb"/><stop offset="0.22" stop-color="#4b27a7"/><stop offset="0.32" stop-color="#521499"/><stop offset="0.41" stop-color="#570a91"/><stop offset="0.52" stop-color="#58068e"/><stop offset="0.66" stop-color="#5b078f"/><stop offset="0.76" stop-color="#640a92"/><stop offset="0.85" stop-color="#740f98"/><stop offset="0.93" stop-color="#8b17a0"/><stop offset="1" stop-color="#a31fa9"/></linearGradient><linearGradient id="_ÂÁ_Ï_ÌÌ_È_ËÂÌÚ_6-2" x1="-5198.72" y1="189.97" x2="-5067.51" y2="189.97" gradientTransform="matrix(-1, 0, 0, 1, -4925.14, -60.74)" xlink:href="#_ÂÁ_Ï_ÌÌ_È_ËÂÌÚ_6"/><linearGradient id="_ÂÁ_Ï_ÌÌ_È_ËÂÌÚ_3-2" x1="-5185.04" y1="263.98" x2="-4991.59" y2="263.98" xlink:href="#_ÂÁ_Ï_ÌÌ_È_ËÂÌÚ_3"/><radialGradient id="_ÂÁ_Ï_ÌÌ_È_ËÂÌÚ_103" cx="-5190.97" cy="273.19" r="205.39" gradientTransform="matrix(-1, 0, 0, 1, -4801.38, 0)" gradientUnits="userSpaceOnUse"><stop offset="0" stop-color="#2979e4"/><stop offset="0.24" stop-color="#4958cd"/><stop offset="0.57" stop-color="#6e33b2"/><stop offset="0.83" stop-color="#851ba1"/><stop offset="1" stop-color="#8d139b"/></radialGradient><clipPath id="clip-path" transform="translate(-123.76 -60.74)"><polygon class="cls-1" points="281.56 115.16 397.34 182 383.17 265.56 267.47 198.76 281.56 115.16"/></clipPath><linearGradient id="_ÂÁ_Ï_ÌÌ_È_ËÂÌÚ_21" x1="-5208.71" y1="216.11" x2="-4993.23" y2="216.11" gradientTransform="matrix(-1, 0, 0, 1, -4801.38, 0)" gradientUnits="userSpaceOnUse"><stop offset="0" stop-color="#c0bff6"/><stop offset="0.29" stop-color="#c5c4f7"/><stop offset="0.64" stop-color="#d3d2f9"/><stop offset="1" stop-color="#e9e9fd"/></linearGradient><radialGradient id="_ÂÁ_Ï_ÌÌ_È_ËÂÌÚ_29" cx="215.73" cy="167.94" r="40.15" gradientUnits="userSpaceOnUse"><stop offset="0" stop-color="#22215b"/><stop offset="0.33" stop-color="#1e1e55"/><stop offset="0.75" stop-color="#141645"/><stop offset="1" stop-color="#0c0f38"/></radialGradient><radialGradient id="_ÂÁ_Ï_ÌÌ_È_ËÂÌÚ_29-2" cx="223.35" cy="160.84" r="38.24" xlink:href="#_ÂÁ_Ï_ÌÌ_È_ËÂÌÚ_29"/><radialGradient id="_ÂÁ_Ï_ÌÌ_È_ËÂÌÚ_29-3" cx="237.15" cy="161.59" r="44.4" xlink:href="#_ÂÁ_Ï_ÌÌ_È_ËÂÌÚ_29"/><radialGradient id="_ÂÁ_Ï_ÌÌ_È_ËÂÌÚ_29-4" cx="243.4" cy="157.99" r="44.4" xlink:href="#_ÂÁ_Ï_ÌÌ_È_ËÂÌÚ_29"/><radialGradient id="_ÂÁ_Ï_ÌÌ_È_ËÂÌÚ_29-5" cx="249.64" cy="154.38" r="44.4" xlink:href="#_ÂÁ_Ï_ÌÌ_È_ËÂÌÚ_29"/></defs><title>img-right</title><g class="cls-2"><g id="_ÎÓÈ_1" data-name="—ÎÓÈ_1"><path class="cls-3" d="M221.23,406V395.62h2.3v4.21h1.6v-4.21h2.3V406h-2.3v-4.56h-1.6V406Z" transform="translate(-123.76 -60.74)"/><path class="cls-3" d="M229,406V395.62h2.3V406Z" transform="translate(-123.76 -60.74)"/><path class="cls-3" d="M232.92,402.23v-1.35h3.33v1.35Z" transform="translate(-123.76 -60.74)"/><path class="cls-3" d="M238.79,406v-8.71h-1.6v-1.7h5.49v1.7h-1.59V406Z" transform="translate(-123.76 -60.74)"/><path class="cls-3" d="M243.57,406V395.62h4.67v1.57h-2.38v2.57h1.82v1.61h-1.82v3.1h2.41V406Z" transform="translate(-123.76 -60.74)"/><path class="cls-3" d="M252.29,406.17a4.12,4.12,0,0,1-1.49-.24,2.21,2.21,0,0,1-1-.71,3.22,3.22,0,0,1-.51-1.09,6.12,6.12,0,0,1-.15-1.44V399a6.27,6.27,0,0,1,.15-1.47,3.13,3.13,0,0,1,.51-1.09,2.14,2.14,0,0,1,1-.71,5,5,0,0,1,2.93,0,2.08,2.08,0,0,1,.93.63,2.62,2.62,0,0,1,.48.94,4.5,4.5,0,0,1,.15,1.23v.91H253v-1c0-.16,0-.28,0-.37a2.51,2.51,0,0,0,0-.32.86.86,0,0,0-.11-.3.69.69,0,0,0-.22-.18.84.84,0,0,0-.37-.08.8.8,0,0,0-.36.08.75.75,0,0,0-.23.19.84.84,0,0,0-.13.3,1.55,1.55,0,0,0,0,.35c0,.1,0,.23,0,.39v4.85a2.22,2.22,0,0,0,.16,1,.63.63,0,0,0,.62.33.8.8,0,0,0,.36-.08.59.59,0,0,0,.22-.19.85.85,0,0,0,.12-.3,2.38,2.38,0,0,0,0-.34c0-.09,0-.22,0-.38v-1.09h2.25v.9a5.2,5.2,0,0,1-.09,1,3.19,3.19,0,0,1-.3.85,2.1,2.1,0,0,1-.55.67,2.42,2.42,0,0,1-.85.42A4.4,4.4,0,0,1,252.29,406.17Z" transform="translate(-123.76 -60.74)"/><path class="cls-3" d="M256.58,406V395.62h2.3v4.21h1.6v-4.21h2.31V406h-2.31v-4.56h-1.6V406Z" transform="translate(-123.76 -60.74)"/><path class="cls-3" d="M221.21,393.12V382.38h2.7a6.63,6.63,0,0,1,1.75.19,2.39,2.39,0,0,1,1.11.61,2.36,2.36,0,0,1,.58,1.05,5.68,5.68,0,0,1,.17,1.55v3.87a6.41,6.41,0,0,1-.17,1.58,2.44,2.44,0,0,1-.58,1.06,2.31,2.31,0,0,1-1.1.64,6.52,6.52,0,0,1-1.73.19Zm2.37-1.65h.36a3,3,0,0,0,.46,0,.72.72,0,0,0,.32-.13.73.73,0,0,0,.2-.19.65.65,0,0,0,.11-.29,2.58,2.58,0,0,0,.05-.36c0-.12,0-.27,0-.47v-4.61a3.34,3.34,0,0,0,0-.63.92.92,0,0,0-.15-.4.55.55,0,0,0-.34-.25,2.1,2.1,0,0,0-.63-.07h-.35Z" transform="translate(-123.76 -60.74)"/><path class="cls-3" d="M229,393.12V382.38h2.37v10.74Z" transform="translate(-123.76 -60.74)"/><path class="cls-3" d="M235.74,393.28a3.25,3.25,0,0,1-1.39-.27,2.09,2.09,0,0,1-.92-.76,3.41,3.41,0,0,1-.49-1.17,7,7,0,0,1-.15-1.53V386a7,7,0,0,1,.1-1.27,3.73,3.73,0,0,1,.33-1,2.14,2.14,0,0,1,.6-.78,2.6,2.6,0,0,1,.92-.49,4.39,4.39,0,0,1,1.27-.17,4.63,4.63,0,0,1,1.24.15,2.88,2.88,0,0,1,.9.41,2.09,2.09,0,0,1,.58.67,2.76,2.76,0,0,1,.33.87,5.51,5.51,0,0,1,.1,1.05v.68h-2.32v-.86c0-.17,0-.3,0-.4a2.57,2.57,0,0,0-.06-.35.59.59,0,0,0-.12-.29.62.62,0,0,0-.23-.18.84.84,0,0,0-.37-.07.9.9,0,0,0-.39.08.71.71,0,0,0-.24.21,1,1,0,0,0-.14.32,1.63,1.63,0,0,0-.05.36c0,.11,0,.25,0,.41v4.91a2.24,2.24,0,0,0,.19,1,.71.71,0,0,0,.69.37c.63,0,.94-.48.94-1.43V389h-1v-1.41h3.11v5.58h-1.57l-.14-.9A1.73,1.73,0,0,1,235.74,393.28Z" transform="translate(-123.76 -60.74)"/><path class="cls-3" d="M240.66,393.12V382.38H243v10.74Z" transform="translate(-123.76 -60.74)"/><path class="cls-3" d="M245.62,393.12v-9H244v-1.76h5.66v1.76H248v9Z" transform="translate(-123.76 -60.74)"/><path class="cls-3" d="M250,393.12l2-10.74h2.68l2,10.74h-2.19l-.37-2.28h-1.57l-.36,2.28Zm2.82-3.7h1.15l-.58-4.16Z" transform="translate(-123.76 -60.74)"/><path class="cls-3" d="M257.78,393.12V382.38h2.38v9.13h2.46v1.61Z" transform="translate(-123.76 -60.74)"/><circle class="cls-4" cx="23.51" cy="215.66" r="23.51"/><circle class="cls-5" cx="53.94" cy="49.53" r="9.74"/><circle class="cls-6" cx="456.63" cy="205.11" r="17.5" transform="translate(-135.04 322.22) rotate(-45)"/><path class="cls-7" d="M461.11,276c-7,1.37-14.66-.82-17-4.88s1.42-8.46,8.45-9.83,14.66.82,17,4.89S468.15,274.62,461.11,276Z" transform="translate(-123.76 -60.74)"/><ellipse class="cls-7" cx="23.79" cy="284.25" rx="18.7" ry="10.8"/><path class="cls-7" d="M179.84,149.62c-3.52.69-7.32-.41-8.51-2.44s.71-4.22,4.23-4.9,7.32.41,8.5,2.43S183.35,148.94,179.84,149.62Z" transform="translate(-123.76 -60.74)"/><circle class="cls-8" cx="118.26" cy="9.02" r="2.49"/><circle class="cls-8" cx="74.54" cy="262.66" r="3.01"/><path class="cls-9" d="M180.79,310.09a1.55,1.55,0,1,1-1.55-1.54A1.54,1.54,0,0,1,180.79,310.09Z" transform="translate(-123.76 -60.74)"/><path class="cls-9" d="M443.38,253a1.6,1.6,0,1,1-1.6-1.6A1.59,1.59,0,0,1,443.38,253Z" transform="translate(-123.76 -60.74)"/><circle class="cls-9" cx="21.54" cy="84.32" r="2.25"/><path class="cls-9" d="M315.75,63a2.25,2.25,0,1,1-2.25-2.25A2.25,2.25,0,0,1,315.75,63Z" transform="translate(-123.76 -60.74)"/><path class="cls-9" d="M156.71,140.07a1.25,1.25,0,1,1-1.25-1.25A1.24,1.24,0,0,1,156.71,140.07Z" transform="translate(-123.76 -60.74)"/><path class="cls-10" d="M371.24,71a1.48,1.48,0,1,1-1.48-1.47A1.48,1.48,0,0,1,371.24,71Z" transform="translate(-123.76 -60.74)"/><polygon class="cls-11" points="31.24 158.12 30.7 156.19 34.98 155 33.78 150.71 35.71 150.18 37.45 156.38 31.24 158.12"/><polygon class="cls-11" points="27.46 164.83 26.93 162.9 31.2 161.71 30.01 157.42 31.93 156.88 33.67 163.09 27.46 164.83"/><polygon class="cls-11" points="31.48 162.67 29.74 156.46 35.95 154.73 36.48 156.65 32.2 157.85 33.4 162.13 31.48 162.67"/><path class="cls-11" d="M302.92,75.78A4.76,4.76,0,1,1,307.68,71,4.76,4.76,0,0,1,302.92,75.78Zm0-7.52A2.76,2.76,0,1,0,305.68,71,2.77,2.77,0,0,0,302.92,68.26Z" transform="translate(-123.76 -60.74)"/><path class="cls-11" d="M407.33,313.94l-5.4-5.4,5.4-5.4,5.4,5.4Zm-2.57-5.4,2.57,2.58,2.58-2.58L407.33,306Z" transform="translate(-123.76 -60.74)"/><rect class="cls-12" x="421.38" y="116.29" width="2" height="8.18" transform="translate(-85.15 273.22) rotate(-45.01)"/><rect class="cls-12" x="418.29" y="119.38" width="8.18" height="2" transform="translate(-85.16 273.19) rotate(-45)"/><path class="cls-3" d="M276.62,388v-5.54h1v4.84H279v.7Z" transform="translate(-123.76 -60.74)"/><path class="cls-3" d="M280.63,388.08a1.17,1.17,0,0,1-.95-.36,1.53,1.53,0,0,1-.32-1v-1.31a1.51,1.51,0,0,1,.32-1,1.17,1.17,0,0,1,.95-.36,1.22,1.22,0,0,1,1,.36,1.51,1.51,0,0,1,.31,1v1.31a1.53,1.53,0,0,1-.31,1A1.22,1.22,0,0,1,280.63,388.08Zm0-.66a.36.36,0,0,0,.19-.05.37.37,0,0,0,.1-.16,1.77,1.77,0,0,0,0-.2,1.93,1.93,0,0,0,0-.26v-1.64a1.68,1.68,0,0,0,0-.18.53.53,0,0,0-.05-.15.28.28,0,0,0-.1-.09.29.29,0,0,0-.16,0,.29.29,0,0,0-.19.05.32.32,0,0,0-.1.16,1.42,1.42,0,0,0,0,.2,1.93,1.93,0,0,0,0,.26V387l0,.17a.37.37,0,0,0,.05.15.47.47,0,0,0,.1.1A.42.42,0,0,0,280.63,387.42Z" transform="translate(-123.76 -60.74)"/><path class="cls-3" d="M282.56,388v-4h.93v.61a1.85,1.85,0,0,1,.4-.5.68.68,0,0,1,.44-.16l.14,0V385a.78.78,0,0,0-.33-.07.69.69,0,0,0-.35.11,1,1,0,0,0-.3.31V388Z" transform="translate(-123.76 -60.74)"/><path class="cls-3" d="M286.11,388.08a1.19,1.19,0,0,1-1-.38,1.75,1.75,0,0,1-.29-1.11v-1.12a1.74,1.74,0,0,1,.3-1.1,1.17,1.17,0,0,1,1-.38,1.69,1.69,0,0,1,.59.1.8.8,0,0,1,.38.32,1.26,1.26,0,0,1,.19.49,3.1,3.1,0,0,1,.06.66v.52h-1.56v.79a1,1,0,0,0,0,.16,1,1,0,0,0,0,.15.3.3,0,0,0,.06.11.2.2,0,0,0,.1.08.3.3,0,0,0,.14,0,.27.27,0,0,0,.26-.13.78.78,0,0,0,.07-.38v-.23h.89v.16a1.3,1.3,0,0,1-.31.94A1.18,1.18,0,0,1,286.11,388.08Zm-.34-2.47h.67v-.38a.93.93,0,0,0-.07-.43.28.28,0,0,0-.27-.13.25.25,0,0,0-.26.15,1.3,1.3,0,0,0-.07.53Z" transform="translate(-123.76 -60.74)"/><path class="cls-3" d="M288,388v-4h.89v.35a1.26,1.26,0,0,1,.94-.42.64.64,0,0,1,.66.49,1.26,1.26,0,0,1,1-.49.65.65,0,0,1,.53.24,1,1,0,0,1,.2.7V388h-.89v-3a.51.51,0,0,0-.07-.31.23.23,0,0,0-.21-.08.72.72,0,0,0-.49.23V388h-.89v-3a.51.51,0,0,0-.07-.31.23.23,0,0,0-.22-.08.78.78,0,0,0-.49.23V388Z" transform="translate(-123.76 -60.74)"/><path class="cls-3" d="M294.59,383.43v-.79h.94v.79Zm0,4.58v-4h.93v4Z" transform="translate(-123.76 -60.74)"/><path class="cls-3" d="M296.26,389.32v-5.27h.94v.31a1.09,1.09,0,0,1,.8-.37.76.76,0,0,1,.37.1.7.7,0,0,1,.25.23,1,1,0,0,1,.15.33,1.59,1.59,0,0,1,.08.35,1.83,1.83,0,0,1,0,.33v1.3a2.39,2.39,0,0,1-.05.55,1.66,1.66,0,0,1-.15.46.84.84,0,0,1-.3.32.77.77,0,0,1-.43.12,1.06,1.06,0,0,1-.74-.36v1.6Zm1.35-1.92a.29.29,0,0,0,.17,0,.4.4,0,0,0,.11-.18,1.57,1.57,0,0,0,0-.23,2.35,2.35,0,0,0,0-.28v-1.37c0-.09,0-.17,0-.24a1.29,1.29,0,0,0-.06-.21.25.25,0,0,0-.11-.15.26.26,0,0,0-.17-.05.65.65,0,0,0-.39.16v2.48A.78.78,0,0,0,297.61,387.4Z" transform="translate(-123.76 -60.74)"/><path class="cls-3" d="M300.55,388.08a1.2,1.2,0,0,1-.8-.28,1.42,1.42,0,0,1-.44-.79l.71-.26a1.23,1.23,0,0,0,.21.5.39.39,0,0,0,.34.16.31.31,0,0,0,.24-.1.37.37,0,0,0,.09-.25q0-.21-.39-.54l-.54-.45a1.36,1.36,0,0,1-.56-1,1,1,0,0,1,.32-.76,1.2,1.2,0,0,1,.8-.28,1,1,0,0,1,.76.28,1.41,1.41,0,0,1,.38.76l-.62.25c-.08-.41-.24-.61-.47-.62a.32.32,0,0,0-.24.09.33.33,0,0,0-.09.23c0,.12.11.28.33.47l.54.49a1.65,1.65,0,0,1,.23.22,2.59,2.59,0,0,1,.19.23.89.89,0,0,1,.15.29,1.27,1.27,0,0,1,.05.34.93.93,0,0,1-.34.78A1.3,1.3,0,0,1,300.55,388.08Z" transform="translate(-123.76 -60.74)"/><path class="cls-3" d="M302.86,388.07a.54.54,0,0,1-.49-.24,1.17,1.17,0,0,1-.15-.61v-3.17h.93v3a.49.49,0,0,0,.06.27q0,.09.21.09a.77.77,0,0,0,.4-.17v-3.17h.93v4h-.93v-.37A1.43,1.43,0,0,1,302.86,388.07Z" transform="translate(-123.76 -60.74)"/><path class="cls-3" d="M305.47,388v-4h.89v.35a1.26,1.26,0,0,1,.94-.42.64.64,0,0,1,.66.49,1.28,1.28,0,0,1,1-.49.68.68,0,0,1,.54.24,1.1,1.1,0,0,1,.2.7V388h-.89v-3a.5.5,0,0,0-.08-.31.21.21,0,0,0-.21-.08.74.74,0,0,0-.49.23V388h-.88v-3a.5.5,0,0,0-.08-.31.22.22,0,0,0-.21-.08.8.8,0,0,0-.5.23V388Z" transform="translate(-123.76 -60.74)"/><path class="cls-3" d="M313,388.08a.85.85,0,0,1-.73-.35,1.93,1.93,0,0,1-.24-1.09v-1.15a3.39,3.39,0,0,1,.05-.58,2.16,2.16,0,0,1,.16-.47A.78.78,0,0,1,313,384a1,1,0,0,1,.7.31v-1.83h.94V388h-.94v-.27A1,1,0,0,1,313,388.08Zm.33-.67a.78.78,0,0,0,.36-.11v-2.53a.7.7,0,0,0-.36-.12.28.28,0,0,0-.27.17.93.93,0,0,0-.09.44v1.45a1.69,1.69,0,0,0,0,.35.44.44,0,0,0,.1.24A.28.28,0,0,0,313.29,387.41Z" transform="translate(-123.76 -60.74)"/><path class="cls-3" d="M316.49,388.08a1.2,1.2,0,0,1-.95-.36,1.53,1.53,0,0,1-.31-1v-1.31a1.51,1.51,0,0,1,.31-1,1.45,1.45,0,0,1,1.91,0,1.51,1.51,0,0,1,.32,1v1.31a1.53,1.53,0,0,1-.32,1A1.21,1.21,0,0,1,316.49,388.08Zm0-.66a.32.32,0,0,0,.18-.05.38.38,0,0,0,.11-.16,1.77,1.77,0,0,0,0-.2,1.93,1.93,0,0,0,0-.26v-1.43a1.22,1.22,0,0,0,0-.21,1.41,1.41,0,0,0,0-.18.53.53,0,0,0-.05-.15.24.24,0,0,0-.11-.09.24.24,0,0,0-.15,0,.29.29,0,0,0-.19.05.26.26,0,0,0-.1.16.71.71,0,0,0,0,.2,1.93,1.93,0,0,0,0,.26V387a1.11,1.11,0,0,0,0,.17.57.57,0,0,0,.06.15.32.32,0,0,0,.1.1A.34.34,0,0,0,316.5,387.42Z" transform="translate(-123.76 -60.74)"/><path class="cls-3" d="M318.47,388v-5.54h.94V388Z" transform="translate(-123.76 -60.74)"/><path class="cls-3" d="M321.33,388.08a1.2,1.2,0,0,1-.95-.36,1.53,1.53,0,0,1-.31-1v-1.31a1.51,1.51,0,0,1,.31-1,1.45,1.45,0,0,1,1.91,0,1.51,1.51,0,0,1,.32,1v1.31a1.53,1.53,0,0,1-.32,1A1.21,1.21,0,0,1,321.33,388.08Zm0-.66a.32.32,0,0,0,.18-.05.31.31,0,0,0,.11-.16,1.77,1.77,0,0,0,0-.2,1.93,1.93,0,0,0,0-.26v-1.43a1.22,1.22,0,0,0,0-.21,1.41,1.41,0,0,0,0-.18.53.53,0,0,0,0-.15.28.28,0,0,0-.1-.09.29.29,0,0,0-.16,0,.29.29,0,0,0-.19.05.26.26,0,0,0-.1.16.71.71,0,0,0,0,.2,1.93,1.93,0,0,0,0,.26V387c0,.05,0,.11,0,.17a.57.57,0,0,0,.06.15.32.32,0,0,0,.1.1A.38.38,0,0,0,321.34,387.42Z" transform="translate(-123.76 -60.74)"/><path class="cls-3" d="M323.26,388v-4h.94v.61a1.67,1.67,0,0,1,.4-.5A.68.68,0,0,1,325,384l.14,0V385a.78.78,0,0,0-.33-.07.69.69,0,0,0-.35.11,1,1,0,0,0-.3.31V388Z" transform="translate(-123.76 -60.74)"/><path class="cls-3" d="M328.33,388.08a1.21,1.21,0,0,1-.81-.28,1.41,1.41,0,0,1-.43-.79l.71-.26a1.23,1.23,0,0,0,.21.5.38.38,0,0,0,.33.16.3.3,0,0,0,.24-.1.29.29,0,0,0,.09-.25q0-.21-.39-.54l-.53-.45a1.33,1.33,0,0,1-.56-1,1,1,0,0,1,.32-.76,1.18,1.18,0,0,1,.8-.28,1,1,0,0,1,.75.28,1.34,1.34,0,0,1,.38.76l-.61.25c-.09-.41-.25-.61-.48-.62a.32.32,0,0,0-.24.09.38.38,0,0,0-.08.23c0,.12.1.28.33.47l.54.49a2.49,2.49,0,0,1,.23.22,2.59,2.59,0,0,1,.19.23,1.11,1.11,0,0,1,.14.29,1.27,1.27,0,0,1,.05.34,1,1,0,0,1-.33.78A1.32,1.32,0,0,1,328.33,388.08Z" transform="translate(-123.76 -60.74)"/><path class="cls-3" d="M330.05,383.43v-.79H331v.79Zm0,4.58v-4H331v4Z" transform="translate(-123.76 -60.74)"/><path class="cls-3" d="M332.82,388.07a1.5,1.5,0,0,1-.46-.09.79.79,0,0,1-.29-.25,1.09,1.09,0,0,1-.14-.37,1.62,1.62,0,0,1-.05-.46v-2.23h-.39v-.62h.39v-1.16h.94v1.16h.6v.62h-.6V387a.36.36,0,0,0,.09.28.34.34,0,0,0,.27.09.92.92,0,0,0,.28,0V388A6.13,6.13,0,0,1,332.82,388.07Z" transform="translate(-123.76 -60.74)"/><path class="cls-3" d="M336.43,388.08a.76.76,0,0,1-.61-.3,1,1,0,0,1-.24-.65,1.4,1.4,0,0,1,.11-.6,1.11,1.11,0,0,1,.37-.44,2.76,2.76,0,0,1,.43-.27c.12-.06.29-.13.53-.22l.15-.06v-.33a1,1,0,0,0-.06-.4.27.27,0,0,0-.26-.12c-.2,0-.31.15-.31.44l0,.24-.89,0v-.14a1.31,1.31,0,0,1,.37-.92,1.38,1.38,0,0,1,.93-.29,1.12,1.12,0,0,1,.87.32,1.29,1.29,0,0,1,.28.9V387a7.3,7.3,0,0,0,.08,1h-.85c-.05-.26-.08-.45-.1-.58a1,1,0,0,1-.28.46A.7.7,0,0,1,336.43,388.08Zm.36-.73a.37.37,0,0,0,.21-.08.88.88,0,0,0,.17-.16V386c-.46.25-.7.54-.7.87a.59.59,0,0,0,.09.34A.26.26,0,0,0,336.79,387.35Z" transform="translate(-123.76 -60.74)"/><path class="cls-3" d="M338.77,388v-4h.89v.35a1.25,1.25,0,0,1,.94-.42.64.64,0,0,1,.66.49,1.26,1.26,0,0,1,1-.49.65.65,0,0,1,.53.24,1.1,1.1,0,0,1,.2.7V388h-.89v-3a.51.51,0,0,0-.07-.31.23.23,0,0,0-.21-.08.76.76,0,0,0-.5.23.08.08,0,0,0,0,0V388h-.89v-3a.51.51,0,0,0-.07-.31.23.23,0,0,0-.22-.08.78.78,0,0,0-.49.23V388Z" transform="translate(-123.76 -60.74)"/><path class="cls-3" d="M344.88,388.08a1.17,1.17,0,0,1-1-.38,1.75,1.75,0,0,1-.3-1.11v-1.12a1.74,1.74,0,0,1,.3-1.1,1.17,1.17,0,0,1,1-.38,1.71,1.71,0,0,1,.6.1.85.85,0,0,1,.38.32,1.43,1.43,0,0,1,.19.49,3.1,3.1,0,0,1,.06.66v.52h-1.57v.79s0,.1,0,.16a.39.39,0,0,0,0,.15.54.54,0,0,0,.05.11.25.25,0,0,0,.1.08.32.32,0,0,0,.14,0,.26.26,0,0,0,.26-.13.77.77,0,0,0,.08-.38v-.23h.88v.16a1.34,1.34,0,0,1-.3.94A1.2,1.2,0,0,1,344.88,388.08Zm-.34-2.47h.68v-.38a.91.91,0,0,0-.08-.43.28.28,0,0,0-.27-.13.27.27,0,0,0-.26.15,1.3,1.3,0,0,0-.07.53Z" transform="translate(-123.76 -60.74)"/><path class="cls-3" d="M347.85,388.07a1.44,1.44,0,0,1-.46-.09.72.72,0,0,1-.29-.25,1.11,1.11,0,0,1-.15-.37,2.09,2.09,0,0,1-.05-.46v-2.23h-.39v-.62h.39v-1.16h1v1.16h.6v.62h-.6V387a.36.36,0,0,0,.08.28.37.37,0,0,0,.27.09,1,1,0,0,0,.29,0V388A6.33,6.33,0,0,1,347.85,388.07Z" transform="translate(-123.76 -60.74)"/><path class="cls-3" d="M349.08,389l-.1-.35a.57.57,0,0,0,.32-.2.61.61,0,0,0,.12-.39h-.49v-.9h.92V388A.9.9,0,0,1,349.08,389Z" transform="translate(-123.76 -60.74)"/><path class="cls-3" d="M353.32,388.08a1.17,1.17,0,0,1-1-.38,1.8,1.8,0,0,1-.29-1.1v-1.14a1.77,1.77,0,0,1,.29-1.09,1.17,1.17,0,0,1,1-.38,1.23,1.23,0,0,1,.92.3,1.3,1.3,0,0,1,.28.92v.32h-.87v-.33a.86.86,0,0,0-.07-.42.33.33,0,0,0-.52,0,1.45,1.45,0,0,0-.07.52v1.44a1.18,1.18,0,0,0,.08.52.29.29,0,0,0,.26.13.26.26,0,0,0,.25-.13.82.82,0,0,0,.07-.39v-.43h.87v.38a1.26,1.26,0,0,1-.29.92A1.2,1.2,0,0,1,353.32,388.08Z" transform="translate(-123.76 -60.74)"/><path class="cls-3" d="M356.33,388.08a1.19,1.19,0,0,1-.95-.36,1.53,1.53,0,0,1-.32-1v-1.31a1.51,1.51,0,0,1,.32-1,1.19,1.19,0,0,1,.95-.36,1.21,1.21,0,0,1,1,.36,1.51,1.51,0,0,1,.31,1v1.31a1.53,1.53,0,0,1-.31,1A1.21,1.21,0,0,1,356.33,388.08Zm0-.66a.36.36,0,0,0,.19-.05.29.29,0,0,0,.1-.16.79.79,0,0,0,0-.2,1.93,1.93,0,0,0,0-.26v-1.64a1.41,1.41,0,0,0,0-.18,1.16,1.16,0,0,0-.06-.15.22.22,0,0,0-.1-.09.25.25,0,0,0-.16,0,.28.28,0,0,0-.29.21,1.42,1.42,0,0,0,0,.2c0,.07,0,.15,0,.26v1.43a1.34,1.34,0,0,0,0,.21,1.11,1.11,0,0,0,0,.17.26.26,0,0,0,.06.15.24.24,0,0,0,.1.1A.33.33,0,0,0,356.33,387.42Z" transform="translate(-123.76 -60.74)"/><path class="cls-3" d="M358.25,388v-4h.93v.39a1.42,1.42,0,0,1,1-.45.52.52,0,0,1,.49.25,1.07,1.07,0,0,1,.16.61V388h-.94v-2.95a.63.63,0,0,0-.05-.28.23.23,0,0,0-.21-.09.77.77,0,0,0-.42.18V388Z" transform="translate(-123.76 -60.74)"/><path class="cls-3" d="M362.52,388.08a1.21,1.21,0,0,1-.81-.28,1.41,1.41,0,0,1-.43-.79l.71-.26a1.23,1.23,0,0,0,.21.5.38.38,0,0,0,.33.16.3.3,0,0,0,.24-.1.29.29,0,0,0,.09-.25q0-.21-.39-.54l-.53-.45a1.36,1.36,0,0,1-.56-1,1,1,0,0,1,.32-.76,1.2,1.2,0,0,1,.8-.28,1,1,0,0,1,.75.28,1.34,1.34,0,0,1,.38.76l-.61.25c-.09-.41-.25-.61-.48-.62a.29.29,0,0,0-.23.09.33.33,0,0,0-.09.23c0,.12.11.28.33.47l.54.49a2.49,2.49,0,0,1,.23.22,2.59,2.59,0,0,1,.19.23,1.11,1.11,0,0,1,.14.29,1,1,0,0,1,.05.34,1,1,0,0,1-.33.78A1.32,1.32,0,0,1,362.52,388.08Z" transform="translate(-123.76 -60.74)"/><path class="cls-3" d="M365.41,388.08a1.19,1.19,0,0,1-1-.38,1.75,1.75,0,0,1-.3-1.11v-1.12a1.68,1.68,0,0,1,.31-1.1,1.17,1.17,0,0,1,1-.38,1.69,1.69,0,0,1,.59.1.85.85,0,0,1,.38.32,1.26,1.26,0,0,1,.19.49,3.1,3.1,0,0,1,.06.66v.52h-1.57v.59a1.09,1.09,0,0,0,0,.2,1,1,0,0,0,0,.16.43.43,0,0,0,0,.15.3.3,0,0,0,.06.11.18.18,0,0,0,.09.08.36.36,0,0,0,.15,0,.27.27,0,0,0,.26-.13.78.78,0,0,0,.07-.38v-.23h.89v.16a1.35,1.35,0,0,1-.31.94A1.18,1.18,0,0,1,365.41,388.08Zm-.35-2.47h.68v-.38a.93.93,0,0,0-.07-.43.29.29,0,0,0-.27-.13.25.25,0,0,0-.26.15,1.26,1.26,0,0,0-.08.53Z" transform="translate(-123.76 -60.74)"/><path class="cls-3" d="M368.46,388.08a1.17,1.17,0,0,1-1-.38,1.74,1.74,0,0,1-.29-1.1v-1.14a1.71,1.71,0,0,1,.29-1.09,1.17,1.17,0,0,1,1-.38,1.24,1.24,0,0,1,.92.3,1.3,1.3,0,0,1,.28.92v.32h-.87v-.33a1,1,0,0,0-.07-.42.33.33,0,0,0-.52,0,1.45,1.45,0,0,0-.07.52v1.44a1.18,1.18,0,0,0,.08.52.28.28,0,0,0,.26.13.26.26,0,0,0,.25-.13.82.82,0,0,0,.07-.39v-.43h.87v.38a1.3,1.3,0,0,1-.29.92A1.2,1.2,0,0,1,368.46,388.08Z" transform="translate(-123.76 -60.74)"/><path class="cls-3" d="M371.38,388.07a1.5,1.5,0,0,1-.46-.09.72.72,0,0,1-.29-.25,1.11,1.11,0,0,1-.15-.37,2.13,2.13,0,0,1,0-.46v-2.23h-.39v-.62h.39v-1.16h.94v1.16h.6v.62h-.6V387a.41.41,0,0,0,.08.28.37.37,0,0,0,.27.09,1,1,0,0,0,.29,0V388A6.33,6.33,0,0,1,371.38,388.07Z" transform="translate(-123.76 -60.74)"/><path class="cls-3" d="M373.75,388.08a1.15,1.15,0,0,1-1-.38,1.75,1.75,0,0,1-.3-1.11v-1.12a1.74,1.74,0,0,1,.3-1.1,1.17,1.17,0,0,1,1-.38,1.75,1.75,0,0,1,.6.1.83.83,0,0,1,.37.32,1.44,1.44,0,0,1,.2.49,4,4,0,0,1,.05.66v.52h-1.56v.79a1,1,0,0,0,0,.16,1,1,0,0,0,0,.15l.06.11a.25.25,0,0,0,.1.08.32.32,0,0,0,.14,0,.27.27,0,0,0,.26-.13.78.78,0,0,0,.07-.38v-.23H375v.16a1.3,1.3,0,0,1-.31.94A1.16,1.16,0,0,1,373.75,388.08Zm-.34-2.47h.67v-.38a.93.93,0,0,0-.07-.43.28.28,0,0,0-.27-.13.25.25,0,0,0-.26.15,1.3,1.3,0,0,0-.07.53Z" transform="translate(-123.76 -60.74)"/><path class="cls-3" d="M376.72,388.07a1.44,1.44,0,0,1-.46-.09.66.66,0,0,1-.29-.25,1.11,1.11,0,0,1-.15-.37,2.09,2.09,0,0,1-.05-.46v-2.23h-.39v-.62h.39v-1.16h.94v1.16h.61v.62h-.61V387a.36.36,0,0,0,.09.28.37.37,0,0,0,.27.09,1,1,0,0,0,.29,0V388A6.33,6.33,0,0,1,376.72,388.07Z" transform="translate(-123.76 -60.74)"/><path class="cls-3" d="M378.51,388.07a.53.53,0,0,1-.49-.24,1.09,1.09,0,0,1-.16-.61v-3.17h.93v3a.49.49,0,0,0,.06.27.23.23,0,0,0,.21.09.74.74,0,0,0,.4-.17v-3.17h.94v4h-.94v-.37A1.39,1.39,0,0,1,378.51,388.07Z" transform="translate(-123.76 -60.74)"/><path class="cls-3" d="M381.13,388v-4h.94v.61a1.67,1.67,0,0,1,.4-.5.66.66,0,0,1,.43-.16l.14,0V385a.71.71,0,0,0-.32-.07.69.69,0,0,0-.35.11.89.89,0,0,0-.3.31V388Z" transform="translate(-123.76 -60.74)"/><path class="cls-3" d="M277.32,397a.76.76,0,0,1-.61-.29,1,1,0,0,1-.24-.66,1.4,1.4,0,0,1,.12-.6A1,1,0,0,1,277,395a3.51,3.51,0,0,1,.43-.27l.52-.22.15-.06v-.33a.93.93,0,0,0-.06-.39.25.25,0,0,0-.25-.12c-.21,0-.31.14-.32.43v.25l-.9,0v-.14a1.32,1.32,0,0,1,.37-.91,1.34,1.34,0,0,1,.94-.29,1.08,1.08,0,0,1,.86.31,1.33,1.33,0,0,1,.29.9V396a7.22,7.22,0,0,0,.07,1h-.85c-.05-.26-.08-.46-.09-.58a1.14,1.14,0,0,1-.28.46A.72.72,0,0,1,277.32,397Zm.36-.72a.32.32,0,0,0,.21-.09.53.53,0,0,0,.17-.16V395q-.69.39-.69.87a.55.55,0,0,0,.08.34A.26.26,0,0,0,277.68,396.31Z" transform="translate(-123.76 -60.74)"/><path class="cls-3" d="M280.56,397a.82.82,0,0,1-.72-.34,2,2,0,0,1-.24-1.1v-1.15a3.32,3.32,0,0,1,0-.57,2.25,2.25,0,0,1,.16-.48.8.8,0,0,1,.3-.33.88.88,0,0,1,.45-.11,1,1,0,0,1,.7.3v-1.83h.94V397h-.94v-.27A.94.94,0,0,1,280.56,397Zm.33-.67a.63.63,0,0,0,.36-.11v-2.52a.67.67,0,0,0-.36-.12.26.26,0,0,0-.27.17.89.89,0,0,0-.08.43v1.45a1.89,1.89,0,0,0,0,.36.53.53,0,0,0,.11.24A.26.26,0,0,0,280.89,396.36Z" transform="translate(-123.76 -60.74)"/><path class="cls-3" d="M282.93,392.38v-.79h.95v.79Zm0,4.59v-4h.94v4Z" transform="translate(-123.76 -60.74)"/><path class="cls-3" d="M284.61,398.27V393h.93v.3a1.11,1.11,0,0,1,.8-.36.79.79,0,0,1,.38.09.72.72,0,0,1,.25.24,1.35,1.35,0,0,1,.15.32,1.9,1.9,0,0,1,.08.35c0,.11,0,.22,0,.33v1.3a3.24,3.24,0,0,1-.05.56,1.6,1.6,0,0,1-.16.45.85.85,0,0,1-.29.33.87.87,0,0,1-.44.11,1.1,1.1,0,0,1-.74-.36v1.6Zm1.35-1.91a.27.27,0,0,0,.17-.06.32.32,0,0,0,.1-.17,1.89,1.89,0,0,0,0-.23c0-.08,0-.18,0-.29v-1.36a1.81,1.81,0,0,0,0-.25,1.6,1.6,0,0,0,0-.21.33.33,0,0,0-.11-.15.27.27,0,0,0-.18,0,.69.69,0,0,0-.39.15v2.49A.84.84,0,0,0,286,396.36Z" transform="translate(-123.76 -60.74)"/><path class="cls-3" d="M287.9,392.38v-.79h.94v.79Zm0,4.59v-4h.94v4Z" transform="translate(-123.76 -60.74)"/><path class="cls-3" d="M290.6,397a1.17,1.17,0,0,1-.8-.27,1.49,1.49,0,0,1-.44-.79l.71-.26a1.3,1.3,0,0,0,.21.5.41.41,0,0,0,.34.16.32.32,0,0,0,.24-.11A.35.35,0,0,0,291,396c0-.14-.14-.32-.39-.53L290,395a1.34,1.34,0,0,1-.56-1,1,1,0,0,1,.32-.76,1.15,1.15,0,0,1,.8-.28,1.05,1.05,0,0,1,.76.28,1.38,1.38,0,0,1,.38.75l-.62.26c-.08-.41-.24-.62-.47-.62a.32.32,0,0,0-.24.09.31.31,0,0,0-.09.22q0,.18.33.48l.55.49.22.21a2.33,2.33,0,0,1,.19.23.94.94,0,0,1,.15.3,1.21,1.21,0,0,1,.05.34.92.92,0,0,1-.34.77A1.25,1.25,0,0,1,290.6,397Z" transform="translate(-123.76 -60.74)"/><path class="cls-3" d="M293.48,397a1.14,1.14,0,0,1-1-.38,1.77,1.77,0,0,1-.29-1.09v-1.15a1.77,1.77,0,0,1,.29-1.09,1.16,1.16,0,0,1,1-.37,1.27,1.27,0,0,1,.92.29,1.31,1.31,0,0,1,.28.93v.32h-.87v-.34a.86.86,0,0,0-.07-.42.27.27,0,0,0-.25-.12.28.28,0,0,0-.27.14,1.55,1.55,0,0,0-.06.52v1.45a1.19,1.19,0,0,0,.07.51.27.27,0,0,0,.26.13.24.24,0,0,0,.25-.13.77.77,0,0,0,.07-.39v-.42h.87v.37a1.3,1.3,0,0,1-.29.93A1.18,1.18,0,0,1,293.48,397Z" transform="translate(-123.76 -60.74)"/><path class="cls-3" d="M295.33,392.38v-.79h.94v.79Zm0,4.59v-4h.94v4Z" transform="translate(-123.76 -60.74)"/><path class="cls-3" d="M297,397v-4h.94v.38a1.45,1.45,0,0,1,1-.44.54.54,0,0,1,.49.24,1.18,1.18,0,0,1,.16.61V397h-.94v-3a.67.67,0,0,0-.05-.28.21.21,0,0,0-.21-.08.74.74,0,0,0-.42.18V397Z" transform="translate(-123.76 -60.74)"/><path class="cls-3" d="M301.62,398.17H301l-.3,0-.26-.07a1.3,1.3,0,0,1-.21-.12.86.86,0,0,1-.14-.18.59.59,0,0,1,0-.23,1,1,0,0,1,.56-.84c-.27-.09-.41-.24-.43-.45a.53.53,0,0,1,.1-.37,2,2,0,0,1,.36-.36,1.1,1.1,0,0,1-.33-.42,1.78,1.78,0,0,1-.11-.68,1.6,1.6,0,0,1,.31-1.08,1.17,1.17,0,0,1,.92-.35.93.93,0,0,1,.85.38,1.52,1.52,0,0,1,.22-.21,1.49,1.49,0,0,1,.31-.2l.13-.06.23.52-.36.12-.32.14a1.06,1.06,0,0,1,.11.33,2,2,0,0,1,.05.43c0,.9-.4,1.35-1.19,1.35l-.26,0a1,1,0,0,1-.22,0,.48.48,0,0,0-.11.26c0,.09.12.14.35.16l.35,0,.37,0a1.17,1.17,0,0,1,.73.29,1,1,0,0,1,.23.68,1,1,0,0,1-.29.77A1.52,1.52,0,0,1,301.62,398.17Zm0-.66a.91.91,0,0,0,.42-.07.28.28,0,0,0,.14-.24.3.3,0,0,0-.1-.26.63.63,0,0,0-.36-.11l-.63-.06a.74.74,0,0,0-.2.44.23.23,0,0,0,.05.17.34.34,0,0,0,.21.09A2,2,0,0,0,301.61,397.51Zm-.18-2.36a.28.28,0,0,0,.3-.18,1.72,1.72,0,0,0,.07-.61,2.16,2.16,0,0,0-.06-.63.29.29,0,0,0-.3-.18.3.3,0,0,0-.31.18,1.86,1.86,0,0,0-.07.63v.27a1.43,1.43,0,0,0,0,.22.34.34,0,0,0,.06.16.24.24,0,0,0,.1.1A.31.31,0,0,0,301.43,395.15Z" transform="translate(-123.76 -60.74)"/><path class="cls-3" d="M306.3,397a1.18,1.18,0,0,1-1-.37,1.82,1.82,0,0,1-.29-1.11v-1.12a1.75,1.75,0,0,1,.3-1.11,1.16,1.16,0,0,1,1-.37,1.49,1.49,0,0,1,.59.1.78.78,0,0,1,.38.31,1.32,1.32,0,0,1,.19.49,3.2,3.2,0,0,1,.06.67V395H306v.79a1.09,1.09,0,0,0,0,.17q0,.09,0,.15a.41.41,0,0,0,.06.11.27.27,0,0,0,.1.08l.14,0a.29.29,0,0,0,.26-.13.82.82,0,0,0,.07-.39v-.22h.89v.15a1.29,1.29,0,0,1-.31.94A1.18,1.18,0,0,1,306.3,397Zm-.34-2.46h.67v-.38a.9.9,0,0,0-.07-.43.28.28,0,0,0-.27-.13.25.25,0,0,0-.26.14,1.36,1.36,0,0,0-.07.54Z" transform="translate(-123.76 -60.74)"/><path class="cls-3" d="M308.22,397v-5.55h.94V397Z" transform="translate(-123.76 -60.74)"/><path class="cls-3" d="M309.92,392.38v-.79h.94v.79Zm0,4.59v-4h.94v4Z" transform="translate(-123.76 -60.74)"/><path class="cls-3" d="M312.7,397a1.08,1.08,0,0,1-.46-.09.65.65,0,0,1-.29-.25,1.14,1.14,0,0,1-.15-.36,2.23,2.23,0,0,1,0-.47v-2.22h-.39V393h.39v-1.17h.94V393h.6v.62h-.6v2.28a.43.43,0,0,0,.08.28.38.38,0,0,0,.28.09l.28,0V397A3.28,3.28,0,0,1,312.7,397Z" transform="translate(-123.76 -60.74)"/><path class="cls-3" d="M313.93,397.91l-.1-.35a.58.58,0,0,0,.32-.21.6.6,0,0,0,.13-.38h-.5v-.91h.92v.84A.9.9,0,0,1,313.93,397.91Z" transform="translate(-123.76 -60.74)"/><path class="cls-3" d="M318,397a1.2,1.2,0,0,1-.81-.27,1.48,1.48,0,0,1-.43-.79l.71-.26a1.3,1.3,0,0,0,.21.5.41.41,0,0,0,.33.16.3.3,0,0,0,.24-.11.28.28,0,0,0,.09-.25c0-.14-.14-.32-.39-.53l-.53-.46a1.34,1.34,0,0,1-.56-1,1,1,0,0,1,.32-.76,1.15,1.15,0,0,1,.8-.28,1.05,1.05,0,0,1,.76.28,1.3,1.3,0,0,1,.37.75l-.61.26c-.09-.41-.25-.62-.48-.62a.3.3,0,0,0-.23.09.31.31,0,0,0-.09.22q0,.18.33.48l.54.49.23.21.19.23a1.17,1.17,0,0,1,.14.3,1.09,1.09,0,0,1-.28,1.11A1.26,1.26,0,0,1,318,397Z" transform="translate(-123.76 -60.74)"/><path class="cls-3" d="M320.9,397a1.18,1.18,0,0,1-1-.37,1.75,1.75,0,0,1-.29-1.11v-1.12a1.75,1.75,0,0,1,.3-1.11,1.16,1.16,0,0,1,1-.37,1.49,1.49,0,0,1,.59.1.78.78,0,0,1,.38.31,1.32,1.32,0,0,1,.19.49,3.2,3.2,0,0,1,.06.67V395h-1.56v.79a1.09,1.09,0,0,0,0,.17q0,.09,0,.15l.06.11a.27.27,0,0,0,.1.08l.14,0a.29.29,0,0,0,.26-.13.82.82,0,0,0,.07-.39v-.22h.89v.15a1.29,1.29,0,0,1-.31.94A1.18,1.18,0,0,1,320.9,397Zm-.34-2.46h.67v-.38a.9.9,0,0,0-.07-.43.28.28,0,0,0-.27-.13.25.25,0,0,0-.26.14,1.36,1.36,0,0,0-.07.54Z" transform="translate(-123.76 -60.74)"/><path class="cls-3" d="M323.66,397a.83.83,0,0,1-.73-.34,2,2,0,0,1-.24-1.1v-1.15a3.27,3.27,0,0,1,.05-.57,1.8,1.8,0,0,1,.15-.48.87.87,0,0,1,.3-.33,1,1,0,0,1,.46-.11,1,1,0,0,1,.7.3v-1.83h.94V397h-.94v-.27A.94.94,0,0,1,323.66,397Zm.33-.67a.68.68,0,0,0,.36-.11v-2.52a.7.7,0,0,0-.37-.12.26.26,0,0,0-.26.17.89.89,0,0,0-.09.43v1.45a1.79,1.79,0,0,0,0,.36.51.51,0,0,0,.1.24A.28.28,0,0,0,324,396.36Z" transform="translate(-123.76 -60.74)"/><path class="cls-3" d="M328.57,397a.82.82,0,0,1-.72-.34,2,2,0,0,1-.24-1.1v-1.15a2.52,2.52,0,0,1,.05-.57,1.8,1.8,0,0,1,.15-.48.8.8,0,0,1,.3-.33.91.91,0,0,1,.45-.11,1,1,0,0,1,.7.3v-1.83h.94V397h-.94v-.27A.94.94,0,0,1,328.57,397Zm.33-.67a.63.63,0,0,0,.36-.11v-2.52a.67.67,0,0,0-.36-.12.26.26,0,0,0-.27.17,1,1,0,0,0-.08.43v1.45a3.36,3.36,0,0,0,0,.36.53.53,0,0,0,.11.24A.26.26,0,0,0,328.9,396.36Z" transform="translate(-123.76 -60.74)"/><path class="cls-3" d="M332.11,397a1.17,1.17,0,0,1-.95-.36,1.51,1.51,0,0,1-.32-1v-1.31a1.5,1.5,0,0,1,.32-1,1.17,1.17,0,0,1,.95-.36,1.21,1.21,0,0,1,1,.36,1.5,1.5,0,0,1,.31,1v1.31a1.51,1.51,0,0,1-.31,1A1.21,1.21,0,0,1,332.11,397Zm0-.66a.29.29,0,0,0,.19-.05.24.24,0,0,0,.1-.15.78.78,0,0,0,0-.21,1.78,1.78,0,0,0,0-.25v-1.64a1.13,1.13,0,0,0,0-.18.5.5,0,0,0-.05-.16l-.1-.09a.38.38,0,0,0-.16,0,.32.32,0,0,0-.18,0,.31.31,0,0,0-.11.16,1.55,1.55,0,0,0,0,.21,1.78,1.78,0,0,0,0,.25v1.64l0,.18a.53.53,0,0,0,.05.15.28.28,0,0,0,.1.09A.29.29,0,0,0,332.11,396.37Z" transform="translate(-123.76 -60.74)"/><path class="cls-3" d="M336.9,397a1.18,1.18,0,0,1-1-.37,1.75,1.75,0,0,1-.3-1.11v-1.12a1.69,1.69,0,0,1,.31-1.11,1.15,1.15,0,0,1,1-.37,1.51,1.51,0,0,1,.6.1.83.83,0,0,1,.38.31,1.52,1.52,0,0,1,.19.49,3.2,3.2,0,0,1,.06.67V395h-1.57v.6a1,1,0,0,0,0,.19,1.09,1.09,0,0,0,0,.17.33.33,0,0,0,0,.15.41.41,0,0,0,.06.11.24.24,0,0,0,.09.08l.14,0a.3.3,0,0,0,.27-.13,1,1,0,0,0,.07-.39v-.22h.89v.15a1.33,1.33,0,0,1-.31.94A1.18,1.18,0,0,1,336.9,397Zm-.35-2.46h.68v-.38a.88.88,0,0,0-.08-.43.27.27,0,0,0-.26-.13.27.27,0,0,0-.27.14,1.58,1.58,0,0,0-.07.54Z" transform="translate(-123.76 -60.74)"/><path class="cls-3" d="M338.79,392.38v-.79h.94v.79Zm0,4.59v-4h.94v4Z" transform="translate(-123.76 -60.74)"/><path class="cls-3" d="M341.08,397a.53.53,0,0,1-.49-.25,1.15,1.15,0,0,1-.16-.61V393h.94v3a.59.59,0,0,0,.05.27c0,.07.11.09.22.09a.72.72,0,0,0,.4-.17V393H343v4H342v-.37A1.48,1.48,0,0,1,341.08,397Z" transform="translate(-123.76 -60.74)"/><path class="cls-3" d="M344.72,397a1.2,1.2,0,0,1-.81-.27,1.48,1.48,0,0,1-.43-.79l.71-.26a1.3,1.3,0,0,0,.21.5.41.41,0,0,0,.33.16.34.34,0,0,0,.25-.11.31.31,0,0,0,.08-.25c0-.14-.13-.32-.39-.53l-.53-.46a1.34,1.34,0,0,1-.56-1,1,1,0,0,1,.32-.76,1.15,1.15,0,0,1,.8-.28,1.05,1.05,0,0,1,.76.28,1.3,1.3,0,0,1,.37.75l-.61.26c-.09-.41-.24-.62-.48-.62a.32.32,0,0,0-.23.09.31.31,0,0,0-.09.22q0,.18.33.48l.54.49.23.21.19.23a1.68,1.68,0,0,1,.15.3,1.22,1.22,0,0,1,0,.34.94.94,0,0,1-.33.77A1.25,1.25,0,0,1,344.72,397Z" transform="translate(-123.76 -60.74)"/><path class="cls-3" d="M346.41,397v-4h.89v.34a1.29,1.29,0,0,1,.94-.41.64.64,0,0,1,.66.48,1.28,1.28,0,0,1,1-.48.65.65,0,0,1,.53.24,1.08,1.08,0,0,1,.2.7V397h-.89v-3a.49.49,0,0,0-.07-.31.26.26,0,0,0-.21-.09.79.79,0,0,0-.49.23V397h-.89v-3a.49.49,0,0,0-.07-.31.26.26,0,0,0-.21-.09.8.8,0,0,0-.5.24V397Z" transform="translate(-123.76 -60.74)"/><path class="cls-3" d="M352.51,397a1.2,1.2,0,0,1-.95-.36,1.51,1.51,0,0,1-.31-1v-1.31a1.5,1.5,0,0,1,.31-1,1.45,1.45,0,0,1,1.91,0,1.5,1.5,0,0,1,.32,1v1.31a1.51,1.51,0,0,1-.32,1A1.21,1.21,0,0,1,352.51,397Zm0-.66a.26.26,0,0,0,.18-.05.25.25,0,0,0,.11-.15,1.55,1.55,0,0,0,0-.21,1.78,1.78,0,0,0,0-.25v-1.44a1.15,1.15,0,0,0,0-.2,1.1,1.1,0,0,0,0-.18.5.5,0,0,0-.05-.16l-.1-.09a.42.42,0,0,0-.16,0,.36.36,0,0,0-.19,0,.29.29,0,0,0-.1.16.78.78,0,0,0,0,.21,1.78,1.78,0,0,0,0,.25v1.64a1.13,1.13,0,0,0,0,.18.53.53,0,0,0,.05.15.28.28,0,0,0,.1.09A.27.27,0,0,0,352.52,396.37Z" transform="translate(-123.76 -60.74)"/><path class="cls-3" d="M355.33,397a.82.82,0,0,1-.72-.34,2,2,0,0,1-.24-1.1v-1.15a3.32,3.32,0,0,1,0-.57,2.25,2.25,0,0,1,.16-.48.85.85,0,0,1,.29-.33,1,1,0,0,1,.46-.11,1,1,0,0,1,.7.3v-1.83H357V397H356v-.27A.94.94,0,0,1,355.33,397Zm.33-.67a.68.68,0,0,0,.36-.11v-2.52a.7.7,0,0,0-.36-.12.26.26,0,0,0-.27.17.89.89,0,0,0-.08.43v1.45a1.89,1.89,0,0,0,0,.36.64.64,0,0,0,.1.24A.28.28,0,0,0,355.66,396.36Z" transform="translate(-123.76 -60.74)"/><path class="cls-3" d="M277.67,406a1.39,1.39,0,0,1-.46-.09.68.68,0,0,1-.3-.25,1.35,1.35,0,0,1-.14-.37,2.09,2.09,0,0,1,0-.46v-2.23h-.39V402h.39V400.8h.94V402h.61v.62h-.61v2.29a.34.34,0,0,0,.09.27.37.37,0,0,0,.27.09,1,1,0,0,0,.29,0v.72A6.33,6.33,0,0,1,277.67,406Z" transform="translate(-123.76 -60.74)"/><path class="cls-3" d="M280,406a1.19,1.19,0,0,1-1-.38,1.75,1.75,0,0,1-.3-1.11v-1.12a1.74,1.74,0,0,1,.3-1.1,1.19,1.19,0,0,1,1-.38,1.71,1.71,0,0,1,.6.1.85.85,0,0,1,.38.32,1.43,1.43,0,0,1,.19.49,3.1,3.1,0,0,1,.06.66V404h-1.57v.79s0,.1,0,.16a.28.28,0,0,0,0,.15.3.3,0,0,0,.06.11.18.18,0,0,0,.09.08.32.32,0,0,0,.14,0,.28.28,0,0,0,.27-.13.92.92,0,0,0,.07-.38v-.23h.89v.16a1.35,1.35,0,0,1-.31.94A1.18,1.18,0,0,1,280,406Zm-.35-2.47h.68v-.38a.91.91,0,0,0-.08-.43.27.27,0,0,0-.26-.13.27.27,0,0,0-.27.15,1.51,1.51,0,0,0-.07.53Z" transform="translate(-123.76 -60.74)"/><path class="cls-3" d="M281.9,405.92v-4h.89v.35a1.25,1.25,0,0,1,.94-.42.64.64,0,0,1,.66.49,1.26,1.26,0,0,1,1-.49.65.65,0,0,1,.53.24,1.1,1.1,0,0,1,.2.7v3.09h-.89v-3a.51.51,0,0,0-.07-.31.23.23,0,0,0-.21-.08.76.76,0,0,0-.5.23v3.17h-.89v-3a.51.51,0,0,0-.07-.31.23.23,0,0,0-.22-.08.78.78,0,0,0-.49.23v3.17Z" transform="translate(-123.76 -60.74)"/><path class="cls-3" d="M286.81,407.23V402h.94v.31a1.09,1.09,0,0,1,.8-.37.76.76,0,0,1,.37.1.83.83,0,0,1,.26.23,1.26,1.26,0,0,1,.15.33,2.49,2.49,0,0,1,.08.35c0,.11,0,.22,0,.33v1.3a3.12,3.12,0,0,1-.05.55,2.08,2.08,0,0,1-.16.46.82.82,0,0,1-.29.32.81.81,0,0,1-.44.12,1.08,1.08,0,0,1-.74-.36v1.6Zm1.35-1.92a.35.35,0,0,0,.18-.05.39.39,0,0,0,.1-.18,1.57,1.57,0,0,0,0-.23,2.35,2.35,0,0,0,0-.28V403.2a1.77,1.77,0,0,0,0-.24,1.29,1.29,0,0,0-.05-.21.31.31,0,0,0-.12-.15.23.23,0,0,0-.17-.05.71.71,0,0,0-.39.16v2.48A.78.78,0,0,0,288.16,405.31Z" transform="translate(-123.76 -60.74)"/><path class="cls-3" d="M291.27,406a1.19,1.19,0,0,1-.95-.36,1.53,1.53,0,0,1-.32-1v-1.31a1.51,1.51,0,0,1,.32-1,1.19,1.19,0,0,1,.95-.36,1.21,1.21,0,0,1,1,.36,1.51,1.51,0,0,1,.31,1v1.31a1.53,1.53,0,0,1-.31,1A1.21,1.21,0,0,1,291.27,406Zm0-.66a.36.36,0,0,0,.19-.05.29.29,0,0,0,.1-.16.79.79,0,0,0,0-.2,1.93,1.93,0,0,0,0-.26V403s0-.11,0-.18a1.16,1.16,0,0,0-.06-.15.22.22,0,0,0-.1-.09.27.27,0,0,0-.16,0,.26.26,0,0,0-.18.05.27.27,0,0,0-.11.16,1.42,1.42,0,0,0,0,.2,1.93,1.93,0,0,0,0,.26v1.43a1.34,1.34,0,0,0,0,.21,1.11,1.11,0,0,0,0,.17.34.34,0,0,0,.06.16l.09.09A.42.42,0,0,0,291.27,405.33Z" transform="translate(-123.76 -60.74)"/><path class="cls-3" d="M293.2,405.92v-4h.94v.61a1.53,1.53,0,0,1,.4-.5.64.64,0,0,1,.43-.16l.14,0v.93a.75.75,0,0,0-.33-.07.69.69,0,0,0-.35.11.88.88,0,0,0-.29.31v2.71Z" transform="translate(-123.76 -60.74)"/><path class="cls-3" d="M297.26,401.34v-.79h.94v.79Zm0,4.58v-4h.94v4Z" transform="translate(-123.76 -60.74)"/><path class="cls-3" d="M298.94,405.92v-4h.93v.39a1.42,1.42,0,0,1,1-.45.52.52,0,0,1,.49.25,1.07,1.07,0,0,1,.16.61v3.16h-.94V403a.63.63,0,0,0-.05-.28.23.23,0,0,0-.21-.09.8.8,0,0,0-.42.18v3.14Z" transform="translate(-123.76 -60.74)"/><path class="cls-3" d="M303.37,406a1.17,1.17,0,0,1-1-.38,1.8,1.8,0,0,1-.29-1.1v-1.14a1.77,1.77,0,0,1,.29-1.09,1.17,1.17,0,0,1,1-.38,1.23,1.23,0,0,1,.92.3,1.3,1.3,0,0,1,.28.92v.32h-.87v-.33a.86.86,0,0,0-.07-.42.33.33,0,0,0-.52,0,1.51,1.51,0,0,0-.06.52v1.44a1.22,1.22,0,0,0,.07.52.29.29,0,0,0,.26.13.26.26,0,0,0,.25-.13.82.82,0,0,0,.07-.39v-.43h.87v.38a1.26,1.26,0,0,1-.29.92A1.18,1.18,0,0,1,303.37,406Z" transform="translate(-123.76 -60.74)"/><path class="cls-3" d="M305.22,401.34v-.79h.94v.79Zm0,4.58v-4h.94v4Z" transform="translate(-123.76 -60.74)"/><path class="cls-3" d="M307.79,406a.82.82,0,0,1-.72-.35,1.93,1.93,0,0,1-.24-1.09V403.4a3.45,3.45,0,0,1,0-.58,2.16,2.16,0,0,1,.16-.47.78.78,0,0,1,.75-.45,1,1,0,0,1,.7.31v-1.83h.94v5.54h-.94v-.27A1,1,0,0,1,307.79,406Zm.33-.67a.78.78,0,0,0,.36-.11v-2.53a.7.7,0,0,0-.36-.12.28.28,0,0,0-.27.17.93.93,0,0,0-.09.44v1.45a1.69,1.69,0,0,0,0,.35.44.44,0,0,0,.1.24A.28.28,0,0,0,308.12,405.32Z" transform="translate(-123.76 -60.74)"/><path class="cls-3" d="M310.16,401.34v-.79h.94v.79Zm0,4.58v-4h.94v4Z" transform="translate(-123.76 -60.74)"/><path class="cls-3" d="M312.74,406a.83.83,0,0,1-.73-.35,1.93,1.93,0,0,1-.24-1.09V403.4a3.39,3.39,0,0,1,.05-.58,1.73,1.73,0,0,1,.15-.47.8.8,0,0,1,.3-.33.84.84,0,0,1,.45-.12,1,1,0,0,1,.71.31v-1.83h.93v5.54h-.93v-.27A1,1,0,0,1,312.74,406Zm.32-.67a.78.78,0,0,0,.37-.11v-2.53a.7.7,0,0,0-.37-.12.29.29,0,0,0-.27.17,1.08,1.08,0,0,0-.08.44v1.45a3.16,3.16,0,0,0,0,.35.45.45,0,0,0,.11.24A.27.27,0,0,0,313.06,405.32Z" transform="translate(-123.76 -60.74)"/><path class="cls-3" d="M315.7,406a.54.54,0,0,1-.49-.24,1.09,1.09,0,0,1-.16-.61V402H316v3a.5.5,0,0,0,.05.27.23.23,0,0,0,.21.09.74.74,0,0,0,.4-.17V402h.94v4h-.94v-.37A1.39,1.39,0,0,1,315.7,406Z" transform="translate(-123.76 -60.74)"/><path class="cls-3" d="M318.31,405.92v-4h.94v.39a1.42,1.42,0,0,1,1-.45.54.54,0,0,1,.5.25,1.15,1.15,0,0,1,.15.61v3.16h-.93V403a.51.51,0,0,0-.06-.28.2.2,0,0,0-.2-.09.74.74,0,0,0-.42.18v3.14Z" transform="translate(-123.76 -60.74)"/><path class="cls-3" d="M322.66,406a1.5,1.5,0,0,1-.46-.09.65.65,0,0,1-.29-.25,1.11,1.11,0,0,1-.15-.37,2.13,2.13,0,0,1,0-.46v-2.23h-.4V402h.4V400.8h.94V402h.6v.62h-.6v2.29a.34.34,0,0,0,.08.27.37.37,0,0,0,.27.09,1,1,0,0,0,.29,0v.72A6.33,6.33,0,0,1,322.66,406Z" transform="translate(-123.76 -60.74)"/><path class="cls-3" d="M323.79,405.92V405h.91v.92Z" transform="translate(-123.76 -60.74)"/><path class="cls-10" d="M127.37,186.66a1.48,1.48,0,1,1-1.48-1.47A1.47,1.47,0,0,1,127.37,186.66Z" transform="translate(-123.76 -60.74)"/><path class="cls-7" d="M191.2,265.72l117.37,67.77a4.84,4.84,0,0,0,4.34.18l70-40.44c1.11-.64,1-1.76-.31-2.51L265.27,223a4.84,4.84,0,0,0-4.34-.18l-70,40.44C189.78,263.86,189.92,265,191.2,265.72Z" transform="translate(-123.76 -60.74)"/><path class="cls-13" d="M265.06,197.88l14.84-88-1.2-.5,1.8-1h0a1.32,1.32,0,0,1,1.39.1l118.57,68.46a3.35,3.35,0,0,1,1.54,3L387,268.62a1.12,1.12,0,0,1-.63.91h0l-1.75,1-.3-1.64.1,0-117.86-68A3.36,3.36,0,0,1,265.06,197.88Z" transform="translate(-123.76 -60.74)"/><path class="cls-14" d="M399.79,179.29l1.95-.86a2.73,2.73,0,0,1,.25,1.47L387,268.62a1.12,1.12,0,0,1-.63.91h0l-1.75,1-.3-1.64.1,0-6-3.44Z" transform="translate(-123.76 -60.74)"/><path class="cls-15" d="M264.74,202l118.57,68.45c.92.53,1.7.23,1.86-.72l15-88.72a3.38,3.38,0,0,0-1.54-3L280,109.5c-.92-.53-1.7-.23-1.86.72l-15,88.72A3.38,3.38,0,0,0,264.74,202Z" transform="translate(-123.76 -60.74)"/><path class="cls-16" d="M264.74,202l118.57,68.45c.92.53,1.7.23,1.86-.72l15-88.72a3.38,3.38,0,0,0-1.54-3L280,109.5c-.92-.53-1.7-.23-1.86.72l-15,88.72A3.38,3.38,0,0,0,264.74,202Z" transform="translate(-123.76 -60.74)"/><polygon class="cls-17" points="156.47 53.65 273.58 121.27 259.41 204.83 142.37 137.25 156.47 53.65"/><path class="cls-18" d="M190.2,244l6.48,3.38,64.88-37.46a4.72,4.72,0,0,1,4.24.17l111.91,64.62c1.07-.6,6-2.95,6-2.95l-2.37,6.17h0a1.36,1.36,0,0,1-.66.74l-68.34,39.45a4.7,4.7,0,0,1-4.23-.17L193.53,251.78a2,2,0,0,1-1-1h0Z" transform="translate(-123.76 -60.74)"/><path class="cls-19" d="M191.2,245l117.37,67.77a4.84,4.84,0,0,0,4.34.18l70-40.44c1.11-.64,1-1.76-.31-2.51L265.27,202.26a4.84,4.84,0,0,0-4.34-.18l-70,40.44C189.78,243.16,189.92,244.28,191.2,245Z" transform="translate(-123.76 -60.74)"/><path class="cls-20" d="M191.2,243.88l117.37,67.76a4.84,4.84,0,0,0,4.34.18l70-40.44a1.51,1.51,0,0,0,.58-.53,1.16,1.16,0,0,1-.58,1.68l-70,40.44a4.84,4.84,0,0,1-4.34-.18L191.2,245c-1-.56-1.29-1.35-.89-2A2.49,2.49,0,0,0,191.2,243.88Z" transform="translate(-123.76 -60.74)"/><g class="cls-21"><g class="cls-22"><path class="cls-23" d="M265.44,202.19,396.1,277.63a5.34,5.34,0,0,0,4.83.2l78-45c1.24-.72,1.08-2-.35-2.79L347.9,154.59a5.36,5.36,0,0,0-4.84-.2l-78,45C263.85,200.12,264,201.37,265.44,202.19Z" transform="translate(-123.76 -60.74)"/><polygon class="cls-24" points="170.3 139.56 264.9 194.17 261.15 196.33 166.56 141.72 170.3 139.56"/><polygon class="cls-25" points="180.27 133.8 270.18 185.71 266.43 187.87 176.52 135.97 180.27 133.8"/><polygon class="cls-11" points="276.89 189.59 285.29 194.44 281.54 196.6 273.15 191.75 276.89 189.59"/><polygon class="cls-11" points="269.48 196.81 275.32 200.19 271.58 202.35 265.73 198.98 269.48 196.81"/><polygon class="cls-26" points="186.51 130.2 291.54 190.83 287.79 192.99 182.77 132.36 186.51 130.2"/><polygon class="cls-27" points="192.76 126.59 297.78 187.22 294.03 189.39 189.01 128.75 192.76 126.59"/><polygon class="cls-28" points="199 122.98 304.03 183.62 300.28 185.78 195.26 125.15 199 122.98"/></g></g><polygon class="cls-11" points="138.68 156.79 223.4 205.7 227.17 203.53 142.45 154.61 138.68 156.79"/><polygon class="cls-11" points="129.45 162.12 208.91 208 212.68 205.82 133.21 159.94 129.45 162.12"/><polygon class="cls-11" points="123.43 165.59 216.99 219.61 220.76 217.44 127.2 163.42 123.43 165.59"/><polygon class="cls-11" points="117.42 169.06 210.98 223.08 214.75 220.91 121.18 166.89 117.42 169.06"/><polygon class="cls-11" points="111.4 172.54 204.96 226.56 208.73 224.38 115.17 170.36 111.4 172.54"/><polygon class="cls-11" points="228.52 208.66 232.29 210.83 236.06 208.66 232.29 206.48 228.52 208.66"/><polygon class="cls-11" points="215.24 211.65 223.05 216.16 226.82 213.99 219 209.47 215.24 211.65"/><g class="cls-29"><polygon class="cls-3" points="166.14 78.61 173.89 83.09 174.11 81.74 166.37 77.27 166.14 78.61"/><polygon class="cls-3" points="175.13 83.8 179.35 86.24 179.58 84.89 175.36 82.46 175.13 83.8"/><polygon class="cls-3" points="185.91 90.03 188.97 91.79 189.19 90.44 186.14 88.68 185.91 90.03"/><polygon class="cls-3" points="183.69 88.74 184.73 89.34 184.96 88 183.91 87.39 183.69 88.74"/><polygon class="cls-3" points="180.61 86.96 182.5 88.06 182.73 86.71 180.84 85.62 180.61 86.96"/><polygon class="cls-3" points="172.27 88.89 175.32 90.66 175.55 89.31 172.5 87.55 172.27 88.89"/><polygon class="cls-3" points="165.11 84.76 171.09 88.21 171.31 86.87 165.33 83.41 165.11 84.76"/><polygon class="cls-3" points="173.68 106.54 179.66 110 179.89 108.65 173.91 105.2 173.68 106.54"/><polygon class="cls-3" points="170.61 104.76 172.5 105.86 172.73 104.51 170.83 103.42 170.61 104.76"/><polygon class="cls-3" points="174.68 100.39 180.66 103.85 180.89 102.5 174.91 99.05 174.68 100.39"/><polygon class="cls-3" points="171.6 98.61 173.5 99.71 173.72 98.36 171.83 97.27 171.6 98.61"/><polygon class="cls-3" points="169.27 133.08 158.01 126.57 157.78 127.92 169.05 134.43 169.27 133.08"/><polygon class="cls-3" points="173.24 135.38 170.46 133.77 170.23 135.11 173.02 136.72 173.24 135.38"/><polygon class="cls-3" points="193.04 136.68 181.77 130.17 181.55 131.51 192.81 138.02 193.04 136.68"/><polygon class="cls-3" points="197.01 138.97 194.22 137.36 194 138.71 196.78 140.32 197.01 138.97"/><polygon class="cls-3" points="161.58 125.27 158.53 123.5 158.3 124.85 161.35 126.61 161.58 125.27"/><polygon class="cls-3" points="180.15 129.25 177.09 127.48 176.87 128.83 179.92 130.59 180.15 129.25"/><polygon class="cls-3" points="168.74 129.41 162.76 125.95 162.53 127.29 168.51 130.75 168.74 129.41"/><polygon class="cls-3" points="171.82 131.18 169.92 130.09 169.7 131.43 171.59 132.53 171.82 131.18"/><polygon class="cls-3" points="179.04 135.35 173.06 131.89 172.83 133.24 178.81 136.69 179.04 135.35"/><polygon class="cls-3" points="182.11 137.12 180.22 136.03 179.99 137.37 181.89 138.47 182.11 137.12"/><polygon class="cls-3" points="179.63 132.32 176.58 130.56 176.35 131.9 179.4 133.66 179.63 132.32"/><polygon class="cls-3" points="186.79 136.46 180.81 133 180.59 134.35 186.57 137.8 186.79 136.46"/><polygon class="cls-3" points="189.87 138.24 187.97 137.14 187.75 138.49 189.64 139.58 189.87 138.24"/><polygon class="cls-3" points="165.29 124.04 159.04 120.43 158.82 121.78 165.06 125.38 165.29 124.04"/><polygon class="cls-3" points="170.99 127.33 166.47 124.72 166.25 126.07 170.76 128.68 170.99 127.33"/><polygon class="cls-3" points="175.22 129.78 172.17 128.02 171.94 129.36 175 131.12 175.22 129.78"/><polygon class="cls-3" points="204.82 143.47 198.58 139.87 198.35 141.21 204.6 144.82 204.82 143.47"/><polygon class="cls-3" points="210.52 146.77 206.01 144.16 205.78 145.5 210.3 148.11 210.52 146.77"/><polygon class="cls-3" points="214.76 149.22 211.71 147.45 211.48 148.79 214.53 150.56 214.76 149.22"/><polygon class="cls-3" points="202.38 102.9 208.63 106.51 208.85 105.16 202.61 101.56 202.38 102.9"/><polygon class="cls-3" points="196.68 99.61 201.2 102.22 201.42 100.87 196.91 98.26 196.68 99.61"/><polygon class="cls-3" points="192.45 97.16 195.5 98.92 195.72 97.58 192.67 95.82 192.45 97.16"/><polygon class="cls-3" points="200.31 98.32 206.55 101.93 206.78 100.58 200.53 96.97 200.31 98.32"/><polygon class="cls-3" points="194.61 95.03 199.12 97.64 199.35 96.29 194.83 93.68 194.61 95.03"/><polygon class="cls-3" points="190.37 92.58 193.43 94.34 193.65 93 190.6 91.23 190.37 92.58"/><polygon class="cls-3" points="175.09 104 177.2 105.22 177.43 103.88 175.32 102.66 175.09 104"/><polygon class="cls-3" points="171.12 101.71 173.91 103.32 174.14 101.97 171.35 100.36 171.12 101.71"/><polygon class="cls-3" points="165.85 120.99 159.6 117.38 159.38 118.72 165.62 122.33 165.85 120.99"/><polygon class="cls-3" points="171.55 124.28 167.03 121.67 166.8 123.02 171.32 125.62 171.55 124.28"/><polygon class="cls-3" points="175.78 126.73 172.73 124.96 172.5 126.31 175.56 128.07 175.78 126.73"/><polygon class="cls-3" points="162.23 115.53 160.12 114.31 159.89 115.65 162 116.87 162.23 115.53"/><polygon class="cls-3" points="166.2 117.82 163.41 116.21 163.19 117.56 165.97 119.17 166.2 117.82"/><polygon class="cls-3" points="171.88 121.1 167.38 118.5 167.16 119.85 171.65 122.44 171.88 121.1"/><polygon class="cls-3" points="177.96 95.53 180.07 96.75 180.3 95.41 178.19 94.19 177.96 95.53"/><polygon class="cls-3" points="173.99 93.24 176.78 94.85 177 93.51 174.22 91.9 173.99 93.24"/><polygon class="cls-3" points="168.32 89.96 172.81 92.56 173.03 91.21 168.54 88.62 168.32 89.96"/><polygon class="cls-3" points="181.17 100.52 185.67 103.11 185.89 101.77 181.4 99.17 181.17 100.52"/><polygon class="cls-3" points="173.83 96.52 179.88 100.01 180.11 98.67 174.06 95.17 173.83 96.52"/><polygon class="cls-3" points="170.75 94.74 172.65 95.83 172.87 94.49 170.98 93.39 170.75 94.74"/><polygon class="cls-3" points="167.8 93.03 169.69 94.13 169.92 92.78 168.03 91.69 167.8 93.03"/><polygon class="cls-3" points="168.21 110.38 174.19 113.84 174.41 112.5 168.43 109.04 168.21 110.38"/><polygon class="cls-3" points="165.13 108.61 167.02 109.7 167.25 108.36 165.36 107.26 165.13 108.61"/><polygon class="cls-3" points="168.62 114 170.73 115.21 170.96 113.87 168.85 112.65 168.62 114"/><polygon class="cls-3" points="176.06 111.53 178.17 112.75 178.4 111.41 176.29 110.19 176.06 111.53"/><polygon class="cls-3" points="179.07 113.27 184.13 116.19 184.36 114.85 179.3 111.92 179.07 113.27"/><polygon class="cls-3" points="185.03 116.71 188.04 118.45 188.27 117.1 185.26 115.36 185.03 116.71"/><polygon class="cls-3" points="164.65 111.7 167.44 113.31 167.66 111.97 164.88 110.36 164.65 111.7"/><polygon class="cls-3" points="164.39 114.86 166.5 116.08 166.72 114.73 164.61 113.51 164.39 114.86"/><polygon class="cls-3" points="160.42 112.56 163.2 114.17 163.43 112.83 160.64 111.22 160.42 112.56"/><polygon class="cls-3" points="173 109.77 174.9 110.86 175.13 109.52 173.23 108.42 173 109.77"/><polygon class="cls-3" points="170.05 108.06 171.94 109.16 172.17 107.81 170.28 106.72 170.05 108.06"/><polygon class="cls-3" points="184.6 92.63 191.06 96.36 191.28 95.01 184.82 91.28 184.6 92.63"/><polygon class="cls-3" points="177.36 88.44 183.41 91.94 183.64 90.6 177.59 87.1 177.36 88.44"/><polygon class="cls-3" points="174.28 86.67 176.18 87.76 176.4 86.42 174.51 85.32 174.28 86.67"/><polygon class="cls-3" points="171.33 84.96 173.22 86.06 173.45 84.71 171.56 83.62 171.33 84.96"/><polygon class="cls-3" points="169.72 84.03 165.63 81.67 165.85 80.32 169.94 82.68 169.72 84.03"/></g></g></g></svg>