<svg xmlns="http://www.w3.org/2000/svg" xmlns:xlink="http://www.w3.org/1999/xlink" viewBox="0 0 358.07 295.05"><defs><style>.cls-1{fill:none;}.cls-2{isolation:isolate;}.cls-3{fill:url(#_ÂÁ_Ï_ÌÌ_È_ËÂÌÚ_18);}.cls-4{fill:url(#_ÂÁ_Ï_ÌÌ_È_ËÂÌÚ_28);}.cls-5{fill:url(#_ÂÁ_Ï_ÌÌ_È_ËÂÌÚ_28-2);}.cls-6{fill:#0c0f38;}.cls-6,.cls-7{opacity:0.8;}.cls-11,.cls-7,.cls-9{fill:#d4088c;}.cls-7,.cls-8,.cls-9{mix-blend-mode:lighten;}.cls-19,.cls-8{fill:#6ee8fc;}.cls-10{fill:#6ee1f8;}.cls-12{fill:url(#_ÂÁ_Ï_ÌÌ_È_ËÂÌÚ_6);}.cls-13{fill:#3a9bd5;}.cls-14{fill:url(#_ÂÁ_Ï_ÌÌ_È_ËÂÌÚ_14);}.cls-15{fill:url(#_ÂÁ_Ï_ÌÌ_È_ËÂÌÚ_3);}.cls-16{fill:url(#_ÂÁ_Ï_ÌÌ_È_ËÂÌÚ_6-2);}.cls-17{fill:url(#_ÂÁ_Ï_ÌÌ_È_ËÂÌÚ_3-2);}.cls-18{fill:url(#_ÂÁ_Ï_ÌÌ_È_ËÂÌÚ_103);}.cls-20{opacity:0.11;}.cls-21{clip-path:url(#clip-path);}.cls-22{fill:url(#_ÂÁ_Ï_ÌÌ_È_ËÂÌÚ_21);}.cls-23{fill:url(#_ÂÁ_Ï_ÌÌ_È_ËÂÌÚ_29);}.cls-24{fill:url(#_ÂÁ_Ï_ÌÌ_È_ËÂÌÚ_29-2);}.cls-25{fill:url(#_ÂÁ_Ï_ÌÌ_È_ËÂÌÚ_29-3);}.cls-26{fill:url(#_ÂÁ_Ï_ÌÌ_È_ËÂÌÚ_29-4);}.cls-27{fill:url(#_ÂÁ_Ï_ÌÌ_È_ËÂÌÚ_29-5);}.cls-28{opacity:0.5;}.cls-29{fill:#fff;}</style><linearGradient id="_ÂÁ_Ï_ÌÌ_È_ËÂÌÚ_18" x1="280.1" y1="976.57" x2="327.12" y2="976.57" gradientTransform="translate(928.72 691.51) rotate(135)" gradientUnits="userSpaceOnUse"><stop offset="0" stop-color="#d4088c"/><stop offset="0.04" stop-color="#cc088c"/><stop offset="0.46" stop-color="#85078a"/><stop offset="0.76" stop-color="#590689"/><stop offset="0.91" stop-color="#480689"/></linearGradient><linearGradient id="_ÂÁ_Ï_ÌÌ_È_ËÂÌÚ_28" x1="164.56" y1="1075.32" x2="184.03" y2="1075.32" gradientTransform="translate(228.24 1124.85) rotate(180)" gradientUnits="userSpaceOnUse"><stop offset="0" stop-color="#6ee8fc"/><stop offset="0.16" stop-color="#6ae2fb"/><stop offset="0.37" stop-color="#5ed1f7"/><stop offset="0.61" stop-color="#4bb5f1"/><stop offset="0.87" stop-color="#308ee8"/><stop offset="0.96" stop-color="#267fe5"/></linearGradient><linearGradient id="_ÂÁ_Ï_ÌÌ_È_ËÂÌÚ_28-2" x1="10.19" y1="757.52" x2="53.97" y2="757.52" gradientTransform="matrix(0.32, 0.95, -0.95, 0.32, 1092.9, -109.74)" xlink:href="#_ÂÁ_Ï_ÌÌ_È_ËÂÌÚ_28"/><linearGradient id="_ÂÁ_Ï_ÌÌ_È_ËÂÌÚ_6" x1="-5261.63" y1="138.57" x2="-5124.66" y2="138.57" gradientTransform="matrix(-1, 0, 0, 1, -4929.76, 0)" gradientUnits="userSpaceOnUse"><stop offset="0" stop-color="#7bdaff"/><stop offset="1" stop-color="#59bdef"/></linearGradient><linearGradient id="_ÂÁ_Ï_ÌÌ_È_ËÂÌÚ_14" x1="-5259.77" y1="139.17" x2="-5122.79" y2="139.17" gradientTransform="matrix(-1, 0, 0, 1, -4929.76, 0)" gradientUnits="userSpaceOnUse"><stop offset="0" stop-color="#2573ba"/><stop offset="1" stop-color="#0063ad"/></linearGradient><linearGradient id="_ÂÁ_Ï_ÌÌ_È_ËÂÌÚ_3" x1="-5259.77" y1="139.17" x2="-5122.79" y2="139.17" gradientTransform="matrix(-1, 0, 0, 1, -4929.76, 0)" gradientUnits="userSpaceOnUse"><stop offset="0" stop-color="#2c75e4"/><stop offset="0.04" stop-color="#3461d5"/><stop offset="0.13" stop-color="#4140bb"/><stop offset="0.22" stop-color="#4b27a7"/><stop offset="0.32" stop-color="#521499"/><stop offset="0.41" stop-color="#570a91"/><stop offset="0.52" stop-color="#58068e"/><stop offset="0.66" stop-color="#5b078f"/><stop offset="0.76" stop-color="#640a92"/><stop offset="0.85" stop-color="#740f98"/><stop offset="0.93" stop-color="#8b17a0"/><stop offset="1" stop-color="#a31fa9"/></linearGradient><linearGradient id="_ÂÁ_Ï_ÌÌ_È_ËÂÌÚ_6-2" x1="-5256.96" y1="139.19" x2="-5125.74" y2="139.19" gradientTransform="matrix(-1, 0, 0, 1, -4981.29, -15.63)" xlink:href="#_ÂÁ_Ï_ÌÌ_È_ËÂÌÚ_6"/><linearGradient id="_ÂÁ_Ï_ÌÌ_È_ËÂÌÚ_3-2" x1="-5243.28" y1="213.19" x2="-5049.82" y2="213.19" xlink:href="#_ÂÁ_Ï_ÌÌ_È_ËÂÌÚ_3"/><radialGradient id="_ÂÁ_Ï_ÌÌ_È_ËÂÌÚ_103" cx="-5249.21" cy="222.41" r="205.39" gradientTransform="matrix(-1, 0, 0, 1, -4929.76, 0)" gradientUnits="userSpaceOnUse"><stop offset="0" stop-color="#2979e4"/><stop offset="0.24" stop-color="#4958cd"/><stop offset="0.57" stop-color="#6e33b2"/><stop offset="0.83" stop-color="#851ba1"/><stop offset="1" stop-color="#8d139b"/></radialGradient><clipPath id="clip-path" transform="translate(-51.54 -15.63)"><polygon class="cls-1" points="211.43 64.37 327.2 131.22 313.03 214.78 197.33 147.98 211.43 64.37"/></clipPath><linearGradient id="_ÂÁ_Ï_ÌÌ_È_ËÂÌÚ_21" x1="-5266.95" y1="165.32" x2="-5051.46" y2="165.32" gradientTransform="matrix(-1, 0, 0, 1, -4929.76, 0)" gradientUnits="userSpaceOnUse"><stop offset="0" stop-color="#c0bff6"/><stop offset="0.29" stop-color="#c5c4f7"/><stop offset="0.64" stop-color="#d3d2f9"/><stop offset="1" stop-color="#e9e9fd"/></linearGradient><radialGradient id="_ÂÁ_Ï_ÌÌ_È_ËÂÌÚ_29" cx="217.81" cy="162.27" r="40.15" gradientUnits="userSpaceOnUse"><stop offset="0" stop-color="#22215b"/><stop offset="0.33" stop-color="#1e1e55"/><stop offset="0.75" stop-color="#141645"/><stop offset="1" stop-color="#0c0f38"/></radialGradient><radialGradient id="_ÂÁ_Ï_ÌÌ_È_ËÂÌÚ_29-2" cx="225.43" cy="155.16" r="38.24" xlink:href="#_ÂÁ_Ï_ÌÌ_È_ËÂÌÚ_29"/><radialGradient id="_ÂÁ_Ï_ÌÌ_È_ËÂÌÚ_29-3" cx="239.23" cy="155.92" r="44.4" xlink:href="#_ÂÁ_Ï_ÌÌ_È_ËÂÌÚ_29"/><radialGradient id="_ÂÁ_Ï_ÌÌ_È_ËÂÌÚ_29-4" cx="245.48" cy="152.31" r="44.4" xlink:href="#_ÂÁ_Ï_ÌÌ_È_ËÂÌÚ_29"/><radialGradient id="_ÂÁ_Ï_ÌÌ_È_ËÂÌÚ_29-5" cx="251.72" cy="148.71" r="44.4" xlink:href="#_ÂÁ_Ï_ÌÌ_È_ËÂÌÚ_29"/></defs><title>img</title><g class="cls-2"><g id="_ÎÓÈ_1" data-name="—ÎÓÈ_1"><circle class="cls-3" cx="23.51" cy="215.66" r="23.51"/><circle class="cls-4" cx="53.94" cy="49.53" r="9.74"/><circle class="cls-5" cx="384.41" cy="160" r="17.5" transform="translate(-52.08 303.05) rotate(-45)"/><path class="cls-6" d="M388.89,230.88c-7,1.36-14.66-.83-17-4.89s1.42-8.46,8.46-9.83,14.66.82,17,4.89S395.93,229.51,388.89,230.88Z" transform="translate(-51.54 -15.63)"/><ellipse class="cls-6" cx="23.79" cy="284.25" rx="18.7" ry="10.8"/><path class="cls-6" d="M107.62,104.52c-3.52.68-7.32-.41-8.5-2.44s.71-4.23,4.22-4.91,7.32.41,8.5,2.44S111.13,103.83,107.62,104.52Z" transform="translate(-51.54 -15.63)"/><circle class="cls-7" cx="118.26" cy="9.02" r="2.49"/><circle class="cls-7" cx="74.54" cy="262.66" r="3.01"/><path class="cls-8" d="M108.57,265a1.55,1.55,0,1,1-1.54-1.54A1.54,1.54,0,0,1,108.57,265Z" transform="translate(-51.54 -15.63)"/><path class="cls-8" d="M371.16,207.88a1.6,1.6,0,1,1-1.59-1.6A1.6,1.6,0,0,1,371.16,207.88Z" transform="translate(-51.54 -15.63)"/><circle class="cls-8" cx="21.54" cy="84.32" r="2.25"/><path class="cls-8" d="M243.53,17.88a2.25,2.25,0,1,1-2.25-2.25A2.25,2.25,0,0,1,243.53,17.88Z" transform="translate(-51.54 -15.63)"/><path class="cls-8" d="M84.49,95a1.25,1.25,0,1,1-1.25-1.25A1.25,1.25,0,0,1,84.49,95Z" transform="translate(-51.54 -15.63)"/><path class="cls-9" d="M299,25.92a1.48,1.48,0,1,1-1.47-1.48A1.47,1.47,0,0,1,299,25.92Z" transform="translate(-51.54 -15.63)"/><polygon class="cls-10" points="31.24 158.12 30.7 156.19 34.98 155 33.78 150.71 35.71 150.18 37.45 156.38 31.24 158.12"/><polygon class="cls-10" points="27.46 164.83 26.93 162.9 31.2 161.71 30.01 157.42 31.93 156.88 33.67 163.09 27.46 164.83"/><polygon class="cls-10" points="31.48 162.67 29.74 156.46 35.95 154.73 36.48 156.65 32.2 157.85 33.4 162.13 31.48 162.67"/><path class="cls-10" d="M230.7,30.68a4.76,4.76,0,1,1,4.76-4.76A4.77,4.77,0,0,1,230.7,30.68Zm0-7.52a2.76,2.76,0,1,0,2.76,2.76A2.76,2.76,0,0,0,230.7,23.16Z" transform="translate(-51.54 -15.63)"/><path class="cls-10" d="M335.11,268.84l-5.4-5.41,5.4-5.4,5.41,5.4Zm-2.57-5.41,2.57,2.58,2.58-2.58-2.58-2.57Z" transform="translate(-51.54 -15.63)"/><rect class="cls-11" x="349.16" y="71.18" width="2" height="8.18" transform="translate(-2.19 254.05) rotate(-45.01)"/><rect class="cls-11" x="346.07" y="74.27" width="8.18" height="2" transform="translate(-2.2 254.02) rotate(-45)"/><path class="cls-9" d="M63.18,144.26a1.48,1.48,0,1,1-1.47-1.47A1.47,1.47,0,0,1,63.18,144.26Z" transform="translate(-51.54 -15.63)"/><path class="cls-6" d="M121.07,214.94,238.44,282.7a4.83,4.83,0,0,0,4.34.18l70-40.44c1.12-.64,1-1.76-.31-2.5L195.13,172.18a4.77,4.77,0,0,0-4.34-.18l-70,40.43C119.64,213.07,119.78,214.2,121.07,214.94Z" transform="translate(-51.54 -15.63)"/><path class="cls-12" d="M194.92,147.09l14.84-88-1.19-.5,1.79-1h0a1.29,1.29,0,0,1,1.38.09L330.31,126.1a3.34,3.34,0,0,1,1.54,3l-15,88.73a1.11,1.11,0,0,1-.63.9h0l-1.75,1-.3-1.63.1,0L196.46,150.1A3.35,3.35,0,0,1,194.92,147.09Z" transform="translate(-51.54 -15.63)"/><path class="cls-13" d="M329.65,128.51l2-.86a2.61,2.61,0,0,1,.25,1.46l-15,88.73a1.11,1.11,0,0,1-.63.9h0l-1.76,1-.3-1.63.1,0-6-3.45Z" transform="translate(-51.54 -15.63)"/><path class="cls-14" d="M194.6,151.17l118.58,68.46c.91.53,1.7.22,1.86-.73L330,130.18a3.33,3.33,0,0,0-1.54-3L209.88,58.71c-.92-.53-1.7-.22-1.86.73l-15,88.72A3.35,3.35,0,0,0,194.6,151.17Z" transform="translate(-51.54 -15.63)"/><path class="cls-15" d="M194.6,151.17l118.58,68.46c.91.53,1.7.22,1.86-.73L330,130.18a3.33,3.33,0,0,0-1.54-3L209.88,58.71c-.92-.53-1.7-.22-1.86.73l-15,88.72A3.35,3.35,0,0,0,194.6,151.17Z" transform="translate(-51.54 -15.63)"/><polygon class="cls-16" points="158.55 47.97 275.67 115.59 261.49 199.15 144.45 131.57 158.55 47.97"/><path class="cls-17" d="M120.07,193.18l6.47,3.37,64.88-37.46a4.72,4.72,0,0,1,4.24.18l111.91,64.61c1.07-.6,6-2.95,6-2.95l-2.37,6.17h0a1.4,1.4,0,0,1-.67.73l-68.33,39.46a4.72,4.72,0,0,1-4.24-.18L123.39,201a2,2,0,0,1-1-1h0Z" transform="translate(-51.54 -15.63)"/><path class="cls-18" d="M121.07,194.24,238.44,262a4.83,4.83,0,0,0,4.34.18l70-40.43c1.12-.65,1-1.77-.31-2.51L195.13,151.48a4.77,4.77,0,0,0-4.34-.18l-70,40.43C119.64,192.38,119.78,193.5,121.07,194.24Z" transform="translate(-51.54 -15.63)"/><path class="cls-19" d="M121.07,193.09l117.37,67.76a4.77,4.77,0,0,0,4.34.18l70-40.43a1.82,1.82,0,0,0,.59-.53,1.17,1.17,0,0,1-.59,1.68l-70,40.43a4.83,4.83,0,0,1-4.34-.18L121.07,194.24c-1-.57-1.29-1.35-.89-2A2.25,2.25,0,0,0,121.07,193.09Z" transform="translate(-51.54 -15.63)"/><g class="cls-20"><g class="cls-21"><path class="cls-22" d="M195.3,151.41,326,226.85a5.4,5.4,0,0,0,4.83.2l78-45c1.24-.71,1.08-2-.35-2.79L277.76,103.8a5.4,5.4,0,0,0-4.83-.2l-78,45C193.72,149.33,193.87,150.58,195.3,151.41Z" transform="translate(-51.54 -15.63)"/><polygon class="cls-23" points="172.38 133.88 266.98 188.49 263.23 190.66 168.64 136.04 172.38 133.88"/><polygon class="cls-24" points="182.35 128.13 272.26 180.03 268.51 182.2 178.6 130.29 182.35 128.13"/><polygon class="cls-10" points="278.97 183.91 287.37 188.76 283.62 190.92 275.23 186.07 278.97 183.91"/><polygon class="cls-10" points="271.56 191.14 277.4 194.51 273.66 196.68 267.81 193.3 271.56 191.14"/><polygon class="cls-25" points="188.59 124.52 293.62 185.15 289.87 187.32 184.85 126.68 188.59 124.52"/><polygon class="cls-26" points="194.84 120.91 299.86 181.55 296.11 183.71 191.09 123.08 194.84 120.91"/><polygon class="cls-27" points="201.09 117.31 306.11 177.94 302.36 180.1 197.34 119.47 201.09 117.31"/></g></g><polygon class="cls-10" points="140.76 151.11 225.48 200.02 229.25 197.85 144.53 148.94 140.76 151.11"/><polygon class="cls-10" points="131.53 156.44 210.99 202.32 214.76 200.15 135.29 154.27 131.53 156.44"/><polygon class="cls-10" points="125.51 159.91 219.07 213.93 222.84 211.76 129.28 157.74 125.51 159.91"/><polygon class="cls-10" points="119.5 163.39 213.06 217.41 216.82 215.23 123.26 161.21 119.5 163.39"/><polygon class="cls-10" points="113.48 166.86 207.04 220.88 210.81 218.7 117.25 164.69 113.48 166.86"/><polygon class="cls-10" points="230.6 202.98 234.37 205.16 238.14 202.98 234.37 200.81 230.6 202.98"/><polygon class="cls-10" points="217.31 205.97 225.13 210.49 228.9 208.31 221.08 203.8 217.31 205.97"/><g class="cls-28"><polygon class="cls-29" points="168.22 72.94 175.97 77.41 176.19 76.07 168.45 71.59 168.22 72.94"/><polygon class="cls-29" points="177.21 78.12 181.43 80.56 181.66 79.22 177.44 76.78 177.21 78.12"/><polygon class="cls-29" points="187.99 84.35 191.05 86.11 191.27 84.77 188.22 83 187.99 84.35"/><polygon class="cls-29" points="185.77 83.06 186.81 83.67 187.04 82.32 186 81.72 185.77 83.06"/><polygon class="cls-29" points="182.69 81.28 184.59 82.38 184.81 81.03 182.92 79.94 182.69 81.28"/><polygon class="cls-29" points="174.35 83.22 177.4 84.98 177.63 83.64 174.58 81.87 174.35 83.22"/><polygon class="cls-29" points="167.19 79.08 173.17 82.53 173.4 81.19 167.41 77.73 167.19 79.08"/><polygon class="cls-29" points="175.76 100.86 181.75 104.32 181.97 102.97 175.99 99.52 175.76 100.86"/><polygon class="cls-29" points="172.69 99.09 174.58 100.18 174.81 98.84 172.91 97.74 172.69 99.09"/><polygon class="cls-29" points="176.76 94.71 182.74 98.17 182.97 96.83 176.99 93.37 176.76 94.71"/><polygon class="cls-29" points="173.68 92.94 175.58 94.03 175.81 92.69 173.91 91.59 173.68 92.94"/><polygon class="cls-29" points="171.35 127.41 160.09 120.9 159.86 122.24 171.13 128.75 171.35 127.41"/><polygon class="cls-29" points="175.32 129.7 172.54 128.09 172.31 129.43 175.1 131.04 175.32 129.7"/><polygon class="cls-29" points="195.12 131 183.85 124.49 183.63 125.84 194.89 132.35 195.12 131"/><polygon class="cls-29" points="199.09 133.3 196.3 131.69 196.08 133.03 198.86 134.64 199.09 133.3"/><polygon class="cls-29" points="163.66 119.59 160.61 117.83 160.38 119.17 163.43 120.93 163.66 119.59"/><polygon class="cls-29" points="182.23 123.57 179.18 121.81 178.95 123.15 182 124.91 182.23 123.57"/><polygon class="cls-29" points="170.82 123.73 164.84 120.27 164.62 121.62 170.59 125.07 170.82 123.73"/><polygon class="cls-29" points="173.9 125.51 172 124.41 171.78 125.75 173.67 126.85 173.9 125.51"/><polygon class="cls-29" points="181.12 129.67 175.14 126.21 174.91 127.56 180.89 131.01 181.12 129.67"/><polygon class="cls-29" points="184.19 131.45 182.3 130.35 182.07 131.7 183.97 132.79 184.19 131.45"/><polygon class="cls-29" points="181.71 126.64 178.66 124.88 178.43 126.22 181.48 127.99 181.71 126.64"/><polygon class="cls-29" points="188.87 130.78 182.89 127.33 182.67 128.67 188.65 132.13 188.87 130.78"/><polygon class="cls-29" points="191.95 132.56 190.06 131.46 189.83 132.81 191.72 133.9 191.95 132.56"/><polygon class="cls-29" points="167.37 118.36 161.13 114.75 160.9 116.1 167.14 119.71 167.37 118.36"/><polygon class="cls-29" points="173.07 121.66 168.55 119.05 168.33 120.39 172.84 123 173.07 121.66"/><polygon class="cls-29" points="177.3 124.1 174.25 122.34 174.03 123.68 177.08 125.45 177.3 124.1"/><polygon class="cls-29" points="206.91 137.8 200.66 134.19 200.43 135.53 206.68 139.14 206.91 137.8"/><polygon class="cls-29" points="212.6 141.09 208.09 138.48 207.86 139.83 212.38 142.44 212.6 141.09"/><polygon class="cls-29" points="216.84 143.54 213.79 141.77 213.56 143.12 216.61 144.88 216.84 143.54"/><polygon class="cls-29" points="204.46 97.22 210.71 100.83 210.93 99.49 204.69 95.88 204.46 97.22"/><polygon class="cls-29" points="198.76 93.93 203.28 96.54 203.5 95.19 198.99 92.59 198.76 93.93"/><polygon class="cls-29" points="194.53 91.48 197.58 93.25 197.81 91.9 194.75 90.14 194.53 91.48"/><polygon class="cls-29" points="202.39 92.64 208.63 96.25 208.86 94.91 202.61 91.3 202.39 92.64"/><polygon class="cls-29" points="196.69 89.35 201.2 91.96 201.43 90.61 196.91 88 196.69 89.35"/><polygon class="cls-29" points="192.45 86.9 195.5 88.67 195.73 87.32 192.68 85.56 192.45 86.9"/><polygon class="cls-29" points="177.17 98.33 179.28 99.54 179.51 98.2 177.4 96.98 177.17 98.33"/><polygon class="cls-29" points="173.2 96.03 175.99 97.64 176.22 96.3 173.43 94.69 173.2 96.03"/><polygon class="cls-29" points="167.93 115.31 161.68 111.7 161.46 113.05 167.7 116.66 167.93 115.31"/><polygon class="cls-29" points="173.63 118.6 169.11 115.99 168.88 117.34 173.4 119.95 173.63 118.6"/><polygon class="cls-29" points="177.86 121.05 174.81 119.29 174.58 120.63 177.64 122.39 177.86 121.05"/><polygon class="cls-29" points="164.31 109.85 162.2 108.63 161.97 109.98 164.08 111.19 164.31 109.85"/><polygon class="cls-29" points="168.28 112.14 165.49 110.53 165.27 111.88 168.05 113.49 168.28 112.14"/><polygon class="cls-29" points="173.96 115.42 169.46 112.83 169.24 114.17 173.73 116.77 173.96 115.42"/><polygon class="cls-29" points="180.04 89.86 182.15 91.08 182.38 89.73 180.27 88.51 180.04 89.86"/><polygon class="cls-29" points="176.07 87.56 178.86 89.17 179.09 87.83 176.3 86.22 176.07 87.56"/><polygon class="cls-29" points="170.4 84.28 174.89 86.88 175.12 85.54 170.62 82.94 170.4 84.28"/><polygon class="cls-29" points="183.25 94.84 187.75 97.44 187.97 96.09 183.48 93.5 183.25 94.84"/><polygon class="cls-29" points="175.91 90.84 181.96 94.34 182.19 92.99 176.14 89.5 175.91 90.84"/><polygon class="cls-29" points="172.83 89.06 174.73 90.16 174.95 88.81 173.06 87.72 172.83 89.06"/><polygon class="cls-29" points="169.88 87.36 171.77 88.45 172 87.11 170.11 86.01 169.88 87.36"/><polygon class="cls-29" points="170.29 104.71 176.27 108.16 176.49 106.82 170.51 103.36 170.29 104.71"/><polygon class="cls-29" points="167.21 102.93 169.1 104.02 169.33 102.68 167.44 101.58 167.21 102.93"/><polygon class="cls-29" points="170.7 108.32 172.81 109.54 173.03 108.19 170.93 106.97 170.7 108.32"/><polygon class="cls-29" points="178.15 105.86 180.25 107.08 180.48 105.73 178.37 104.51 178.15 105.86"/><polygon class="cls-29" points="181.15 107.59 186.21 110.51 186.44 109.17 181.38 106.25 181.15 107.59"/><polygon class="cls-29" points="187.11 111.03 190.12 112.77 190.35 111.42 187.34 109.69 187.11 111.03"/><polygon class="cls-29" points="166.73 106.02 169.52 107.63 169.74 106.29 166.96 104.68 166.73 106.02"/><polygon class="cls-29" points="166.47 109.18 168.58 110.4 168.8 109.05 166.69 107.83 166.47 109.18"/><polygon class="cls-29" points="162.5 106.89 165.28 108.5 165.51 107.15 162.72 105.54 162.5 106.89"/><polygon class="cls-29" points="175.08 104.09 176.98 105.19 177.21 103.84 175.31 102.75 175.08 104.09"/><polygon class="cls-29" points="172.13 102.38 174.03 103.48 174.25 102.13 172.36 101.04 172.13 102.38"/><polygon class="cls-29" points="186.68 86.95 193.14 90.68 193.37 89.34 186.9 85.6 186.68 86.95"/><polygon class="cls-29" points="179.44 82.77 185.49 86.27 185.72 84.92 179.67 81.42 179.44 82.77"/><polygon class="cls-29" points="176.36 80.99 178.26 82.08 178.48 80.74 176.59 79.64 176.36 80.99"/><polygon class="cls-29" points="173.41 79.28 175.31 80.38 175.53 79.03 173.64 77.94 173.41 79.28"/><polygon class="cls-29" points="171.8 78.35 167.71 75.99 167.94 74.64 172.02 77.01 171.8 78.35"/></g></g></g></svg>