<svg xmlns="http://www.w3.org/2000/svg" xmlns:xlink="http://www.w3.org/1999/xlink" viewBox="0 0 322.87 330.15"><defs><style>.cls-1{fill:url(#Nova_amostra_de_gradiente_1);}.cls-2{fill:url(#Nova_amostra_de_gradiente_1-2);}.cls-3{fill:url(#Nova_amostra_de_gradiente_1-3);}.cls-4{fill:url(#Nova_amostra_de_gradiente_1-4);}.cls-5{fill:#e5e8ed;}.cls-6{fill:#b0bfdf;}.cls-11,.cls-7{fill:#ffa578;}.cls-15,.cls-16,.cls-18,.cls-19,.cls-20,.cls-7,.cls-8{fill-rule:evenodd;}.cls-12,.cls-8{fill:#e68969;}.cls-16,.cls-9{fill:#1e4a62;}.cls-10,.cls-20{fill:#3ec7c8;}.cls-13{fill:#275882;}.cls-14,.cls-15{fill:#2c7dea;}.cls-17,.cls-19{fill:#f0825c;}.cls-18{fill:#b91e2d;}.cls-21{fill:#ebbe40;}.cls-22{fill:#e5a631;}.cls-23{fill:#f4de41;}.cls-24{fill:#f9eba1;}</style><linearGradient id="Nova_amostra_de_gradiente_1" x1="69.96" y1="183.27" x2="236.99" y2="129.54" gradientUnits="userSpaceOnUse"><stop offset="0.17" stop-color="#de6262"/><stop offset="0.26" stop-color="#e36f69"/><stop offset="0.57" stop-color="#f2977c"/><stop offset="0.82" stop-color="#fcaf88"/><stop offset="0.97" stop-color="#ffb88c"/></linearGradient><linearGradient id="Nova_amostra_de_gradiente_1-2" x1="38.67" y1="173.65" x2="150.5" y2="173.65" xlink:href="#Nova_amostra_de_gradiente_1"/><linearGradient id="Nova_amostra_de_gradiente_1-3" x1="116.55" y1="241.68" x2="283.58" y2="187.95" gradientTransform="translate(362.64 386.7) rotate(180)" xlink:href="#Nova_amostra_de_gradiente_1"/><linearGradient id="Nova_amostra_de_gradiente_1-4" x1="85.26" y1="232.05" x2="197.09" y2="232.05" gradientTransform="translate(362.64 386.7) rotate(180)" xlink:href="#Nova_amostra_de_gradiente_1"/></defs><title>ok4</title><g id="Camada_2" data-name="Camada 2"><g id="Слой_1" data-name="Слой 1"><path class="cls-1" d="M151.67,92.66c-.09-.61-.2-1.23-.34-1.91-.61-3-1.05-5.38-2.51-8a21,21,0,0,0-7.53-7.53,20.28,20.28,0,0,0-3.22-1.42,23.24,23.24,0,0,0-5.57-1.51,19.22,19.22,0,0,0-5,0A18.18,18.18,0,0,0,122,74C86,96.34,60.1,114.36,51.72,121.73a36.14,36.14,0,0,0-9.63,12.55,30.94,30.94,0,0,0-2.93,12.56v35.57q1.47,5.44,2.93,10.88a41.54,41.54,0,0,0,8,13A39.57,39.57,0,0,0,58,213c7.94,5.2,26.33,17.66,51.06,34.32.49.43,1.2,1,2.09,1.68,2.66,2,9.45,7,18.42,6.69,1.81-.05,10.38-.3,15.9-6.69a19.94,19.94,0,0,0,4.61-11.72v-22.6a16.89,16.89,0,0,0-2.93-10c-2.06-3.42-4.59-5.19-10.47-9.2-6.62-4.53-9.93-6.79-13-8.79-4.68-3.09-9.26-6.24-18.42-12.56-3.35-2.31-8.09-5.6-13.81-9.62l5.44-3.77L117,147.26,119.1,146c9.2-6.2,16.44-11,21.77-14.23,1.94-1.17,5.39-3.17,7.53-7.12a28.78,28.78,0,0,0,2.09-5.44,39.69,39.69,0,0,0,1.26-6.27,80.74,80.74,0,0,0,.42-14.65A48.65,48.65,0,0,0,151.67,92.66Z"/><path class="cls-2" d="M94.41,91.59c-22.15,13.86-37.86,25-42.27,28.88a45.34,45.34,0,0,0-7,7.93,38.1,38.1,0,0,0-6,15.93c-.72,18.88-.59,33.1,0,38.5a49.14,49.14,0,0,0,1.26,6.7,28.19,28.19,0,0,0,2.92,7.53,46.74,46.74,0,0,0,6.71,9.21s1.54,1.73,3.34,3.35c8.35,7.49,53.42,37.44,58.18,40.59a28.21,28.21,0,0,0,18,5.44c2.5-.15,10.5-.61,15.9-6.69a20.62,20.62,0,0,0,5-13c0-10.57,0-18.57,0-22.6a17,17,0,0,0-.76-5.59,20.39,20.39,0,0,0-2.17-4.45c-2.05-3.42-4.58-5.19-10.46-9.21-4.31-2.95-8.61-5.91-13-8.79-3.35-2.2-7.95-5.37-17.16-11.72-3.69-2.54-8.86-6.11-15.07-10.46A35.93,35.93,0,0,1,80.6,151c-9.3-16.71,0-38.1,1.67-41.85A60.18,60.18,0,0,1,94.41,91.59Z"/><path class="cls-3" d="M164.39,235.64c.09.6.2,1.23.33,1.9.61,3.05,1.06,5.38,2.51,8a21,21,0,0,0,7.54,7.54,20,20,0,0,0,3.21,1.41,23.64,23.64,0,0,0,5.58,1.52,19.65,19.65,0,0,0,5,0,18,18,0,0,0,5.44-1.68c36-22.32,61.93-40.34,70.31-47.71A36.14,36.14,0,0,0,274,194a31,31,0,0,0,2.93-12.56V145.88Q275.42,140.45,274,135A41.38,41.38,0,0,0,266,122a40,40,0,0,0-7.95-6.7C250.11,110.14,231.72,97.67,207,81c-.5-.42-1.21-1-2.1-1.67-2.66-2-9.45-7-18.41-6.7-1.82.06-10.39.3-15.91,6.7A19.84,19.84,0,0,0,166,91.06v22.6a16.85,16.85,0,0,0,2.93,10c2.06,3.42,4.58,5.19,10.46,9.21,6.62,4.52,9.93,6.78,13,8.79,4.68,3.08,9.25,6.24,18.41,12.56,3.35,2.31,8.1,5.6,13.81,9.62l-5.44,3.77L199,181,197,182.3c-9.19,6.2-16.44,11-21.76,14.23-1.95,1.16-5.4,3.17-7.54,7.11a30,30,0,0,0-2.09,5.44,40.65,40.65,0,0,0-1.25,6.28,80.74,80.74,0,0,0-.42,14.65A46.85,46.85,0,0,0,164.39,235.64Z"/><path class="cls-4" d="M221.64,236.71c22.15-13.86,37.86-25,42.27-28.88a44.84,44.84,0,0,0,7-7.93,36.81,36.81,0,0,0,2.61-4.63,38.17,38.17,0,0,0,3.35-11.3c.72-18.89.59-33.1,0-38.5a47,47,0,0,0-1.26-6.7,28.15,28.15,0,0,0-2.91-7.53A46.86,46.86,0,0,0,266,122s-1.55-1.73-3.35-3.35c-8.35-7.5-53.42-37.44-58.18-40.6a28.27,28.27,0,0,0-18-5.44c-2.51.15-10.51.62-15.91,6.7a20.73,20.73,0,0,0-5,13c0,10.58,0,18.58,0,22.6a16.86,16.86,0,0,0,.77,5.6,20.82,20.82,0,0,0,2.16,4.45c2.06,3.42,4.58,5.19,10.46,9.21,4.32,2.94,8.62,5.91,13,8.78,3.34,2.21,7.95,5.38,17.16,11.72,3.69,2.55,8.85,6.12,15.06,10.47a35.89,35.89,0,0,1,11.31,12.13c9.29,16.72,0,38.1-1.68,41.86A60.11,60.11,0,0,1,221.64,236.71Z"/><path class="cls-5" d="M263.83,115.81c-3.19,8.87-1.22,32.6-1.12,37.12.14,6,10.25,4.49,12,2.34,2.34-2.82,4.54-9.53,5.15-20.74a228.34,228.34,0,0,0-.23-32.37S267.26,106.24,263.83,115.81Z"/><path class="cls-6" d="M266,118.76c-.66,8.57,0,15.35,2.67,25.27,1.17,4.32,4.56,13.08,6.09,11.24,2.34-2.82,4.54-9.53,5.15-20.74,1.07-19.78.53-30.55.53-30.55S266.94,106.12,266,118.76Z"/><path class="cls-7" d="M241.75,180.74a22.91,22.91,0,0,0-6.21,6.68c-.87,1.36-2.73,4-2.7,5.3s1.72,1.78,2.73.47a1.68,1.68,0,0,0,2.51.31,2.36,2.36,0,0,0,3-.08c1.07.84,2.33.5,3.25-1s2.52-3.32,5.25-7.71c.45-.73,1.65-2,2.09-2.63a54.76,54.76,0,0,1-7.32-4.82C243.82,178,243,179.92,241.75,180.74Z"/><path class="cls-8" d="M245.24,182.82a3.41,3.41,0,0,0-3.74.19c-2.71,2.11-4.06,5.43-6.18,8.1,1.14-.1,2.29-.23,3.45-.4a6,6,0,0,1,5.35,2c.07-.09.14-.18.21-.29.79-1.34,2-2.72,3.85-5.54-.24-.29-.48-.57-.71-.86A28.14,28.14,0,0,1,245.24,182.82Z"/><polygon class="cls-9" points="222.47 178.37 230.47 183.45 232.36 180.46 224.36 175.37 222.47 178.37"/><path class="cls-9" d="M250.51,190.19,234.2,179.88a3.24,3.24,0,0,0-3.46,5.48l16.31,10.31a3.24,3.24,0,1,0,3.46-5.48Z"/><path class="cls-10" d="M205.35,149.13l-.53.1-.46.12a19.24,19.24,0,0,0-11.61,8.54l-.43.69-.1.19a19.34,19.34,0,0,0,21,28.22l.6-.13.4-.1a19.32,19.32,0,0,0,14.11-16.12l.06-.45,0-.57a19.33,19.33,0,0,0-23.11-20.49Zm19.52,20.4-.06.6-.1.6a16.77,16.77,0,0,1-11.08,12.7l-.56.18-.6.14c-8.33,1.94-16.76-3.28-19.2-11.88a14.73,14.73,0,0,1,1.6-11.42l.25-.42.39-.59a16.46,16.46,0,0,1,9.59-6.85l.54-.13.64-.1c8-1.31,15.81,3.88,18.14,12.09A13.92,13.92,0,0,1,224.87,169.53Z"/><path class="cls-5" d="M265.88,144.52c-3.62,1.81-6.38,8.1-8.46,11.84-3.29,5.9-15.21,22.41-15.21,22.41a87.69,87.69,0,0,0,9.79,6.12s16.12-20.17,21.47-27.51C281.58,146.25,269.81,142.56,265.88,144.52Z"/><path class="cls-6" d="M268.65,144c-3.79,7-3.2,15.3-9.67,25.31-2.12,3.3-9.8,9.75-11.27,13.08,1.26.77,2.7,1.61,4.29,2.47,0,0,16.12-20.17,21.47-27.51C280.11,148.28,274,143,268.65,144Z"/><path class="cls-11" d="M319.68,305.62c-.08-.54-10.61-3.52-10.83,0-.19,3,.6,7.71-2,10.12-3,2.75-14.31,8.6-19.46,9.36-.27.76.63,1.4,1.39,1.66,3.81,1.29,8,.73,12,.31,4.63-.48,9.3-.75,14-.8,2.07,0,4.54-.2,5.59-2,.79-1.33.43-3,.24-4.55C319.94,315.07,320.35,310.3,319.68,305.62Z"/><path class="cls-12" d="M319.68,305.62c0-.26-2.55-1.09-5.14-1.48.17.33.35.65.49,1,4.17,10.09-4.77,17.92-13.31,21.87,4.3-.42,8.62-.67,12.95-.72,2.07,0,4.54-.2,5.59-2,.79-1.33.43-3,.24-4.55C319.94,315.07,320.35,310.3,319.68,305.62Z"/><path class="cls-13" d="M320.42,317.59c-1.3-1-9.56,5.42-19,5.42,0-1.26-1.19-3.39-2.76-2.85-4.16,1.45-11.5,4.07-12.32,4.41-2.66,1.11-1.62,5.58-.05,5.58H301c2.8,0,7.27-2.57,11.78-2.57,5,0,6.53-.17,7.15-.45C324.67,325,322.82,319.38,320.42,317.59Z"/><path class="cls-9" d="M312.36,324.67c-3.36.18-13.91,1.45-15.69,1.93a15.18,15.18,0,0,1-7.86,0,11,11,0,0,1-3.31-1.51c-1.6,1.59-.63,5,.75,5H301c2.8,0,7.27-2.57,11.78-2.57,5,0,6.53-.17,7.15-.45,3.76-1.69,3.39-5.51,1.9-7.93A11.38,11.38,0,0,1,312.36,324.67Z"/><path class="cls-9" d="M311.06,330.15h9.26l2.33-5.93-10.95,3.15A5.31,5.31,0,0,1,311.06,330.15Z"/><path class="cls-11" d="M243.07,303.09c-1.48,2.65-2.79,7.21-6.22,8.23-3.94,1.17-16.62,1.55-21.59,0-.57.58,0,1.54.53,2.11,2.87,2.81,6.86,4.11,10.65,5.47,4.38,1.57,8.7,3.36,12.92,5.34,1.88.88,4.18,1.78,5.91.62,1.28-.86,1.68-2.52,2.19-4,1.52-4.46,4-8.59,5.38-13.09C253,307.25,244.81,300,243.07,303.09Z"/><path class="cls-12" d="M248.86,304.21c0,.37,0,.74,0,1.11-.63,10.9-12.08,14.08-21.49,13.93,4.06,1.49,8.07,3.14,12,5,1.88.88,4.18,1.78,5.91.62,1.28-.86,1.68-2.52,2.19-4,1.52-4.46,4-8.59,5.38-13.09C252.92,307.52,251,305.68,248.86,304.21Z"/><path class="cls-13" d="M228.82,315.5c.54-1.13.39-3.57-1.25-3.76-4.39-.51-12.13-1.33-13-1.37-2.88-.16-3.88,4.32-2.46,5l13.25,6.38c2.53,1.21,7.67.83,11.73,2.79,4.54,2.18,6,2.68,6.64,2.7,5.23.13,6-5.72,4.61-8.37C247.57,317.45,237.36,319.62,228.82,315.5Z"/><path class="cls-9" d="M238,321.76c-3.1-1.3-13.15-4.72-15-5.06a15.39,15.39,0,0,1-7.09-3.39,11.18,11.18,0,0,1-2.33-2.81c-2.12.75-2.75,4.28-1.5,4.88l13.25,6.38c2.53,1.21,7.67.83,11.73,2.79,4.54,2.18,6,2.68,6.64,2.7,4.12.1,5.45-3.5,5.15-6.33A11.38,11.38,0,0,1,238,321.76Z"/><path class="cls-9" d="M234.44,326.14l8.34,4,4.67-4.33-11.23-1.91A5.4,5.4,0,0,1,234.44,326.14Z"/><path class="cls-14" d="M272.75,165.46c-7.63,26.8-10.47,44.87-15,72.37-3.42,20.59-13.14,49.66-20,70,2.64,4.79,9.1,7.37,15.14,6.38,4.23-7.16,22.27-57.8,27-72.28,7-21.29,16-40,23.43-66.05C303.6,174.91,280.84,166.27,272.75,165.46Z"/><path class="cls-9" d="M290.25,170.28c-3.65,12.26.87,21.1-8,31-5.48,6.14-6.63,21.47-6.62,29.68a34.47,34.47,0,0,1-5.16,18.55c-3.76,5.73-7.43,9.41-8.36,16.52-.9,6.93-4,16.67-5.49,23.55-2.66,12.24-11.14,10.18-16,21.64a15.89,15.89,0,0,0,12.22,3c4.23-7.16,22.27-57.8,27-72.28,7-21.29,16-40,23.43-66.05C303.46,175.38,297.31,172.77,290.25,170.28Z"/><path class="cls-14" d="M316.22,178.82c-6.35-1.15-35.7-8.13-38.77-2.46-4.63,8.54.79,9.64,2.53,19.73,5.4,31.31,23.67,108.32,26.41,117.59,5.5,2.14,10.9.23,14.76-.73-.89-24.18-5.35-43.33-6.12-64.28C314.11,223.83,316.92,197.91,316.22,178.82Z"/><path class="cls-9" d="M316.22,178.82c-2.08-.37-6.61-1.37-11.87-2.35,2.07,2.82.46,23.3.36,24.8-.69,11.09,5.6,18.4,5.25,20.9-2,14.06,1.19,23.21,1.1,27.38-.1,4.69-2.4,13.38-1.1,24.14.69,5.69,4.6,16.82,6.47,22.61,1.05,3.24-1.76,14-1.24,18,2.2-.36,4.24-1,6-1.39-.89-24.18-5.35-43.33-6.12-64.28C314.11,223.83,316.92,197.91,316.22,178.82Z"/><path class="cls-5" d="M317.64,129.45c.18-11.84-6.94-27.29-25.1-27.29-7.55,0-23.77,5.33-25.16,9.33-1.75,5.05-3.7,76.08-2.89,78.11,1.6,4.07,53,5.45,53.52,2.57C318.57,188.85,317.44,142.67,317.64,129.45Z"/><path class="cls-5" d="M273.45,154.84c-1.15,5.94,7.09,6.42,9.74,5.51,3.46-1.2,9.43-5.71,15.76-15,11.18-16.35,13.93-20.84,13.93-20.84l-15.6-10.37S274.6,148.9,273.45,154.84Z"/><path class="cls-6" d="M274.69,159c2.25,2,6.69,2,8.5,1.4,3.46-1.2,9.43-5.71,15.76-15,11.18-16.35,13.93-20.84,13.93-20.84l-2.32-6C307.54,131,289.17,150.55,274.69,159Z"/><path class="cls-6" d="M317.64,129.45c.18-11.84-6.94-27.29-25.1-27.29a33.18,33.18,0,0,0-6.47.81c12.6,4.8,25.87,8.84,25.24,22.71-.2,4.31-5.81,18.73-5.81,23.06,0,7.58,6.35,11.32,3.53,15.68-3.8,5.88-6.17,6.1-6.17,8.48,0,5.74,5.62,5.29,4.68,9.79-1.06,5.08-8.5,5.22-10.88,10.95,11.24.23,21.14-.22,21.35-1.47C318.57,188.85,317.44,142.67,317.64,129.45Z"/><path class="cls-12" d="M290.92,92.84c-.46,4.21-6.28,5.75-6.28,10.68,0,4.15,17.94,5.65,18.17-.31s.73-17.09.73-17.09S291.37,88.64,290.92,92.84Z"/><path class="cls-11" d="M300.8,66.2a12.47,12.47,0,0,0-7.54-3.84c-2.84-.43-11.74.76-14,2.51s-1.63,6.87-2.59,8.77c-1.85,3.67-1.37,6.08-1.06,11.11.19,3.11-.65,6.33.52,9.21,1.88,4.64,7.54,8.39,12.3,6.84,10.81-3.52,15.32-14.13,15.29-15.2-.1-3.35.36-6.7.23-10S303,68.72,300.8,66.2Z"/><path class="cls-12" d="M300.8,66.2a12.47,12.47,0,0,0-7.54-3.84,20.57,20.57,0,0,0-5.26,0c-3.6.79-5.34,9.79-5.34,9.79s-1.61,5.93-3.94,8.65,3.94,10.42,5.6,13.5a18.12,18.12,0,0,1,2.28,6.89,7.43,7.43,0,0,0,1.8-.34c10.81-3.52,15.32-14.13,15.29-15.2-.1-3.35.36-6.7.23-10S303,68.72,300.8,66.2Z"/><path class="cls-9" d="M293.67,59.45c-10.18-1.4-14.26,5.28-17,5.94,7.54,5.56,19.43,2.7,19.23,4.58-1.28,12,3,12.57,3.63,14.64a12.71,12.71,0,0,0,4.73,5.79C312,70.89,305.74,61.1,293.67,59.45Z"/><path class="cls-14" d="M298.6,60.72a20.71,20.71,0,0,0-4.93-1.27c-7.94-1.09-12.16,2.72-14.95,4.77.14.1,9.86,4,19.29,2.27A3,3,0,0,0,298.6,60.72Z"/><path class="cls-11" d="M297.64,77.58c-4.21,1.4-1.42,6.58-1.45,10,0,1.94,2.72.26,4.27-.91a7.25,7.25,0,0,0,2.38-3.48c.59-1.71.64-3.86-.69-5.08A4.58,4.58,0,0,0,297.64,77.58Z"/><path class="cls-12" d="M296.54,80.64a5.61,5.61,0,0,1,1.55,1.6,10.14,10.14,0,0,1,.43,2.6s4.73-2.09,3.17-4.18S296.54,80.64,296.54,80.64Z"/><path class="cls-9" d="M287.87,88.57a5.15,5.15,0,0,0-4-4.59c-2.18-.63-7.37-1.77-8.29-.79-2.13,2.3-.86,4.32-1.5,6-1.41,3.65-3,5.65-2.55,8.14,1.43,7.3,11.13,12.75,19.69,7.66,8.33-5,4.64-15.21,4.12-18-1.2-6.51,4.51-11.76,4.51-11.76l-2.83-4S292.32,87.48,287.87,88.57Z"/><path class="cls-14" d="M290.54,86.33c.13.39-.09,1,.23,1.19,1.54,1.16,4.33-9.65,4.18-10.18A40.91,40.91,0,0,1,290.54,86.33Z"/><path class="cls-14" d="M274.12,97.35c-.4-2,.39-5.3,1.52-5.87.54-.28,6.7,0,6.83-1.92.11-1.68-3.47-.8-5.26-2.88-.75-.87-.17-2.44.76-3.84a3.43,3.43,0,0,0-2.37.35c-2.13,2.3-.86,4.32-1.5,6-1.41,3.65-3,5.65-2.55,8.14,1.37,7,10.35,12.27,18.63,8.21C282.82,107.26,275.34,103.54,274.12,97.35Z"/><path class="cls-7" d="M283.73,96.35c-.87-1.11-2.82-.43-2.83,1.49a1.92,1.92,0,0,0-2.52,1.46,2.74,2.74,0,0,0-2.71,2.18c-1.57,0-2.49,1.18-2.25,3.23.25,2.2,0,4.82.57,10.77.1,1-.37,10.23-.32,11.14a66.14,66.14,0,0,1,10.22-1.39c-.05-1.07-.56-10,.05-11.63a26.47,26.47,0,0,0,1-10.48C284.82,101.26,284.68,97.54,283.73,96.35Z"/><path class="cls-8" d="M283.73,96.35c-.87-1.11-2.82-.43-2.83,1.49a1.92,1.92,0,0,0-2.52,1.46,2.74,2.74,0,0,0-2.07.91c3.44.89,6,3.56,5.44,8.26-.21,1.69-1.12,3.13-1.47,4.79-.54,2.49,0,4.55.45,7a21.22,21.22,0,0,1,.31,5.19,20.54,20.54,0,0,1,2.85-.19c-.05-1.07-.56-10,.05-11.63a26.47,26.47,0,0,0,1-10.48C284.82,101.26,284.68,97.54,283.73,96.35Z"/><path class="cls-8" d="M283.15,95.85l-6.47-2.7a1.21,1.21,0,0,0-1.57.64c-.25.61.74,1.84,1.35,2.09l5.77,2.17a1.19,1.19,0,1,0,.92-2.2Z"/><path class="cls-15" d="M283.56,115.87a28.23,28.23,0,0,0-9.49.4.37.37,0,0,0-.3.29,10.51,10.51,0,0,0-.08,2.81.37.37,0,0,0,.47.32,23.24,23.24,0,0,1,9.36-.33A.37.37,0,0,0,284,119a16.49,16.49,0,0,0-.08-2.83A.38.38,0,0,0,283.56,115.87Z"/><path class="cls-7" d="M245.19,188.88l-3.56,3.86a.92.92,0,0,0,.09,1.29.9.9,0,0,0,1.28-.09s3.19-3.51,3.09-4.7C246.06,188.92,245.52,188.5,245.19,188.88Z"/><path class="cls-7" d="M237.14,185.18l-3.94,6.16a1.28,1.28,0,0,0,.43,1.75,1.27,1.27,0,0,0,1.74-.43s3.52-5.59,3.09-7.2C238.34,185,237.5,184.58,237.14,185.18Z"/><path class="cls-7" d="M239.88,185.86,235.94,192a1.27,1.27,0,1,0,2.17,1.31s3.52-5.58,3.09-7.2C241.08,185.71,240.24,185.26,239.88,185.86Z"/><path class="cls-7" d="M242.34,186.43l-3.59,5.62a1.16,1.16,0,1,0,2,1.19s3.21-5.08,2.81-6.55C243.44,186.29,242.67,185.89,242.34,186.43Z"/><path class="cls-5" d="M284.18,121.5a34.85,34.85,0,0,0-10.62.43s-1.5,15.52-2,22.25a34,34,0,0,0,1.71,12.9c1.38,4.17,14.06,7.2,13.42-6.55C286.25,141.45,284.18,121.5,284.18,121.5Z"/><path class="cls-6" d="M284.18,121.5c-1.52-.13-2.88-.17-4.1-.17a6.17,6.17,0,0,1,1.06,2.66c1.46,10.46,6.2,22.78-.49,32.42a9,9,0,0,1-4.37,3.45c4.15,1.81,10.87.78,10.4-9.33C286.25,141.45,284.18,121.5,284.18,121.5Z"/><path class="cls-15" d="M279.64,114.13a3.09,3.09,0,1,0,3.23,2.94A3.09,3.09,0,0,0,279.64,114.13Z"/><path class="cls-16" d="M279.67,115a2.27,2.27,0,1,0,2.38,2.16A2.27,2.27,0,0,0,279.67,115Z"/><path class="cls-7" d="M277.91,117.32a2.12,2.12,0,0,1,2-2.23,2,2,0,0,1,1.38.46,2.27,2.27,0,1,0-1.44,3.94,2.28,2.28,0,0,0,1.47-.64,2,2,0,0,1-1.21.5A2.13,2.13,0,0,1,277.91,117.32Z"/><path class="cls-7" d="M45.93,111.59c5.18,9,19.95,25.16,25.2,31.36L80,138.71c-4.54-8.26-25-34.12-25-34.12Z"/><path class="cls-7" d="M114.58,159.65c-2.61-1.4.61-2.39-1.72-3.26-2.52-1-3.76-1.3-6.73-.62-5,1.17-17.25-10.49-25.33-16.46-9-6.63-12.32-.88-11.08,1.41,6,11.1,23.82,17,30.24,20.53C104.87,164,108,165,109.8,166s2.85,1,3.42-.42a1.8,1.8,0,0,0,2.41-1.12,1.33,1.33,0,0,0,1.87-1.28c1.66.72,3.13,1.26,3.32-.14C120.91,162.38,116.13,160.48,114.58,159.65Z"/><path class="cls-8" d="M118.38,161.45c-3.34,1.83-4-3.69-7-2-6,3.36-24.39-12-33-15.7-3-1.3-3.09-4.73-1.54-6.73-5.75-4.33-8.29,1.68-7.25,3.59,6,11.1,24,17.11,30.4,20.68C104.87,164,108,165,109.8,166s2.85,1,3.42-.42a1.8,1.8,0,0,0,2.41-1.12,1.33,1.33,0,0,0,1.87-1.28c1.66.72,3.13,1.26,3.32-.14C120.87,162.73,119.73,162.1,118.38,161.45Z"/><path class="cls-7" d="M108.22,155.46l2.8,2.47a6,6,0,0,0,3.71-.55c1.83.78,3.31.39,4-.86a20,20,0,0,1-4.68-1.15Z"/><circle class="cls-17" cx="29.25" cy="56.6" r="8.05" transform="translate(-32.55 72.06) rotate(-76.72)"/><path class="cls-18" d="M29.25,48.55a8.16,8.16,0,0,0-2.62.47A7.87,7.87,0,0,1,28,48.89c8.27,0,8.26,12.83,0,12.83-5.31,0-7.18-5.28-5.67-9.06a7.88,7.88,0,0,0-1.07,3.94,8,8,0,1,0,8-8.05Z"/><path class="cls-19" d="M25.54,46.91a9.86,9.86,0,0,0,3.61,18.26,9.86,9.86,0,0,1,4.92-19A9.87,9.87,0,0,0,25.54,46.91Z"/><path class="cls-19" d="M28.41,58C11.32,61.8,15.47,77.2,16.27,81.27c1.58,8,8.85,12.69,18.2,12.69,12.35,0,19.24-18.39,12.25-29C41.41,56.84,33.25,57,28.41,58Z"/><path class="cls-18" d="M28.41,58l-.3.07.64.13a10.33,10.33,0,0,1,3.92,1.93,13.51,13.51,0,0,1,6.84,7.3A14.75,14.75,0,0,1,40.28,77a13.69,13.69,0,0,1-6.65,8.22C30.44,87,26.34,88,22.76,86.8a14.74,14.74,0,0,1-5.7-3.43c-.12-.11-.22-.25-.33-.37C19,89.92,25.81,94,34.47,94c12.35,0,19.24-18.39,12.25-29C41.41,56.84,33.25,57,28.41,58Z"/><path class="cls-8" d="M29.41,236.15c-.22,2.72-1,5-1.15,7.22s.3,4.76.41,7.83c.32,3.27-1.15,5.78-1.72,8.6-2.88,14.38.17,18-3,29-1,3.58-2.12,4.84-2.65,6.38-.72,2.09-.05,4.63-.8,8.77-1,5.35-3.59,10.77-2.7,13.76s7.39,5.59,9.83,5.59c2.93,0,1.5-3.38,1.36-5.46-.21-3.3,1-22.07,2.07-26.19,3.17-11.91,10.32-24.55,11.76-35.87,1.36-10.73.46-12.75,2.9-25.35.28-1.46,5.43-35.23,5.85-48.84l-22,11.07C30.15,205.79,30.49,222.45,29.41,236.15Z"/><path class="cls-7" d="M39.44,226c2.71,11.47.14,22.83-3.36,34-3.92,12.45-7.22,18.05-7.84,31.21-.47,10.12-5.76,20.3-6.12,30.39a14.73,14.73,0,0,0,5.53,1.74c2.93,0,1.5-3.38,1.36-5.46-.21-3.3,1-22.07,2.07-26.19,3.17-11.91,10.32-24.55,11.76-35.87,1.36-10.73.46-12.75,2.9-25.35.28-1.46,5.43-35.23,5.85-48.84l-15,7.57C38.81,201.39,36.57,213.88,39.44,226Z"/><path class="cls-18" d="M29,314.48c-.47,2.25-4.93,3.46-7.08.5a16,16,0,0,1-2.35-6.68c0-.09-.05-.18-.07-.27-1.1,3.88-2.37,7.45-1.71,9.67.84,2.84,7.39,5.59,9.83,5.59,2.93,0,1.5-3.38,1.36-5.46C29,317.2,29,316,29,314.48Z"/><path class="cls-7" d="M41.81,101.87c-6.55,1.8-5.08-5.46-5.93-11.82L27,93.19c1.11,6,2,10.2-2.87,12.07a92,92,0,0,1-9.69,3c-4.29,1-6.55,31.64-7.39,39.77l7.57,3c1.69-5.84,5.05-15.49,5.05-22.57l28.82-3.8-2.38-9.76,9.71-3.46C53.35,101.19,49.62,99.73,41.81,101.87Z"/><path class="cls-8" d="M41.81,101.87c-6.55,1.8-5.08-5.46-5.93-11.82L27,93.19c.22,1.17.42,2.26.58,3.29,2.41,3.62,7.18,9.22,11.39,8.7,2.27-.28,4.35-2.89,7-3.21a13.73,13.73,0,0,1,5.56.52C49.18,100.61,46.12,100.69,41.81,101.87Z"/><path class="cls-8" d="M15.77,129.33c-.1,1.43-.2,2.88-.24,4.4-.12,4.4-3.34,11.87-4.39,15.91L14.59,151c1.36-4.68,4.78-13,5-18.44A14.28,14.28,0,0,1,15.77,129.33Z"/><path class="cls-7" d="M36.43,65.69a12.14,12.14,0,0,0-7.72-.77c-7.77,1.37-9.51,8.06-9,14.69.3,3.74.53,7,2.28,9.92.84,1.39,6,7.38,9.62,7.38,4,0,8.76-6.7,9.45-8.55.79-2.09,1.1-4.68,1.23-8.51,0-.27,0-.53,0-.79C42.36,73.27,40.82,67.87,36.43,65.69Z"/><path class="cls-8" d="M36.43,65.69c-2.68-.79-6.11-.76-10.45.69,0,0,3.57,12.06,16.33,12.68C42.36,73.27,40.82,67.87,36.43,65.69Z"/><path class="cls-7" d="M43.14,300c-.54-1.55-1.76-1.23-2.79-4.81-3.15-11,0-16.19-2.84-30.57-.57-2.82-2-5.33-1.73-8.6.12-3.07.58-5.46.42-7.83s-.93-4.5-1.15-7.22c-.69-8.76-.8-12.23-.66-25,.22-19.23,1.76-28.35-5.23-42.75l-14.57.05L12.87,186.4a299.7,299.7,0,0,0,5.24,47.77c2.43,12.59,3.06,17,5.35,27.4,2.45,11.14,11.8,38.46,12.15,42.81.09,1.18.34,16.25.58,18.28s0,7.06,2.82,7.06c2.45,0,7-5.28,7.63-7.19,1-3-1.72-8.42-2.7-13.77C43.19,304.62,43.86,302.08,43.14,300Z"/><path class="cls-18" d="M38.44,322.54c-1,0-1.69-1.09-2.36-1.7,0,.85.07,1.5.11,1.82.24,2.08,0,7.06,2.82,7.06,2.45,0,7-5.28,7.63-7.19.69-2.19-.56-5.71-1.66-9.54C44.81,313.7,43.48,322.54,38.44,322.54Z"/><path class="cls-20" d="M56.63,158.63c-4.37,1.12-30.75,5.3-40.39-.26-.73,4.22-8.34,10.09-8.34,23.49,0,19.55,8.26,58.77,8.26,58.77s18.44,5.11,31.49.76C52.93,216,60.2,189.51,58,170.3,58,169.73,56.72,159.24,56.63,158.63Z"/><path class="cls-15" d="M56.66,158.86c-.07.08-.12.17-.2.25-9.19,9.41-23.67,9.84-21.16,14.83,1.79,3.55,11.38,10.16,13.8,12.38,5.19,4.78-9.52,11.06-8.51,22.21.47,5.18-2.17,14.55-3.56,19.56-2.13,7.7-13,7.13-18,13.23,5.69,1.23,18.69,3.37,28.59.07C52.93,216,60.2,189.51,58,170.3,58,169.77,56.88,160.55,56.66,158.86Z"/><path class="cls-20" d="M58.06,104.58c-4.81-5.27-15.18-3.84-15.18-3.84-3.87,3.5-11.46,8.91-11.46,8.91l-11.13-3.48S9.2,106.57,7.86,117c-.45,3.49,6.71,3,6.71,8a10.61,10.61,0,0,0,4.14,8.12,73.59,73.59,0,0,1,.86,14.66c-.37,6.61-4.34,6.07-3.72,9.76,1.06,6.28,38.09,5,41.19,1.3,3.29-3.9.06-27.15-1.35-39.35C54.85,112.26,60.79,107.57,58.06,104.58Z"/><path class="cls-15" d="M58.06,104.58c-4.81-5.27-15.18-3.84-15.18-3.84-3.87,3.5-11.46,8.91-11.46,8.91l-11.13-3.48A16.23,16.23,0,0,0,14,108a42.3,42.3,0,0,1,4.51,1.9c14.64,7.67,13,18.24,8.49,20.4-3.07,1.47,7.31,11.75,7.31,20.81,0,3.85,9.12,0,12.23-2.34,2.81-2.15,4.69-.13,1.92,2-5.17,3.94-10.3,8-19.64,8.1a24.66,24.66,0,0,0-7.95,1.74c10.45,2.56,33.77,1.14,36.2-1.75,3.29-3.9.06-27.15-1.35-39.35C54.85,112.26,60.79,107.57,58.06,104.58Zm-6.2,18.47c-1.23,1.82-2.26,4.37-1.71,6.59.85,3.44-1.75,4.65-4.71,2.71-1.7-1.11-8.38,2.85-12.26,2.2-3.49-.6-1.1-2.29.13-2.12,4,.53,12-8.58,13.65-12.46.86-2,4.2-2.78,5.37-1.45C53.39,119.26,52.79,121.67,51.86,123.05Z"/><path class="cls-8" d="M31.33,87.24a2.83,2.83,0,0,0-1.95.61c-.29.39.5.6.89.63.15,0,.45.06.66.1a2.16,2.16,0,0,0,1,0,6.26,6.26,0,0,1,.66-.1c.39,0,1.08-.19.89-.63A3.53,3.53,0,0,0,31.33,87.24Z"/><path class="cls-19" d="M24.83,63.61s5.06,15.06,23.74,13.14C48.57,76.75,46.35,57.28,24.83,63.61Z"/><path class="cls-7" d="M48.91,154.79c-1.2-.14-3.29.09-2.17-1.55,1.4-2.05-5.22-.76-7.42,1-1,.83-2.16.48-3.32.45-4.95-.13-11.65-3.59-20.94-4.93-3.14-.46-4.86-1.2-8-1.77-.46,3.22.44,6.61,1.71,7.8,4.91,4.6,10.39,4,15.15,4.23s6.24-.19,12.92.82a58.31,58.31,0,0,0,10,1c1.79-.09,2.76-.1,2.82-1.46a1.67,1.67,0,0,0,1.72-1.75,1.22,1.22,0,0,0,1.2-1.69c1.66.09,3.11.08,2.82-1.19C55.25,155.12,50.51,155,48.91,154.79Z"/><path class="cls-8" d="M40.49,160.48c-1.6-.42-3-1.68-4.38-2.57-8.3,0-11-6.15-29-6.15a7.46,7.46,0,0,0,1.67,4c4.91,4.6,10.39,4,15.15,4.23s6.24-.19,12.92.82a58.31,58.31,0,0,0,10,1c1.55-.08,2.48-.1,2.74-1A24.39,24.39,0,0,1,40.49,160.48Z"/><path class="cls-9" d="M0,151.1H0a1.81,1.81,0,0,0,1.81,1.81H44.39a1.81,1.81,0,0,0,1.81-1.81H0Z"/><path class="cls-9" d="M50.8,113.56l-8.88,37.06c-.14.6,0,2.3,2.2,2.3l36.08-.45V111.12H54.07A3.3,3.3,0,0,0,50.8,113.56Z"/><path class="cls-5" d="M99.82,111.11H53.7a1.06,1.06,0,0,0-1,.78l-9.5,39.69a1.06,1.06,0,0,0,1,1.34h43a5.24,5.24,0,0,0,5-3.84l8.65-36.62A1.07,1.07,0,0,0,99.82,111.11Z"/><path class="cls-7" d="M41.44,153.13l2.81,1a6.11,6.11,0,0,0,3.43-1.44c1.82.08,3-.73,3.19-2a17.69,17.69,0,0,1-4.4.51Z"/><polygon class="cls-9" points="109.56 168.12 171.67 110.65 107.17 165.42 109.56 168.12"/><path class="cls-7" d="M112.56,165.05l-4.7-1.22c-.45-.13-.53.47-.35.74.67,1,4.9,2.12,4.9,2.12a.66.66,0,0,0,.89-.58A1.05,1.05,0,0,0,112.56,165.05Z"/><path class="cls-7" d="M119.76,162.17l-6.37-2.83c-.61-.28-.87.49-.68.9.72,1.48,6.45,4.07,6.45,4.07a.94.94,0,0,0,1.39-.55A1.43,1.43,0,0,0,119.76,162.17Z"/><path class="cls-7" d="M117.13,163l-6.37-2.83c-.6-.29-.87.49-.68.89.72,1.49,6.45,4.08,6.45,4.08a1,1,0,0,0,1.4-.55A1.45,1.45,0,0,0,117.13,163Z"/><path class="cls-7" d="M114.85,164.27,109,161.69c-.55-.26-.8.45-.62.82.65,1.35,5.88,3.71,5.88,3.71a.86.86,0,0,0,1.27-.5A1.31,1.31,0,0,0,114.85,164.27Z"/><path class="cls-21" d="M102.43,24.87c-.81-1.8-3.1-.61-3.28.88a175.61,175.61,0,0,0-1.32,18.61,91.4,91.4,0,0,0,.61,13.94l-.31-.07c-2.11-.44-3.77,2.68-1.57,3.7a23,23,0,0,0,3,1.13.84.84,0,0,0,.55.17,42.07,42.07,0,0,0,15.88.93c1.16-.13,2.56-1.23,2-2.6C112.82,49.32,107.86,37,102.43,24.87Z"/><path class="cls-21" d="M152.38,57.31Q151.12,42,149.85,26.74c-.14-1.76-2.76-2.94-3.68-1-2.72,5.77-5.47,11.52-8.14,17.32-1.32,2.84-2.64,5.68-3.91,8.55-.58,1.32-1.21,2.65-1.79,4h-.85a2.15,2.15,0,0,0-.64,4.16c-.05.2-.11.39-.15.59-.22,1,1.12,2,1.84,1.07a19.22,19.22,0,0,0,1.15-1.64c5.55-.13,11.1-.31,16.66-.45A2,2,0,0,0,152.38,57.31Z"/><path class="cls-22" d="M150.5,34.5c-1.61,1.62-3,3.64-4.25,4.76-.82.74-2.41,1.5-3.75.74s-1.42-2.27-1.34-3.66c-1,2.23-2.1,4.47-3.13,6.72l-.36.77a9.9,9.9,0,0,0,7.9,3.45,10.37,10.37,0,0,0,5.77-2.57Z"/><path class="cls-22" d="M107.45,36.4a47.77,47.77,0,0,0-2.78,5.54q-1.1,2.34-2,4.76a28.4,28.4,0,0,0-4.79-4.64c0,.77,0,1.53,0,2.3,0,2.6,0,5.21.07,7.81,1,1.31,2.07,2.6,3.06,3.9,1.84,2.4,5.67,2.36,6.65-.87a69,69,0,0,1,3.69-9.65Q109.4,41,107.45,36.4Z"/><path class="cls-23" d="M156.39,38,140.88,49.08Q135.62,29.55,130.32,10a4.21,4.21,0,0,0-8-.5Q115,27.81,107.75,46.11q-1.73,4.37-3.43,8.72c-.17.43-.69,1.33-1.06,2.13-.35-.32-.75-.63-1-.84-4.63-4.64-9.35-9.2-14-13.81a3.81,3.81,0,0,0-6.52,3.28q1.43,11.8,2.86,23.59c.79,6.49,1.32,13.18,2.75,19.6-1,3,1.17,6.89,5.07,6a159.06,159.06,0,0,1,61.29-1.65c2.43.42,4.47-2,4.69-4.15,1.63-15.89,3.05-31.81,4.76-47.7C163.62,37.46,159.05,36.09,156.39,38Z"/><path class="cls-24" d="M156.39,38,140.88,49.08l-1.71-6.32,0,.06c-1.42,3-.38,6.85,3.17,7.81,3.34.9,6.5-.35,9.63-1.41a33.09,33.09,0,0,0,8.42-4.48c.93-.67,1.83-1.39,2.71-2.14,0-.43.09-.85.13-1.28C163.62,37.46,159.05,36.09,156.39,38Z"/><path class="cls-24" d="M132.65,18.63c-.78-2.87-1.55-5.74-2.33-8.61a4.21,4.21,0,0,0-8-.5Q115,27.81,107.75,46.11q-1.73,4.37-3.43,8.72c-.17.43-.69,1.33-1.06,2.13-.35-.32-.75-.63-1-.84-1.62-1.62-3.26-3.24-4.9-4.86a6.74,6.74,0,0,0,.52,2.1c1.2,2.84,3.38,4.09,6.4,4.5s6.53-2.38,8.5-4.5a54.16,54.16,0,0,0,4.94-6.24c2.47-3.57,4.74-7.3,6.88-11.07a111.32,111.32,0,0,0,5.5-11.44C131,22.63,131.84,20.64,132.65,18.63Z"/><path class="cls-24" d="M93.59,90.14c0-5.93-.31-11.87-.85-17.78A171.36,171.36,0,0,0,89.9,53.65c-.59-2.86-1.3-5.65-2.17-8.44a42.64,42.64,0,0,0-1.44-4,3.82,3.82,0,0,0-4.51,4.4q1.43,11.8,2.86,23.59c.79,6.49,1.32,13.18,2.75,19.6-1,3,1.17,6.89,5.07,6l1.1-.23C93.59,93.11,93.6,91.63,93.59,90.14Z"/><path class="cls-21" d="M141,49l-1.09-3.6c-2.51-9.3-3.44-12.84-6-22.14-.89,1.87-3.17,9.17-1.41,14.1S140,50.49,141,49Z"/><path class="cls-21" d="M153.77,67h0l.12-.16c-.94,1.09-1,1.21-.81,1s.17-.18.25-.28Z"/><path class="cls-21" d="M158.44,89c1.25-12.21,2.38-24.44,3.61-36.65-1.44,3-2.91,5.89-4.54,8.74-.74,1.3-1.51,2.58-2.34,3.84-.41.63-.84,1.25-1.28,1.87l.37-.43c-.17.19-.33.39-.49.59a9.77,9.77,0,0,1-.69.83,36,36,0,0,1-3,3.09c-.43.41-.88.79-1.33,1.17s-.72.51-1.08.75a36.25,36.25,0,0,1-3.91,2.28,3.15,3.15,0,0,1-.87.45l-.27.1-.49.23.36-.18c-.78.29-1.56.57-2.35.83-6.81,2.21-14.05,3.27-21.05,4.76a69.44,69.44,0,0,0-11.9,3.51,34.06,34.06,0,0,0-6.34,3.43,12.73,12.73,0,0,0-2.17,1.61l-1,1.3c.73-.89.55-.65-.52.71l-.55.7c-.36.5-.69,1-1,1.54l-.06.09a158.12,158.12,0,0,1,58.19-1l.26,0c1.18-.54,2.34-1.13,3.47-1.77A5,5,0,0,0,158.44,89Z"/><path class="cls-21" d="M143.12,75.44l.68-.34c-.09,0-.45.19-1.27.6l.13,0Z"/><path class="cls-23" d="M134.54,14c0,.2,2.49,4,2.79,5.34a18,18,0,0,1,1.24,5,17.43,17.43,0,0,1,1.15-5c.28-1.3,2.69-5.18,2.71-5.38a3.25,3.25,0,0,0-.84-2.08,13.93,13.93,0,0,1-1.84-2.61,12,12,0,0,1-1.11-3.11c-.06-.76-.1-1.52-.13-2.28a.46.46,0,0,0-.11-.28.67.67,0,0,0-.1.28c0,.76,0,1.52-.1,2.28a11.55,11.55,0,0,1-1,3.13,14.7,14.7,0,0,1-1.8,2.64A3.25,3.25,0,0,0,134.54,14Z"/><path class="cls-24" d="M157.45,19.92a26.25,26.25,0,0,1,1.66,3.17,10.65,10.65,0,0,1,.73,3,10.3,10.3,0,0,1,.69-3,23.63,23.63,0,0,1,1.61-3.19,2,2,0,0,0-.51-1.24,8.38,8.38,0,0,1-1.09-1.55,7,7,0,0,1-.65-1.84c0-.45-.06-.9-.08-1.35a.35.35,0,0,0-.06-.17.27.27,0,0,0-.06.17c0,.45,0,.9-.06,1.35a6.93,6.93,0,0,1-.63,1.86,8.6,8.6,0,0,1-1.06,1.56A2,2,0,0,0,157.45,19.92Z"/><path class="cls-23" d="M130.7,2.19A6.2,6.2,0,0,0,125.82,0a4.65,4.65,0,0,0-4.08,2.83,4.54,4.54,0,0,0-.67,3.77,5.7,5.7,0,0,0,5.33,4,6.28,6.28,0,0,0,4.36-2.14,6,6,0,0,0,1.13-3.43A4.12,4.12,0,0,0,130.7,2.19Z"/><path class="cls-24" d="M126.78,2.94a2.33,2.33,0,0,0-1.84-.82,1.73,1.73,0,0,0-1.53,1.06,1.75,1.75,0,0,0-.26,1.42,2.16,2.16,0,0,0,2,1.53,2.37,2.37,0,0,0,1.64-.81A2.22,2.22,0,0,0,127.23,4,1.54,1.54,0,0,0,126.78,2.94Z"/><path class="cls-23" d="M87.34,37.45a6.23,6.23,0,0,0-4.89-2.19,4.62,4.62,0,0,0-4.07,2.83,4.58,4.58,0,0,0-.68,3.77,5.72,5.72,0,0,0,5.34,4,6.28,6.28,0,0,0,4.35-2.14,6,6,0,0,0,1.13-3.43A4.11,4.11,0,0,0,87.34,37.45Z"/><path class="cls-23" d="M167.37,31.46a6.17,6.17,0,0,0-4.88-2.19,4.64,4.64,0,0,0-4.08,2.82,4.59,4.59,0,0,0-.68,3.77,5.73,5.73,0,0,0,5.34,4,6.28,6.28,0,0,0,4.35-2.14,6,6,0,0,0,1.14-3.44A4.07,4.07,0,0,0,167.37,31.46Z"/><path class="cls-21" d="M103.91,19.12A6.23,6.23,0,0,0,99,16.92,4.64,4.64,0,0,0,95,19.75a4.59,4.59,0,0,0-.68,3.77,5.71,5.71,0,0,0,5.34,4.05A6.32,6.32,0,0,0,104,25.43,6,6,0,0,0,105.09,22,4.06,4.06,0,0,0,103.91,19.12Z"/><path class="cls-21" d="M153.62,19.12a6.21,6.21,0,0,0-4.89-2.2,4.65,4.65,0,0,0-4.07,2.83,4.59,4.59,0,0,0-.68,3.77,5.72,5.72,0,0,0,5.34,4.05,6.28,6.28,0,0,0,4.35-2.14A6.05,6.05,0,0,0,154.81,22,4.07,4.07,0,0,0,153.62,19.12Z"/><path class="cls-24" d="M83.42,37.85A2.38,2.38,0,0,0,81.57,37a2.18,2.18,0,0,0-1.79,2.49,2.18,2.18,0,0,0,2,1.52,2.38,2.38,0,0,0,1.64-.8,2.29,2.29,0,0,0,.42-1.3A1.55,1.55,0,0,0,83.42,37.85Z"/><path class="cls-24" d="M163.49,32.21a2.07,2.07,0,0,0-1.68-.83,1.61,1.61,0,0,0-1.41,1.06,1.88,1.88,0,0,0-.23,1.43A2,2,0,0,0,162,35.39a2.08,2.08,0,0,0,1.5-.81,2.36,2.36,0,0,0,.39-1.29A1.61,1.61,0,0,0,163.49,32.21Z"/></g></g></svg>